<svg width="420" height="110" viewBox="0 0 420 110" fill="none" xmlns="http://www.w3.org/2000/svg">
<rect x="0.5" y="0.5" width="419" height="109" rx="11.5" stroke="white" stroke-opacity="0.1"/>
<path d="M29.216 43V20.6H35.552V43H29.216ZM14.24 43V20.6H20.576V43H14.24ZM20.128 34.264V29.016H29.664V34.264H20.128ZM49.4613 43.288C47.4132 43.288 45.6212 42.904 44.0852 42.136C42.5706 41.3467 41.3866 40.28 40.5332 38.936C39.7012 37.5707 39.2852 36.024 39.2852 34.296C39.2852 32.568 39.6906 31.032 40.5012 29.688C41.3332 28.3227 42.4746 27.2667 43.9252 26.52C45.3759 25.752 47.0079 25.368 48.8212 25.368C50.5279 25.368 52.0853 25.72 53.4932 26.424C54.9012 27.1067 56.0212 28.12 56.8533 29.464C57.6852 30.808 58.1012 32.44 58.1012 34.36C58.1012 34.5733 58.0906 34.8187 58.0693 35.096C58.0479 35.3733 58.0266 35.6293 58.0053 35.864H44.2772V32.664H54.7733L52.4692 33.56C52.4906 32.7707 52.3413 32.088 52.0212 31.512C51.7226 30.936 51.2959 30.488 50.7413 30.168C50.2079 29.848 49.5786 29.688 48.8532 29.688C48.1279 29.688 47.4879 29.848 46.9332 30.168C46.3999 30.488 45.9839 30.9467 45.6852 31.544C45.3866 32.12 45.2372 32.8027 45.2372 33.592V34.52C45.2372 35.3733 45.4079 36.1093 45.7492 36.728C46.1119 37.3467 46.6239 37.8267 47.2852 38.168C47.9466 38.488 48.7359 38.648 49.6532 38.648C50.5066 38.648 51.2319 38.5307 51.8293 38.296C52.4479 38.04 53.0559 37.656 53.6532 37.144L56.8533 40.472C56.0212 41.3893 54.9972 42.0933 53.7812 42.584C52.5652 43.0533 51.1252 43.288 49.4613 43.288ZM64.5205 49.496C63.6032 49.496 62.6752 49.3467 61.7365 49.048C60.8192 48.7707 60.0725 48.3973 59.4965 47.928L61.6085 43.672C61.9712 43.992 62.3872 44.2373 62.8565 44.408C63.3472 44.6 63.8272 44.696 64.2965 44.696C64.9578 44.696 65.4805 44.5467 65.8645 44.248C66.2485 43.9493 66.5792 43.48 66.8565 42.84L67.6565 40.824L68.1365 40.216L74.0245 25.656H79.8165L72.3285 43.704C71.7312 45.1973 71.0378 46.36 70.2485 47.192C69.4805 48.0453 68.6165 48.6427 67.6565 48.984C66.7178 49.3253 65.6725 49.496 64.5205 49.496ZM66.8885 43.736L59.2405 25.656H65.4805L71.1125 39.672L66.8885 43.736ZM80.3562 48.024L82.7562 39.704L83.6202 43.16C82.5536 43.16 81.6789 42.8507 80.9962 42.232C80.3136 41.592 79.9722 40.7387 79.9722 39.672C79.9722 38.5627 80.3136 37.688 80.9962 37.048C81.7002 36.408 82.5749 36.088 83.6202 36.088C84.6656 36.088 85.5296 36.4187 86.2122 37.08C86.8949 37.72 87.2362 38.584 87.2362 39.672C87.2362 39.9707 87.2149 40.2693 87.1722 40.568C87.1296 40.8667 87.0336 41.2293 86.8842 41.656C86.7349 42.0827 86.5002 42.648 86.1802 43.352L84.1642 48.024H80.3562ZM100.971 43V20.6H107.307V43H100.971ZM111.495 30.904L113.895 22.584L114.759 26.04C113.692 26.04 112.818 25.7307 112.135 25.112C111.452 24.472 111.111 23.6187 111.111 22.552C111.111 21.464 111.452 20.6 112.135 19.96C112.839 19.2987 113.714 18.968 114.759 18.968C115.804 18.968 116.668 19.2987 117.351 19.96C118.034 20.6 118.375 21.464 118.375 22.552C118.375 22.8507 118.354 23.16 118.311 23.48C118.268 23.7787 118.172 24.1413 118.023 24.568C117.895 24.9733 117.671 25.528 117.351 26.232L115.303 30.904H111.495ZM121.87 43V25.656H127.662V30.488L126.51 29.112C127.15 27.8747 128.024 26.9467 129.134 26.328C130.243 25.688 131.48 25.368 132.846 25.368C134.403 25.368 135.768 25.7733 136.942 26.584C138.136 27.3733 138.936 28.6107 139.342 30.296L137.358 29.88C137.976 28.472 138.904 27.3733 140.142 26.584C141.4 25.7733 142.84 25.368 144.462 25.368C145.806 25.368 147 25.6453 148.046 26.2C149.112 26.7333 149.944 27.5653 150.542 28.696C151.16 29.8267 151.47 31.288 151.47 33.08V43H145.39V34.072C145.39 32.8347 145.155 31.9387 144.686 31.384C144.216 30.808 143.576 30.52 142.766 30.52C142.19 30.52 141.667 30.6587 141.198 30.936C140.728 31.2133 140.366 31.64 140.11 32.216C139.854 32.7707 139.726 33.496 139.726 34.392V43H133.646V34.072C133.646 32.8347 133.411 31.9387 132.942 31.384C132.494 30.808 131.854 30.52 131.022 30.52C130.424 30.52 129.891 30.6587 129.422 30.936C128.974 31.2133 128.611 31.64 128.334 32.216C128.078 32.7707 127.95 33.496 127.95 34.392V43H121.87ZM174.059 43.448C172.225 43.448 170.454 43.224 168.747 42.776C167.062 42.3067 165.686 41.7093 164.619 40.984L166.699 36.312C167.702 36.952 168.854 37.4853 170.155 37.912C171.478 38.3173 172.79 38.52 174.091 38.52C174.966 38.52 175.67 38.4453 176.203 38.296C176.737 38.1253 177.121 37.912 177.355 37.656C177.611 37.3787 177.739 37.0587 177.739 36.696C177.739 36.184 177.505 35.7787 177.035 35.48C176.566 35.1813 175.958 34.936 175.211 34.744C174.465 34.552 173.633 34.36 172.715 34.168C171.819 33.976 170.913 33.7307 169.995 33.432C169.099 33.1333 168.278 32.7493 167.531 32.28C166.785 31.7893 166.177 31.16 165.707 30.392C165.238 29.6027 165.003 28.6107 165.003 27.416C165.003 26.072 165.366 24.856 166.091 23.768C166.838 22.68 167.947 21.8053 169.419 21.144C170.891 20.4827 172.726 20.152 174.923 20.152C176.395 20.152 177.835 20.3227 179.243 20.664C180.673 20.984 181.942 21.464 183.051 22.104L181.099 26.808C180.033 26.232 178.977 25.8053 177.931 25.528C176.886 25.2293 175.873 25.08 174.891 25.08C174.017 25.08 173.313 25.176 172.779 25.368C172.246 25.5387 171.862 25.7733 171.627 26.072C171.393 26.3707 171.275 26.712 171.275 27.096C171.275 27.5867 171.499 27.9813 171.947 28.28C172.417 28.5573 173.025 28.792 173.771 28.984C174.539 29.1547 175.371 29.336 176.267 29.528C177.185 29.72 178.091 29.9653 178.987 30.264C179.905 30.5413 180.737 30.9253 181.483 31.416C182.23 31.8853 182.827 32.5147 183.275 33.304C183.745 34.072 183.979 35.0427 183.979 36.216C183.979 37.5173 183.606 38.7227 182.859 39.832C182.134 40.92 181.035 41.7947 179.563 42.456C178.113 43.1173 176.278 43.448 174.059 43.448ZM197.85 43V39.768L197.434 38.968V33.016C197.434 32.056 197.136 31.32 196.538 30.808C195.962 30.2747 195.034 30.008 193.754 30.008C192.922 30.008 192.08 30.1467 191.226 30.424C190.373 30.68 189.648 31.0427 189.05 31.512L187.002 27.384C187.984 26.744 189.157 26.2533 190.522 25.912C191.909 25.5493 193.285 25.368 194.65 25.368C197.466 25.368 199.642 26.0187 201.178 27.32C202.736 28.6 203.514 30.616 203.514 33.368V43H197.85ZM192.73 43.288C191.344 43.288 190.17 43.0533 189.21 42.584C188.25 42.1147 187.514 41.4747 187.002 40.664C186.512 39.8533 186.266 38.9467 186.266 37.944C186.266 36.8773 186.533 35.96 187.066 35.192C187.621 34.4027 188.464 33.8053 189.594 33.4C190.725 32.9733 192.186 32.76 193.978 32.76H198.074V35.928H194.81C193.829 35.928 193.136 36.088 192.73 36.408C192.346 36.728 192.154 37.1547 192.154 37.688C192.154 38.2213 192.357 38.648 192.762 38.968C193.168 39.288 193.722 39.448 194.426 39.448C195.088 39.448 195.685 39.288 196.218 38.968C196.773 38.6267 197.178 38.1147 197.434 37.432L198.266 39.672C197.946 40.8667 197.317 41.7733 196.378 42.392C195.461 42.9893 194.245 43.288 192.73 43.288ZM218.904 43.288C217.347 43.288 216.045 42.968 215 42.328C213.976 41.688 213.208 40.7067 212.696 39.384C212.184 38.0613 211.928 36.3653 211.928 34.296C211.928 32.2693 212.195 30.5947 212.728 29.272C213.283 27.9493 214.083 26.968 215.128 26.328C216.173 25.688 217.432 25.368 218.904 25.368C220.483 25.368 221.912 25.7307 223.192 26.456C224.493 27.1813 225.517 28.216 226.264 29.56C227.032 30.8827 227.416 32.4613 227.416 34.296C227.416 36.152 227.032 37.752 226.264 39.096C225.517 40.4187 224.493 41.4533 223.192 42.2C221.912 42.9253 220.483 43.288 218.904 43.288ZM207.992 43V19.256H214.072V28.568L213.752 34.296L213.784 40.024V43H207.992ZM217.624 38.456C218.307 38.456 218.915 38.296 219.448 37.976C220.003 37.656 220.44 37.1867 220.76 36.568C221.101 35.928 221.272 35.1707 221.272 34.296C221.272 33.4213 221.101 32.6853 220.76 32.088C220.44 31.4693 220.003 31 219.448 30.68C218.915 30.36 218.307 30.2 217.624 30.2C216.941 30.2 216.323 30.36 215.768 30.68C215.235 31 214.797 31.4693 214.456 32.088C214.136 32.6853 213.976 33.4213 213.976 34.296C213.976 35.1707 214.136 35.928 214.456 36.568C214.797 37.1867 215.235 37.656 215.768 37.976C216.323 38.296 216.941 38.456 217.624 38.456ZM233.389 49.496C232.472 49.496 231.544 49.3467 230.605 49.048C229.688 48.7707 228.941 48.3973 228.365 47.928L230.477 43.672C230.84 43.992 231.256 44.2373 231.725 44.408C232.216 44.6 232.696 44.696 233.165 44.696C233.827 44.696 234.349 44.5467 234.733 44.248C235.117 43.9493 235.448 43.48 235.725 42.84L236.525 40.824L237.005 40.216L242.893 25.656H248.685L241.197 43.704C240.6 45.1973 239.907 46.36 239.117 47.192C238.349 48.0453 237.485 48.6427 236.525 48.984C235.587 49.3253 234.541 49.496 233.389 49.496ZM235.757 43.736L228.109 25.656H234.349L239.981 39.672L235.757 43.736ZM250.897 43V25.656H256.689V30.712L255.825 29.272C256.337 27.9707 257.169 27 258.321 26.36C259.473 25.6987 260.87 25.368 262.513 25.368V30.84C262.236 30.7973 261.99 30.776 261.777 30.776C261.585 30.7547 261.372 30.744 261.137 30.744C259.9 30.744 258.897 31.0853 258.129 31.768C257.361 32.4293 256.977 33.5173 256.977 35.032V43H250.897ZM270.718 39.8L270.878 32.536L277.95 25.656H285.15L277.31 33.752L274.206 36.248L270.718 39.8ZM265.662 43V19.256H271.742V43H265.662ZM278.398 43L273.086 36.344L276.862 31.672L285.758 43H278.398ZM298.238 43V39.768L297.822 38.968V33.016C297.822 32.056 297.523 31.32 296.926 30.808C296.35 30.2747 295.422 30.008 294.142 30.008C293.31 30.008 292.467 30.1467 291.614 30.424C290.76 30.68 290.035 31.0427 289.438 31.512L287.39 27.384C288.371 26.744 289.544 26.2533 290.91 25.912C292.296 25.5493 293.672 25.368 295.038 25.368C297.854 25.368 300.03 26.0187 301.566 27.32C303.123 28.6 303.902 30.616 303.902 33.368V43H298.238ZM293.118 43.288C291.731 43.288 290.558 43.0533 289.598 42.584C288.638 42.1147 287.902 41.4747 287.39 40.664C286.899 39.8533 286.654 38.9467 286.654 37.944C286.654 36.8773 286.92 35.96 287.454 35.192C288.008 34.4027 288.851 33.8053 289.982 33.4C291.112 32.9733 292.574 32.76 294.366 32.76H298.462V35.928H295.198C294.216 35.928 293.523 36.088 293.118 36.408C292.734 36.728 292.542 37.1547 292.542 37.688C292.542 38.2213 292.744 38.648 293.15 38.968C293.555 39.288 294.11 39.448 294.814 39.448C295.475 39.448 296.072 39.288 296.606 38.968C297.16 38.6267 297.566 38.1147 297.822 37.432L298.654 39.672C298.334 40.8667 297.704 41.7733 296.766 42.392C295.848 42.9893 294.632 43.288 293.118 43.288Z" fill="white"/>
<path d="M13.034 71V63.3H18.655V64.499H14.464V71H13.034ZM14.343 68.052V66.842H18.182V68.052H14.343ZM20.0185 71V65.126H21.3275V66.743L21.1735 66.27C21.3495 65.874 21.6245 65.5733 21.9985 65.368C22.3798 65.1627 22.8528 65.06 23.4175 65.06V66.369C23.3588 66.3543 23.3038 66.347 23.2525 66.347C23.2012 66.3397 23.1498 66.336 23.0985 66.336C22.5778 66.336 22.1635 66.49 21.8555 66.798C21.5475 67.0987 21.3935 67.5497 21.3935 68.151V71H20.0185ZM27.3902 71.077C26.7889 71.077 26.2535 70.9487 25.7842 70.692C25.3149 70.428 24.9445 70.0687 24.6732 69.614C24.4019 69.1593 24.2662 68.6423 24.2662 68.063C24.2662 67.4763 24.4019 66.9593 24.6732 66.512C24.9445 66.0573 25.3149 65.7017 25.7842 65.445C26.2535 65.1883 26.7889 65.06 27.3902 65.06C27.9989 65.06 28.5379 65.1883 29.0072 65.445C29.4839 65.7017 29.8542 66.0537 30.1182 66.501C30.3895 66.9483 30.5252 67.469 30.5252 68.063C30.5252 68.6423 30.3895 69.1593 30.1182 69.614C29.8542 70.0687 29.4839 70.428 29.0072 70.692C28.5379 70.9487 27.9989 71.077 27.3902 71.077ZM27.3902 69.9C27.7275 69.9 28.0282 69.8267 28.2922 69.68C28.5562 69.5333 28.7615 69.3207 28.9082 69.042C29.0622 68.7633 29.1392 68.437 29.1392 68.063C29.1392 67.6817 29.0622 67.3553 28.9082 67.084C28.7615 66.8053 28.5562 66.5927 28.2922 66.446C28.0282 66.2993 27.7312 66.226 27.4012 66.226C27.0639 66.226 26.7632 66.2993 26.4992 66.446C26.2425 66.5927 26.0372 66.8053 25.8832 67.084C25.7292 67.3553 25.6522 67.6817 25.6522 68.063C25.6522 68.437 25.7292 68.7633 25.8832 69.042C26.0372 69.3207 26.2425 69.5333 26.4992 69.68C26.7632 69.8267 27.0602 69.9 27.3902 69.9ZM32.06 71V65.126H33.369V66.71L33.138 66.226C33.3434 65.852 33.6404 65.566 34.029 65.368C34.425 65.1627 34.8797 65.06 35.393 65.06C35.8624 65.06 36.2804 65.1517 36.647 65.335C37.021 65.5183 37.3144 65.8007 37.527 66.182C37.7397 66.556 37.846 67.04 37.846 67.634V71H36.471V67.81C36.471 67.2893 36.3464 66.9007 36.097 66.644C35.855 66.3873 35.514 66.259 35.074 66.259C34.7514 66.259 34.4654 66.325 34.216 66.457C33.9667 66.589 33.7724 66.787 33.633 67.051C33.501 67.3077 33.435 67.634 33.435 68.03V71H32.06ZM42.0213 71.077C41.376 71.077 40.8773 70.912 40.5253 70.582C40.1733 70.2447 39.9973 69.7497 39.9973 69.097V63.828H41.3723V69.064C41.3723 69.3427 41.442 69.559 41.5813 69.713C41.728 69.867 41.9297 69.944 42.1863 69.944C42.4943 69.944 42.751 69.8633 42.9563 69.702L43.3413 70.681C43.18 70.813 42.982 70.912 42.7473 70.978C42.5127 71.044 42.2707 71.077 42.0213 71.077ZM39.0293 66.226V65.126H42.9453V66.226H39.0293ZM47.2601 71.077C46.6074 71.077 46.0354 70.9487 45.5441 70.692C45.0601 70.428 44.6824 70.0687 44.4111 69.614C44.1471 69.1593 44.0151 68.6423 44.0151 68.063C44.0151 67.4763 44.1434 66.9593 44.4001 66.512C44.6641 66.0573 45.0234 65.7017 45.4781 65.445C45.9401 65.1883 46.4644 65.06 47.0511 65.06C47.6231 65.06 48.1327 65.1847 48.5801 65.434C49.0274 65.6833 49.3794 66.0353 49.6361 66.49C49.8927 66.9447 50.0211 67.48 50.0211 68.096C50.0211 68.1547 50.0174 68.2207 50.0101 68.294C50.0101 68.3673 50.0064 68.437 49.9991 68.503H45.1041V67.59H49.2731L48.7341 67.876C48.7414 67.5387 48.6717 67.2417 48.5251 66.985C48.3784 66.7283 48.1767 66.5267 47.9201 66.38C47.6707 66.2333 47.3811 66.16 47.0511 66.16C46.7137 66.16 46.4167 66.2333 46.1601 66.38C45.9107 66.5267 45.7127 66.732 45.5661 66.996C45.4267 67.2527 45.3571 67.557 45.3571 67.909V68.129C45.3571 68.481 45.4377 68.7927 45.5991 69.064C45.7604 69.3353 45.9877 69.5443 46.2811 69.691C46.5744 69.8377 46.9117 69.911 47.2931 69.911C47.6231 69.911 47.9201 69.8597 48.1841 69.757C48.4481 69.6543 48.6827 69.493 48.8881 69.273L49.6251 70.12C49.3611 70.428 49.0274 70.6663 48.6241 70.835C48.2281 70.9963 47.7734 71.077 47.2601 71.077ZM51.5618 71V65.126H52.8708V66.71L52.6398 66.226C52.8452 65.852 53.1422 65.566 53.5308 65.368C53.9268 65.1627 54.3815 65.06 54.8948 65.06C55.3642 65.06 55.7822 65.1517 56.1488 65.335C56.5228 65.5183 56.8162 65.8007 57.0288 66.182C57.2415 66.556 57.3478 67.04 57.3478 67.634V71H55.9728V67.81C55.9728 67.2893 55.8482 66.9007 55.5988 66.644C55.3568 66.3873 55.0158 66.259 54.5758 66.259C54.2532 66.259 53.9672 66.325 53.7178 66.457C53.4685 66.589 53.2742 66.787 53.1348 67.051C53.0028 67.3077 52.9368 67.634 52.9368 68.03V71H51.5618ZM61.8089 71.077C61.2442 71.077 60.7345 70.9523 60.2799 70.703C59.8325 70.4463 59.4805 70.0943 59.2239 69.647C58.9672 69.1997 58.8389 68.6717 58.8389 68.063C58.8389 67.4543 58.9672 66.9263 59.2239 66.479C59.4805 66.0317 59.8325 65.6833 60.2799 65.434C60.7345 65.1847 61.2442 65.06 61.8089 65.06C62.3002 65.06 62.7402 65.17 63.1289 65.39C63.5175 65.6027 63.8255 65.929 64.0529 66.369C64.2802 66.809 64.3939 67.3737 64.3939 68.063C64.3939 68.745 64.2839 69.3097 64.0639 69.757C63.8439 70.197 63.5395 70.527 63.1509 70.747C62.7622 70.967 62.3149 71.077 61.8089 71.077ZM61.9739 69.9C62.3039 69.9 62.5972 69.8267 62.8539 69.68C63.1179 69.5333 63.3269 69.3207 63.4809 69.042C63.6422 68.7633 63.7229 68.437 63.7229 68.063C63.7229 67.6817 63.6422 67.3553 63.4809 67.084C63.3269 66.8053 63.1179 66.5927 62.8539 66.446C62.5972 66.2993 62.3039 66.226 61.9739 66.226C61.6439 66.226 61.3469 66.2993 61.0829 66.446C60.8262 66.5927 60.6172 66.8053 60.4559 67.084C60.3019 67.3553 60.2249 67.6817 60.2249 68.063C60.2249 68.437 60.3019 68.7633 60.4559 69.042C60.6172 69.3207 60.8262 69.5333 61.0829 69.68C61.3469 69.8267 61.6439 69.9 61.9739 69.9ZM63.7559 71V69.614L63.8109 68.052L63.7009 66.49V62.838H65.0649V71H63.7559ZM76.2617 71.121L71.8617 66.897C71.6123 66.655 71.4107 66.4313 71.2567 66.226C71.1027 66.0207 70.9927 65.8227 70.9267 65.632C70.8607 65.434 70.8277 65.2323 70.8277 65.027C70.8277 64.6677 70.9193 64.3523 71.1027 64.081C71.286 63.8023 71.5463 63.5897 71.8837 63.443C72.221 63.289 72.6133 63.212 73.0607 63.212C73.4787 63.212 73.838 63.2817 74.1387 63.421C74.4467 63.553 74.685 63.7473 74.8537 64.004C75.0297 64.2533 75.1177 64.554 75.1177 64.906C75.1177 65.214 75.0407 65.5 74.8867 65.764C74.7327 66.0207 74.4907 66.2663 74.1607 66.501C73.838 66.7357 73.4053 66.9813 72.8627 67.238C72.4593 67.436 72.1403 67.623 71.9057 67.799C71.671 67.975 71.5023 68.151 71.3997 68.327C71.297 68.503 71.2457 68.6973 71.2457 68.91C71.2457 69.1227 71.308 69.3097 71.4327 69.471C71.5647 69.6323 71.748 69.7607 71.9827 69.856C72.2173 69.944 72.4923 69.988 72.8077 69.988C73.277 69.988 73.7023 69.8853 74.0837 69.68C74.4723 69.4673 74.7987 69.152 75.0627 68.734C75.3267 68.316 75.5173 67.799 75.6347 67.183L76.7457 67.546C76.5917 68.2867 76.324 68.9247 75.9427 69.46C75.5687 69.988 75.1067 70.395 74.5567 70.681C74.0067 70.967 73.3907 71.11 72.7087 71.11C72.1733 71.11 71.693 71.022 71.2677 70.846C70.8423 70.67 70.5087 70.428 70.2667 70.12C70.0247 69.812 69.9037 69.4563 69.9037 69.053C69.9037 68.6863 69.9843 68.3563 70.1457 68.063C70.307 67.7697 70.5637 67.491 70.9157 67.227C71.2677 66.9557 71.7187 66.6843 72.2687 66.413C72.7013 66.2003 73.0387 66.0133 73.2807 65.852C73.53 65.6907 73.7023 65.5367 73.7977 65.39C73.9003 65.2433 73.9517 65.0893 73.9517 64.928C73.9517 64.708 73.8747 64.532 73.7207 64.4C73.5667 64.2607 73.3467 64.191 73.0607 64.191C72.7527 64.191 72.5107 64.268 72.3347 64.422C72.166 64.5687 72.0817 64.763 72.0817 65.005C72.0817 65.1297 72.1037 65.2507 72.1477 65.368C72.199 65.4853 72.287 65.6173 72.4117 65.764C72.5363 65.9107 72.716 66.0977 72.9507 66.325L77.0207 70.23L76.2617 71.121ZM85.0443 71.11C83.9883 71.11 83.1596 70.813 82.5583 70.219C81.9643 69.625 81.6673 68.767 81.6673 67.645V63.3H83.0973V67.59C83.0973 68.382 83.266 68.9577 83.6033 69.317C83.948 69.6763 84.432 69.856 85.0553 69.856C85.6786 69.856 86.159 69.6763 86.4963 69.317C86.8336 68.9577 87.0023 68.382 87.0023 67.59V63.3H88.4103V67.645C88.4103 68.767 88.1096 69.625 87.5083 70.219C86.9143 70.813 86.093 71.11 85.0443 71.11ZM90.633 71V63.3H92.063V71H90.633ZM97.6257 71V63.3H100.992C101.828 63.3 102.561 63.4613 103.192 63.784C103.822 64.1067 104.314 64.554 104.666 65.126C105.018 65.698 105.194 66.3727 105.194 67.15C105.194 67.92 105.018 68.5947 104.666 69.174C104.314 69.746 103.822 70.1933 103.192 70.516C102.561 70.8387 101.828 71 100.992 71H97.6257ZM99.0557 69.79H100.926C101.498 69.79 101.996 69.68 102.422 69.46C102.847 69.24 103.173 68.932 103.401 68.536C103.635 68.14 103.753 67.678 103.753 67.15C103.753 66.6147 103.635 66.1527 103.401 65.764C103.173 65.368 102.847 65.06 102.422 64.84C101.996 64.62 101.498 64.51 100.926 64.51H99.0557V69.79ZM109.563 71.077C108.91 71.077 108.338 70.9487 107.847 70.692C107.363 70.428 106.985 70.0687 106.714 69.614C106.45 69.1593 106.318 68.6423 106.318 68.063C106.318 67.4763 106.446 66.9593 106.703 66.512C106.967 66.0573 107.326 65.7017 107.781 65.445C108.243 65.1883 108.767 65.06 109.354 65.06C109.926 65.06 110.435 65.1847 110.883 65.434C111.33 65.6833 111.682 66.0353 111.939 66.49C112.195 66.9447 112.324 67.48 112.324 68.096C112.324 68.1547 112.32 68.2207 112.313 68.294C112.313 68.3673 112.309 68.437 112.302 68.503H107.407V67.59H111.576L111.037 67.876C111.044 67.5387 110.974 67.2417 110.828 66.985C110.681 66.7283 110.479 66.5267 110.223 66.38C109.973 66.2333 109.684 66.16 109.354 66.16C109.016 66.16 108.719 66.2333 108.463 66.38C108.213 66.5267 108.015 66.732 107.869 66.996C107.729 67.2527 107.66 67.557 107.66 67.909V68.129C107.66 68.481 107.74 68.7927 107.902 69.064C108.063 69.3353 108.29 69.5443 108.584 69.691C108.877 69.8377 109.214 69.911 109.596 69.911C109.926 69.911 110.223 69.8597 110.487 69.757C110.751 69.6543 110.985 69.493 111.191 69.273L111.928 70.12C111.664 70.428 111.33 70.6663 110.927 70.835C110.531 70.9963 110.076 71.077 109.563 71.077ZM115.319 71L112.8 65.126H114.23L116.397 70.307H115.693L117.937 65.126H119.257L116.738 71H115.319ZM122.936 71.077C122.284 71.077 121.712 70.9487 121.22 70.692C120.736 70.428 120.359 70.0687 120.087 69.614C119.823 69.1593 119.691 68.6423 119.691 68.063C119.691 67.4763 119.82 66.9593 120.076 66.512C120.34 66.0573 120.7 65.7017 121.154 65.445C121.616 65.1883 122.141 65.06 122.727 65.06C123.299 65.06 123.809 65.1847 124.256 65.434C124.704 65.6833 125.056 66.0353 125.312 66.49C125.569 66.9447 125.697 67.48 125.697 68.096C125.697 68.1547 125.694 68.2207 125.686 68.294C125.686 68.3673 125.683 68.437 125.675 68.503H120.78V67.59H124.949L124.41 67.876C124.418 67.5387 124.348 67.2417 124.201 66.985C124.055 66.7283 123.853 66.5267 123.596 66.38C123.347 66.2333 123.057 66.16 122.727 66.16C122.39 66.16 122.093 66.2333 121.836 66.38C121.587 66.5267 121.389 66.732 121.242 66.996C121.103 67.2527 121.033 67.557 121.033 67.909V68.129C121.033 68.481 121.114 68.7927 121.275 69.064C121.437 69.3353 121.664 69.5443 121.957 69.691C122.251 69.8377 122.588 69.911 122.969 69.911C123.299 69.911 123.596 69.8597 123.86 69.757C124.124 69.6543 124.359 69.493 124.564 69.273L125.301 70.12C125.037 70.428 124.704 70.6663 124.3 70.835C123.904 70.9963 123.45 71.077 122.936 71.077ZM127.238 71V62.838H128.613V71H127.238ZM133.278 71.077C132.676 71.077 132.141 70.9487 131.672 70.692C131.202 70.428 130.832 70.0687 130.561 69.614C130.289 69.1593 130.154 68.6423 130.154 68.063C130.154 67.4763 130.289 66.9593 130.561 66.512C130.832 66.0573 131.202 65.7017 131.672 65.445C132.141 65.1883 132.676 65.06 133.278 65.06C133.886 65.06 134.425 65.1883 134.895 65.445C135.371 65.7017 135.742 66.0537 136.006 66.501C136.277 66.9483 136.413 67.469 136.413 68.063C136.413 68.6423 136.277 69.1593 136.006 69.614C135.742 70.0687 135.371 70.428 134.895 70.692C134.425 70.9487 133.886 71.077 133.278 71.077ZM133.278 69.9C133.615 69.9 133.916 69.8267 134.18 69.68C134.444 69.5333 134.649 69.3207 134.796 69.042C134.95 68.7633 135.027 68.437 135.027 68.063C135.027 67.6817 134.95 67.3553 134.796 67.084C134.649 66.8053 134.444 66.5927 134.18 66.446C133.916 66.2993 133.619 66.226 133.289 66.226C132.951 66.226 132.651 66.2993 132.387 66.446C132.13 66.5927 131.925 66.8053 131.771 67.084C131.617 67.3553 131.54 67.6817 131.54 68.063C131.54 68.437 131.617 68.7633 131.771 69.042C131.925 69.3207 132.13 69.5333 132.387 69.68C132.651 69.8267 132.948 69.9 133.278 69.9ZM141.204 71.077C140.727 71.077 140.291 70.967 139.895 70.747C139.506 70.527 139.194 70.197 138.96 69.757C138.732 69.3097 138.619 68.745 138.619 68.063C138.619 67.3737 138.729 66.809 138.949 66.369C139.176 65.929 139.484 65.6027 139.873 65.39C140.261 65.17 140.705 65.06 141.204 65.06C141.783 65.06 142.293 65.1847 142.733 65.434C143.18 65.6833 143.532 66.0317 143.789 66.479C144.053 66.9263 144.185 67.4543 144.185 68.063C144.185 68.6717 144.053 69.2033 143.789 69.658C143.532 70.1053 143.18 70.4537 142.733 70.703C142.293 70.9523 141.783 71.077 141.204 71.077ZM137.948 73.134V65.126H139.257V66.512L139.213 68.074L139.323 69.636V73.134H137.948ZM141.05 69.9C141.38 69.9 141.673 69.8267 141.93 69.68C142.194 69.5333 142.403 69.3207 142.557 69.042C142.711 68.7633 142.788 68.437 142.788 68.063C142.788 67.6817 142.711 67.3553 142.557 67.084C142.403 66.8053 142.194 66.5927 141.93 66.446C141.673 66.2993 141.38 66.226 141.05 66.226C140.72 66.226 140.423 66.2993 140.159 66.446C139.895 66.5927 139.686 66.8053 139.532 67.084C139.378 67.3553 139.301 67.6817 139.301 68.063C139.301 68.437 139.378 68.7633 139.532 69.042C139.686 69.3207 139.895 69.5333 140.159 69.68C140.423 69.8267 140.72 69.9 141.05 69.9ZM148.47 71.077C147.817 71.077 147.245 70.9487 146.754 70.692C146.27 70.428 145.892 70.0687 145.621 69.614C145.357 69.1593 145.225 68.6423 145.225 68.063C145.225 67.4763 145.353 66.9593 145.61 66.512C145.874 66.0573 146.233 65.7017 146.688 65.445C147.15 65.1883 147.674 65.06 148.261 65.06C148.833 65.06 149.342 65.1847 149.79 65.434C150.237 65.6833 150.589 66.0353 150.846 66.49C151.102 66.9447 151.231 67.48 151.231 68.096C151.231 68.1547 151.227 68.2207 151.22 68.294C151.22 68.3673 151.216 68.437 151.209 68.503H146.314V67.59H150.483L149.944 67.876C149.951 67.5387 149.881 67.2417 149.735 66.985C149.588 66.7283 149.386 66.5267 149.13 66.38C148.88 66.2333 148.591 66.16 148.261 66.16C147.923 66.16 147.626 66.2333 147.37 66.38C147.12 66.5267 146.922 66.732 146.776 66.996C146.636 67.2527 146.567 67.557 146.567 67.909V68.129C146.567 68.481 146.647 68.7927 146.809 69.064C146.97 69.3353 147.197 69.5443 147.491 69.691C147.784 69.8377 148.121 69.911 148.503 69.911C148.833 69.911 149.13 69.8597 149.394 69.757C149.658 69.6543 149.892 69.493 150.098 69.273L150.835 70.12C150.571 70.428 150.237 70.6663 149.834 70.835C149.438 70.9963 148.983 71.077 148.47 71.077ZM152.771 71V65.126H154.08V66.743L153.926 66.27C154.102 65.874 154.377 65.5733 154.751 65.368C155.133 65.1627 155.606 65.06 156.17 65.06V66.369C156.112 66.3543 156.057 66.347 156.005 66.347C155.954 66.3397 155.903 66.336 155.851 66.336C155.331 66.336 154.916 66.49 154.608 66.798C154.3 67.0987 154.146 67.5497 154.146 68.151V71H152.771ZM161.057 71V64.796C161.057 64.18 161.237 63.6887 161.596 63.322C161.963 62.948 162.484 62.761 163.158 62.761C163.4 62.761 163.628 62.7867 163.84 62.838C164.06 62.8893 164.244 62.97 164.39 63.08L164.016 64.114C163.914 64.0333 163.796 63.9747 163.664 63.938C163.532 63.894 163.397 63.872 163.257 63.872C162.971 63.872 162.755 63.9527 162.608 64.114C162.462 64.268 162.388 64.5027 162.388 64.818V65.478L162.432 66.094V71H161.057ZM160.089 66.27V65.17H164.005V66.27H160.089ZM165.151 71V65.126H166.46V66.743L166.306 66.27C166.482 65.874 166.757 65.5733 167.131 65.368C167.512 65.1627 167.985 65.06 168.55 65.06V66.369C168.491 66.3543 168.436 66.347 168.385 66.347C168.334 66.3397 168.282 66.336 168.231 66.336C167.71 66.336 167.296 66.49 166.988 66.798C166.68 67.0987 166.526 67.5497 166.526 68.151V71H165.151ZM172.523 71.077C171.921 71.077 171.386 70.9487 170.917 70.692C170.447 70.428 170.077 70.0687 169.806 69.614C169.534 69.1593 169.399 68.6423 169.399 68.063C169.399 67.4763 169.534 66.9593 169.806 66.512C170.077 66.0573 170.447 65.7017 170.917 65.445C171.386 65.1883 171.921 65.06 172.523 65.06C173.131 65.06 173.67 65.1883 174.14 65.445C174.616 65.7017 174.987 66.0537 175.251 66.501C175.522 66.9483 175.658 67.469 175.658 68.063C175.658 68.6423 175.522 69.1593 175.251 69.614C174.987 70.0687 174.616 70.428 174.14 70.692C173.67 70.9487 173.131 71.077 172.523 71.077ZM172.523 69.9C172.86 69.9 173.161 69.8267 173.425 69.68C173.689 69.5333 173.894 69.3207 174.041 69.042C174.195 68.7633 174.272 68.437 174.272 68.063C174.272 67.6817 174.195 67.3553 174.041 67.084C173.894 66.8053 173.689 66.5927 173.425 66.446C173.161 66.2993 172.864 66.226 172.534 66.226C172.196 66.226 171.896 66.2993 171.632 66.446C171.375 66.5927 171.17 66.8053 171.016 67.084C170.862 67.3553 170.785 67.6817 170.785 68.063C170.785 68.437 170.862 68.7633 171.016 69.042C171.17 69.3207 171.375 69.5333 171.632 69.68C171.896 69.8267 172.193 69.9 172.523 69.9ZM177.193 71V65.126H178.502V66.688L178.271 66.226C178.469 65.8447 178.755 65.555 179.129 65.357C179.51 65.159 179.943 65.06 180.427 65.06C180.977 65.06 181.453 65.1957 181.857 65.467C182.267 65.7383 182.539 66.149 182.671 66.699L182.132 66.512C182.322 66.072 182.638 65.72 183.078 65.456C183.518 65.192 184.027 65.06 184.607 65.06C185.076 65.06 185.49 65.1517 185.85 65.335C186.216 65.5183 186.502 65.8007 186.708 66.182C186.913 66.556 187.016 67.04 187.016 67.634V71H185.641V67.81C185.641 67.2893 185.527 66.9007 185.3 66.644C185.072 66.3873 184.746 66.259 184.321 66.259C184.02 66.259 183.752 66.325 183.518 66.457C183.29 66.589 183.111 66.7833 182.979 67.04C182.854 67.2967 182.792 67.623 182.792 68.019V71H181.417V67.81C181.417 67.2893 181.303 66.9007 181.076 66.644C180.848 66.3873 180.522 66.259 180.097 66.259C179.796 66.259 179.528 66.325 179.294 66.457C179.066 66.589 178.887 66.7833 178.755 67.04C178.63 67.2967 178.568 67.623 178.568 68.019V71H177.193ZM193.661 69.185L193.584 67.491L197.621 63.3H199.227L195.872 66.864L195.08 67.733L193.661 69.185ZM192.385 71V63.3H193.815V71H192.385ZM197.753 71L194.805 67.491L195.751 66.446L199.425 71H197.753ZM203.966 71V69.812L203.889 69.559V67.48C203.889 67.0767 203.768 66.765 203.526 66.545C203.284 66.3177 202.917 66.204 202.426 66.204C202.096 66.204 201.769 66.2553 201.447 66.358C201.131 66.4607 200.864 66.6037 200.644 66.787L200.105 65.786C200.42 65.544 200.794 65.3643 201.227 65.247C201.667 65.1223 202.121 65.06 202.591 65.06C203.441 65.06 204.098 65.2653 204.56 65.676C205.029 66.0793 205.264 66.7063 205.264 67.557V71H203.966ZM202.118 71.077C201.678 71.077 201.293 71.0037 200.963 70.857C200.633 70.703 200.376 70.494 200.193 70.23C200.017 69.9587 199.929 69.6543 199.929 69.317C199.929 68.987 200.006 68.69 200.16 68.426C200.321 68.162 200.581 67.953 200.941 67.799C201.3 67.645 201.777 67.568 202.371 67.568H204.076V68.481H202.47C202 68.481 201.685 68.558 201.524 68.712C201.362 68.8587 201.282 69.042 201.282 69.262C201.282 69.5113 201.381 69.7093 201.579 69.856C201.777 70.0027 202.052 70.076 202.404 70.076C202.741 70.076 203.042 69.999 203.306 69.845C203.577 69.691 203.771 69.4637 203.889 69.163L204.12 69.988C203.988 70.3327 203.749 70.6003 203.405 70.791C203.067 70.9817 202.638 71.077 202.118 71.077ZM206.764 71V70.131L210.383 65.753L210.636 66.226H206.83V65.126H211.736V65.995L208.117 70.373L207.842 69.9H211.835V71H206.764ZM216.942 71V69.812L216.865 69.559V67.48C216.865 67.0767 216.744 66.765 216.502 66.545C216.26 66.3177 215.893 66.204 215.402 66.204C215.072 66.204 214.746 66.2553 214.423 66.358C214.108 66.4607 213.84 66.6037 213.62 66.787L213.081 65.786C213.396 65.544 213.77 65.3643 214.203 65.247C214.643 65.1223 215.098 65.06 215.567 65.06C216.418 65.06 217.074 65.2653 217.536 65.676C218.005 66.0793 218.24 66.7063 218.24 67.557V71H216.942ZM215.094 71.077C214.654 71.077 214.269 71.0037 213.939 70.857C213.609 70.703 213.352 70.494 213.169 70.23C212.993 69.9587 212.905 69.6543 212.905 69.317C212.905 68.987 212.982 68.69 213.136 68.426C213.297 68.162 213.558 67.953 213.917 67.799C214.276 67.645 214.753 67.568 215.347 67.568H217.052V68.481H215.446C214.977 68.481 214.661 68.558 214.5 68.712C214.339 68.8587 214.258 69.042 214.258 69.262C214.258 69.5113 214.357 69.7093 214.555 69.856C214.753 70.0027 215.028 70.076 215.38 70.076C215.717 70.076 216.018 69.999 216.282 69.845C216.553 69.691 216.748 69.4637 216.865 69.163L217.096 69.988C216.964 70.3327 216.726 70.6003 216.381 70.791C216.044 70.9817 215.615 71.077 215.094 71.077ZM221.346 69.691L221.379 67.964L224.448 65.126H226.098L223.491 67.744L222.765 68.349L221.346 69.691ZM220.224 71V62.838H221.599V71H220.224ZM224.657 71L222.512 68.349L223.381 67.249L226.329 71H224.657ZM227.427 71V62.838H228.802V66.71L228.505 66.226C228.71 65.852 229.007 65.566 229.396 65.368C229.792 65.1627 230.247 65.06 230.76 65.06C231.229 65.06 231.647 65.1517 232.014 65.335C232.388 65.5183 232.681 65.8007 232.894 66.182C233.107 66.556 233.213 67.04 233.213 67.634V71H231.838V67.81C231.838 67.2893 231.713 66.9007 231.464 66.644C231.222 66.3873 230.881 66.259 230.441 66.259C230.118 66.259 229.832 66.325 229.583 66.457C229.334 66.589 229.139 66.787 229 67.051C228.868 67.3077 228.802 67.634 228.802 68.03V71H227.427ZM236.992 71.077C236.501 71.077 236.028 71.0147 235.573 70.89C235.126 70.758 234.77 70.6003 234.506 70.417L235.034 69.372C235.298 69.5407 235.614 69.68 235.98 69.79C236.347 69.9 236.714 69.955 237.08 69.955C237.513 69.955 237.825 69.8963 238.015 69.779C238.213 69.6617 238.312 69.504 238.312 69.306C238.312 69.1447 238.246 69.0237 238.114 68.943C237.982 68.855 237.81 68.789 237.597 68.745C237.385 68.701 237.146 68.6607 236.882 68.624C236.626 68.5873 236.365 68.5397 236.101 68.481C235.845 68.415 235.61 68.3233 235.397 68.206C235.185 68.0813 235.012 67.9163 234.88 67.711C234.748 67.5057 234.682 67.2343 234.682 66.897C234.682 66.523 234.789 66.2003 235.001 65.929C235.214 65.6503 235.511 65.4377 235.892 65.291C236.281 65.137 236.739 65.06 237.267 65.06C237.663 65.06 238.063 65.104 238.466 65.192C238.87 65.28 239.203 65.4047 239.467 65.566L238.939 66.611C238.661 66.4423 238.378 66.3287 238.092 66.27C237.814 66.204 237.535 66.171 237.256 66.171C236.838 66.171 236.527 66.2333 236.321 66.358C236.123 66.4827 236.024 66.6403 236.024 66.831C236.024 67.007 236.09 67.139 236.222 67.227C236.354 67.315 236.527 67.3847 236.739 67.436C236.952 67.4873 237.187 67.5313 237.443 67.568C237.707 67.5973 237.968 67.645 238.224 67.711C238.481 67.777 238.716 67.8687 238.928 67.986C239.148 68.096 239.324 68.2537 239.456 68.459C239.588 68.6643 239.654 68.932 239.654 69.262C239.654 69.6287 239.544 69.9477 239.324 70.219C239.112 70.4903 238.807 70.703 238.411 70.857C238.015 71.0037 237.542 71.077 236.992 71.077ZM243.269 71.077C242.624 71.077 242.125 70.912 241.773 70.582C241.421 70.2447 241.245 69.7497 241.245 69.097V63.828H242.62V69.064C242.62 69.3427 242.69 69.559 242.829 69.713C242.976 69.867 243.178 69.944 243.434 69.944C243.742 69.944 243.999 69.8633 244.204 69.702L244.589 70.681C244.428 70.813 244.23 70.912 243.995 70.978C243.761 71.044 243.519 71.077 243.269 71.077ZM240.277 66.226V65.126H244.193V66.226H240.277ZM249.355 71V69.812L249.278 69.559V67.48C249.278 67.0767 249.157 66.765 248.915 66.545C248.673 66.3177 248.307 66.204 247.815 66.204C247.485 66.204 247.159 66.2553 246.836 66.358C246.521 66.4607 246.253 66.6037 246.033 66.787L245.494 65.786C245.81 65.544 246.184 65.3643 246.616 65.247C247.056 65.1223 247.511 65.06 247.98 65.06C248.831 65.06 249.487 65.2653 249.949 65.676C250.419 66.0793 250.653 66.7063 250.653 67.557V71H249.355ZM247.507 71.077C247.067 71.077 246.682 71.0037 246.352 70.857C246.022 70.703 245.766 70.494 245.582 70.23C245.406 69.9587 245.318 69.6543 245.318 69.317C245.318 68.987 245.395 68.69 245.549 68.426C245.711 68.162 245.971 67.953 246.33 67.799C246.69 67.645 247.166 67.568 247.76 67.568H249.465V68.481H247.859C247.39 68.481 247.075 68.558 246.913 68.712C246.752 68.8587 246.671 69.042 246.671 69.262C246.671 69.5113 246.77 69.7093 246.968 69.856C247.166 70.0027 247.441 70.076 247.793 70.076C248.131 70.076 248.431 69.999 248.695 69.845C248.967 69.691 249.161 69.4637 249.278 69.163L249.509 69.988C249.377 70.3327 249.139 70.6003 248.794 70.791C248.457 70.9817 248.028 71.077 247.507 71.077ZM252.638 71V65.126H253.947V66.71L253.716 66.226C253.921 65.852 254.218 65.566 254.607 65.368C255.003 65.1627 255.458 65.06 255.971 65.06C256.44 65.06 256.858 65.1517 257.225 65.335C257.599 65.5183 257.892 65.8007 258.105 66.182C258.318 66.556 258.424 67.04 258.424 67.634V71H257.049V67.81C257.049 67.2893 256.924 66.9007 256.675 66.644C256.433 66.3873 256.092 66.259 255.652 66.259C255.329 66.259 255.043 66.325 254.794 66.457C254.545 66.589 254.35 66.787 254.211 67.051C254.079 67.3077 254.013 67.634 254.013 68.03V71H252.638ZM260.828 71.077C260.579 71.077 260.366 70.9927 260.19 70.824C260.014 70.648 259.926 70.428 259.926 70.164C259.926 69.8853 260.014 69.6653 260.19 69.504C260.366 69.3353 260.579 69.251 260.828 69.251C261.078 69.251 261.29 69.3353 261.466 69.504C261.642 69.6653 261.73 69.8853 261.73 70.164C261.73 70.428 261.642 70.648 261.466 70.824C261.29 70.9927 261.078 71.077 260.828 71.077ZM14.75 88V81.004H12.044V80.3H18.27V81.004H15.564V88H14.75ZM21.862 88.055C21.3707 88.055 20.9417 87.9633 20.575 87.78C20.2083 87.5967 19.9223 87.3217 19.717 86.955C19.519 86.5883 19.42 86.13 19.42 85.58V82.225H20.201V85.492C20.201 86.108 20.3513 86.5737 20.652 86.889C20.96 87.197 21.389 87.351 21.939 87.351C22.3423 87.351 22.6907 87.2703 22.984 87.109C23.2847 86.9403 23.512 86.6983 23.666 86.383C23.8273 86.0677 23.908 85.69 23.908 85.25V82.225H24.689V88H23.941V86.416L24.062 86.702C23.8787 87.1273 23.5927 87.461 23.204 87.703C22.8227 87.9377 22.3753 88.055 21.862 88.055ZM27.0856 88V82.225H27.8336V83.798L27.7566 83.523C27.918 83.083 28.1893 82.7493 28.5706 82.522C28.952 82.2873 29.425 82.17 29.9896 82.17V82.929C29.9603 82.929 29.931 82.929 29.9016 82.929C29.8723 82.9217 29.843 82.918 29.8136 82.918C29.205 82.918 28.7283 83.105 28.3836 83.479C28.039 83.8457 27.8666 84.37 27.8666 85.052V88H27.0856ZM31.6347 88V82.225H32.3827V83.809L32.2617 83.512C32.4451 83.094 32.7384 82.7677 33.1417 82.533C33.5451 82.291 34.0254 82.17 34.5827 82.17C35.0521 82.17 35.4627 82.2617 35.8147 82.445C36.1741 82.621 36.4527 82.8923 36.6507 83.259C36.8561 83.6257 36.9587 84.0877 36.9587 84.645V88H36.1777V84.722C36.1777 84.1133 36.0237 83.655 35.7157 83.347C35.4151 83.0317 34.9897 82.874 34.4397 82.874C34.0291 82.874 33.6697 82.9583 33.3617 83.127C33.0611 83.2883 32.8264 83.5267 32.6577 83.842C32.4964 84.15 32.4157 84.524 32.4157 84.964V88H31.6347ZM39.2883 88V82.225H40.0693V88H39.2883ZM39.6843 80.949C39.523 80.949 39.3873 80.894 39.2773 80.784C39.1673 80.674 39.1123 80.542 39.1123 80.388C39.1123 80.234 39.1673 80.1057 39.2773 80.003C39.3873 79.893 39.523 79.838 39.6843 79.838C39.8457 79.838 39.9813 79.8893 40.0913 79.992C40.2013 80.0947 40.2563 80.223 40.2563 80.377C40.2563 80.5383 40.2013 80.674 40.0913 80.784C39.9887 80.894 39.853 80.949 39.6843 80.949ZM42.4624 88V82.225H43.2104V83.809L43.0894 83.512C43.2728 83.094 43.5661 82.7677 43.9694 82.533C44.3728 82.291 44.8531 82.17 45.4104 82.17C45.8798 82.17 46.2904 82.2617 46.6424 82.445C47.0018 82.621 47.2804 82.8923 47.4784 83.259C47.6838 83.6257 47.7864 84.0877 47.7864 84.645V88H47.0054V84.722C47.0054 84.1133 46.8514 83.655 46.5434 83.347C46.2428 83.0317 45.8174 82.874 45.2674 82.874C44.8568 82.874 44.4974 82.9583 44.1894 83.127C43.8888 83.2883 43.6541 83.5267 43.4854 83.842C43.3241 84.15 43.2434 84.524 43.2434 84.964V88H42.4624ZM52.58 90.189C52.052 90.189 51.546 90.112 51.062 89.958C50.578 89.804 50.1857 89.584 49.885 89.298L50.281 88.704C50.5524 88.946 50.886 89.1367 51.282 89.276C51.6854 89.4227 52.1107 89.496 52.558 89.496C53.2914 89.496 53.8304 89.3237 54.175 88.979C54.5197 88.6417 54.692 88.1137 54.692 87.395V85.954L54.802 84.964L54.725 83.974V82.225H55.473V87.296C55.473 88.2933 55.2274 89.023 54.736 89.485C54.252 89.9543 53.5334 90.189 52.58 90.189ZM52.437 87.78C51.887 87.78 51.392 87.6627 50.952 87.428C50.512 87.186 50.1637 86.8523 49.907 86.427C49.6577 86.0017 49.533 85.514 49.533 84.964C49.533 84.414 49.6577 83.93 49.907 83.512C50.1637 83.0867 50.512 82.7567 50.952 82.522C51.392 82.2873 51.887 82.17 52.437 82.17C52.9504 82.17 53.4124 82.2763 53.823 82.489C54.2337 82.7017 54.56 83.017 54.802 83.435C55.044 83.853 55.165 84.3627 55.165 84.964C55.165 85.5653 55.044 86.075 54.802 86.493C54.56 86.911 54.2337 87.23 53.823 87.45C53.4124 87.67 52.9504 87.78 52.437 87.78ZM52.514 87.087C52.9394 87.087 53.317 86.999 53.647 86.823C53.977 86.6397 54.2374 86.3903 54.428 86.075C54.6187 85.7523 54.714 85.382 54.714 84.964C54.714 84.546 54.6187 84.1793 54.428 83.864C54.2374 83.5487 53.977 83.303 53.647 83.127C53.317 82.9437 52.9394 82.852 52.514 82.852C52.096 82.852 51.7184 82.9437 51.381 83.127C51.051 83.303 50.7907 83.5487 50.6 83.864C50.4167 84.1793 50.325 84.546 50.325 84.964C50.325 85.382 50.4167 85.7523 50.6 86.075C50.7907 86.3903 51.051 86.6397 51.381 86.823C51.7184 86.999 52.096 87.087 52.514 87.087ZM63.3632 88.055C62.7912 88.055 62.2779 87.9303 61.8232 87.681C61.3759 87.4243 61.0239 87.076 60.7672 86.636C60.5105 86.1887 60.3822 85.679 60.3822 85.107C60.3822 84.5277 60.5105 84.018 60.7672 83.578C61.0239 83.138 61.3759 82.7933 61.8232 82.544C62.2779 82.2947 62.7912 82.17 63.3632 82.17C63.8545 82.17 64.2982 82.2653 64.6942 82.456C65.0902 82.6467 65.4019 82.9327 65.6292 83.314L65.0462 83.71C64.8482 83.4167 64.6025 83.2003 64.3092 83.061C64.0159 82.9217 63.6969 82.852 63.3522 82.852C62.9415 82.852 62.5712 82.9473 62.2412 83.138C61.9112 83.3213 61.6509 83.5817 61.4602 83.919C61.2695 84.2563 61.1742 84.6523 61.1742 85.107C61.1742 85.5617 61.2695 85.9577 61.4602 86.295C61.6509 86.6323 61.9112 86.8963 62.2412 87.087C62.5712 87.2703 62.9415 87.362 63.3522 87.362C63.6969 87.362 64.0159 87.2923 64.3092 87.153C64.6025 87.0137 64.8482 86.801 65.0462 86.515L65.6292 86.911C65.4019 87.285 65.0902 87.571 64.6942 87.769C64.2982 87.9597 63.8545 88.055 63.3632 88.055ZM69.6408 88.055C69.0834 88.055 68.5811 87.9303 68.1338 87.681C67.6938 87.4243 67.3454 87.076 67.0888 86.636C66.8321 86.1887 66.7038 85.679 66.7038 85.107C66.7038 84.5277 66.8321 84.018 67.0888 83.578C67.3454 83.138 67.6938 82.7933 68.1338 82.544C68.5738 82.2947 69.0761 82.17 69.6408 82.17C70.2128 82.17 70.7188 82.2947 71.1588 82.544C71.6061 82.7933 71.9544 83.138 72.2038 83.578C72.4604 84.018 72.5888 84.5277 72.5888 85.107C72.5888 85.679 72.4604 86.1887 72.2038 86.636C71.9544 87.076 71.6061 87.4243 71.1588 87.681C70.7114 87.9303 70.2054 88.055 69.6408 88.055ZM69.6408 87.362C70.0588 87.362 70.4291 87.2703 70.7518 87.087C71.0744 86.8963 71.3274 86.6323 71.5108 86.295C71.7014 85.9503 71.7968 85.5543 71.7968 85.107C71.7968 84.6523 71.7014 84.2563 71.5108 83.919C71.3274 83.5817 71.0744 83.3213 70.7518 83.138C70.4291 82.9473 70.0624 82.852 69.6518 82.852C69.2411 82.852 68.8744 82.9473 68.5518 83.138C68.2291 83.3213 67.9724 83.5817 67.7818 83.919C67.5911 84.2563 67.4958 84.6523 67.4958 85.107C67.4958 85.5543 67.5911 85.9503 67.7818 86.295C67.9724 86.6323 68.2291 86.8963 68.5518 87.087C68.8744 87.2703 69.2374 87.362 69.6408 87.362ZM74.4033 88V82.225H75.1513V83.787L75.0303 83.512C75.2063 83.094 75.4886 82.7677 75.8773 82.533C76.2733 82.291 76.7389 82.17 77.2743 82.17C77.8389 82.17 78.3193 82.313 78.7153 82.599C79.1113 82.8777 79.3679 83.2993 79.4853 83.864L79.1773 83.743C79.3459 83.2737 79.6429 82.896 80.0683 82.61C80.5009 82.3167 81.0179 82.17 81.6193 82.17C82.0886 82.17 82.4956 82.2617 82.8403 82.445C83.1923 82.621 83.4636 82.8923 83.6543 83.259C83.8523 83.6257 83.9513 84.0877 83.9513 84.645V88H83.1703V84.722C83.1703 84.1133 83.0236 83.655 82.7303 83.347C82.4443 83.0317 82.0373 82.874 81.5093 82.874C81.1133 82.874 80.7686 82.9583 80.4753 83.127C80.1893 83.2883 79.9656 83.5267 79.8043 83.842C79.6503 84.15 79.5733 84.524 79.5733 84.964V88H78.7923V84.722C78.7923 84.1133 78.6456 83.655 78.3523 83.347C78.0589 83.0317 77.6483 82.874 77.1203 82.874C76.7316 82.874 76.3906 82.9583 76.0973 83.127C75.8039 83.2883 75.5766 83.5267 75.4153 83.842C75.2613 84.15 75.1843 84.524 75.1843 84.964V88H74.4033ZM89.2703 88.055C88.7716 88.055 88.3206 87.9413 87.9173 87.714C87.5139 87.4793 87.1913 87.1457 86.9493 86.713C86.7146 86.273 86.5973 85.7377 86.5973 85.107C86.5973 84.4763 86.7146 83.9447 86.9493 83.512C87.1839 83.072 87.5029 82.7383 87.9063 82.511C88.3096 82.2837 88.7643 82.17 89.2703 82.17C89.8203 82.17 90.3116 82.2947 90.7443 82.544C91.1843 82.786 91.5289 83.1307 91.7783 83.578C92.0276 84.018 92.1523 84.5277 92.1523 85.107C92.1523 85.6937 92.0276 86.207 91.7783 86.647C91.5289 87.087 91.1843 87.4317 90.7443 87.681C90.3116 87.9303 89.8203 88.055 89.2703 88.055ZM86.2893 90.134V82.225H87.0373V83.963L86.9603 85.118L87.0703 86.284V90.134H86.2893ZM89.2153 87.362C89.6259 87.362 89.9926 87.2703 90.3153 87.087C90.6379 86.8963 90.8946 86.6323 91.0853 86.295C91.2759 85.9503 91.3713 85.5543 91.3713 85.107C91.3713 84.6597 91.2759 84.2673 91.0853 83.93C90.8946 83.5927 90.6379 83.3287 90.3153 83.138C89.9926 82.9473 89.6259 82.852 89.2153 82.852C88.8046 82.852 88.4343 82.9473 88.1043 83.138C87.7816 83.3287 87.5249 83.5927 87.3343 83.93C87.1509 84.2673 87.0593 84.6597 87.0593 85.107C87.0593 85.5543 87.1509 85.9503 87.3343 86.295C87.5249 86.6323 87.7816 86.8963 88.1043 87.087C88.4343 87.2703 88.8046 87.362 89.2153 87.362ZM93.9644 88V79.838H94.7454V88H93.9644ZM99.5915 88.055C98.9901 88.055 98.4621 87.9303 98.0075 87.681C97.5528 87.4243 97.1971 87.076 96.9405 86.636C96.6838 86.1887 96.5555 85.679 96.5555 85.107C96.5555 84.535 96.6765 84.029 96.9185 83.589C97.1678 83.149 97.5051 82.8043 97.9305 82.555C98.3631 82.2983 98.8471 82.17 99.3825 82.17C99.9251 82.17 100.405 82.2947 100.823 82.544C101.249 82.786 101.582 83.1307 101.824 83.578C102.066 84.018 102.187 84.5277 102.187 85.107C102.187 85.1437 102.184 85.184 102.176 85.228C102.176 85.2647 102.176 85.305 102.176 85.349H97.1495V84.766H101.758L101.45 84.997C101.45 84.579 101.359 84.2087 101.175 83.886C100.999 83.556 100.757 83.2993 100.449 83.116C100.141 82.9327 99.7858 82.841 99.3825 82.841C98.9865 82.841 98.6308 82.9327 98.3155 83.116C98.0001 83.2993 97.7545 83.556 97.5785 83.886C97.4025 84.216 97.3145 84.5937 97.3145 85.019V85.14C97.3145 85.58 97.4098 85.9687 97.6005 86.306C97.7985 86.636 98.0698 86.8963 98.4145 87.087C98.7665 87.2703 99.1661 87.362 99.6135 87.362C99.9655 87.362 100.292 87.2997 100.592 87.175C100.9 87.0503 101.164 86.8597 101.384 86.603L101.824 87.109C101.568 87.417 101.245 87.6517 100.856 87.813C100.475 87.9743 100.053 88.055 99.5915 88.055ZM102.956 88L105.398 84.832L105.387 85.217L103.066 82.225H103.946L105.849 84.7L105.519 84.689L107.422 82.225H108.28L105.937 85.25L105.948 84.832L108.412 88H107.521L105.508 85.36L105.816 85.404L103.836 88H102.956ZM115.33 88.055C114.78 88.055 114.285 87.9303 113.845 87.681C113.412 87.4317 113.071 87.087 112.822 86.647C112.573 86.1997 112.448 85.6863 112.448 85.107C112.448 84.5203 112.573 84.007 112.822 83.567C113.071 83.127 113.412 82.786 113.845 82.544C114.285 82.2947 114.78 82.17 115.33 82.17C115.836 82.17 116.287 82.2837 116.683 82.511C117.086 82.7383 117.405 83.072 117.64 83.512C117.882 83.9447 118.003 84.4763 118.003 85.107C118.003 85.7303 117.886 86.262 117.651 86.702C117.416 87.142 117.097 87.4793 116.694 87.714C116.298 87.9413 115.843 88.055 115.33 88.055ZM115.385 87.362C115.796 87.362 116.162 87.2703 116.485 87.087C116.815 86.8963 117.072 86.6323 117.255 86.295C117.446 85.9503 117.541 85.5543 117.541 85.107C117.541 84.6523 117.446 84.2563 117.255 83.919C117.072 83.5817 116.815 83.3213 116.485 83.138C116.162 82.9473 115.796 82.852 115.385 82.852C114.982 82.852 114.619 82.9473 114.296 83.138C113.973 83.3213 113.717 83.5817 113.526 83.919C113.335 84.2563 113.24 84.6523 113.24 85.107C113.24 85.5543 113.335 85.9503 113.526 86.295C113.717 86.6323 113.973 86.8963 114.296 87.087C114.619 87.2703 114.982 87.362 115.385 87.362ZM117.563 88V86.262L117.64 85.096L117.53 83.93V79.838H118.311V88H117.563ZM123.159 88.055C122.558 88.055 122.03 87.9303 121.575 87.681C121.12 87.4243 120.765 87.076 120.508 86.636C120.251 86.1887 120.123 85.679 120.123 85.107C120.123 84.535 120.244 84.029 120.486 83.589C120.735 83.149 121.073 82.8043 121.498 82.555C121.931 82.2983 122.415 82.17 122.95 82.17C123.493 82.17 123.973 82.2947 124.391 82.544C124.816 82.786 125.15 83.1307 125.392 83.578C125.634 84.018 125.755 84.5277 125.755 85.107C125.755 85.1437 125.751 85.184 125.744 85.228C125.744 85.2647 125.744 85.305 125.744 85.349H120.717V84.766H125.326L125.018 84.997C125.018 84.579 124.926 84.2087 124.743 83.886C124.567 83.556 124.325 83.2993 124.017 83.116C123.709 82.9327 123.353 82.841 122.95 82.841C122.554 82.841 122.198 82.9327 121.883 83.116C121.568 83.2993 121.322 83.556 121.146 83.886C120.97 84.216 120.882 84.5937 120.882 85.019V85.14C120.882 85.58 120.977 85.9687 121.168 86.306C121.366 86.636 121.637 86.8963 121.982 87.087C122.334 87.2703 122.734 87.362 123.181 87.362C123.533 87.362 123.859 87.2997 124.16 87.175C124.468 87.0503 124.732 86.8597 124.952 86.603L125.392 87.109C125.135 87.417 124.813 87.6517 124.424 87.813C124.043 87.9743 123.621 88.055 123.159 88.055ZM129.116 88.055C128.639 88.055 128.188 87.989 127.763 87.857C127.337 87.7177 127.004 87.5453 126.762 87.34L127.114 86.724C127.348 86.9 127.649 87.054 128.016 87.186C128.382 87.3107 128.767 87.373 129.171 87.373C129.721 87.373 130.117 87.2887 130.359 87.12C130.601 86.944 130.722 86.713 130.722 86.427C130.722 86.2143 130.652 86.0493 130.513 85.932C130.381 85.8073 130.205 85.7157 129.985 85.657C129.765 85.591 129.519 85.536 129.248 85.492C128.976 85.448 128.705 85.3967 128.434 85.338C128.17 85.2793 127.928 85.195 127.708 85.085C127.488 84.9677 127.308 84.81 127.169 84.612C127.037 84.414 126.971 84.15 126.971 83.82C126.971 83.5047 127.059 83.2223 127.235 82.973C127.411 82.7237 127.667 82.5293 128.005 82.39C128.349 82.2433 128.767 82.17 129.259 82.17C129.633 82.17 130.007 82.2213 130.381 82.324C130.755 82.4193 131.063 82.5477 131.305 82.709L130.964 83.336C130.707 83.16 130.432 83.0353 130.139 82.962C129.845 82.8813 129.552 82.841 129.259 82.841C128.738 82.841 128.353 82.9327 128.104 83.116C127.862 83.292 127.741 83.5193 127.741 83.798C127.741 84.018 127.807 84.1903 127.939 84.315C128.078 84.4397 128.258 84.5387 128.478 84.612C128.705 84.678 128.951 84.733 129.215 84.777C129.486 84.821 129.754 84.876 130.018 84.942C130.289 85.0007 130.535 85.085 130.755 85.195C130.982 85.2977 131.162 85.448 131.294 85.646C131.433 85.8367 131.503 86.0897 131.503 86.405C131.503 86.7423 131.407 87.0357 131.217 87.285C131.033 87.527 130.762 87.7177 130.403 87.857C130.051 87.989 129.622 88.055 129.116 88.055ZM133.156 88V82.225H133.937V88H133.156ZM133.552 80.949C133.39 80.949 133.255 80.894 133.145 80.784C133.035 80.674 132.98 80.542 132.98 80.388C132.98 80.234 133.035 80.1057 133.145 80.003C133.255 79.893 133.39 79.838 133.552 79.838C133.713 79.838 133.849 79.8893 133.959 79.992C134.069 80.0947 134.124 80.223 134.124 80.377C134.124 80.5383 134.069 80.674 133.959 80.784C133.856 80.894 133.72 80.949 133.552 80.949ZM138.794 90.189C138.266 90.189 137.76 90.112 137.276 89.958C136.792 89.804 136.399 89.584 136.099 89.298L136.495 88.704C136.766 88.946 137.1 89.1367 137.496 89.276C137.899 89.4227 138.324 89.496 138.772 89.496C139.505 89.496 140.044 89.3237 140.389 88.979C140.733 88.6417 140.906 88.1137 140.906 87.395V85.954L141.016 84.964L140.939 83.974V82.225H141.687V87.296C141.687 88.2933 141.441 89.023 140.95 89.485C140.466 89.9543 139.747 90.189 138.794 90.189ZM138.651 87.78C138.101 87.78 137.606 87.6627 137.166 87.428C136.726 87.186 136.377 86.8523 136.121 86.427C135.871 86.0017 135.747 85.514 135.747 84.964C135.747 84.414 135.871 83.93 136.121 83.512C136.377 83.0867 136.726 82.7567 137.166 82.522C137.606 82.2873 138.101 82.17 138.651 82.17C139.164 82.17 139.626 82.2763 140.037 82.489C140.447 82.7017 140.774 83.017 141.016 83.435C141.258 83.853 141.379 84.3627 141.379 84.964C141.379 85.5653 141.258 86.075 141.016 86.493C140.774 86.911 140.447 87.23 140.037 87.45C139.626 87.67 139.164 87.78 138.651 87.78ZM138.728 87.087C139.153 87.087 139.531 86.999 139.861 86.823C140.191 86.6397 140.451 86.3903 140.642 86.075C140.832 85.7523 140.928 85.382 140.928 84.964C140.928 84.546 140.832 84.1793 140.642 83.864C140.451 83.5487 140.191 83.303 139.861 83.127C139.531 82.9437 139.153 82.852 138.728 82.852C138.31 82.852 137.932 82.9437 137.595 83.127C137.265 83.303 137.004 83.5487 136.814 83.864C136.63 84.1793 136.539 84.546 136.539 84.964C136.539 85.382 136.63 85.7523 136.814 86.075C137.004 86.3903 137.265 86.6397 137.595 86.823C137.932 86.999 138.31 87.087 138.728 87.087ZM144.08 88V82.225H144.828V83.809L144.707 83.512C144.89 83.094 145.184 82.7677 145.587 82.533C145.99 82.291 146.471 82.17 147.028 82.17C147.497 82.17 147.908 82.2617 148.26 82.445C148.619 82.621 148.898 82.8923 149.096 83.259C149.301 83.6257 149.404 84.0877 149.404 84.645V88H148.623V84.722C148.623 84.1133 148.469 83.655 148.161 83.347C147.86 83.0317 147.435 82.874 146.885 82.874C146.474 82.874 146.115 82.9583 145.807 83.127C145.506 83.2883 145.272 83.5267 145.103 83.842C144.942 84.15 144.861 84.524 144.861 84.964V88H144.08ZM153.285 88.055C152.808 88.055 152.357 87.989 151.932 87.857C151.506 87.7177 151.173 87.5453 150.931 87.34L151.283 86.724C151.517 86.9 151.818 87.054 152.185 87.186C152.551 87.3107 152.936 87.373 153.34 87.373C153.89 87.373 154.286 87.2887 154.528 87.12C154.77 86.944 154.891 86.713 154.891 86.427C154.891 86.2143 154.821 86.0493 154.682 85.932C154.55 85.8073 154.374 85.7157 154.154 85.657C153.934 85.591 153.688 85.536 153.417 85.492C153.145 85.448 152.874 85.3967 152.603 85.338C152.339 85.2793 152.097 85.195 151.877 85.085C151.657 84.9677 151.477 84.81 151.338 84.612C151.206 84.414 151.14 84.15 151.14 83.82C151.14 83.5047 151.228 83.2223 151.404 82.973C151.58 82.7237 151.836 82.5293 152.174 82.39C152.518 82.2433 152.936 82.17 153.428 82.17C153.802 82.17 154.176 82.2213 154.55 82.324C154.924 82.4193 155.232 82.5477 155.474 82.709L155.133 83.336C154.876 83.16 154.601 83.0353 154.308 82.962C154.014 82.8813 153.721 82.841 153.428 82.841C152.907 82.841 152.522 82.9327 152.273 83.116C152.031 83.292 151.91 83.5193 151.91 83.798C151.91 84.018 151.976 84.1903 152.108 84.315C152.247 84.4397 152.427 84.5387 152.647 84.612C152.874 84.678 153.12 84.733 153.384 84.777C153.655 84.821 153.923 84.876 154.187 84.942C154.458 85.0007 154.704 85.085 154.924 85.195C155.151 85.2977 155.331 85.448 155.463 85.646C155.602 85.8367 155.672 86.0897 155.672 86.405C155.672 86.7423 155.576 87.0357 155.386 87.285C155.202 87.527 154.931 87.7177 154.572 87.857C154.22 87.989 153.791 88.055 153.285 88.055ZM160.424 88V82.225H161.205V88H160.424ZM160.82 80.949C160.658 80.949 160.523 80.894 160.413 80.784C160.303 80.674 160.248 80.542 160.248 80.388C160.248 80.234 160.303 80.1057 160.413 80.003C160.523 79.893 160.658 79.838 160.82 79.838C160.981 79.838 161.117 79.8893 161.227 79.992C161.337 80.0947 161.392 80.223 161.392 80.377C161.392 80.5383 161.337 80.674 161.227 80.784C161.124 80.894 160.988 80.949 160.82 80.949ZM163.598 88V82.225H164.346V83.809L164.225 83.512C164.408 83.094 164.701 82.7677 165.105 82.533C165.508 82.291 165.988 82.17 166.546 82.17C167.015 82.17 167.426 82.2617 167.778 82.445C168.137 82.621 168.416 82.8923 168.614 83.259C168.819 83.6257 168.922 84.0877 168.922 84.645V88H168.141V84.722C168.141 84.1133 167.987 83.655 167.679 83.347C167.378 83.0317 166.953 82.874 166.403 82.874C165.992 82.874 165.633 82.9583 165.325 83.127C165.024 83.2883 164.789 83.5267 164.621 83.842C164.459 84.15 164.379 84.524 164.379 84.964V88H163.598ZM173.077 88.055C172.535 88.055 172.117 87.9083 171.823 87.615C171.53 87.3217 171.383 86.9073 171.383 86.372V80.949H172.164V86.328C172.164 86.6653 172.249 86.9257 172.417 87.109C172.593 87.2923 172.843 87.384 173.165 87.384C173.51 87.384 173.796 87.285 174.023 87.087L174.298 87.648C174.144 87.7873 173.957 87.89 173.737 87.956C173.525 88.022 173.305 88.055 173.077 88.055ZM170.349 82.874V82.225H173.924V82.874H170.349ZM178.09 88.055C177.533 88.055 177.03 87.9303 176.583 87.681C176.143 87.4243 175.795 87.076 175.538 86.636C175.281 86.1887 175.153 85.679 175.153 85.107C175.153 84.5277 175.281 84.018 175.538 83.578C175.795 83.138 176.143 82.7933 176.583 82.544C177.023 82.2947 177.525 82.17 178.09 82.17C178.662 82.17 179.168 82.2947 179.608 82.544C180.055 82.7933 180.404 83.138 180.653 83.578C180.91 84.018 181.038 84.5277 181.038 85.107C181.038 85.679 180.91 86.1887 180.653 86.636C180.404 87.076 180.055 87.4243 179.608 87.681C179.161 87.9303 178.655 88.055 178.09 88.055ZM178.09 87.362C178.508 87.362 178.878 87.2703 179.201 87.087C179.524 86.8963 179.777 86.6323 179.96 86.295C180.151 85.9503 180.246 85.5543 180.246 85.107C180.246 84.6523 180.151 84.2563 179.96 83.919C179.777 83.5817 179.524 83.3213 179.201 83.138C178.878 82.9473 178.512 82.852 178.101 82.852C177.69 82.852 177.324 82.9473 177.001 83.138C176.678 83.3213 176.422 83.5817 176.231 83.919C176.04 84.2563 175.945 84.6523 175.945 85.107C175.945 85.5543 176.04 85.9503 176.231 86.295C176.422 86.6323 176.678 86.8963 177.001 87.087C177.324 87.2703 177.687 87.362 178.09 87.362ZM188.932 88.055C188.434 88.055 187.983 87.9413 187.579 87.714C187.176 87.4793 186.853 87.1457 186.611 86.713C186.377 86.273 186.259 85.7377 186.259 85.107C186.259 84.4763 186.377 83.9447 186.611 83.512C186.846 83.072 187.165 82.7383 187.568 82.511C187.972 82.2837 188.426 82.17 188.932 82.17C189.482 82.17 189.974 82.2947 190.406 82.544C190.846 82.786 191.191 83.1307 191.44 83.578C191.69 84.018 191.814 84.5277 191.814 85.107C191.814 85.6937 191.69 86.207 191.44 86.647C191.191 87.087 190.846 87.4317 190.406 87.681C189.974 87.9303 189.482 88.055 188.932 88.055ZM185.951 90.134V82.225H186.699V83.963L186.622 85.118L186.732 86.284V90.134H185.951ZM188.877 87.362C189.288 87.362 189.655 87.2703 189.977 87.087C190.3 86.8963 190.557 86.6323 190.747 86.295C190.938 85.9503 191.033 85.5543 191.033 85.107C191.033 84.6597 190.938 84.2673 190.747 83.93C190.557 83.5927 190.3 83.3287 189.977 83.138C189.655 82.9473 189.288 82.852 188.877 82.852C188.467 82.852 188.096 82.9473 187.766 83.138C187.444 83.3287 187.187 83.5927 186.996 83.93C186.813 84.2673 186.721 84.6597 186.721 85.107C186.721 85.5543 186.813 85.9503 186.996 86.295C187.187 86.6323 187.444 86.8963 187.766 87.087C188.096 87.2703 188.467 87.362 188.877 87.362ZM195.981 88.055C195.423 88.055 194.921 87.9303 194.474 87.681C194.034 87.4243 193.685 87.076 193.429 86.636C193.172 86.1887 193.044 85.679 193.044 85.107C193.044 84.5277 193.172 84.018 193.429 83.578C193.685 83.138 194.034 82.7933 194.474 82.544C194.914 82.2947 195.416 82.17 195.981 82.17C196.553 82.17 197.059 82.2947 197.499 82.544C197.946 82.7933 198.294 83.138 198.544 83.578C198.8 84.018 198.929 84.5277 198.929 85.107C198.929 85.679 198.8 86.1887 198.544 86.636C198.294 87.076 197.946 87.4243 197.499 87.681C197.051 87.9303 196.545 88.055 195.981 88.055ZM195.981 87.362C196.399 87.362 196.769 87.2703 197.092 87.087C197.414 86.8963 197.667 86.6323 197.851 86.295C198.041 85.9503 198.137 85.5543 198.137 85.107C198.137 84.6523 198.041 84.2563 197.851 83.919C197.667 83.5817 197.414 83.3213 197.092 83.138C196.769 82.9473 196.402 82.852 195.992 82.852C195.581 82.852 195.214 82.9473 194.892 83.138C194.569 83.3213 194.312 83.5817 194.122 83.919C193.931 84.2563 193.836 84.6523 193.836 85.107C193.836 85.5543 193.931 85.9503 194.122 86.295C194.312 86.6323 194.569 86.8963 194.892 87.087C195.214 87.2703 195.577 87.362 195.981 87.362ZM200.743 88V79.838H201.524V88H200.743ZM203.917 88V82.225H204.698V88H203.917ZM204.313 80.949C204.152 80.949 204.016 80.894 203.906 80.784C203.796 80.674 203.741 80.542 203.741 80.388C203.741 80.234 203.796 80.1057 203.906 80.003C204.016 79.893 204.152 79.838 204.313 79.838C204.474 79.838 204.61 79.8893 204.72 79.992C204.83 80.0947 204.885 80.223 204.885 80.377C204.885 80.5383 204.83 80.674 204.72 80.784C204.617 80.894 204.482 80.949 204.313 80.949ZM208.642 88.055C208.166 88.055 207.715 87.989 207.289 87.857C206.864 87.7177 206.53 87.5453 206.288 87.34L206.64 86.724C206.875 86.9 207.176 87.054 207.542 87.186C207.909 87.3107 208.294 87.373 208.697 87.373C209.247 87.373 209.643 87.2887 209.885 87.12C210.127 86.944 210.248 86.713 210.248 86.427C210.248 86.2143 210.179 86.0493 210.039 85.932C209.907 85.8073 209.731 85.7157 209.511 85.657C209.291 85.591 209.046 85.536 208.774 85.492C208.503 85.448 208.232 85.3967 207.96 85.338C207.696 85.2793 207.454 85.195 207.234 85.085C207.014 84.9677 206.835 84.81 206.695 84.612C206.563 84.414 206.497 84.15 206.497 83.82C206.497 83.5047 206.585 83.2223 206.761 82.973C206.937 82.7237 207.194 82.5293 207.531 82.39C207.876 82.2433 208.294 82.17 208.785 82.17C209.159 82.17 209.533 82.2213 209.907 82.324C210.281 82.4193 210.589 82.5477 210.831 82.709L210.49 83.336C210.234 83.16 209.959 83.0353 209.665 82.962C209.372 82.8813 209.079 82.841 208.785 82.841C208.265 82.841 207.88 82.9327 207.63 83.116C207.388 83.292 207.267 83.5193 207.267 83.798C207.267 84.018 207.333 84.1903 207.465 84.315C207.605 84.4397 207.784 84.5387 208.004 84.612C208.232 84.678 208.477 84.733 208.741 84.777C209.013 84.821 209.28 84.876 209.544 84.942C209.816 85.0007 210.061 85.085 210.281 85.195C210.509 85.2977 210.688 85.448 210.82 85.646C210.96 85.8367 211.029 86.0897 211.029 86.405C211.029 86.7423 210.934 87.0357 210.743 87.285C210.56 87.527 210.289 87.7177 209.929 87.857C209.577 87.989 209.148 88.055 208.642 88.055ZM212.682 88V79.838H213.463V83.809L213.309 83.512C213.493 83.094 213.786 82.7677 214.189 82.533C214.593 82.291 215.073 82.17 215.63 82.17C216.1 82.17 216.51 82.2617 216.862 82.445C217.222 82.621 217.5 82.8923 217.698 83.259C217.904 83.6257 218.006 84.0877 218.006 84.645V88H217.225V84.722C217.225 84.1133 217.071 83.655 216.763 83.347C216.463 83.0317 216.037 82.874 215.487 82.874C215.077 82.874 214.717 82.9583 214.409 83.127C214.109 83.2883 213.874 83.5267 213.705 83.842C213.544 84.15 213.463 84.524 213.463 84.964V88H212.682ZM222.789 88.055C222.188 88.055 221.66 87.9303 221.205 87.681C220.75 87.4243 220.395 87.076 220.138 86.636C219.881 86.1887 219.753 85.679 219.753 85.107C219.753 84.535 219.874 84.029 220.116 83.589C220.365 83.149 220.703 82.8043 221.128 82.555C221.561 82.2983 222.045 82.17 222.58 82.17C223.123 82.17 223.603 82.2947 224.021 82.544C224.446 82.786 224.78 83.1307 225.022 83.578C225.264 84.018 225.385 84.5277 225.385 85.107C225.385 85.1437 225.381 85.184 225.374 85.228C225.374 85.2647 225.374 85.305 225.374 85.349H220.347V84.766H224.956L224.648 84.997C224.648 84.579 224.556 84.2087 224.373 83.886C224.197 83.556 223.955 83.2993 223.647 83.116C223.339 82.9327 222.983 82.841 222.58 82.841C222.184 82.841 221.828 82.9327 221.513 83.116C221.198 83.2993 220.952 83.556 220.776 83.886C220.6 84.216 220.512 84.5937 220.512 85.019V85.14C220.512 85.58 220.607 85.9687 220.798 86.306C220.996 86.636 221.267 86.8963 221.612 87.087C221.964 87.2703 222.364 87.362 222.811 87.362C223.163 87.362 223.489 87.2997 223.79 87.175C224.098 87.0503 224.362 86.8597 224.582 86.603L225.022 87.109C224.765 87.417 224.443 87.6517 224.054 87.813C223.673 87.9743 223.251 88.055 222.789 88.055ZM229.494 88.055C228.944 88.055 228.449 87.9303 228.009 87.681C227.576 87.4317 227.235 87.087 226.986 86.647C226.736 86.1997 226.612 85.6863 226.612 85.107C226.612 84.5203 226.736 84.007 226.986 83.567C227.235 83.127 227.576 82.786 228.009 82.544C228.449 82.2947 228.944 82.17 229.494 82.17C230 82.17 230.451 82.2837 230.847 82.511C231.25 82.7383 231.569 83.072 231.804 83.512C232.046 83.9447 232.167 84.4763 232.167 85.107C232.167 85.7303 232.049 86.262 231.815 86.702C231.58 87.142 231.261 87.4793 230.858 87.714C230.462 87.9413 230.007 88.055 229.494 88.055ZM229.549 87.362C229.959 87.362 230.326 87.2703 230.649 87.087C230.979 86.8963 231.235 86.6323 231.419 86.295C231.609 85.9503 231.705 85.5543 231.705 85.107C231.705 84.6523 231.609 84.2563 231.419 83.919C231.235 83.5817 230.979 83.3213 230.649 83.138C230.326 82.9473 229.959 82.852 229.549 82.852C229.145 82.852 228.782 82.9473 228.46 83.138C228.137 83.3213 227.88 83.5817 227.69 83.919C227.499 84.2563 227.404 84.6523 227.404 85.107C227.404 85.5543 227.499 85.9503 227.69 86.295C227.88 86.6323 228.137 86.8963 228.46 87.087C228.782 87.2703 229.145 87.362 229.549 87.362ZM231.727 88V86.262L231.804 85.096L231.694 83.93V79.838H232.475V88H231.727ZM234.397 89.606L234.881 87.571L234.969 88.044C234.8 88.044 234.657 87.989 234.54 87.879C234.43 87.769 234.375 87.626 234.375 87.45C234.375 87.274 234.43 87.131 234.54 87.021C234.657 86.911 234.796 86.856 234.958 86.856C235.126 86.856 235.262 86.9147 235.365 87.032C235.475 87.1493 235.53 87.2887 235.53 87.45C235.53 87.5087 235.526 87.5673 235.519 87.626C235.511 87.6847 235.497 87.7507 235.475 87.824C235.453 87.8973 235.423 87.9853 235.387 88.088L234.925 89.606H234.397ZM240.52 88V79.838H241.301V83.809L241.147 83.512C241.33 83.094 241.623 82.7677 242.027 82.533C242.43 82.291 242.91 82.17 243.468 82.17C243.937 82.17 244.348 82.2617 244.7 82.445C245.059 82.621 245.338 82.8923 245.536 83.259C245.741 83.6257 245.844 84.0877 245.844 84.645V88H245.063V84.722C245.063 84.1133 244.909 83.655 244.601 83.347C244.3 83.0317 243.875 82.874 243.325 82.874C242.914 82.874 242.555 82.9583 242.247 83.127C241.946 83.2883 241.711 83.5267 241.543 83.842C241.381 84.15 241.301 84.524 241.301 84.964V88H240.52ZM248.173 88V82.225H248.954V88H248.173ZM248.569 80.949C248.408 80.949 248.272 80.894 248.162 80.784C248.052 80.674 247.997 80.542 247.997 80.388C247.997 80.234 248.052 80.1057 248.162 80.003C248.272 79.893 248.408 79.838 248.569 79.838C248.731 79.838 248.866 79.8893 248.976 79.992C249.086 80.0947 249.141 80.223 249.141 80.377C249.141 80.5383 249.086 80.674 248.976 80.784C248.874 80.894 248.738 80.949 248.569 80.949ZM253.811 90.189C253.283 90.189 252.777 90.112 252.293 89.958C251.809 89.804 251.417 89.584 251.116 89.298L251.512 88.704C251.784 88.946 252.117 89.1367 252.513 89.276C252.917 89.4227 253.342 89.496 253.789 89.496C254.523 89.496 255.062 89.3237 255.406 88.979C255.751 88.6417 255.923 88.1137 255.923 87.395V85.954L256.033 84.964L255.956 83.974V82.225H256.704V87.296C256.704 88.2933 256.459 89.023 255.967 89.485C255.483 89.9543 254.765 90.189 253.811 90.189ZM253.668 87.78C253.118 87.78 252.623 87.6627 252.183 87.428C251.743 87.186 251.395 86.8523 251.138 86.427C250.889 86.0017 250.764 85.514 250.764 84.964C250.764 84.414 250.889 83.93 251.138 83.512C251.395 83.0867 251.743 82.7567 252.183 82.522C252.623 82.2873 253.118 82.17 253.668 82.17C254.182 82.17 254.644 82.2763 255.054 82.489C255.465 82.7017 255.791 83.017 256.033 83.435C256.275 83.853 256.396 84.3627 256.396 84.964C256.396 85.5653 256.275 86.075 256.033 86.493C255.791 86.911 255.465 87.23 255.054 87.45C254.644 87.67 254.182 87.78 253.668 87.78ZM253.745 87.087C254.171 87.087 254.548 86.999 254.878 86.823C255.208 86.6397 255.469 86.3903 255.659 86.075C255.85 85.7523 255.945 85.382 255.945 84.964C255.945 84.546 255.85 84.1793 255.659 83.864C255.469 83.5487 255.208 83.303 254.878 83.127C254.548 82.9437 254.171 82.852 253.745 82.852C253.327 82.852 252.95 82.9437 252.612 83.127C252.282 83.303 252.022 83.5487 251.831 83.864C251.648 84.1793 251.556 84.546 251.556 84.964C251.556 85.382 251.648 85.7523 251.831 86.075C252.022 86.3903 252.282 86.6397 252.612 86.823C252.95 86.999 253.327 87.087 253.745 87.087ZM259.098 88V79.838H259.879V83.809L259.725 83.512C259.908 83.094 260.201 82.7677 260.605 82.533C261.008 82.291 261.488 82.17 262.046 82.17C262.515 82.17 262.926 82.2617 263.278 82.445C263.637 82.621 263.916 82.8923 264.114 83.259C264.319 83.6257 264.422 84.0877 264.422 84.645V88H263.641V84.722C263.641 84.1133 263.487 83.655 263.179 83.347C262.878 83.0317 262.453 82.874 261.903 82.874C261.492 82.874 261.133 82.9583 260.825 83.127C260.524 83.2883 260.289 83.5267 260.121 83.842C259.959 84.15 259.879 84.524 259.879 84.964V88H259.098ZM266.322 85.36V84.678H269.204V85.36H266.322ZM274.152 88.055C273.654 88.055 273.203 87.9413 272.799 87.714C272.396 87.4793 272.073 87.1457 271.831 86.713C271.597 86.273 271.479 85.7377 271.479 85.107C271.479 84.4763 271.597 83.9447 271.831 83.512C272.066 83.072 272.385 82.7383 272.788 82.511C273.192 82.2837 273.646 82.17 274.152 82.17C274.702 82.17 275.194 82.2947 275.626 82.544C276.066 82.786 276.411 83.1307 276.66 83.578C276.91 84.018 277.034 84.5277 277.034 85.107C277.034 85.6937 276.91 86.207 276.66 86.647C276.411 87.087 276.066 87.4317 275.626 87.681C275.194 87.9303 274.702 88.055 274.152 88.055ZM271.171 90.134V82.225H271.919V83.963L271.842 85.118L271.952 86.284V90.134H271.171ZM274.097 87.362C274.508 87.362 274.875 87.2703 275.197 87.087C275.52 86.8963 275.777 86.6323 275.967 86.295C276.158 85.9503 276.253 85.5543 276.253 85.107C276.253 84.6597 276.158 84.2673 275.967 83.93C275.777 83.5927 275.52 83.3287 275.197 83.138C274.875 82.9473 274.508 82.852 274.097 82.852C273.687 82.852 273.316 82.9473 272.986 83.138C272.664 83.3287 272.407 83.5927 272.216 83.93C272.033 84.2673 271.941 84.6597 271.941 85.107C271.941 85.5543 272.033 85.9503 272.216 86.295C272.407 86.6323 272.664 86.8963 272.986 87.087C273.316 87.2703 273.687 87.362 274.097 87.362ZM281.299 88.055C280.698 88.055 280.17 87.9303 279.715 87.681C279.261 87.4243 278.905 87.076 278.648 86.636C278.392 86.1887 278.263 85.679 278.263 85.107C278.263 84.535 278.384 84.029 278.626 83.589C278.876 83.149 279.213 82.8043 279.638 82.555C280.071 82.2983 280.555 82.17 281.09 82.17C281.633 82.17 282.113 82.2947 282.531 82.544C282.957 82.786 283.29 83.1307 283.532 83.578C283.774 84.018 283.895 84.5277 283.895 85.107C283.895 85.1437 283.892 85.184 283.884 85.228C283.884 85.2647 283.884 85.305 283.884 85.349H278.857V84.766H283.466L283.158 84.997C283.158 84.579 283.067 84.2087 282.883 83.886C282.707 83.556 282.465 83.2993 282.157 83.116C281.849 82.9327 281.494 82.841 281.09 82.841C280.694 82.841 280.339 82.9327 280.023 83.116C279.708 83.2993 279.462 83.556 279.286 83.886C279.11 84.216 279.022 84.5937 279.022 85.019V85.14C279.022 85.58 279.118 85.9687 279.308 86.306C279.506 86.636 279.778 86.8963 280.122 87.087C280.474 87.2703 280.874 87.362 281.321 87.362C281.673 87.362 282 87.2997 282.3 87.175C282.608 87.0503 282.872 86.8597 283.092 86.603L283.532 87.109C283.276 87.417 282.953 87.6517 282.564 87.813C282.183 87.9743 281.761 88.055 281.299 88.055ZM285.705 88V82.225H286.453V83.798L286.376 83.523C286.537 83.083 286.809 82.7493 287.19 82.522C287.571 82.2873 288.044 82.17 288.609 82.17V82.929C288.58 82.929 288.55 82.929 288.521 82.929C288.492 82.9217 288.462 82.918 288.433 82.918C287.824 82.918 287.348 83.105 287.003 83.479C286.658 83.8457 286.486 84.37 286.486 85.052V88H285.705ZM290.472 88V81.499C290.472 80.9857 290.622 80.5713 290.923 80.256C291.224 79.9407 291.656 79.783 292.221 79.783C292.441 79.783 292.654 79.8123 292.859 79.871C293.064 79.9297 293.237 80.0213 293.376 80.146L293.112 80.729C293.002 80.6337 292.874 80.564 292.727 80.52C292.58 80.4687 292.423 80.443 292.254 80.443C291.924 80.443 291.671 80.5347 291.495 80.718C291.319 80.9013 291.231 81.1727 291.231 81.532V82.412L291.253 82.775V88H290.472ZM289.438 82.874V82.225H293.013V82.874H289.438ZM296.545 88.055C295.988 88.055 295.485 87.9303 295.038 87.681C294.598 87.4243 294.25 87.076 293.993 86.636C293.736 86.1887 293.608 85.679 293.608 85.107C293.608 84.5277 293.736 84.018 293.993 83.578C294.25 83.138 294.598 82.7933 295.038 82.544C295.478 82.2947 295.98 82.17 296.545 82.17C297.117 82.17 297.623 82.2947 298.063 82.544C298.51 82.7933 298.859 83.138 299.108 83.578C299.365 84.018 299.493 84.5277 299.493 85.107C299.493 85.679 299.365 86.1887 299.108 86.636C298.859 87.076 298.51 87.4243 298.063 87.681C297.616 87.9303 297.11 88.055 296.545 88.055ZM296.545 87.362C296.963 87.362 297.333 87.2703 297.656 87.087C297.979 86.8963 298.232 86.6323 298.415 86.295C298.606 85.9503 298.701 85.5543 298.701 85.107C298.701 84.6523 298.606 84.2563 298.415 83.919C298.232 83.5817 297.979 83.3213 297.656 83.138C297.333 82.9473 296.967 82.852 296.556 82.852C296.145 82.852 295.779 82.9473 295.456 83.138C295.133 83.3213 294.877 83.5817 294.686 83.919C294.495 84.2563 294.4 84.6523 294.4 85.107C294.4 85.5543 294.495 85.9503 294.686 86.295C294.877 86.6323 295.133 86.8963 295.456 87.087C295.779 87.2703 296.142 87.362 296.545 87.362ZM301.307 88V82.225H302.055V83.798L301.978 83.523C302.14 83.083 302.411 82.7493 302.792 82.522C303.174 82.2873 303.647 82.17 304.211 82.17V82.929C304.182 82.929 304.153 82.929 304.123 82.929C304.094 82.9217 304.065 82.918 304.035 82.918C303.427 82.918 302.95 83.105 302.605 83.479C302.261 83.8457 302.088 84.37 302.088 85.052V88H301.307ZM305.857 88V82.225H306.605V83.787L306.484 83.512C306.66 83.094 306.942 82.7677 307.331 82.533C307.727 82.291 308.192 82.17 308.728 82.17C309.292 82.17 309.773 82.313 310.169 82.599C310.565 82.8777 310.821 83.2993 310.939 83.864L310.631 83.743C310.799 83.2737 311.096 82.896 311.522 82.61C311.954 82.3167 312.471 82.17 313.073 82.17C313.542 82.17 313.949 82.2617 314.294 82.445C314.646 82.621 314.917 82.8923 315.108 83.259C315.306 83.6257 315.405 84.0877 315.405 84.645V88H314.624V84.722C314.624 84.1133 314.477 83.655 314.184 83.347C313.898 83.0317 313.491 82.874 312.963 82.874C312.567 82.874 312.222 82.9583 311.929 83.127C311.643 83.2883 311.419 83.5267 311.258 83.842C311.104 84.15 311.027 84.524 311.027 84.964V88H310.246V84.722C310.246 84.1133 310.099 83.655 309.806 83.347C309.512 83.0317 309.102 82.874 308.574 82.874C308.185 82.874 307.844 82.9583 307.551 83.127C307.257 83.2883 307.03 83.5267 306.869 83.842C306.715 84.15 306.638 84.524 306.638 84.964V88H305.857ZM321.362 88V86.724L321.329 86.515V84.381C321.329 83.8897 321.189 83.512 320.911 83.248C320.639 82.984 320.232 82.852 319.69 82.852C319.316 82.852 318.96 82.9143 318.623 83.039C318.285 83.1637 317.999 83.3287 317.765 83.534L317.413 82.951C317.706 82.7017 318.058 82.511 318.469 82.379C318.879 82.2397 319.312 82.17 319.767 82.17C320.515 82.17 321.09 82.357 321.494 82.731C321.904 83.0977 322.11 83.6587 322.11 84.414V88H321.362ZM319.371 88.055C318.938 88.055 318.56 87.9853 318.238 87.846C317.922 87.6993 317.68 87.5013 317.512 87.252C317.343 86.9953 317.259 86.702 317.259 86.372C317.259 86.0713 317.328 85.8 317.468 85.558C317.614 85.3087 317.849 85.1107 318.172 84.964C318.502 84.81 318.942 84.733 319.492 84.733H321.483V85.316H319.514C318.956 85.316 318.568 85.415 318.348 85.613C318.135 85.811 318.029 86.0567 318.029 86.35C318.029 86.68 318.157 86.944 318.414 87.142C318.67 87.34 319.03 87.439 319.492 87.439C319.932 87.439 320.309 87.34 320.625 87.142C320.947 86.9367 321.182 86.6433 321.329 86.262L321.505 86.801C321.358 87.1823 321.101 87.4867 320.735 87.714C320.375 87.9413 319.921 88.055 319.371 88.055ZM324.451 88V82.225H325.199V83.809L325.078 83.512C325.261 83.094 325.555 82.7677 325.958 82.533C326.361 82.291 326.842 82.17 327.399 82.17C327.868 82.17 328.279 82.2617 328.631 82.445C328.99 82.621 329.269 82.8923 329.467 83.259C329.672 83.6257 329.775 84.0877 329.775 84.645V88H328.994V84.722C328.994 84.1133 328.84 83.655 328.532 83.347C328.231 83.0317 327.806 82.874 327.256 82.874C326.845 82.874 326.486 82.9583 326.178 83.127C325.877 83.2883 325.643 83.5267 325.474 83.842C325.313 84.15 325.232 84.524 325.232 84.964V88H324.451ZM334.502 88.055C333.93 88.055 333.417 87.9303 332.962 87.681C332.515 87.4243 332.163 87.076 331.906 86.636C331.65 86.1887 331.521 85.679 331.521 85.107C331.521 84.5277 331.65 84.018 331.906 83.578C332.163 83.138 332.515 82.7933 332.962 82.544C333.417 82.2947 333.93 82.17 334.502 82.17C334.994 82.17 335.437 82.2653 335.833 82.456C336.229 82.6467 336.541 82.9327 336.768 83.314L336.185 83.71C335.987 83.4167 335.742 83.2003 335.448 83.061C335.155 82.9217 334.836 82.852 334.491 82.852C334.081 82.852 333.71 82.9473 333.38 83.138C333.05 83.3213 332.79 83.5817 332.599 83.919C332.409 84.2563 332.313 84.6523 332.313 85.107C332.313 85.5617 332.409 85.9577 332.599 86.295C332.79 86.6323 333.05 86.8963 333.38 87.087C333.71 87.2703 334.081 87.362 334.491 87.362C334.836 87.362 335.155 87.2923 335.448 87.153C335.742 87.0137 335.987 86.801 336.185 86.515L336.768 86.911C336.541 87.285 336.229 87.571 335.833 87.769C335.437 87.9597 334.994 88.055 334.502 88.055ZM340.879 88.055C340.278 88.055 339.75 87.9303 339.295 87.681C338.84 87.4243 338.485 87.076 338.228 86.636C337.971 86.1887 337.843 85.679 337.843 85.107C337.843 84.535 337.964 84.029 338.206 83.589C338.455 83.149 338.793 82.8043 339.218 82.555C339.651 82.2983 340.135 82.17 340.67 82.17C341.213 82.17 341.693 82.2947 342.111 82.544C342.536 82.786 342.87 83.1307 343.112 83.578C343.354 84.018 343.475 84.5277 343.475 85.107C343.475 85.1437 343.471 85.184 343.464 85.228C343.464 85.2647 343.464 85.305 343.464 85.349H338.437V84.766H343.046L342.738 84.997C342.738 84.579 342.646 84.2087 342.463 83.886C342.287 83.556 342.045 83.2993 341.737 83.116C341.429 82.9327 341.073 82.841 340.67 82.841C340.274 82.841 339.918 82.9327 339.603 83.116C339.288 83.2993 339.042 83.556 338.866 83.886C338.69 84.216 338.602 84.5937 338.602 85.019V85.14C338.602 85.58 338.697 85.9687 338.888 86.306C339.086 86.636 339.357 86.8963 339.702 87.087C340.054 87.2703 340.454 87.362 340.901 87.362C341.253 87.362 341.579 87.2997 341.88 87.175C342.188 87.0503 342.452 86.8597 342.672 86.603L343.112 87.109C342.855 87.417 342.533 87.6517 342.144 87.813C341.763 87.9743 341.341 88.055 340.879 88.055ZM351.365 88.055C350.866 88.055 350.415 87.9413 350.012 87.714C349.608 87.4793 349.286 87.1457 349.044 86.713C348.809 86.273 348.692 85.7377 348.692 85.107C348.692 84.4763 348.809 83.9447 349.044 83.512C349.278 83.072 349.597 82.7383 350.001 82.511C350.404 82.2837 350.859 82.17 351.365 82.17C351.915 82.17 352.406 82.2947 352.839 82.544C353.279 82.786 353.623 83.1307 353.873 83.578C354.122 84.018 354.247 84.5277 354.247 85.107C354.247 85.6937 354.122 86.207 353.873 86.647C353.623 87.087 353.279 87.4317 352.839 87.681C352.406 87.9303 351.915 88.055 351.365 88.055ZM348.384 90.134V82.225H349.132V83.963L349.055 85.118L349.165 86.284V90.134H348.384ZM351.31 87.362C351.72 87.362 352.087 87.2703 352.41 87.087C352.732 86.8963 352.989 86.6323 353.18 86.295C353.37 85.9503 353.466 85.5543 353.466 85.107C353.466 84.6597 353.37 84.2673 353.18 83.93C352.989 83.5927 352.732 83.3287 352.41 83.138C352.087 82.9473 351.72 82.852 351.31 82.852C350.899 82.852 350.529 82.9473 350.199 83.138C349.876 83.3287 349.619 83.5927 349.429 83.93C349.245 84.2673 349.154 84.6597 349.154 85.107C349.154 85.5543 349.245 85.9503 349.429 86.295C349.619 86.6323 349.876 86.8963 350.199 87.087C350.529 87.2703 350.899 87.362 351.31 87.362ZM356.059 88V82.225H356.807V83.798L356.73 83.523C356.891 83.083 357.162 82.7493 357.544 82.522C357.925 82.2873 358.398 82.17 358.963 82.17V82.929C358.933 82.929 358.904 82.929 358.875 82.929C358.845 82.9217 358.816 82.918 358.787 82.918C358.178 82.918 357.701 83.105 357.357 83.479C357.012 83.8457 356.84 84.37 356.84 85.052V88H356.059ZM362.908 88.055C362.351 88.055 361.848 87.9303 361.401 87.681C360.961 87.4243 360.613 87.076 360.356 86.636C360.099 86.1887 359.971 85.679 359.971 85.107C359.971 84.5277 360.099 84.018 360.356 83.578C360.613 83.138 360.961 82.7933 361.401 82.544C361.841 82.2947 362.343 82.17 362.908 82.17C363.48 82.17 363.986 82.2947 364.426 82.544C364.873 82.7933 365.222 83.138 365.471 83.578C365.728 84.018 365.856 84.5277 365.856 85.107C365.856 85.679 365.728 86.1887 365.471 86.636C365.222 87.076 364.873 87.4243 364.426 87.681C363.979 87.9303 363.473 88.055 362.908 88.055ZM362.908 87.362C363.326 87.362 363.696 87.2703 364.019 87.087C364.342 86.8963 364.595 86.6323 364.778 86.295C364.969 85.9503 365.064 85.5543 365.064 85.107C365.064 84.6523 364.969 84.2563 364.778 83.919C364.595 83.5817 364.342 83.3213 364.019 83.138C363.696 82.9473 363.33 82.852 362.919 82.852C362.508 82.852 362.142 82.9473 361.819 83.138C361.496 83.3213 361.24 83.5817 361.049 83.919C360.858 84.2563 360.763 84.6523 360.763 85.107C360.763 85.5543 360.858 85.9503 361.049 86.295C361.24 86.6323 361.496 86.8963 361.819 87.087C362.142 87.2703 362.505 87.362 362.908 87.362ZM369.97 88.055C369.42 88.055 368.925 87.9303 368.485 87.681C368.052 87.4317 367.711 87.087 367.462 86.647C367.212 86.1997 367.088 85.6863 367.088 85.107C367.088 84.5203 367.212 84.007 367.462 83.567C367.711 83.127 368.052 82.786 368.485 82.544C368.925 82.2947 369.42 82.17 369.97 82.17C370.476 82.17 370.927 82.2837 371.323 82.511C371.726 82.7383 372.045 83.072 372.28 83.512C372.522 83.9447 372.643 84.4763 372.643 85.107C372.643 85.7303 372.525 86.262 372.291 86.702C372.056 87.142 371.737 87.4793 371.334 87.714C370.938 87.9413 370.483 88.055 369.97 88.055ZM370.025 87.362C370.435 87.362 370.802 87.2703 371.125 87.087C371.455 86.8963 371.711 86.6323 371.895 86.295C372.085 85.9503 372.181 85.5543 372.181 85.107C372.181 84.6523 372.085 84.2563 371.895 83.919C371.711 83.5817 371.455 83.3213 371.125 83.138C370.802 82.9473 370.435 82.852 370.025 82.852C369.621 82.852 369.258 82.9473 368.936 83.138C368.613 83.3213 368.356 83.5817 368.166 83.919C367.975 84.2563 367.88 84.6523 367.88 85.107C367.88 85.5543 367.975 85.9503 368.166 86.295C368.356 86.6323 368.613 86.8963 368.936 87.087C369.258 87.2703 369.621 87.362 370.025 87.362ZM372.203 88V86.262L372.28 85.096L372.17 83.93V79.838H372.951V88H372.203ZM377.733 88.055C377.241 88.055 376.812 87.9633 376.446 87.78C376.079 87.5967 375.793 87.3217 375.588 86.955C375.39 86.5883 375.291 86.13 375.291 85.58V82.225H376.072V85.492C376.072 86.108 376.222 86.5737 376.523 86.889C376.831 87.197 377.26 87.351 377.81 87.351C378.213 87.351 378.561 87.2703 378.855 87.109C379.155 86.9403 379.383 86.6983 379.537 86.383C379.698 86.0677 379.779 85.69 379.779 85.25V82.225H380.56V88H379.812V86.416L379.933 86.702C379.749 87.1273 379.463 87.461 379.075 87.703C378.693 87.9377 378.246 88.055 377.733 88.055ZM385.354 88.055C384.782 88.055 384.269 87.9303 383.814 87.681C383.367 87.4243 383.015 87.076 382.758 86.636C382.502 86.1887 382.373 85.679 382.373 85.107C382.373 84.5277 382.502 84.018 382.758 83.578C383.015 83.138 383.367 82.7933 383.814 82.544C384.269 82.2947 384.782 82.17 385.354 82.17C385.846 82.17 386.289 82.2653 386.685 82.456C387.081 82.6467 387.393 82.9327 387.62 83.314L387.037 83.71C386.839 83.4167 386.594 83.2003 386.3 83.061C386.007 82.9217 385.688 82.852 385.343 82.852C384.933 82.852 384.562 82.9473 384.232 83.138C383.902 83.3213 383.642 83.5817 383.451 83.919C383.261 84.2563 383.165 84.6523 383.165 85.107C383.165 85.5617 383.261 85.9577 383.451 86.295C383.642 86.6323 383.902 86.8963 384.232 87.087C384.562 87.2703 384.933 87.362 385.343 87.362C385.688 87.362 386.007 87.2923 386.3 87.153C386.594 87.0137 386.839 86.801 387.037 86.515L387.62 86.911C387.393 87.285 387.081 87.571 386.685 87.769C386.289 87.9597 385.846 88.055 385.354 88.055ZM391.265 88.055C390.722 88.055 390.304 87.9083 390.011 87.615C389.718 87.3217 389.571 86.9073 389.571 86.372V80.949H390.352V86.328C390.352 86.6653 390.436 86.9257 390.605 87.109C390.781 87.2923 391.03 87.384 391.353 87.384C391.698 87.384 391.984 87.285 392.211 87.087L392.486 87.648C392.332 87.7873 392.145 87.89 391.925 87.956C391.712 88.022 391.492 88.055 391.265 88.055ZM388.537 82.874V82.225H392.112V82.874H388.537ZM395.679 88.055C395.202 88.055 394.751 87.989 394.326 87.857C393.9 87.7177 393.567 87.5453 393.325 87.34L393.677 86.724C393.911 86.9 394.212 87.054 394.579 87.186C394.945 87.3107 395.33 87.373 395.734 87.373C396.284 87.373 396.68 87.2887 396.922 87.12C397.164 86.944 397.285 86.713 397.285 86.427C397.285 86.2143 397.215 86.0493 397.076 85.932C396.944 85.8073 396.768 85.7157 396.548 85.657C396.328 85.591 396.082 85.536 395.811 85.492C395.539 85.448 395.268 85.3967 394.997 85.338C394.733 85.2793 394.491 85.195 394.271 85.085C394.051 84.9677 393.871 84.81 393.732 84.612C393.6 84.414 393.534 84.15 393.534 83.82C393.534 83.5047 393.622 83.2223 393.798 82.973C393.974 82.7237 394.23 82.5293 394.568 82.39C394.912 82.2433 395.33 82.17 395.822 82.17C396.196 82.17 396.57 82.2213 396.944 82.324C397.318 82.4193 397.626 82.5477 397.868 82.709L397.527 83.336C397.27 83.16 396.995 83.0353 396.702 82.962C396.408 82.8813 396.115 82.841 395.822 82.841C395.301 82.841 394.916 82.9327 394.667 83.116C394.425 83.292 394.304 83.5193 394.304 83.798C394.304 84.018 394.37 84.1903 394.502 84.315C394.641 84.4397 394.821 84.5387 395.041 84.612C395.268 84.678 395.514 84.733 395.778 84.777C396.049 84.821 396.317 84.876 396.581 84.942C396.852 85.0007 397.098 85.085 397.318 85.195C397.545 85.2977 397.725 85.448 397.857 85.646C397.996 85.8367 398.066 86.0897 398.066 86.405C398.066 86.7423 397.97 87.0357 397.78 87.285C397.596 87.527 397.325 87.7177 396.966 87.857C396.614 87.989 396.185 88.055 395.679 88.055ZM399.796 88.055C399.634 88.055 399.495 87.9963 399.378 87.879C399.268 87.7617 399.213 87.6187 399.213 87.45C399.213 87.274 399.268 87.131 399.378 87.021C399.495 86.911 399.634 86.856 399.796 86.856C399.957 86.856 400.093 86.911 400.203 87.021C400.32 87.131 400.379 87.274 400.379 87.45C400.379 87.6187 400.32 87.7617 400.203 87.879C400.093 87.9963 399.957 88.055 399.796 88.055Z" fill="white"/>
</svg>
