<svg width="420" height="254" viewBox="0 0 420 254" fill="none" xmlns="http://www.w3.org/2000/svg">
<rect x="0.5" y="0.5" width="419" height="253" rx="11.5" stroke="white" stroke-opacity="0.1"/>
<path d="M17.028 24.168C16.364 24.168 15.748 24.064 15.18 23.856C14.62 23.64 14.132 23.336 13.716 22.944C13.308 22.552 12.988 22.092 12.756 21.564C12.524 21.028 12.408 20.44 12.408 19.8C12.408 19.16 12.524 18.576 12.756 18.048C12.988 17.512 13.308 17.048 13.716 16.656C14.132 16.264 14.62 15.964 15.18 15.756C15.748 15.54 16.364 15.432 17.028 15.432C17.804 15.432 18.496 15.568 19.104 15.84C19.72 16.112 20.232 16.504 20.64 17.016L19.128 18.384C18.856 18.064 18.556 17.82 18.228 17.652C17.908 17.484 17.548 17.4 17.148 17.4C16.804 17.4 16.488 17.456 16.2 17.568C15.912 17.68 15.664 17.844 15.456 18.06C15.256 18.268 15.096 18.52 14.976 18.816C14.864 19.112 14.808 19.44 14.808 19.8C14.808 20.16 14.864 20.488 14.976 20.784C15.096 21.08 15.256 21.336 15.456 21.552C15.664 21.76 15.912 21.92 16.2 22.032C16.488 22.144 16.804 22.2 17.148 22.2C17.548 22.2 17.908 22.116 18.228 21.948C18.556 21.78 18.856 21.536 19.128 21.216L20.64 22.584C20.232 23.088 19.72 23.48 19.104 23.76C18.496 24.032 17.804 24.168 17.028 24.168ZM25.7418 24.168C25.0698 24.168 24.4498 24.06 23.8818 23.844C23.3138 23.628 22.8178 23.324 22.3938 22.932C21.9778 22.532 21.6538 22.068 21.4218 21.54C21.1898 21.012 21.0738 20.432 21.0738 19.8C21.0738 19.168 21.1898 18.588 21.4218 18.06C21.6538 17.532 21.9778 17.072 22.3938 16.68C22.8178 16.28 23.3138 15.972 23.8818 15.756C24.4498 15.54 25.0698 15.432 25.7418 15.432C26.4218 15.432 27.0418 15.54 27.6018 15.756C28.1698 15.972 28.6618 16.28 29.0778 16.68C29.4938 17.072 29.8178 17.532 30.0498 18.06C30.2898 18.588 30.4098 19.168 30.4098 19.8C30.4098 20.432 30.2898 21.016 30.0498 21.552C29.8178 22.08 29.4938 22.54 29.0778 22.932C28.6618 23.324 28.1698 23.628 27.6018 23.844C27.0418 24.06 26.4218 24.168 25.7418 24.168ZM25.7418 22.2C26.0618 22.2 26.3578 22.144 26.6298 22.032C26.9098 21.92 27.1498 21.76 27.3498 21.552C27.5578 21.336 27.7178 21.08 27.8298 20.784C27.9498 20.488 28.0098 20.16 28.0098 19.8C28.0098 19.432 27.9498 19.104 27.8298 18.816C27.7178 18.52 27.5578 18.268 27.3498 18.06C27.1498 17.844 26.9098 17.68 26.6298 17.568C26.3578 17.456 26.0618 17.4 25.7418 17.4C25.4218 17.4 25.1218 17.456 24.8418 17.568C24.5698 17.68 24.3298 17.844 24.1218 18.06C23.9218 18.268 23.7618 18.52 23.6418 18.816C23.5298 19.104 23.4738 19.432 23.4738 19.8C23.4738 20.16 23.5298 20.488 23.6418 20.784C23.7618 21.08 23.9218 21.336 24.1218 21.552C24.3298 21.76 24.5698 21.92 24.8418 22.032C25.1218 22.144 25.4218 22.2 25.7418 22.2ZM31.8942 24V15.6H33.8502L38.4822 21.192H37.5582V15.6H39.8862V24H37.9302L33.2982 18.408H34.2222V24H31.8942ZM41.8022 24V15.6H43.7582L48.3902 21.192H47.4662V15.6H49.7942V24H47.8382L43.2062 18.408H44.1302V24H41.8022ZM51.7102 24V15.6H58.2982V17.436H54.0622V22.164H58.4542V24H51.7102ZM53.8942 20.628V18.852H57.7942V20.628H53.8942ZM64.2007 24.168C63.5367 24.168 62.9207 24.064 62.3527 23.856C61.7927 23.64 61.3047 23.336 60.8887 22.944C60.4807 22.552 60.1607 22.092 59.9287 21.564C59.6967 21.028 59.5807 20.44 59.5807 19.8C59.5807 19.16 59.6967 18.576 59.9287 18.048C60.1607 17.512 60.4807 17.048 60.8887 16.656C61.3047 16.264 61.7927 15.964 62.3527 15.756C62.9207 15.54 63.5367 15.432 64.2007 15.432C64.9767 15.432 65.6687 15.568 66.2767 15.84C66.8927 16.112 67.4047 16.504 67.8127 17.016L66.3007 18.384C66.0287 18.064 65.7287 17.82 65.4007 17.652C65.0807 17.484 64.7207 17.4 64.3207 17.4C63.9767 17.4 63.6607 17.456 63.3727 17.568C63.0847 17.68 62.8367 17.844 62.6287 18.06C62.4287 18.268 62.2687 18.52 62.1487 18.816C62.0367 19.112 61.9807 19.44 61.9807 19.8C61.9807 20.16 62.0367 20.488 62.1487 20.784C62.2687 21.08 62.4287 21.336 62.6287 21.552C62.8367 21.76 63.0847 21.92 63.3727 22.032C63.6607 22.144 63.9767 22.2 64.3207 22.2C64.7207 22.2 65.0807 22.116 65.4007 21.948C65.7287 21.78 66.0287 21.536 66.3007 21.216L67.8127 22.584C67.4047 23.088 66.8927 23.48 66.2767 23.76C65.6687 24.032 64.9767 24.168 64.2007 24.168ZM70.7008 24V17.484H68.1208V15.6H75.6448V17.484H73.0768V24H70.7008Z" fill="white"/>
<rect x="12.5" y="35.5" width="395" height="64" rx="11.5" stroke="white" stroke-opacity="0.1"/>
<g clip-path="url(#clip0_2_1020)">
<path d="M210 73C217.732 73 224 66.732 224 59C224 51.268 217.732 45 210 45C202.268 45 196 51.268 196 59C196 66.732 202.268 73 210 73Z" fill="url(#paint0_linear_2_1020)"/>
<path d="M205.477 60.0227L207.14 64.6219C207.14 64.6219 207.348 65.0539 207.572 65.0539C207.796 65.0539 211.099 61.6141 211.099 61.6141L214.78 54.5102L205.538 58.8359L205.477 60.0227Z" fill="#C8DAEA"/>
<path d="M207.681 61.2039L207.364 64.5945C207.364 64.5945 207.233 65.6336 208.266 64.5945C209.305 63.5555 210.301 62.757 210.301 62.757" fill="#A9C6D8"/>
<path d="M205.505 60.1867L202.087 59.0711C202.087 59.0711 201.677 58.907 201.808 58.5297C201.835 58.4531 201.89 58.3875 202.054 58.2727C202.814 57.7477 216.07 52.9844 216.07 52.9844C216.07 52.9844 216.442 52.8586 216.666 52.9406C216.776 52.9734 216.863 53.0664 216.885 53.1813C216.907 53.2797 216.918 53.3836 216.913 53.482C216.913 53.5695 216.902 53.6516 216.891 53.7773C216.809 55.0789 214.391 64.8023 214.391 64.8023C214.391 64.8023 214.249 65.3711 213.73 65.393C213.473 65.4039 213.221 65.3055 213.041 65.125C212.023 64.25 208.513 61.8875 207.736 61.3734C207.703 61.3516 207.676 61.3133 207.67 61.2695C207.659 61.2148 207.72 61.1492 207.72 61.1492C207.72 61.1492 213.834 55.7133 213.998 55.1445C214.009 55.1008 213.965 55.0789 213.899 55.0953C213.495 55.243 206.451 59.6945 205.674 60.1813C205.625 60.1922 205.565 60.1977 205.505 60.1867Z" fill="white"/>
</g>
<path d="M163.552 88V82.888H161.536V81.7H167.026V82.888H165.01V88H163.552ZM169.802 88.072C169.25 88.072 168.764 87.964 168.344 87.748C167.93 87.532 167.609 87.238 167.381 86.866C167.153 86.488 167.039 86.059 167.039 85.579C167.039 85.093 167.15 84.664 167.372 84.292C167.6 83.914 167.909 83.62 168.299 83.41C168.689 83.194 169.13 83.086 169.622 83.086C170.096 83.086 170.522 83.188 170.9 83.392C171.284 83.59 171.587 83.878 171.809 84.256C172.031 84.628 172.142 85.075 172.142 85.597C172.142 85.651 172.139 85.714 172.133 85.786C172.127 85.852 172.121 85.915 172.115 85.975H168.182V85.156H171.377L170.837 85.399C170.837 85.147 170.786 84.928 170.684 84.742C170.582 84.556 170.441 84.412 170.261 84.31C170.081 84.202 169.871 84.148 169.631 84.148C169.391 84.148 169.178 84.202 168.992 84.31C168.812 84.412 168.671 84.559 168.569 84.751C168.467 84.937 168.416 85.159 168.416 85.417V85.633C168.416 85.897 168.473 86.131 168.587 86.335C168.707 86.533 168.872 86.686 169.082 86.794C169.298 86.896 169.55 86.947 169.838 86.947C170.096 86.947 170.321 86.908 170.513 86.83C170.711 86.752 170.891 86.635 171.053 86.479L171.8 87.289C171.578 87.541 171.299 87.736 170.963 87.874C170.627 88.006 170.24 88.072 169.802 88.072ZM173.257 88V81.322H174.661V88H173.257ZM178.547 88.072C177.995 88.072 177.509 87.964 177.089 87.748C176.675 87.532 176.354 87.238 176.126 86.866C175.898 86.488 175.784 86.059 175.784 85.579C175.784 85.093 175.895 84.664 176.117 84.292C176.345 83.914 176.654 83.62 177.044 83.41C177.434 83.194 177.875 83.086 178.367 83.086C178.841 83.086 179.267 83.188 179.645 83.392C180.029 83.59 180.332 83.878 180.554 84.256C180.776 84.628 180.887 85.075 180.887 85.597C180.887 85.651 180.884 85.714 180.878 85.786C180.872 85.852 180.866 85.915 180.86 85.975H176.927V85.156H180.122L179.582 85.399C179.582 85.147 179.531 84.928 179.429 84.742C179.327 84.556 179.186 84.412 179.006 84.31C178.826 84.202 178.616 84.148 178.376 84.148C178.136 84.148 177.923 84.202 177.737 84.31C177.557 84.412 177.416 84.559 177.314 84.751C177.212 84.937 177.161 85.159 177.161 85.417V85.633C177.161 85.897 177.218 86.131 177.332 86.335C177.452 86.533 177.617 86.686 177.827 86.794C178.043 86.896 178.295 86.947 178.583 86.947C178.841 86.947 179.066 86.908 179.258 86.83C179.456 86.752 179.636 86.635 179.798 86.479L180.545 87.289C180.323 87.541 180.044 87.736 179.708 87.874C179.372 88.006 178.985 88.072 178.547 88.072ZM184.279 89.818C183.823 89.818 183.382 89.761 182.956 89.647C182.536 89.539 182.185 89.374 181.903 89.152L182.461 88.144C182.665 88.312 182.923 88.444 183.235 88.54C183.553 88.642 183.865 88.693 184.171 88.693C184.669 88.693 185.029 88.582 185.251 88.36C185.479 88.138 185.593 87.808 185.593 87.37V86.641L185.683 85.426L185.665 84.202V83.158H186.997V87.19C186.997 88.09 186.763 88.753 186.295 89.179C185.827 89.605 185.155 89.818 184.279 89.818ZM184.063 87.766C183.613 87.766 183.205 87.67 182.839 87.478C182.479 87.28 182.188 87.007 181.966 86.659C181.75 86.305 181.642 85.894 181.642 85.426C181.642 84.952 181.75 84.541 181.966 84.193C182.188 83.839 182.479 83.566 182.839 83.374C183.205 83.182 183.613 83.086 184.063 83.086C184.471 83.086 184.831 83.17 185.143 83.338C185.455 83.5 185.698 83.755 185.872 84.103C186.046 84.445 186.133 84.886 186.133 85.426C186.133 85.96 186.046 86.401 185.872 86.749C185.698 87.091 185.455 87.346 185.143 87.514C184.831 87.682 184.471 87.766 184.063 87.766ZM184.342 86.614C184.588 86.614 184.807 86.566 184.999 86.47C185.191 86.368 185.341 86.227 185.449 86.047C185.557 85.867 185.611 85.66 185.611 85.426C185.611 85.186 185.557 84.979 185.449 84.805C185.341 84.625 185.191 84.487 184.999 84.391C184.807 84.289 184.588 84.238 184.342 84.238C184.096 84.238 183.877 84.289 183.685 84.391C183.493 84.487 183.34 84.625 183.226 84.805C183.118 84.979 183.064 85.186 183.064 85.426C183.064 85.66 183.118 85.867 183.226 86.047C183.34 86.227 183.493 86.368 183.685 86.47C183.877 86.566 184.096 86.614 184.342 86.614ZM188.484 88V83.158H189.825V84.526L189.636 84.13C189.78 83.788 190.011 83.53 190.329 83.356C190.647 83.176 191.034 83.086 191.49 83.086V84.382C191.43 84.376 191.376 84.373 191.328 84.373C191.28 84.367 191.229 84.364 191.175 84.364C190.791 84.364 190.479 84.475 190.239 84.697C190.005 84.913 189.888 85.252 189.888 85.714V88H188.484ZM195.158 88V87.055L195.068 86.848V85.156C195.068 84.856 194.975 84.622 194.789 84.454C194.609 84.286 194.33 84.202 193.952 84.202C193.694 84.202 193.439 84.244 193.187 84.328C192.941 84.406 192.731 84.514 192.557 84.652L192.053 83.671C192.317 83.485 192.635 83.341 193.007 83.239C193.379 83.137 193.757 83.086 194.141 83.086C194.879 83.086 195.452 83.26 195.86 83.608C196.268 83.956 196.472 84.499 196.472 85.237V88H195.158ZM193.682 88.072C193.304 88.072 192.98 88.009 192.71 87.883C192.44 87.751 192.233 87.574 192.089 87.352C191.945 87.13 191.873 86.881 191.873 86.605C191.873 86.317 191.942 86.065 192.08 85.849C192.224 85.633 192.449 85.465 192.755 85.345C193.061 85.219 193.46 85.156 193.952 85.156H195.239V85.975H194.105C193.775 85.975 193.547 86.029 193.421 86.137C193.301 86.245 193.241 86.38 193.241 86.542C193.241 86.722 193.31 86.866 193.448 86.974C193.592 87.076 193.787 87.127 194.033 87.127C194.267 87.127 194.477 87.073 194.663 86.965C194.849 86.851 194.984 86.686 195.068 86.47L195.284 87.118C195.182 87.43 194.996 87.667 194.726 87.829C194.456 87.991 194.108 88.072 193.682 88.072ZM197.923 88V83.158H199.264V84.481L199.012 84.094C199.18 83.764 199.417 83.515 199.723 83.347C200.035 83.173 200.389 83.086 200.785 83.086C201.229 83.086 201.616 83.2 201.946 83.428C202.282 83.65 202.504 83.992 202.612 84.454L202.117 84.319C202.279 83.941 202.537 83.641 202.891 83.419C203.251 83.197 203.662 83.086 204.124 83.086C204.508 83.086 204.847 83.164 205.141 83.32C205.441 83.47 205.675 83.704 205.843 84.022C206.017 84.334 206.104 84.736 206.104 85.228V88H204.7V85.444C204.7 85.054 204.619 84.766 204.457 84.58C204.295 84.394 204.067 84.301 203.773 84.301C203.569 84.301 203.386 84.349 203.224 84.445C203.062 84.535 202.936 84.673 202.846 84.859C202.756 85.045 202.711 85.282 202.711 85.57V88H201.307V85.444C201.307 85.054 201.226 84.766 201.064 84.58C200.908 84.394 200.683 84.301 200.389 84.301C200.185 84.301 200.002 84.349 199.84 84.445C199.678 84.535 199.552 84.673 199.462 84.859C199.372 85.045 199.327 85.282 199.327 85.57V88H197.923ZM208.073 84.841C207.833 84.841 207.626 84.76 207.452 84.598C207.284 84.43 207.2 84.217 207.2 83.959C207.2 83.701 207.284 83.494 207.452 83.338C207.626 83.176 207.833 83.095 208.073 83.095C208.319 83.095 208.526 83.176 208.694 83.338C208.862 83.494 208.946 83.701 208.946 83.959C208.946 84.217 208.862 84.43 208.694 84.598C208.526 84.76 208.319 84.841 208.073 84.841ZM208.073 88.072C207.833 88.072 207.626 87.991 207.452 87.829C207.284 87.661 207.2 87.448 207.2 87.19C207.2 86.932 207.284 86.725 207.452 86.569C207.626 86.407 207.833 86.326 208.073 86.326C208.319 86.326 208.526 86.407 208.694 86.569C208.862 86.725 208.946 86.932 208.946 87.19C208.946 87.448 208.862 87.661 208.694 87.829C208.526 87.991 208.319 88.072 208.073 88.072Z" fill="white"/>
<path d="M216.671 89.818C216.047 89.818 215.477 89.716 214.961 89.512C214.445 89.308 214.001 89.023 213.629 88.657C213.257 88.291 212.969 87.859 212.765 87.361C212.561 86.857 212.459 86.308 212.459 85.714C212.459 85.12 212.561 84.574 212.765 84.076C212.969 83.578 213.257 83.146 213.629 82.78C214.007 82.414 214.457 82.132 214.979 81.934C215.501 81.736 216.077 81.637 216.707 81.637C217.325 81.637 217.889 81.733 218.399 81.925C218.909 82.117 219.35 82.39 219.722 82.744C220.1 83.092 220.391 83.509 220.595 83.995C220.799 84.475 220.901 85.006 220.901 85.588C220.901 86.098 220.838 86.536 220.712 86.902C220.586 87.268 220.403 87.553 220.163 87.757C219.929 87.955 219.641 88.054 219.299 88.054C218.963 88.054 218.693 87.952 218.489 87.748C218.291 87.544 218.192 87.253 218.192 86.875V86.263L218.237 85.714L218.156 84.679V83.482H218.939V86.722C218.939 86.962 218.987 87.13 219.083 87.226C219.185 87.322 219.308 87.37 219.452 87.37C219.626 87.37 219.776 87.301 219.902 87.163C220.034 87.025 220.13 86.824 220.19 86.56C220.256 86.29 220.289 85.969 220.289 85.597C220.289 85.093 220.202 84.637 220.028 84.229C219.86 83.815 219.614 83.458 219.29 83.158C218.972 82.858 218.594 82.63 218.156 82.474C217.724 82.312 217.241 82.231 216.707 82.231C216.173 82.231 215.684 82.318 215.24 82.492C214.802 82.66 214.424 82.9 214.106 83.212C213.788 83.518 213.542 83.884 213.368 84.31C213.2 84.736 213.116 85.204 213.116 85.714C213.116 86.23 213.2 86.704 213.368 87.136C213.536 87.562 213.776 87.928 214.088 88.234C214.406 88.546 214.781 88.786 215.213 88.954C215.651 89.128 216.137 89.215 216.671 89.215C216.947 89.215 217.238 89.182 217.544 89.116C217.85 89.056 218.138 88.957 218.408 88.819L218.606 89.395C218.33 89.533 218.018 89.638 217.67 89.71C217.322 89.782 216.989 89.818 216.671 89.818ZM216.509 88.054C216.083 88.054 215.705 87.955 215.375 87.757C215.045 87.553 214.784 87.277 214.592 86.929C214.4 86.581 214.304 86.185 214.304 85.741C214.304 85.291 214.4 84.895 214.592 84.553C214.784 84.205 215.045 83.935 215.375 83.743C215.705 83.545 216.083 83.446 216.509 83.446C216.923 83.446 217.286 83.536 217.598 83.716C217.91 83.89 218.153 84.148 218.327 84.49C218.507 84.832 218.597 85.249 218.597 85.741C218.597 86.233 218.51 86.65 218.336 86.992C218.162 87.334 217.919 87.598 217.607 87.784C217.295 87.964 216.929 88.054 216.509 88.054ZM216.635 87.352C216.929 87.352 217.19 87.289 217.418 87.163C217.652 87.031 217.835 86.845 217.967 86.605C218.105 86.359 218.174 86.071 218.174 85.741C218.174 85.405 218.105 85.117 217.967 84.877C217.835 84.637 217.652 84.454 217.418 84.328C217.19 84.202 216.929 84.139 216.635 84.139C216.335 84.139 216.068 84.205 215.834 84.337C215.606 84.463 215.426 84.646 215.294 84.886C215.168 85.126 215.105 85.411 215.105 85.741C215.105 86.065 215.168 86.347 215.294 86.587C215.426 86.827 215.606 87.016 215.834 87.154C216.068 87.286 216.335 87.352 216.635 87.352ZM223.701 88.054C223.305 88.054 222.927 88 222.567 87.892C222.213 87.784 221.934 87.652 221.73 87.496L222.09 86.812C222.294 86.95 222.546 87.067 222.846 87.163C223.146 87.259 223.452 87.307 223.764 87.307C224.166 87.307 224.454 87.25 224.628 87.136C224.808 87.022 224.898 86.863 224.898 86.659C224.898 86.509 224.844 86.392 224.736 86.308C224.628 86.224 224.484 86.161 224.304 86.119C224.13 86.077 223.935 86.041 223.719 86.011C223.503 85.975 223.287 85.933 223.071 85.885C222.855 85.831 222.657 85.759 222.477 85.669C222.297 85.573 222.153 85.444 222.045 85.282C221.937 85.114 221.883 84.892 221.883 84.616C221.883 84.328 221.964 84.076 222.126 83.86C222.288 83.644 222.516 83.479 222.81 83.365C223.11 83.245 223.464 83.185 223.872 83.185C224.184 83.185 224.499 83.224 224.817 83.302C225.141 83.374 225.405 83.479 225.609 83.617L225.24 84.301C225.024 84.157 224.799 84.058 224.565 84.004C224.331 83.95 224.097 83.923 223.863 83.923C223.485 83.923 223.203 83.986 223.017 84.112C222.831 84.232 222.738 84.388 222.738 84.58C222.738 84.742 222.792 84.868 222.9 84.958C223.014 85.042 223.158 85.108 223.332 85.156C223.512 85.204 223.71 85.246 223.926 85.282C224.142 85.312 224.358 85.354 224.574 85.408C224.79 85.456 224.985 85.525 225.159 85.615C225.339 85.705 225.483 85.831 225.591 85.993C225.705 86.155 225.762 86.371 225.762 86.641C225.762 86.929 225.678 87.178 225.51 87.388C225.342 87.598 225.105 87.763 224.799 87.883C224.493 87.997 224.127 88.054 223.701 88.054ZM229.983 88V86.992L229.938 86.803V85.084C229.938 84.718 229.83 84.436 229.614 84.238C229.404 84.034 229.086 83.932 228.66 83.932C228.378 83.932 228.102 83.98 227.832 84.076C227.562 84.166 227.334 84.289 227.148 84.445L226.788 83.797C227.034 83.599 227.328 83.449 227.67 83.347C228.018 83.239 228.381 83.185 228.759 83.185C229.413 83.185 229.917 83.344 230.271 83.662C230.625 83.98 230.802 84.466 230.802 85.12V88H229.983ZM228.417 88.054C228.063 88.054 227.751 87.994 227.481 87.874C227.217 87.754 227.013 87.589 226.869 87.379C226.725 87.163 226.653 86.92 226.653 86.65C226.653 86.392 226.713 86.158 226.833 85.948C226.959 85.738 227.16 85.57 227.436 85.444C227.718 85.318 228.096 85.255 228.57 85.255H230.082V85.876H228.606C228.174 85.876 227.883 85.948 227.733 86.092C227.583 86.236 227.508 86.41 227.508 86.614C227.508 86.848 227.601 87.037 227.787 87.181C227.973 87.319 228.231 87.388 228.561 87.388C228.885 87.388 229.167 87.316 229.407 87.172C229.653 87.028 229.83 86.818 229.938 86.542L230.109 87.136C229.995 87.418 229.794 87.643 229.506 87.811C229.218 87.973 228.855 88.054 228.417 88.054ZM235.11 88.054C234.702 88.054 234.333 87.964 234.003 87.784C233.679 87.598 233.421 87.325 233.229 86.965C233.043 86.605 232.95 86.155 232.95 85.615C232.95 85.075 233.046 84.625 233.238 84.265C233.436 83.905 233.697 83.635 234.021 83.455C234.351 83.275 234.714 83.185 235.11 83.185C235.578 83.185 235.992 83.287 236.352 83.491C236.712 83.695 236.997 83.98 237.207 84.346C237.417 84.706 237.522 85.129 237.522 85.615C237.522 86.101 237.417 86.527 237.207 86.893C236.997 87.259 236.712 87.544 236.352 87.748C235.992 87.952 235.578 88.054 235.11 88.054ZM232.581 88V81.322H233.445V84.499L233.355 85.606L233.409 86.713V88H232.581ZM235.038 87.298C235.344 87.298 235.617 87.229 235.857 87.091C236.103 86.953 236.295 86.758 236.433 86.506C236.577 86.248 236.649 85.951 236.649 85.615C236.649 85.273 236.577 84.979 236.433 84.733C236.295 84.481 236.103 84.286 235.857 84.148C235.617 84.01 235.344 83.941 235.038 83.941C234.738 83.941 234.465 84.01 234.219 84.148C233.979 84.286 233.787 84.481 233.643 84.733C233.505 84.979 233.436 85.273 233.436 85.615C233.436 85.951 233.505 86.248 233.643 86.506C233.787 86.758 233.979 86.953 234.219 87.091C234.465 87.229 234.738 87.298 235.038 87.298ZM238.971 89.8C238.743 89.8 238.521 89.761 238.305 89.683C238.089 89.611 237.903 89.503 237.747 89.359L238.116 88.711C238.236 88.825 238.368 88.912 238.512 88.972C238.656 89.032 238.809 89.062 238.971 89.062C239.181 89.062 239.355 89.008 239.493 88.9C239.631 88.792 239.76 88.6 239.88 88.324L240.177 87.667L240.267 87.559L242.139 83.23H242.985L240.672 88.477C240.534 88.813 240.378 89.077 240.204 89.269C240.036 89.461 239.85 89.596 239.646 89.674C239.442 89.758 239.217 89.8 238.971 89.8ZM240.105 88.153L237.927 83.23H238.827L240.681 87.478L240.105 88.153ZM243.971 88V83.23H244.799V84.526L244.718 84.202C244.85 83.872 245.072 83.62 245.384 83.446C245.696 83.272 246.08 83.185 246.536 83.185V84.022C246.5 84.016 246.464 84.013 246.428 84.013C246.398 84.013 246.368 84.013 246.338 84.013C245.876 84.013 245.51 84.151 245.24 84.427C244.97 84.703 244.835 85.102 244.835 85.624V88H243.971ZM248.483 86.848L248.501 85.741L251.246 83.23H252.29L250.184 85.3L249.716 85.696L248.483 86.848ZM247.781 88V81.322H248.645V88H247.781ZM251.426 88L249.554 85.678L250.112 84.985L252.488 88H251.426ZM256.371 88V86.992L256.326 86.803V85.084C256.326 84.718 256.218 84.436 256.002 84.238C255.792 84.034 255.474 83.932 255.048 83.932C254.766 83.932 254.49 83.98 254.22 84.076C253.95 84.166 253.722 84.289 253.536 84.445L253.176 83.797C253.422 83.599 253.716 83.449 254.058 83.347C254.406 83.239 254.769 83.185 255.147 83.185C255.801 83.185 256.305 83.344 256.659 83.662C257.013 83.98 257.19 84.466 257.19 85.12V88H256.371ZM254.805 88.054C254.451 88.054 254.139 87.994 253.869 87.874C253.605 87.754 253.401 87.589 253.257 87.379C253.113 87.163 253.041 86.92 253.041 86.65C253.041 86.392 253.101 86.158 253.221 85.948C253.347 85.738 253.548 85.57 253.824 85.444C254.106 85.318 254.484 85.255 254.958 85.255H256.47V85.876H254.994C254.562 85.876 254.271 85.948 254.121 86.092C253.971 86.236 253.896 86.41 253.896 86.614C253.896 86.848 253.989 87.037 254.175 87.181C254.361 87.319 254.619 87.388 254.949 87.388C255.273 87.388 255.555 87.316 255.795 87.172C256.041 87.028 256.218 86.818 256.326 86.542L256.497 87.136C256.383 87.418 256.182 87.643 255.894 87.811C255.606 87.973 255.243 88.054 254.805 88.054Z" fill="white" fill-opacity="0.7"/>
<rect x="12.5" y="106.5" width="395" height="64" rx="11.5" stroke="white" stroke-opacity="0.1"/>
<g clip-path="url(#clip1_2_1020)">
<path fill-rule="evenodd" clip-rule="evenodd" d="M199.112 144H220.888C222.605 144 224 142.605 224 140.888V119.112C224 117.395 222.605 116 220.888 116H199.112C197.395 116 196 117.395 196 119.112V140.888C196 142.605 197.395 144 199.112 144Z" fill="#007EBB"/>
<path fill-rule="evenodd" clip-rule="evenodd" d="M220.112 140.112H215.955V133.035C215.955 131.094 215.217 130.011 213.68 130.011C212.013 130.011 211.138 131.138 211.138 133.035V140.112H207.134V126.631H211.138V128.447C211.138 128.447 212.341 126.221 215.201 126.221C218.061 126.221 220.106 127.966 220.106 131.58V140.112H220.112ZM202.36 124.865C200.998 124.865 199.888 123.749 199.888 122.377C199.888 121.004 200.993 119.888 202.36 119.888C203.727 119.888 204.827 121.004 204.827 122.377C204.827 123.749 203.722 124.865 202.36 124.865ZM200.293 140.112H204.471V126.631H200.293V140.112Z" fill="white"/>
</g>
<path d="M141.747 159V152.7H143.205V157.812H146.364V159H141.747ZM147.26 159V154.158H148.664V159H147.26ZM147.962 153.483C147.704 153.483 147.494 153.408 147.332 153.258C147.17 153.108 147.089 152.922 147.089 152.7C147.089 152.478 147.17 152.292 147.332 152.142C147.494 151.992 147.704 151.917 147.962 151.917C148.22 151.917 148.43 151.989 148.592 152.133C148.754 152.271 148.835 152.451 148.835 152.673C148.835 152.907 148.754 153.102 148.592 153.258C148.436 153.408 148.226 153.483 147.962 153.483ZM150.147 159V154.158H151.488V155.499L151.236 155.094C151.41 154.77 151.659 154.521 151.983 154.347C152.307 154.173 152.676 154.086 153.09 154.086C153.474 154.086 153.816 154.164 154.116 154.32C154.422 154.47 154.662 154.704 154.836 155.022C155.01 155.334 155.097 155.736 155.097 156.228V159H153.693V156.444C153.693 156.054 153.606 155.766 153.432 155.58C153.264 155.394 153.024 155.301 152.712 155.301C152.49 155.301 152.289 155.349 152.109 155.445C151.935 155.535 151.797 155.676 151.695 155.868C151.599 156.06 151.551 156.306 151.551 156.606V159H150.147ZM157.71 158.01L157.746 156.3L160.005 154.158H161.679L159.51 156.363L158.781 156.957L157.71 158.01ZM156.549 159V152.322H157.953V159H156.549ZM160.158 159L158.52 156.966L159.402 155.877L161.859 159H160.158ZM164.828 159.072C164.276 159.072 163.79 158.964 163.37 158.748C162.956 158.532 162.635 158.238 162.407 157.866C162.179 157.488 162.065 157.059 162.065 156.579C162.065 156.093 162.176 155.664 162.398 155.292C162.626 154.914 162.935 154.62 163.325 154.41C163.715 154.194 164.156 154.086 164.648 154.086C165.122 154.086 165.548 154.188 165.926 154.392C166.31 154.59 166.613 154.878 166.835 155.256C167.057 155.628 167.168 156.075 167.168 156.597C167.168 156.651 167.165 156.714 167.159 156.786C167.153 156.852 167.147 156.915 167.141 156.975H163.208V156.156H166.403L165.863 156.399C165.863 156.147 165.812 155.928 165.71 155.742C165.608 155.556 165.467 155.412 165.287 155.31C165.107 155.202 164.897 155.148 164.657 155.148C164.417 155.148 164.204 155.202 164.018 155.31C163.838 155.412 163.697 155.559 163.595 155.751C163.493 155.937 163.442 156.159 163.442 156.417V156.633C163.442 156.897 163.499 157.131 163.613 157.335C163.733 157.533 163.898 157.686 164.108 157.794C164.324 157.896 164.576 157.947 164.864 157.947C165.122 157.947 165.347 157.908 165.539 157.83C165.737 157.752 165.917 157.635 166.079 157.479L166.826 158.289C166.604 158.541 166.325 158.736 165.989 158.874C165.653 159.006 165.266 159.072 164.828 159.072ZM170.361 159.072C169.905 159.072 169.494 158.97 169.128 158.766C168.762 158.556 168.471 158.265 168.255 157.893C168.045 157.521 167.94 157.083 167.94 156.579C167.94 156.069 168.045 155.628 168.255 155.256C168.471 154.884 168.762 154.596 169.128 154.392C169.494 154.188 169.905 154.086 170.361 154.086C170.769 154.086 171.126 154.176 171.432 154.356C171.738 154.536 171.975 154.809 172.143 155.175C172.311 155.541 172.395 156.009 172.395 156.579C172.395 157.143 172.314 157.611 172.152 157.983C171.99 158.349 171.756 158.622 171.45 158.802C171.15 158.982 170.787 159.072 170.361 159.072ZM170.604 157.92C170.832 157.92 171.039 157.866 171.225 157.758C171.411 157.65 171.558 157.497 171.666 157.299C171.78 157.095 171.837 156.855 171.837 156.579C171.837 156.297 171.78 156.057 171.666 155.859C171.558 155.661 171.411 155.508 171.225 155.4C171.039 155.292 170.832 155.238 170.604 155.238C170.37 155.238 170.16 155.292 169.974 155.4C169.788 155.508 169.638 155.661 169.524 155.859C169.416 156.057 169.362 156.297 169.362 156.579C169.362 156.855 169.416 157.095 169.524 157.299C169.638 157.497 169.788 157.65 169.974 157.758C170.16 157.866 170.37 157.92 170.604 157.92ZM171.873 159V158.01L171.9 156.57L171.81 155.139V152.322H173.214V159H171.873ZM174.793 159V152.7H176.251V159H174.793ZM177.827 159V154.158H179.168V155.499L178.916 155.094C179.09 154.77 179.339 154.521 179.663 154.347C179.987 154.173 180.356 154.086 180.77 154.086C181.154 154.086 181.496 154.164 181.796 154.32C182.102 154.47 182.342 154.704 182.516 155.022C182.69 155.334 182.777 155.736 182.777 156.228V159H181.373V156.444C181.373 156.054 181.286 155.766 181.112 155.58C180.944 155.394 180.704 155.301 180.392 155.301C180.17 155.301 179.969 155.349 179.789 155.445C179.615 155.535 179.477 155.676 179.375 155.868C179.279 156.06 179.231 156.306 179.231 156.606V159H177.827ZM184.761 155.841C184.521 155.841 184.314 155.76 184.14 155.598C183.972 155.43 183.888 155.217 183.888 154.959C183.888 154.701 183.972 154.494 184.14 154.338C184.314 154.176 184.521 154.095 184.761 154.095C185.007 154.095 185.214 154.176 185.382 154.338C185.55 154.494 185.634 154.701 185.634 154.959C185.634 155.217 185.55 155.43 185.382 155.598C185.214 155.76 185.007 155.841 184.761 155.841ZM184.761 159.072C184.521 159.072 184.314 158.991 184.14 158.829C183.972 158.661 183.888 158.448 183.888 158.19C183.888 157.932 183.972 157.725 184.14 157.569C184.314 157.407 184.521 157.326 184.761 157.326C185.007 157.326 185.214 157.407 185.382 157.569C185.55 157.725 185.634 157.932 185.634 158.19C185.634 158.448 185.55 158.661 185.382 158.829C185.214 158.991 185.007 159.072 184.761 159.072Z" fill="white"/>
<path d="M188.462 159.9L191.432 151.422H192.215L189.245 159.9H188.462ZM192.947 159V154.23H193.811V159H192.947ZM193.379 153.312C193.211 153.312 193.07 153.258 192.956 153.15C192.848 153.042 192.794 152.91 192.794 152.754C192.794 152.592 192.848 152.457 192.956 152.349C193.07 152.241 193.211 152.187 193.379 152.187C193.547 152.187 193.685 152.241 193.793 152.349C193.907 152.451 193.964 152.58 193.964 152.736C193.964 152.898 193.91 153.036 193.802 153.15C193.694 153.258 193.553 153.312 193.379 153.312ZM195.641 159V154.23H196.469V155.517L196.334 155.175C196.49 154.863 196.73 154.62 197.054 154.446C197.378 154.272 197.756 154.185 198.188 154.185C198.578 154.185 198.92 154.26 199.214 154.41C199.514 154.56 199.748 154.788 199.916 155.094C200.084 155.4 200.168 155.787 200.168 156.255V159H199.304V156.354C199.304 155.892 199.19 155.544 198.962 155.31C198.74 155.076 198.425 154.959 198.017 154.959C197.711 154.959 197.444 155.019 197.216 155.139C196.988 155.259 196.811 155.436 196.685 155.67C196.565 155.904 196.505 156.195 196.505 156.543V159H195.641ZM200.876 159.9L203.846 151.422H204.629L201.659 159.9H200.876ZM206.683 159.054C206.203 159.054 205.831 158.925 205.567 158.667C205.303 158.409 205.171 158.04 205.171 157.56V153.186H206.035V157.524C206.035 157.782 206.098 157.98 206.224 158.118C206.356 158.256 206.542 158.325 206.782 158.325C207.052 158.325 207.277 158.25 207.457 158.1L207.727 158.721C207.595 158.835 207.436 158.919 207.25 158.973C207.07 159.027 206.881 159.054 206.683 159.054ZM204.361 154.941V154.23H207.403V154.941H204.361ZM208.952 159V152.322H209.816V155.517L209.645 155.175C209.801 154.863 210.041 154.62 210.365 154.446C210.689 154.272 211.067 154.185 211.499 154.185C211.889 154.185 212.231 154.26 212.525 154.41C212.825 154.56 213.059 154.788 213.227 155.094C213.395 155.4 213.479 155.787 213.479 156.255V159H212.615V156.354C212.615 155.892 212.501 155.544 212.273 155.31C212.051 155.076 211.736 154.959 211.328 154.959C211.022 154.959 210.755 155.019 210.527 155.139C210.299 155.259 210.122 155.436 209.996 155.67C209.876 155.904 209.816 156.195 209.816 156.543V159H208.952ZM218.219 159V157.992L218.174 157.803V156.084C218.174 155.718 218.066 155.436 217.85 155.238C217.64 155.034 217.322 154.932 216.896 154.932C216.614 154.932 216.338 154.98 216.068 155.076C215.798 155.166 215.57 155.289 215.384 155.445L215.024 154.797C215.27 154.599 215.564 154.449 215.906 154.347C216.254 154.239 216.617 154.185 216.995 154.185C217.649 154.185 218.153 154.344 218.507 154.662C218.861 154.98 219.038 155.466 219.038 156.12V159H218.219ZM216.653 159.054C216.299 159.054 215.987 158.994 215.717 158.874C215.453 158.754 215.249 158.589 215.105 158.379C214.961 158.163 214.889 157.92 214.889 157.65C214.889 157.392 214.949 157.158 215.069 156.948C215.195 156.738 215.396 156.57 215.672 156.444C215.954 156.318 216.332 156.255 216.806 156.255H218.318V156.876H216.842C216.41 156.876 216.119 156.948 215.969 157.092C215.819 157.236 215.744 157.41 215.744 157.614C215.744 157.848 215.837 158.037 216.023 158.181C216.209 158.319 216.467 158.388 216.797 158.388C217.121 158.388 217.403 158.316 217.643 158.172C217.889 158.028 218.066 157.818 218.174 157.542L218.345 158.136C218.231 158.418 218.03 158.643 217.742 158.811C217.454 158.973 217.091 159.054 216.653 159.054ZM222.454 159.054C221.974 159.054 221.602 158.925 221.338 158.667C221.074 158.409 220.942 158.04 220.942 157.56V153.186H221.806V157.524C221.806 157.782 221.869 157.98 221.995 158.118C222.127 158.256 222.313 158.325 222.553 158.325C222.823 158.325 223.048 158.25 223.228 158.1L223.498 158.721C223.366 158.835 223.207 158.919 223.021 158.973C222.841 159.027 222.652 159.054 222.454 159.054ZM220.132 154.941V154.23H223.174V154.941H220.132ZM226.608 159.054C226.128 159.054 225.702 158.949 225.33 158.739C224.958 158.529 224.664 158.241 224.448 157.875C224.232 157.503 224.124 157.083 224.124 156.615C224.124 156.141 224.232 155.721 224.448 155.355C224.664 154.989 224.958 154.704 225.33 154.5C225.702 154.29 226.128 154.185 226.608 154.185C227.082 154.185 227.505 154.29 227.877 154.5C228.255 154.704 228.549 154.989 228.759 155.355C228.975 155.715 229.083 156.135 229.083 156.615C229.083 157.089 228.975 157.509 228.759 157.875C228.549 158.241 228.255 158.529 227.877 158.739C227.505 158.949 227.082 159.054 226.608 159.054ZM226.608 158.298C226.914 158.298 227.187 158.229 227.427 158.091C227.673 157.953 227.865 157.758 228.003 157.506C228.141 157.248 228.21 156.951 228.21 156.615C228.21 156.273 228.141 155.979 228.003 155.733C227.865 155.481 227.673 155.286 227.427 155.148C227.187 155.01 226.914 154.941 226.608 154.941C226.302 154.941 226.029 155.01 225.789 155.148C225.549 155.286 225.357 155.481 225.213 155.733C225.069 155.979 224.997 156.273 224.997 156.615C224.997 156.951 225.069 157.248 225.213 157.506C225.357 157.758 225.549 157.953 225.789 158.091C226.029 158.229 226.302 158.298 226.608 158.298ZM230.458 159V154.23H231.286V155.517L231.151 155.175C231.307 154.863 231.547 154.62 231.871 154.446C232.195 154.272 232.573 154.185 233.005 154.185C233.395 154.185 233.737 154.26 234.031 154.41C234.331 154.56 234.565 154.788 234.733 155.094C234.901 155.4 234.985 155.787 234.985 156.255V159H234.121V156.354C234.121 155.892 234.007 155.544 233.779 155.31C233.557 155.076 233.242 154.959 232.834 154.959C232.528 154.959 232.261 155.019 232.033 155.139C231.805 155.259 231.628 155.436 231.502 155.67C231.382 155.904 231.322 156.195 231.322 156.543V159H230.458ZM238.888 159.054C238.378 159.054 237.928 158.949 237.538 158.739C237.154 158.529 236.854 158.241 236.638 157.875C236.428 157.509 236.323 157.089 236.323 156.615C236.323 156.141 236.425 155.721 236.629 155.355C236.839 154.989 237.124 154.704 237.484 154.5C237.85 154.29 238.261 154.185 238.717 154.185C239.179 154.185 239.587 154.287 239.941 154.491C240.295 154.695 240.571 154.983 240.769 155.355C240.973 155.721 241.075 156.15 241.075 156.642C241.075 156.678 241.072 156.72 241.066 156.768C241.066 156.816 241.063 156.861 241.057 156.903H236.998V156.282H240.607L240.256 156.498C240.262 156.192 240.199 155.919 240.067 155.679C239.935 155.439 239.752 155.253 239.518 155.121C239.29 154.983 239.023 154.914 238.717 154.914C238.417 154.914 238.15 154.983 237.916 155.121C237.682 155.253 237.499 155.442 237.367 155.688C237.235 155.928 237.169 156.204 237.169 156.516V156.66C237.169 156.978 237.241 157.263 237.385 157.515C237.535 157.761 237.742 157.953 238.006 158.091C238.27 158.229 238.573 158.298 238.915 158.298C239.197 158.298 239.452 158.25 239.68 158.154C239.914 158.058 240.118 157.914 240.292 157.722L240.769 158.28C240.553 158.532 240.283 158.724 239.959 158.856C239.641 158.988 239.284 159.054 238.888 159.054ZM243.822 159.054C243.426 159.054 243.048 159 242.688 158.892C242.334 158.784 242.055 158.652 241.851 158.496L242.211 157.812C242.415 157.95 242.667 158.067 242.967 158.163C243.267 158.259 243.573 158.307 243.885 158.307C244.287 158.307 244.575 158.25 244.749 158.136C244.929 158.022 245.019 157.863 245.019 157.659C245.019 157.509 244.965 157.392 244.857 157.308C244.749 157.224 244.605 157.161 244.425 157.119C244.251 157.077 244.056 157.041 243.84 157.011C243.624 156.975 243.408 156.933 243.192 156.885C242.976 156.831 242.778 156.759 242.598 156.669C242.418 156.573 242.274 156.444 242.166 156.282C242.058 156.114 242.004 155.892 242.004 155.616C242.004 155.328 242.085 155.076 242.247 154.86C242.409 154.644 242.637 154.479 242.931 154.365C243.231 154.245 243.585 154.185 243.993 154.185C244.305 154.185 244.62 154.224 244.938 154.302C245.262 154.374 245.526 154.479 245.73 154.617L245.361 155.301C245.145 155.157 244.92 155.058 244.686 155.004C244.452 154.95 244.218 154.923 243.984 154.923C243.606 154.923 243.324 154.986 243.138 155.112C242.952 155.232 242.859 155.388 242.859 155.58C242.859 155.742 242.913 155.868 243.021 155.958C243.135 156.042 243.279 156.108 243.453 156.156C243.633 156.204 243.831 156.246 244.047 156.282C244.263 156.312 244.479 156.354 244.695 156.408C244.911 156.456 245.106 156.525 245.28 156.615C245.46 156.705 245.604 156.831 245.712 156.993C245.826 157.155 245.883 157.371 245.883 157.641C245.883 157.929 245.799 158.178 245.631 158.388C245.463 158.598 245.226 158.763 244.92 158.883C244.614 158.997 244.248 159.054 243.822 159.054ZM250.104 159V157.992L250.059 157.803V156.084C250.059 155.718 249.951 155.436 249.735 155.238C249.525 155.034 249.207 154.932 248.781 154.932C248.499 154.932 248.223 154.98 247.953 155.076C247.683 155.166 247.455 155.289 247.269 155.445L246.909 154.797C247.155 154.599 247.449 154.449 247.791 154.347C248.139 154.239 248.502 154.185 248.88 154.185C249.534 154.185 250.038 154.344 250.392 154.662C250.746 154.98 250.923 155.466 250.923 156.12V159H250.104ZM248.538 159.054C248.184 159.054 247.872 158.994 247.602 158.874C247.338 158.754 247.134 158.589 246.99 158.379C246.846 158.163 246.774 157.92 246.774 157.65C246.774 157.392 246.834 157.158 246.954 156.948C247.08 156.738 247.281 156.57 247.557 156.444C247.839 156.318 248.217 156.255 248.691 156.255H250.203V156.876H248.727C248.295 156.876 248.004 156.948 247.854 157.092C247.704 157.236 247.629 157.41 247.629 157.614C247.629 157.848 247.722 158.037 247.908 158.181C248.094 158.319 248.352 158.388 248.682 158.388C249.006 158.388 249.288 158.316 249.528 158.172C249.774 158.028 249.951 157.818 250.059 157.542L250.23 158.136C250.116 158.418 249.915 158.643 249.627 158.811C249.339 158.973 248.976 159.054 248.538 159.054ZM255.231 159.054C254.823 159.054 254.454 158.964 254.124 158.784C253.8 158.598 253.542 158.325 253.35 157.965C253.164 157.605 253.071 157.155 253.071 156.615C253.071 156.075 253.167 155.625 253.359 155.265C253.557 154.905 253.818 154.635 254.142 154.455C254.472 154.275 254.835 154.185 255.231 154.185C255.699 154.185 256.113 154.287 256.473 154.491C256.833 154.695 257.118 154.98 257.328 155.346C257.538 155.706 257.643 156.129 257.643 156.615C257.643 157.101 257.538 157.527 257.328 157.893C257.118 158.259 256.833 158.544 256.473 158.748C256.113 158.952 255.699 159.054 255.231 159.054ZM252.702 159V152.322H253.566V155.499L253.476 156.606L253.53 157.713V159H252.702ZM255.159 158.298C255.465 158.298 255.738 158.229 255.978 158.091C256.224 157.953 256.416 157.758 256.554 157.506C256.698 157.248 256.77 156.951 256.77 156.615C256.77 156.273 256.698 155.979 256.554 155.733C256.416 155.481 256.224 155.286 255.978 155.148C255.738 155.01 255.465 154.941 255.159 154.941C254.859 154.941 254.586 155.01 254.34 155.148C254.1 155.286 253.908 155.481 253.764 155.733C253.626 155.979 253.557 156.273 253.557 156.615C253.557 156.951 253.626 157.248 253.764 157.506C253.908 157.758 254.1 157.953 254.34 158.091C254.586 158.229 254.859 158.298 255.159 158.298ZM259.092 160.8C258.864 160.8 258.642 160.761 258.426 160.683C258.21 160.611 258.024 160.503 257.868 160.359L258.237 159.711C258.357 159.825 258.489 159.912 258.633 159.972C258.777 160.032 258.93 160.062 259.092 160.062C259.302 160.062 259.476 160.008 259.614 159.9C259.752 159.792 259.881 159.6 260.001 159.324L260.298 158.667L260.388 158.559L262.26 154.23H263.106L260.793 159.477C260.655 159.813 260.499 160.077 260.325 160.269C260.157 160.461 259.971 160.596 259.767 160.674C259.563 160.758 259.338 160.8 259.092 160.8ZM260.226 159.153L258.048 154.23H258.948L260.802 158.478L260.226 159.153ZM264.092 159V154.23H264.92V155.526L264.839 155.202C264.971 154.872 265.193 154.62 265.505 154.446C265.817 154.272 266.201 154.185 266.657 154.185V155.022C266.621 155.016 266.585 155.013 266.549 155.013C266.519 155.013 266.489 155.013 266.459 155.013C265.997 155.013 265.631 155.151 265.361 155.427C265.091 155.703 264.956 156.102 264.956 156.624V159H264.092ZM268.604 157.848L268.622 156.741L271.367 154.23H272.411L270.305 156.3L269.837 156.696L268.604 157.848ZM267.902 159V152.322H268.766V159H267.902ZM271.547 159L269.675 156.678L270.233 155.985L272.609 159H271.547ZM276.493 159V157.992L276.448 157.803V156.084C276.448 155.718 276.34 155.436 276.124 155.238C275.914 155.034 275.596 154.932 275.17 154.932C274.888 154.932 274.612 154.98 274.342 155.076C274.072 155.166 273.844 155.289 273.658 155.445L273.298 154.797C273.544 154.599 273.838 154.449 274.18 154.347C274.528 154.239 274.891 154.185 275.269 154.185C275.923 154.185 276.427 154.344 276.781 154.662C277.135 154.98 277.312 155.466 277.312 156.12V159H276.493ZM274.927 159.054C274.573 159.054 274.261 158.994 273.991 158.874C273.727 158.754 273.523 158.589 273.379 158.379C273.235 158.163 273.163 157.92 273.163 157.65C273.163 157.392 273.223 157.158 273.343 156.948C273.469 156.738 273.67 156.57 273.946 156.444C274.228 156.318 274.606 156.255 275.08 156.255H276.592V156.876H275.116C274.684 156.876 274.393 156.948 274.243 157.092C274.093 157.236 274.018 157.41 274.018 157.614C274.018 157.848 274.111 158.037 274.297 158.181C274.483 158.319 274.741 158.388 275.071 158.388C275.395 158.388 275.677 158.316 275.917 158.172C276.163 158.028 276.34 157.818 276.448 157.542L276.619 158.136C276.505 158.418 276.304 158.643 276.016 158.811C275.728 158.973 275.365 159.054 274.927 159.054Z" fill="white" fill-opacity="0.7"/>
<rect x="12.5" y="177.5" width="194" height="64" rx="11.5" stroke="white" stroke-opacity="0.1"/>
<g clip-path="url(#clip2_2_1020)">
<path d="M97.4086 211.5H101.866V200.683L95.5 195.914V209.597C95.5 210.652 96.3586 211.5 97.4086 211.5Z" fill="#4285F4"/>
<path d="M117.134 211.5H121.591C122.647 211.5 123.5 210.641 123.5 209.591V195.914L117.134 200.688" fill="#34A853"/>
<path d="M117.134 192.414V200.688L123.5 195.914V193.371C123.5 191.009 120.804 189.663 118.917 191.08" fill="#FBBC04"/>
<path d="M101.866 200.683V192.414L109.5 198.14L117.134 192.414V200.688L109.5 206.414" fill="#EA4335"/>
<path d="M95.5 193.366V195.914L101.866 200.688V192.414L100.083 191.074C98.1906 189.658 95.5 191.003 95.5 193.366Z" fill="#C5221F"/>
</g>
<path d="M29.789 230.108C29.291 230.108 28.832 230.03 28.412 229.874C27.998 229.712 27.635 229.484 27.323 229.19C27.017 228.896 26.777 228.551 26.603 228.155C26.435 227.759 26.351 227.324 26.351 226.85C26.351 226.376 26.435 225.941 26.603 225.545C26.777 225.149 27.02 224.804 27.332 224.51C27.644 224.216 28.01 223.991 28.43 223.835C28.85 223.673 29.312 223.592 29.816 223.592C30.374 223.592 30.875 223.685 31.319 223.871C31.769 224.057 32.147 224.327 32.453 224.681L31.517 225.545C31.289 225.305 31.04 225.128 30.77 225.014C30.5 224.894 30.206 224.834 29.888 224.834C29.582 224.834 29.303 224.882 29.051 224.978C28.799 225.074 28.58 225.212 28.394 225.392C28.214 225.572 28.073 225.785 27.971 226.031C27.875 226.277 27.827 226.55 27.827 226.85C27.827 227.144 27.875 227.414 27.971 227.66C28.073 227.906 28.214 228.122 28.394 228.308C28.58 228.488 28.796 228.626 29.042 228.722C29.294 228.818 29.57 228.866 29.87 228.866C30.158 228.866 30.437 228.821 30.707 228.731C30.983 228.635 31.25 228.476 31.508 228.254L32.336 229.307C31.994 229.565 31.595 229.763 31.139 229.901C30.689 230.039 30.239 230.108 29.789 230.108ZM32.336 229.307L31.004 229.118V226.751H32.336V229.307ZM33.7714 230V225.158H35.1124V226.481L34.8604 226.094C35.0284 225.764 35.2654 225.515 35.5714 225.347C35.8834 225.173 36.2374 225.086 36.6334 225.086C37.0774 225.086 37.4644 225.2 37.7944 225.428C38.1304 225.65 38.3524 225.992 38.4604 226.454L37.9654 226.319C38.1274 225.941 38.3854 225.641 38.7394 225.419C39.0994 225.197 39.5104 225.086 39.9724 225.086C40.3564 225.086 40.6954 225.164 40.9894 225.32C41.2894 225.47 41.5234 225.704 41.6914 226.022C41.8654 226.334 41.9524 226.736 41.9524 227.228V230H40.5484V227.444C40.5484 227.054 40.4674 226.766 40.3054 226.58C40.1434 226.394 39.9154 226.301 39.6214 226.301C39.4174 226.301 39.2344 226.349 39.0724 226.445C38.9104 226.535 38.7844 226.673 38.6944 226.859C38.6044 227.045 38.5594 227.282 38.5594 227.57V230H37.1554V227.444C37.1554 227.054 37.0744 226.766 36.9124 226.58C36.7564 226.394 36.5314 226.301 36.2374 226.301C36.0334 226.301 35.8504 226.349 35.6884 226.445C35.5264 226.535 35.4004 226.673 35.3104 226.859C35.2204 227.045 35.1754 227.282 35.1754 227.57V230H33.7714ZM46.3608 230V229.055L46.2708 228.848V227.156C46.2708 226.856 46.1778 226.622 45.9918 226.454C45.8118 226.286 45.5328 226.202 45.1548 226.202C44.8968 226.202 44.6418 226.244 44.3898 226.328C44.1438 226.406 43.9338 226.514 43.7598 226.652L43.2558 225.671C43.5198 225.485 43.8378 225.341 44.2098 225.239C44.5818 225.137 44.9598 225.086 45.3438 225.086C46.0818 225.086 46.6548 225.26 47.0628 225.608C47.4708 225.956 47.6748 226.499 47.6748 227.237V230H46.3608ZM44.8848 230.072C44.5068 230.072 44.1828 230.009 43.9128 229.883C43.6428 229.751 43.4358 229.574 43.2918 229.352C43.1478 229.13 43.0758 228.881 43.0758 228.605C43.0758 228.317 43.1448 228.065 43.2828 227.849C43.4268 227.633 43.6518 227.465 43.9578 227.345C44.2638 227.219 44.6628 227.156 45.1548 227.156H46.4418V227.975H45.3078C44.9778 227.975 44.7498 228.029 44.6238 228.137C44.5038 228.245 44.4438 228.38 44.4438 228.542C44.4438 228.722 44.5128 228.866 44.6508 228.974C44.7948 229.076 44.9898 229.127 45.2358 229.127C45.4698 229.127 45.6798 229.073 45.8658 228.965C46.0518 228.851 46.1868 228.686 46.2708 228.47L46.4868 229.118C46.3848 229.43 46.1988 229.667 45.9288 229.829C45.6588 229.991 45.3108 230.072 44.8848 230.072ZM49.1255 230V225.158H50.5295V230H49.1255ZM49.8275 224.483C49.5695 224.483 49.3595 224.408 49.1975 224.258C49.0355 224.108 48.9545 223.922 48.9545 223.7C48.9545 223.478 49.0355 223.292 49.1975 223.142C49.3595 222.992 49.5695 222.917 49.8275 222.917C50.0855 222.917 50.2955 222.989 50.4575 223.133C50.6195 223.271 50.7005 223.451 50.7005 223.673C50.7005 223.907 50.6195 224.102 50.4575 224.258C50.3015 224.408 50.0915 224.483 49.8275 224.483ZM52.0125 230V223.322H53.4165V230H52.0125ZM55.4306 226.841C55.1906 226.841 54.9836 226.76 54.8096 226.598C54.6416 226.43 54.5576 226.217 54.5576 225.959C54.5576 225.701 54.6416 225.494 54.8096 225.338C54.9836 225.176 55.1906 225.095 55.4306 225.095C55.6766 225.095 55.8836 225.176 56.0516 225.338C56.2196 225.494 56.3036 225.701 56.3036 225.959C56.3036 226.217 56.2196 226.43 56.0516 226.598C55.8836 226.76 55.6766 226.841 55.4306 226.841ZM55.4306 230.072C55.1906 230.072 54.9836 229.991 54.8096 229.829C54.6416 229.661 54.5576 229.448 54.5576 229.19C54.5576 228.932 54.6416 228.725 54.8096 228.569C54.9836 228.407 55.1906 228.326 55.4306 228.326C55.6766 228.326 55.8836 228.407 56.0516 228.569C56.2196 228.725 56.3036 228.932 56.3036 229.19C56.3036 229.448 56.2196 229.661 56.0516 229.829C55.8836 229.991 55.6766 230.072 55.4306 230.072Z" fill="white"/>
<path d="M61.841 230.054C61.361 230.054 60.989 229.925 60.725 229.667C60.461 229.409 60.329 229.04 60.329 228.56V224.186H61.193V228.524C61.193 228.782 61.256 228.98 61.382 229.118C61.514 229.256 61.7 229.325 61.94 229.325C62.21 229.325 62.435 229.25 62.615 229.1L62.885 229.721C62.753 229.835 62.594 229.919 62.408 229.973C62.228 230.027 62.039 230.054 61.841 230.054ZM59.519 225.941V225.23H62.561V225.941H59.519ZM64.1096 230V223.322H64.9736V226.517L64.8026 226.175C64.9586 225.863 65.1986 225.62 65.5226 225.446C65.8466 225.272 66.2246 225.185 66.6566 225.185C67.0466 225.185 67.3886 225.26 67.6826 225.41C67.9826 225.56 68.2166 225.788 68.3846 226.094C68.5526 226.4 68.6366 226.787 68.6366 227.255V230H67.7726V227.354C67.7726 226.892 67.6586 226.544 67.4306 226.31C67.2086 226.076 66.8936 225.959 66.4856 225.959C66.1796 225.959 65.9126 226.019 65.6846 226.139C65.4566 226.259 65.2796 226.436 65.1536 226.67C65.0336 226.904 64.9736 227.195 64.9736 227.543V230H64.1096ZM73.3766 230V228.992L73.3316 228.803V227.084C73.3316 226.718 73.2236 226.436 73.0076 226.238C72.7976 226.034 72.4796 225.932 72.0536 225.932C71.7716 225.932 71.4956 225.98 71.2256 226.076C70.9556 226.166 70.7276 226.289 70.5416 226.445L70.1816 225.797C70.4276 225.599 70.7216 225.449 71.0636 225.347C71.4116 225.239 71.7746 225.185 72.1526 225.185C72.8066 225.185 73.3106 225.344 73.6646 225.662C74.0186 225.98 74.1956 226.466 74.1956 227.12V230H73.3766ZM71.8106 230.054C71.4566 230.054 71.1446 229.994 70.8746 229.874C70.6106 229.754 70.4066 229.589 70.2626 229.379C70.1186 229.163 70.0466 228.92 70.0466 228.65C70.0466 228.392 70.1066 228.158 70.2266 227.948C70.3526 227.738 70.5536 227.57 70.8296 227.444C71.1116 227.318 71.4896 227.255 71.9636 227.255H73.4756V227.876H71.9996C71.5676 227.876 71.2766 227.948 71.1266 228.092C70.9766 228.236 70.9016 228.41 70.9016 228.614C70.9016 228.848 70.9946 229.037 71.1806 229.181C71.3666 229.319 71.6246 229.388 71.9546 229.388C72.2786 229.388 72.5606 229.316 72.8006 229.172C73.0466 229.028 73.2236 228.818 73.3316 228.542L73.5026 229.136C73.3886 229.418 73.1876 229.643 72.8996 229.811C72.6116 229.973 72.2486 230.054 71.8106 230.054ZM77.6125 230.054C77.1325 230.054 76.7605 229.925 76.4965 229.667C76.2325 229.409 76.1005 229.04 76.1005 228.56V224.186H76.9645V228.524C76.9645 228.782 77.0275 228.98 77.1535 229.118C77.2855 229.256 77.4715 229.325 77.7115 229.325C77.9815 229.325 78.2065 229.25 78.3865 229.1L78.6565 229.721C78.5245 229.835 78.3655 229.919 78.1795 229.973C77.9995 230.027 77.8105 230.054 77.6125 230.054ZM75.2905 225.941V225.23H78.3325V225.941H75.2905ZM81.7658 230.054C81.2858 230.054 80.8598 229.949 80.4878 229.739C80.1158 229.529 79.8218 229.241 79.6058 228.875C79.3898 228.503 79.2818 228.083 79.2818 227.615C79.2818 227.141 79.3898 226.721 79.6058 226.355C79.8218 225.989 80.1158 225.704 80.4878 225.5C80.8598 225.29 81.2858 225.185 81.7658 225.185C82.2398 225.185 82.6628 225.29 83.0348 225.5C83.4128 225.704 83.7068 225.989 83.9168 226.355C84.1328 226.715 84.2408 227.135 84.2408 227.615C84.2408 228.089 84.1328 228.509 83.9168 228.875C83.7068 229.241 83.4128 229.529 83.0348 229.739C82.6628 229.949 82.2398 230.054 81.7658 230.054ZM81.7658 229.298C82.0718 229.298 82.3448 229.229 82.5848 229.091C82.8308 228.953 83.0228 228.758 83.1608 228.506C83.2988 228.248 83.3678 227.951 83.3678 227.615C83.3678 227.273 83.2988 226.979 83.1608 226.733C83.0228 226.481 82.8308 226.286 82.5848 226.148C82.3448 226.01 82.0718 225.941 81.7658 225.941C81.4598 225.941 81.1868 226.01 80.9468 226.148C80.7068 226.286 80.5148 226.481 80.3708 226.733C80.2268 226.979 80.1548 227.273 80.1548 227.615C80.1548 227.951 80.2268 228.248 80.3708 228.506C80.5148 228.758 80.7068 228.953 80.9468 229.091C81.1868 229.229 81.4598 229.298 81.7658 229.298ZM85.6157 230V225.23H86.4437V226.517L86.3087 226.175C86.4647 225.863 86.7047 225.62 87.0287 225.446C87.3527 225.272 87.7307 225.185 88.1627 225.185C88.5527 225.185 88.8947 225.26 89.1887 225.41C89.4887 225.56 89.7227 225.788 89.8907 226.094C90.0587 226.4 90.1427 226.787 90.1427 227.255V230H89.2787V227.354C89.2787 226.892 89.1647 226.544 88.9367 226.31C88.7147 226.076 88.3997 225.959 87.9917 225.959C87.6857 225.959 87.4187 226.019 87.1907 226.139C86.9627 226.259 86.7857 226.436 86.6597 226.67C86.5397 226.904 86.4797 227.195 86.4797 227.543V230H85.6157ZM94.0457 230.054C93.5357 230.054 93.0857 229.949 92.6957 229.739C92.3117 229.529 92.0117 229.241 91.7957 228.875C91.5857 228.509 91.4807 228.089 91.4807 227.615C91.4807 227.141 91.5827 226.721 91.7867 226.355C91.9967 225.989 92.2817 225.704 92.6417 225.5C93.0077 225.29 93.4187 225.185 93.8747 225.185C94.3367 225.185 94.7447 225.287 95.0987 225.491C95.4527 225.695 95.7287 225.983 95.9267 226.355C96.1307 226.721 96.2327 227.15 96.2327 227.642C96.2327 227.678 96.2297 227.72 96.2237 227.768C96.2237 227.816 96.2207 227.861 96.2147 227.903H92.1557V227.282H95.7647L95.4137 227.498C95.4197 227.192 95.3567 226.919 95.2247 226.679C95.0927 226.439 94.9097 226.253 94.6757 226.121C94.4477 225.983 94.1807 225.914 93.8747 225.914C93.5747 225.914 93.3077 225.983 93.0737 226.121C92.8397 226.253 92.6567 226.442 92.5247 226.688C92.3927 226.928 92.3267 227.204 92.3267 227.516V227.66C92.3267 227.978 92.3987 228.263 92.5427 228.515C92.6927 228.761 92.8997 228.953 93.1637 229.091C93.4277 229.229 93.7307 229.298 94.0727 229.298C94.3547 229.298 94.6097 229.25 94.8377 229.154C95.0717 229.058 95.2757 228.914 95.4497 228.722L95.9267 229.28C95.7107 229.532 95.4407 229.724 95.1167 229.856C94.7987 229.988 94.4417 230.054 94.0457 230.054ZM98.9804 230.054C98.5844 230.054 98.2064 230 97.8464 229.892C97.4924 229.784 97.2134 229.652 97.0094 229.496L97.3694 228.812C97.5734 228.95 97.8254 229.067 98.1254 229.163C98.4254 229.259 98.7314 229.307 99.0434 229.307C99.4454 229.307 99.7334 229.25 99.9074 229.136C100.087 229.022 100.177 228.863 100.177 228.659C100.177 228.509 100.123 228.392 100.015 228.308C99.9074 228.224 99.7634 228.161 99.5834 228.119C99.4094 228.077 99.2144 228.041 98.9984 228.011C98.7824 227.975 98.5664 227.933 98.3504 227.885C98.1344 227.831 97.9364 227.759 97.7564 227.669C97.5764 227.573 97.4324 227.444 97.3244 227.282C97.2164 227.114 97.1624 226.892 97.1624 226.616C97.1624 226.328 97.2434 226.076 97.4054 225.86C97.5674 225.644 97.7954 225.479 98.0894 225.365C98.3894 225.245 98.7434 225.185 99.1514 225.185C99.4634 225.185 99.7784 225.224 100.096 225.302C100.42 225.374 100.684 225.479 100.888 225.617L100.519 226.301C100.303 226.157 100.078 226.058 99.8444 226.004C99.6104 225.95 99.3764 225.923 99.1424 225.923C98.7644 225.923 98.4824 225.986 98.2964 226.112C98.1104 226.232 98.0174 226.388 98.0174 226.58C98.0174 226.742 98.0714 226.868 98.1794 226.958C98.2934 227.042 98.4374 227.108 98.6114 227.156C98.7914 227.204 98.9894 227.246 99.2054 227.282C99.4214 227.312 99.6374 227.354 99.8534 227.408C100.069 227.456 100.264 227.525 100.438 227.615C100.618 227.705 100.762 227.831 100.87 227.993C100.984 228.155 101.041 228.371 101.041 228.641C101.041 228.929 100.957 229.178 100.789 229.388C100.621 229.598 100.384 229.763 100.078 229.883C99.7724 229.997 99.4064 230.054 98.9804 230.054ZM105.262 230V228.992L105.217 228.803V227.084C105.217 226.718 105.109 226.436 104.893 226.238C104.683 226.034 104.365 225.932 103.939 225.932C103.657 225.932 103.381 225.98 103.111 226.076C102.841 226.166 102.613 226.289 102.427 226.445L102.067 225.797C102.313 225.599 102.607 225.449 102.949 225.347C103.297 225.239 103.66 225.185 104.038 225.185C104.692 225.185 105.196 225.344 105.55 225.662C105.904 225.98 106.081 226.466 106.081 227.12V230H105.262ZM103.696 230.054C103.342 230.054 103.03 229.994 102.76 229.874C102.496 229.754 102.292 229.589 102.148 229.379C102.004 229.163 101.932 228.92 101.932 228.65C101.932 228.392 101.992 228.158 102.112 227.948C102.238 227.738 102.439 227.57 102.715 227.444C102.997 227.318 103.375 227.255 103.849 227.255H105.361V227.876H103.885C103.453 227.876 103.162 227.948 103.012 228.092C102.862 228.236 102.787 228.41 102.787 228.614C102.787 228.848 102.88 229.037 103.066 229.181C103.252 229.319 103.51 229.388 103.84 229.388C104.164 229.388 104.446 229.316 104.686 229.172C104.932 229.028 105.109 228.818 105.217 228.542L105.388 229.136C105.274 229.418 105.073 229.643 104.785 229.811C104.497 229.973 104.134 230.054 103.696 230.054ZM110.389 230.054C109.981 230.054 109.612 229.964 109.282 229.784C108.958 229.598 108.7 229.325 108.508 228.965C108.322 228.605 108.229 228.155 108.229 227.615C108.229 227.075 108.325 226.625 108.517 226.265C108.715 225.905 108.976 225.635 109.3 225.455C109.63 225.275 109.993 225.185 110.389 225.185C110.857 225.185 111.271 225.287 111.631 225.491C111.991 225.695 112.276 225.98 112.486 226.346C112.696 226.706 112.801 227.129 112.801 227.615C112.801 228.101 112.696 228.527 112.486 228.893C112.276 229.259 111.991 229.544 111.631 229.748C111.271 229.952 110.857 230.054 110.389 230.054ZM107.86 230V223.322H108.724V226.499L108.634 227.606L108.688 228.713V230H107.86ZM110.317 229.298C110.623 229.298 110.896 229.229 111.136 229.091C111.382 228.953 111.574 228.758 111.712 228.506C111.856 228.248 111.928 227.951 111.928 227.615C111.928 227.273 111.856 226.979 111.712 226.733C111.574 226.481 111.382 226.286 111.136 226.148C110.896 226.01 110.623 225.941 110.317 225.941C110.017 225.941 109.744 226.01 109.498 226.148C109.258 226.286 109.066 226.481 108.922 226.733C108.784 226.979 108.715 227.273 108.715 227.615C108.715 227.951 108.784 228.248 108.922 228.506C109.066 228.758 109.258 228.953 109.498 229.091C109.744 229.229 110.017 229.298 110.317 229.298ZM114.25 231.8C114.022 231.8 113.8 231.761 113.584 231.683C113.368 231.611 113.182 231.503 113.026 231.359L113.395 230.711C113.515 230.825 113.647 230.912 113.791 230.972C113.935 231.032 114.088 231.062 114.25 231.062C114.46 231.062 114.634 231.008 114.772 230.9C114.91 230.792 115.039 230.6 115.159 230.324L115.456 229.667L115.546 229.559L117.418 225.23H118.264L115.951 230.477C115.813 230.813 115.657 231.077 115.483 231.269C115.315 231.461 115.129 231.596 114.925 231.674C114.721 231.758 114.496 231.8 114.25 231.8ZM115.384 230.153L113.206 225.23H114.106L115.96 229.478L115.384 230.153ZM119.25 230V225.23H120.078V226.526L119.997 226.202C120.129 225.872 120.351 225.62 120.663 225.446C120.975 225.272 121.359 225.185 121.815 225.185V226.022C121.779 226.016 121.743 226.013 121.707 226.013C121.677 226.013 121.647 226.013 121.617 226.013C121.155 226.013 120.789 226.151 120.519 226.427C120.249 226.703 120.114 227.102 120.114 227.624V230H119.25ZM123.762 228.848L123.78 227.741L126.525 225.23H127.569L125.463 227.3L124.995 227.696L123.762 228.848ZM123.06 230V223.322H123.924V230H123.06ZM126.705 230L124.833 227.678L125.391 226.985L127.767 230H126.705ZM131.651 230V228.992L131.606 228.803V227.084C131.606 226.718 131.498 226.436 131.282 226.238C131.072 226.034 130.754 225.932 130.328 225.932C130.046 225.932 129.77 225.98 129.5 226.076C129.23 226.166 129.002 226.289 128.816 226.445L128.456 225.797C128.702 225.599 128.996 225.449 129.338 225.347C129.686 225.239 130.049 225.185 130.427 225.185C131.081 225.185 131.585 225.344 131.939 225.662C132.293 225.98 132.47 226.466 132.47 227.12V230H131.651ZM130.085 230.054C129.731 230.054 129.419 229.994 129.149 229.874C128.885 229.754 128.681 229.589 128.537 229.379C128.393 229.163 128.321 228.92 128.321 228.65C128.321 228.392 128.381 228.158 128.501 227.948C128.627 227.738 128.828 227.57 129.104 227.444C129.386 227.318 129.764 227.255 130.238 227.255H131.75V227.876H130.274C129.842 227.876 129.551 227.948 129.401 228.092C129.251 228.236 129.176 228.41 129.176 228.614C129.176 228.848 129.269 229.037 129.455 229.181C129.641 229.319 129.899 229.388 130.229 229.388C130.553 229.388 130.835 229.316 131.075 229.172C131.321 229.028 131.498 228.818 131.606 228.542L131.777 229.136C131.663 229.418 131.462 229.643 131.174 229.811C130.886 229.973 130.523 230.054 130.085 230.054ZM138.073 231.818C137.449 231.818 136.879 231.716 136.363 231.512C135.847 231.308 135.403 231.023 135.031 230.657C134.659 230.291 134.371 229.859 134.167 229.361C133.963 228.857 133.861 228.308 133.861 227.714C133.861 227.12 133.963 226.574 134.167 226.076C134.371 225.578 134.659 225.146 135.031 224.78C135.409 224.414 135.859 224.132 136.381 223.934C136.903 223.736 137.479 223.637 138.109 223.637C138.727 223.637 139.291 223.733 139.801 223.925C140.311 224.117 140.752 224.39 141.124 224.744C141.502 225.092 141.793 225.509 141.997 225.995C142.201 226.475 142.303 227.006 142.303 227.588C142.303 228.098 142.24 228.536 142.114 228.902C141.988 229.268 141.805 229.553 141.565 229.757C141.331 229.955 141.043 230.054 140.701 230.054C140.365 230.054 140.095 229.952 139.891 229.748C139.693 229.544 139.594 229.253 139.594 228.875V228.263L139.639 227.714L139.558 226.679V225.482H140.341V228.722C140.341 228.962 140.389 229.13 140.485 229.226C140.587 229.322 140.71 229.37 140.854 229.37C141.028 229.37 141.178 229.301 141.304 229.163C141.436 229.025 141.532 228.824 141.592 228.56C141.658 228.29 141.691 227.969 141.691 227.597C141.691 227.093 141.604 226.637 141.43 226.229C141.262 225.815 141.016 225.458 140.692 225.158C140.374 224.858 139.996 224.63 139.558 224.474C139.126 224.312 138.643 224.231 138.109 224.231C137.575 224.231 137.086 224.318 136.642 224.492C136.204 224.66 135.826 224.9 135.508 225.212C135.19 225.518 134.944 225.884 134.77 226.31C134.602 226.736 134.518 227.204 134.518 227.714C134.518 228.23 134.602 228.704 134.77 229.136C134.938 229.562 135.178 229.928 135.49 230.234C135.808 230.546 136.183 230.786 136.615 230.954C137.053 231.128 137.539 231.215 138.073 231.215C138.349 231.215 138.64 231.182 138.946 231.116C139.252 231.056 139.54 230.957 139.81 230.819L140.008 231.395C139.732 231.533 139.42 231.638 139.072 231.71C138.724 231.782 138.391 231.818 138.073 231.818ZM137.911 230.054C137.485 230.054 137.107 229.955 136.777 229.757C136.447 229.553 136.186 229.277 135.994 228.929C135.802 228.581 135.706 228.185 135.706 227.741C135.706 227.291 135.802 226.895 135.994 226.553C136.186 226.205 136.447 225.935 136.777 225.743C137.107 225.545 137.485 225.446 137.911 225.446C138.325 225.446 138.688 225.536 139 225.716C139.312 225.89 139.555 226.148 139.729 226.49C139.909 226.832 139.999 227.249 139.999 227.741C139.999 228.233 139.912 228.65 139.738 228.992C139.564 229.334 139.321 229.598 139.009 229.784C138.697 229.964 138.331 230.054 137.911 230.054ZM138.037 229.352C138.331 229.352 138.592 229.289 138.82 229.163C139.054 229.031 139.237 228.845 139.369 228.605C139.507 228.359 139.576 228.071 139.576 227.741C139.576 227.405 139.507 227.117 139.369 226.877C139.237 226.637 139.054 226.454 138.82 226.328C138.592 226.202 138.331 226.139 138.037 226.139C137.737 226.139 137.47 226.205 137.236 226.337C137.008 226.463 136.828 226.646 136.696 226.886C136.57 227.126 136.507 227.411 136.507 227.741C136.507 228.065 136.57 228.347 136.696 228.587C136.828 228.827 137.008 229.016 137.236 229.154C137.47 229.286 137.737 229.352 138.037 229.352ZM145.824 231.8C145.386 231.8 144.96 231.737 144.546 231.611C144.138 231.491 143.805 231.317 143.547 231.089L143.961 230.423C144.183 230.615 144.456 230.765 144.78 230.873C145.104 230.987 145.443 231.044 145.797 231.044C146.361 231.044 146.775 230.912 147.039 230.648C147.303 230.384 147.435 229.982 147.435 229.442V228.434L147.525 227.489L147.48 226.535V225.23H148.299V229.352C148.299 230.192 148.089 230.81 147.669 231.206C147.249 231.602 146.634 231.8 145.824 231.8ZM145.716 229.802C145.254 229.802 144.84 229.706 144.474 229.514C144.114 229.316 143.826 229.043 143.61 228.695C143.4 228.347 143.295 227.945 143.295 227.489C143.295 227.027 143.4 226.625 143.61 226.283C143.826 225.935 144.114 225.665 144.474 225.473C144.84 225.281 145.254 225.185 145.716 225.185C146.124 225.185 146.496 225.269 146.832 225.437C147.168 225.599 147.435 225.851 147.633 226.193C147.837 226.535 147.939 226.967 147.939 227.489C147.939 228.005 147.837 228.434 147.633 228.776C147.435 229.118 147.168 229.376 146.832 229.55C146.496 229.718 146.124 229.802 145.716 229.802ZM145.815 229.046C146.133 229.046 146.415 228.98 146.661 228.848C146.907 228.716 147.099 228.533 147.237 228.299C147.381 228.065 147.453 227.795 147.453 227.489C147.453 227.183 147.381 226.913 147.237 226.679C147.099 226.445 146.907 226.265 146.661 226.139C146.415 226.007 146.133 225.941 145.815 225.941C145.497 225.941 145.212 226.007 144.96 226.139C144.714 226.265 144.519 226.445 144.375 226.679C144.237 226.913 144.168 227.183 144.168 227.489C144.168 227.795 144.237 228.065 144.375 228.299C144.519 228.533 144.714 228.716 144.96 228.848C145.212 228.98 145.497 229.046 145.815 229.046ZM150.13 230V225.23H150.958V226.499L150.823 226.175C150.973 225.863 151.204 225.62 151.516 225.446C151.828 225.272 152.191 225.185 152.605 225.185C153.061 225.185 153.454 225.299 153.784 225.527C154.114 225.749 154.33 226.088 154.432 226.544L154.081 226.4C154.225 226.034 154.477 225.74 154.837 225.518C155.197 225.296 155.617 225.185 156.097 225.185C156.481 225.185 156.82 225.26 157.114 225.41C157.408 225.56 157.636 225.788 157.798 226.094C157.966 226.4 158.05 226.787 158.05 227.255V230H157.186V227.354C157.186 226.892 157.078 226.544 156.862 226.31C156.646 226.076 156.343 225.959 155.953 225.959C155.665 225.959 155.413 226.019 155.197 226.139C154.981 226.259 154.813 226.436 154.693 226.67C154.579 226.904 154.522 227.195 154.522 227.543V230H153.658V227.354C153.658 226.892 153.55 226.544 153.334 226.31C153.124 226.076 152.821 225.959 152.425 225.959C152.143 225.959 151.894 226.019 151.678 226.139C151.462 226.259 151.294 226.436 151.174 226.67C151.054 226.904 150.994 227.195 150.994 227.543V230H150.13ZM162.781 230V228.992L162.736 228.803V227.084C162.736 226.718 162.628 226.436 162.412 226.238C162.202 226.034 161.884 225.932 161.458 225.932C161.176 225.932 160.9 225.98 160.63 226.076C160.36 226.166 160.132 226.289 159.946 226.445L159.586 225.797C159.832 225.599 160.126 225.449 160.468 225.347C160.816 225.239 161.179 225.185 161.557 225.185C162.211 225.185 162.715 225.344 163.069 225.662C163.423 225.98 163.6 226.466 163.6 227.12V230H162.781ZM161.215 230.054C160.861 230.054 160.549 229.994 160.279 229.874C160.015 229.754 159.811 229.589 159.667 229.379C159.523 229.163 159.451 228.92 159.451 228.65C159.451 228.392 159.511 228.158 159.631 227.948C159.757 227.738 159.958 227.57 160.234 227.444C160.516 227.318 160.894 227.255 161.368 227.255H162.88V227.876H161.404C160.972 227.876 160.681 227.948 160.531 228.092C160.381 228.236 160.306 228.41 160.306 228.614C160.306 228.848 160.399 229.037 160.585 229.181C160.771 229.319 161.029 229.388 161.359 229.388C161.683 229.388 161.965 229.316 162.205 229.172C162.451 229.028 162.628 228.818 162.736 228.542L162.907 229.136C162.793 229.418 162.592 229.643 162.304 229.811C162.016 229.973 161.653 230.054 161.215 230.054ZM165.379 230V225.23H166.243V230H165.379ZM165.811 224.312C165.643 224.312 165.502 224.258 165.388 224.15C165.28 224.042 165.226 223.91 165.226 223.754C165.226 223.592 165.28 223.457 165.388 223.349C165.502 223.241 165.643 223.187 165.811 223.187C165.979 223.187 166.117 223.241 166.225 223.349C166.339 223.451 166.396 223.58 166.396 223.736C166.396 223.898 166.342 224.036 166.234 224.15C166.126 224.258 165.985 224.312 165.811 224.312ZM168.072 230V223.322H168.936V230H168.072ZM170.973 230.054C170.805 230.054 170.661 229.997 170.541 229.883C170.421 229.763 170.361 229.613 170.361 229.433C170.361 229.253 170.421 229.106 170.541 228.992C170.661 228.878 170.805 228.821 170.973 228.821C171.135 228.821 171.273 228.878 171.387 228.992C171.507 229.106 171.567 229.253 171.567 229.433C171.567 229.613 171.507 229.763 171.387 229.883C171.273 229.997 171.135 230.054 170.973 230.054ZM174.959 230.054C174.473 230.054 174.038 229.949 173.654 229.739C173.276 229.529 172.979 229.241 172.763 228.875C172.547 228.509 172.439 228.089 172.439 227.615C172.439 227.141 172.547 226.721 172.763 226.355C172.979 225.989 173.276 225.704 173.654 225.5C174.038 225.29 174.473 225.185 174.959 225.185C175.391 225.185 175.775 225.272 176.111 225.446C176.453 225.614 176.717 225.866 176.903 226.202L176.246 226.625C176.09 226.391 175.898 226.22 175.67 226.112C175.448 225.998 175.208 225.941 174.95 225.941C174.638 225.941 174.359 226.01 174.113 226.148C173.867 226.286 173.672 226.481 173.528 226.733C173.384 226.979 173.312 227.273 173.312 227.615C173.312 227.957 173.384 228.254 173.528 228.506C173.672 228.758 173.867 228.953 174.113 229.091C174.359 229.229 174.638 229.298 174.95 229.298C175.208 229.298 175.448 229.244 175.67 229.136C175.898 229.022 176.09 228.848 176.246 228.614L176.903 229.028C176.717 229.358 176.453 229.613 176.111 229.793C175.775 229.967 175.391 230.054 174.959 230.054ZM180.174 230.054C179.694 230.054 179.268 229.949 178.896 229.739C178.524 229.529 178.23 229.241 178.014 228.875C177.798 228.503 177.69 228.083 177.69 227.615C177.69 227.141 177.798 226.721 178.014 226.355C178.23 225.989 178.524 225.704 178.896 225.5C179.268 225.29 179.694 225.185 180.174 225.185C180.648 225.185 181.071 225.29 181.443 225.5C181.821 225.704 182.115 225.989 182.325 226.355C182.541 226.715 182.649 227.135 182.649 227.615C182.649 228.089 182.541 228.509 182.325 228.875C182.115 229.241 181.821 229.529 181.443 229.739C181.071 229.949 180.648 230.054 180.174 230.054ZM180.174 229.298C180.48 229.298 180.753 229.229 180.993 229.091C181.239 228.953 181.431 228.758 181.569 228.506C181.707 228.248 181.776 227.951 181.776 227.615C181.776 227.273 181.707 226.979 181.569 226.733C181.431 226.481 181.239 226.286 180.993 226.148C180.753 226.01 180.48 225.941 180.174 225.941C179.868 225.941 179.595 226.01 179.355 226.148C179.115 226.286 178.923 226.481 178.779 226.733C178.635 226.979 178.563 227.273 178.563 227.615C178.563 227.951 178.635 228.248 178.779 228.506C178.923 228.758 179.115 228.953 179.355 229.091C179.595 229.229 179.868 229.298 180.174 229.298ZM184.024 230V225.23H184.852V226.499L184.717 226.175C184.867 225.863 185.098 225.62 185.41 225.446C185.722 225.272 186.085 225.185 186.499 225.185C186.955 225.185 187.348 225.299 187.678 225.527C188.008 225.749 188.224 226.088 188.326 226.544L187.975 226.4C188.119 226.034 188.371 225.74 188.731 225.518C189.091 225.296 189.511 225.185 189.991 225.185C190.375 225.185 190.714 225.26 191.008 225.41C191.302 225.56 191.53 225.788 191.692 226.094C191.86 226.4 191.944 226.787 191.944 227.255V230H191.08V227.354C191.08 226.892 190.972 226.544 190.756 226.31C190.54 226.076 190.237 225.959 189.847 225.959C189.559 225.959 189.307 226.019 189.091 226.139C188.875 226.259 188.707 226.436 188.587 226.67C188.473 226.904 188.416 227.195 188.416 227.543V230H187.552V227.354C187.552 226.892 187.444 226.544 187.228 226.31C187.018 226.076 186.715 225.959 186.319 225.959C186.037 225.959 185.788 226.019 185.572 226.139C185.356 226.259 185.188 226.436 185.068 226.67C184.948 226.904 184.888 227.195 184.888 227.543V230H184.024Z" fill="white" fill-opacity="0.7"/>
<rect x="213.5" y="177.5" width="194" height="64" rx="11.5" stroke="white" stroke-opacity="0.1"/>
<g clip-path="url(#clip3_2_1020)">
<path d="M313.163 198.856L323.581 187H321.115L312.064 197.292L304.845 187H296.511L307.432 202.57L296.511 215H298.977L308.531 204.128L316.155 215H324.484M299.869 188.821H303.659L321.109 213.266H317.32" fill="#F2F2F2"/>
</g>
<path d="M229.527 230L232.236 226.265V227.327L229.644 223.7H231.3L233.091 226.229L232.398 226.238L234.162 223.7H235.746L233.172 227.264V226.22L235.899 230H234.216L232.362 227.327H233.028L231.201 230H229.527ZM240.616 231.746C240.256 231.2 239.977 230.57 239.779 229.856C239.587 229.136 239.491 228.362 239.491 227.534C239.491 226.706 239.587 225.932 239.779 225.212C239.977 224.486 240.256 223.856 240.616 223.322H241.957C241.579 224 241.303 224.684 241.129 225.374C240.955 226.058 240.868 226.778 240.868 227.534C240.868 228.29 240.955 229.013 241.129 229.703C241.303 230.387 241.579 231.068 241.957 231.746H240.616ZM244.23 230V224.888H242.214V223.7H247.704V224.888H245.688V230H244.23ZM249.386 230L247.64 225.158H248.963L250.412 229.325H249.782L251.294 225.158H252.482L253.949 229.325H253.319L254.813 225.158H256.055L254.3 230H252.941L251.654 226.427H252.068L250.736 230H249.386ZM256.888 230V225.158H258.292V230H256.888ZM257.59 224.483C257.332 224.483 257.122 224.408 256.96 224.258C256.798 224.108 256.717 223.922 256.717 223.7C256.717 223.478 256.798 223.292 256.96 223.142C257.122 222.992 257.332 222.917 257.59 222.917C257.848 222.917 258.058 222.989 258.22 223.133C258.382 223.271 258.463 223.451 258.463 223.673C258.463 223.907 258.382 224.102 258.22 224.258C258.064 224.408 257.854 224.483 257.59 224.483ZM261.755 230.072C261.185 230.072 260.741 229.928 260.423 229.64C260.105 229.346 259.946 228.911 259.946 228.335V224.087H261.35V228.317C261.35 228.521 261.404 228.68 261.512 228.794C261.62 228.902 261.767 228.956 261.953 228.956C262.175 228.956 262.364 228.896 262.52 228.776L262.898 229.766C262.754 229.868 262.58 229.946 262.376 230C262.178 230.048 261.971 230.072 261.755 230.072ZM259.199 226.238V225.158H262.556V226.238H259.199ZM265.741 230.072C265.171 230.072 264.727 229.928 264.409 229.64C264.091 229.346 263.932 228.911 263.932 228.335V224.087H265.336V228.317C265.336 228.521 265.39 228.68 265.498 228.794C265.606 228.902 265.753 228.956 265.939 228.956C266.161 228.956 266.35 228.896 266.506 228.776L266.884 229.766C266.74 229.868 266.566 229.946 266.362 230C266.164 230.048 265.957 230.072 265.741 230.072ZM263.185 226.238V225.158H266.542V226.238H263.185ZM270.105 230.072C269.553 230.072 269.067 229.964 268.647 229.748C268.233 229.532 267.912 229.238 267.684 228.866C267.456 228.488 267.342 228.059 267.342 227.579C267.342 227.093 267.453 226.664 267.675 226.292C267.903 225.914 268.212 225.62 268.602 225.41C268.992 225.194 269.433 225.086 269.925 225.086C270.399 225.086 270.825 225.188 271.203 225.392C271.587 225.59 271.89 225.878 272.112 226.256C272.334 226.628 272.445 227.075 272.445 227.597C272.445 227.651 272.442 227.714 272.436 227.786C272.43 227.852 272.424 227.915 272.418 227.975H268.485V227.156H271.68L271.14 227.399C271.14 227.147 271.089 226.928 270.987 226.742C270.885 226.556 270.744 226.412 270.564 226.31C270.384 226.202 270.174 226.148 269.934 226.148C269.694 226.148 269.481 226.202 269.295 226.31C269.115 226.412 268.974 226.559 268.872 226.751C268.77 226.937 268.719 227.159 268.719 227.417V227.633C268.719 227.897 268.776 228.131 268.89 228.335C269.01 228.533 269.175 228.686 269.385 228.794C269.601 228.896 269.853 228.947 270.141 228.947C270.399 228.947 270.624 228.908 270.816 228.83C271.014 228.752 271.194 228.635 271.356 228.479L272.103 229.289C271.881 229.541 271.602 229.736 271.266 229.874C270.93 230.006 270.543 230.072 270.105 230.072ZM273.56 230V225.158H274.901V226.526L274.712 226.13C274.856 225.788 275.087 225.53 275.405 225.356C275.723 225.176 276.11 225.086 276.566 225.086V226.382C276.506 226.376 276.452 226.373 276.404 226.373C276.356 226.367 276.305 226.364 276.251 226.364C275.867 226.364 275.555 226.475 275.315 226.697C275.081 226.913 274.964 227.252 274.964 227.714V230H273.56ZM277.014 231.746C277.404 231.068 277.683 230.387 277.851 229.703C278.025 229.013 278.112 228.29 278.112 227.534C278.112 226.778 278.025 226.058 277.851 225.374C277.683 224.684 277.404 224 277.014 223.322H278.355C278.727 223.856 279.009 224.486 279.201 225.212C279.393 225.932 279.489 226.706 279.489 227.534C279.489 228.362 279.393 229.136 279.201 229.856C279.009 230.57 278.727 231.2 278.355 231.746H277.014ZM281.509 226.841C281.269 226.841 281.062 226.76 280.888 226.598C280.72 226.43 280.636 226.217 280.636 225.959C280.636 225.701 280.72 225.494 280.888 225.338C281.062 225.176 281.269 225.095 281.509 225.095C281.755 225.095 281.962 225.176 282.13 225.338C282.298 225.494 282.382 225.701 282.382 225.959C282.382 226.217 282.298 226.43 282.13 226.598C281.962 226.76 281.755 226.841 281.509 226.841ZM281.509 230.072C281.269 230.072 281.062 229.991 280.888 229.829C280.72 229.661 280.636 229.448 280.636 229.19C280.636 228.932 280.72 228.725 280.888 228.569C281.062 228.407 281.269 228.326 281.509 228.326C281.755 228.326 281.962 228.407 282.13 228.569C282.298 228.725 282.382 228.932 282.382 229.19C282.382 229.448 282.298 229.661 282.13 229.829C281.962 229.991 281.755 230.072 281.509 230.072Z" fill="white"/>
<path d="M285.588 230L287.64 227.336L287.631 227.777L285.678 225.23H286.641L288.135 227.192H287.766L289.26 225.23H290.205L288.225 227.795L288.234 227.336L290.304 230H289.323L287.748 227.912L288.099 227.966L286.551 230H285.588ZM291.634 230.054C291.466 230.054 291.322 229.997 291.202 229.883C291.082 229.763 291.022 229.613 291.022 229.433C291.022 229.253 291.082 229.106 291.202 228.992C291.322 228.878 291.466 228.821 291.634 228.821C291.796 228.821 291.934 228.878 292.048 228.992C292.168 229.106 292.228 229.253 292.228 229.433C292.228 229.613 292.168 229.763 292.048 229.883C291.934 229.997 291.796 230.054 291.634 230.054ZM295.619 230.054C295.133 230.054 294.698 229.949 294.314 229.739C293.936 229.529 293.639 229.241 293.423 228.875C293.207 228.509 293.099 228.089 293.099 227.615C293.099 227.141 293.207 226.721 293.423 226.355C293.639 225.989 293.936 225.704 294.314 225.5C294.698 225.29 295.133 225.185 295.619 225.185C296.051 225.185 296.435 225.272 296.771 225.446C297.113 225.614 297.377 225.866 297.563 226.202L296.906 226.625C296.75 226.391 296.558 226.22 296.33 226.112C296.108 225.998 295.868 225.941 295.61 225.941C295.298 225.941 295.019 226.01 294.773 226.148C294.527 226.286 294.332 226.481 294.188 226.733C294.044 226.979 293.972 227.273 293.972 227.615C293.972 227.957 294.044 228.254 294.188 228.506C294.332 228.758 294.527 228.953 294.773 229.091C295.019 229.229 295.298 229.298 295.61 229.298C295.868 229.298 296.108 229.244 296.33 229.136C296.558 229.022 296.75 228.848 296.906 228.614L297.563 229.028C297.377 229.358 297.113 229.613 296.771 229.793C296.435 229.967 296.051 230.054 295.619 230.054ZM300.835 230.054C300.355 230.054 299.929 229.949 299.557 229.739C299.185 229.529 298.891 229.241 298.675 228.875C298.459 228.503 298.351 228.083 298.351 227.615C298.351 227.141 298.459 226.721 298.675 226.355C298.891 225.989 299.185 225.704 299.557 225.5C299.929 225.29 300.355 225.185 300.835 225.185C301.309 225.185 301.732 225.29 302.104 225.5C302.482 225.704 302.776 225.989 302.986 226.355C303.202 226.715 303.31 227.135 303.31 227.615C303.31 228.089 303.202 228.509 302.986 228.875C302.776 229.241 302.482 229.529 302.104 229.739C301.732 229.949 301.309 230.054 300.835 230.054ZM300.835 229.298C301.141 229.298 301.414 229.229 301.654 229.091C301.9 228.953 302.092 228.758 302.23 228.506C302.368 228.248 302.437 227.951 302.437 227.615C302.437 227.273 302.368 226.979 302.23 226.733C302.092 226.481 301.9 226.286 301.654 226.148C301.414 226.01 301.141 225.941 300.835 225.941C300.529 225.941 300.256 226.01 300.016 226.148C299.776 226.286 299.584 226.481 299.44 226.733C299.296 226.979 299.224 227.273 299.224 227.615C299.224 227.951 299.296 228.248 299.44 228.506C299.584 228.758 299.776 228.953 300.016 229.091C300.256 229.229 300.529 229.298 300.835 229.298ZM304.685 230V225.23H305.513V226.499L305.378 226.175C305.528 225.863 305.759 225.62 306.071 225.446C306.383 225.272 306.746 225.185 307.16 225.185C307.616 225.185 308.009 225.299 308.339 225.527C308.669 225.749 308.885 226.088 308.987 226.544L308.636 226.4C308.78 226.034 309.032 225.74 309.392 225.518C309.752 225.296 310.172 225.185 310.652 225.185C311.036 225.185 311.375 225.26 311.669 225.41C311.963 225.56 312.191 225.788 312.353 226.094C312.521 226.4 312.605 226.787 312.605 227.255V230H311.741V227.354C311.741 226.892 311.633 226.544 311.417 226.31C311.201 226.076 310.898 225.959 310.508 225.959C310.22 225.959 309.968 226.019 309.752 226.139C309.536 226.259 309.368 226.436 309.248 226.67C309.134 226.904 309.077 227.195 309.077 227.543V230H308.213V227.354C308.213 226.892 308.105 226.544 307.889 226.31C307.679 226.076 307.376 225.959 306.98 225.959C306.698 225.959 306.449 226.019 306.233 226.139C306.017 226.259 305.849 226.436 305.729 226.67C305.609 226.904 305.549 227.195 305.549 227.543V230H304.685ZM313.303 230.9L316.273 222.422H317.056L314.086 230.9H313.303ZM319.11 230.054C318.63 230.054 318.258 229.925 317.994 229.667C317.73 229.409 317.598 229.04 317.598 228.56V224.186H318.462V228.524C318.462 228.782 318.525 228.98 318.651 229.118C318.783 229.256 318.969 229.325 319.209 229.325C319.479 229.325 319.704 229.25 319.884 229.1L320.154 229.721C320.022 229.835 319.863 229.919 319.677 229.973C319.497 230.027 319.308 230.054 319.11 230.054ZM316.788 225.941V225.23H319.83V225.941H316.788ZM321.379 230V223.322H322.243V226.517L322.072 226.175C322.228 225.863 322.468 225.62 322.792 225.446C323.116 225.272 323.494 225.185 323.926 225.185C324.316 225.185 324.658 225.26 324.952 225.41C325.252 225.56 325.486 225.788 325.654 226.094C325.822 226.4 325.906 226.787 325.906 227.255V230H325.042V227.354C325.042 226.892 324.928 226.544 324.7 226.31C324.478 226.076 324.163 225.959 323.755 225.959C323.449 225.959 323.182 226.019 322.954 226.139C322.726 226.259 322.549 226.436 322.423 226.67C322.303 226.904 322.243 227.195 322.243 227.543V230H321.379ZM330.646 230V228.992L330.601 228.803V227.084C330.601 226.718 330.493 226.436 330.277 226.238C330.067 226.034 329.749 225.932 329.323 225.932C329.041 225.932 328.765 225.98 328.495 226.076C328.225 226.166 327.997 226.289 327.811 226.445L327.451 225.797C327.697 225.599 327.991 225.449 328.333 225.347C328.681 225.239 329.044 225.185 329.422 225.185C330.076 225.185 330.58 225.344 330.934 225.662C331.288 225.98 331.465 226.466 331.465 227.12V230H330.646ZM329.08 230.054C328.726 230.054 328.414 229.994 328.144 229.874C327.88 229.754 327.676 229.589 327.532 229.379C327.388 229.163 327.316 228.92 327.316 228.65C327.316 228.392 327.376 228.158 327.496 227.948C327.622 227.738 327.823 227.57 328.099 227.444C328.381 227.318 328.759 227.255 329.233 227.255H330.745V227.876H329.269C328.837 227.876 328.546 227.948 328.396 228.092C328.246 228.236 328.171 228.41 328.171 228.614C328.171 228.848 328.264 229.037 328.45 229.181C328.636 229.319 328.894 229.388 329.224 229.388C329.548 229.388 329.83 229.316 330.07 229.172C330.316 229.028 330.493 228.818 330.601 228.542L330.772 229.136C330.658 229.418 330.457 229.643 330.169 229.811C329.881 229.973 329.518 230.054 329.08 230.054ZM334.882 230.054C334.402 230.054 334.03 229.925 333.766 229.667C333.502 229.409 333.37 229.04 333.37 228.56V224.186H334.234V228.524C334.234 228.782 334.297 228.98 334.423 229.118C334.555 229.256 334.741 229.325 334.981 229.325C335.251 229.325 335.476 229.25 335.656 229.1L335.926 229.721C335.794 229.835 335.635 229.919 335.449 229.973C335.269 230.027 335.08 230.054 334.882 230.054ZM332.56 225.941V225.23H335.602V225.941H332.56ZM339.035 230.054C338.555 230.054 338.129 229.949 337.757 229.739C337.385 229.529 337.091 229.241 336.875 228.875C336.659 228.503 336.551 228.083 336.551 227.615C336.551 227.141 336.659 226.721 336.875 226.355C337.091 225.989 337.385 225.704 337.757 225.5C338.129 225.29 338.555 225.185 339.035 225.185C339.509 225.185 339.932 225.29 340.304 225.5C340.682 225.704 340.976 225.989 341.186 226.355C341.402 226.715 341.51 227.135 341.51 227.615C341.51 228.089 341.402 228.509 341.186 228.875C340.976 229.241 340.682 229.529 340.304 229.739C339.932 229.949 339.509 230.054 339.035 230.054ZM339.035 229.298C339.341 229.298 339.614 229.229 339.854 229.091C340.1 228.953 340.292 228.758 340.43 228.506C340.568 228.248 340.637 227.951 340.637 227.615C340.637 227.273 340.568 226.979 340.43 226.733C340.292 226.481 340.1 226.286 339.854 226.148C339.614 226.01 339.341 225.941 339.035 225.941C338.729 225.941 338.456 226.01 338.216 226.148C337.976 226.286 337.784 226.481 337.64 226.733C337.496 226.979 337.424 227.273 337.424 227.615C337.424 227.951 337.496 228.248 337.64 228.506C337.784 228.758 337.976 228.953 338.216 229.091C338.456 229.229 338.729 229.298 339.035 229.298ZM342.885 230V225.23H343.713V226.517L343.578 226.175C343.734 225.863 343.974 225.62 344.298 225.446C344.622 225.272 345 225.185 345.432 225.185C345.822 225.185 346.164 225.26 346.458 225.41C346.758 225.56 346.992 225.788 347.16 226.094C347.328 226.4 347.412 226.787 347.412 227.255V230H346.548V227.354C346.548 226.892 346.434 226.544 346.206 226.31C345.984 226.076 345.669 225.959 345.261 225.959C344.955 225.959 344.688 226.019 344.46 226.139C344.232 226.259 344.055 226.436 343.929 226.67C343.809 226.904 343.749 227.195 343.749 227.543V230H342.885ZM351.315 230.054C350.805 230.054 350.355 229.949 349.965 229.739C349.581 229.529 349.281 229.241 349.065 228.875C348.855 228.509 348.75 228.089 348.75 227.615C348.75 227.141 348.852 226.721 349.056 226.355C349.266 225.989 349.551 225.704 349.911 225.5C350.277 225.29 350.688 225.185 351.144 225.185C351.606 225.185 352.014 225.287 352.368 225.491C352.722 225.695 352.998 225.983 353.196 226.355C353.4 226.721 353.502 227.15 353.502 227.642C353.502 227.678 353.499 227.72 353.493 227.768C353.493 227.816 353.49 227.861 353.484 227.903H349.425V227.282H353.034L352.683 227.498C352.689 227.192 352.626 226.919 352.494 226.679C352.362 226.439 352.179 226.253 351.945 226.121C351.717 225.983 351.45 225.914 351.144 225.914C350.844 225.914 350.577 225.983 350.343 226.121C350.109 226.253 349.926 226.442 349.794 226.688C349.662 226.928 349.596 227.204 349.596 227.516V227.66C349.596 227.978 349.668 228.263 349.812 228.515C349.962 228.761 350.169 228.953 350.433 229.091C350.697 229.229 351 229.298 351.342 229.298C351.624 229.298 351.879 229.25 352.107 229.154C352.341 229.058 352.545 228.914 352.719 228.722L353.196 229.28C352.98 229.532 352.71 229.724 352.386 229.856C352.068 229.988 351.711 230.054 351.315 230.054ZM356.25 230.054C355.854 230.054 355.476 230 355.116 229.892C354.762 229.784 354.483 229.652 354.279 229.496L354.639 228.812C354.843 228.95 355.095 229.067 355.395 229.163C355.695 229.259 356.001 229.307 356.313 229.307C356.715 229.307 357.003 229.25 357.177 229.136C357.357 229.022 357.447 228.863 357.447 228.659C357.447 228.509 357.393 228.392 357.285 228.308C357.177 228.224 357.033 228.161 356.853 228.119C356.679 228.077 356.484 228.041 356.268 228.011C356.052 227.975 355.836 227.933 355.62 227.885C355.404 227.831 355.206 227.759 355.026 227.669C354.846 227.573 354.702 227.444 354.594 227.282C354.486 227.114 354.432 226.892 354.432 226.616C354.432 226.328 354.513 226.076 354.675 225.86C354.837 225.644 355.065 225.479 355.359 225.365C355.659 225.245 356.013 225.185 356.421 225.185C356.733 225.185 357.048 225.224 357.366 225.302C357.69 225.374 357.954 225.479 358.158 225.617L357.789 226.301C357.573 226.157 357.348 226.058 357.114 226.004C356.88 225.95 356.646 225.923 356.412 225.923C356.034 225.923 355.752 225.986 355.566 226.112C355.38 226.232 355.287 226.388 355.287 226.58C355.287 226.742 355.341 226.868 355.449 226.958C355.563 227.042 355.707 227.108 355.881 227.156C356.061 227.204 356.259 227.246 356.475 227.282C356.691 227.312 356.907 227.354 357.123 227.408C357.339 227.456 357.534 227.525 357.708 227.615C357.888 227.705 358.032 227.831 358.14 227.993C358.254 228.155 358.311 228.371 358.311 228.641C358.311 228.929 358.227 229.178 358.059 229.388C357.891 229.598 357.654 229.763 357.348 229.883C357.042 229.997 356.676 230.054 356.25 230.054ZM362.532 230V228.992L362.487 228.803V227.084C362.487 226.718 362.379 226.436 362.163 226.238C361.953 226.034 361.635 225.932 361.209 225.932C360.927 225.932 360.651 225.98 360.381 226.076C360.111 226.166 359.883 226.289 359.697 226.445L359.337 225.797C359.583 225.599 359.877 225.449 360.219 225.347C360.567 225.239 360.93 225.185 361.308 225.185C361.962 225.185 362.466 225.344 362.82 225.662C363.174 225.98 363.351 226.466 363.351 227.12V230H362.532ZM360.966 230.054C360.612 230.054 360.3 229.994 360.03 229.874C359.766 229.754 359.562 229.589 359.418 229.379C359.274 229.163 359.202 228.92 359.202 228.65C359.202 228.392 359.262 228.158 359.382 227.948C359.508 227.738 359.709 227.57 359.985 227.444C360.267 227.318 360.645 227.255 361.119 227.255H362.631V227.876H361.155C360.723 227.876 360.432 227.948 360.282 228.092C360.132 228.236 360.057 228.41 360.057 228.614C360.057 228.848 360.15 229.037 360.336 229.181C360.522 229.319 360.78 229.388 361.11 229.388C361.434 229.388 361.716 229.316 361.956 229.172C362.202 229.028 362.379 228.818 362.487 228.542L362.658 229.136C362.544 229.418 362.343 229.643 362.055 229.811C361.767 229.973 361.404 230.054 360.966 230.054ZM367.659 230.054C367.251 230.054 366.882 229.964 366.552 229.784C366.228 229.598 365.97 229.325 365.778 228.965C365.592 228.605 365.499 228.155 365.499 227.615C365.499 227.075 365.595 226.625 365.787 226.265C365.985 225.905 366.246 225.635 366.57 225.455C366.9 225.275 367.263 225.185 367.659 225.185C368.127 225.185 368.541 225.287 368.901 225.491C369.261 225.695 369.546 225.98 369.756 226.346C369.966 226.706 370.071 227.129 370.071 227.615C370.071 228.101 369.966 228.527 369.756 228.893C369.546 229.259 369.261 229.544 368.901 229.748C368.541 229.952 368.127 230.054 367.659 230.054ZM365.13 230V223.322H365.994V226.499L365.904 227.606L365.958 228.713V230H365.13ZM367.587 229.298C367.893 229.298 368.166 229.229 368.406 229.091C368.652 228.953 368.844 228.758 368.982 228.506C369.126 228.248 369.198 227.951 369.198 227.615C369.198 227.273 369.126 226.979 368.982 226.733C368.844 226.481 368.652 226.286 368.406 226.148C368.166 226.01 367.893 225.941 367.587 225.941C367.287 225.941 367.014 226.01 366.768 226.148C366.528 226.286 366.336 226.481 366.192 226.733C366.054 226.979 365.985 227.273 365.985 227.615C365.985 227.951 366.054 228.248 366.192 228.506C366.336 228.758 366.528 228.953 366.768 229.091C367.014 229.229 367.287 229.298 367.587 229.298ZM371.519 231.8C371.291 231.8 371.069 231.761 370.853 231.683C370.637 231.611 370.451 231.503 370.295 231.359L370.664 230.711C370.784 230.825 370.916 230.912 371.06 230.972C371.204 231.032 371.357 231.062 371.519 231.062C371.729 231.062 371.903 231.008 372.041 230.9C372.179 230.792 372.308 230.6 372.428 230.324L372.725 229.667L372.815 229.559L374.687 225.23H375.533L373.22 230.477C373.082 230.813 372.926 231.077 372.752 231.269C372.584 231.461 372.398 231.596 372.194 231.674C371.99 231.758 371.765 231.8 371.519 231.8ZM372.653 230.153L370.475 225.23H371.375L373.229 229.478L372.653 230.153ZM376.52 230V225.23H377.348V226.526L377.267 226.202C377.399 225.872 377.621 225.62 377.933 225.446C378.245 225.272 378.629 225.185 379.085 225.185V226.022C379.049 226.016 379.013 226.013 378.977 226.013C378.947 226.013 378.917 226.013 378.887 226.013C378.425 226.013 378.059 226.151 377.789 226.427C377.519 226.703 377.384 227.102 377.384 227.624V230H376.52ZM381.032 228.848L381.05 227.741L383.795 225.23H384.839L382.733 227.3L382.265 227.696L381.032 228.848ZM380.33 230V223.322H381.194V230H380.33ZM383.975 230L382.103 227.678L382.661 226.985L385.037 230H383.975ZM388.92 230V228.992L388.875 228.803V227.084C388.875 226.718 388.767 226.436 388.551 226.238C388.341 226.034 388.023 225.932 387.597 225.932C387.315 225.932 387.039 225.98 386.769 226.076C386.499 226.166 386.271 226.289 386.085 226.445L385.725 225.797C385.971 225.599 386.265 225.449 386.607 225.347C386.955 225.239 387.318 225.185 387.696 225.185C388.35 225.185 388.854 225.344 389.208 225.662C389.562 225.98 389.739 226.466 389.739 227.12V230H388.92ZM387.354 230.054C387 230.054 386.688 229.994 386.418 229.874C386.154 229.754 385.95 229.589 385.806 229.379C385.662 229.163 385.59 228.92 385.59 228.65C385.59 228.392 385.65 228.158 385.77 227.948C385.896 227.738 386.097 227.57 386.373 227.444C386.655 227.318 387.033 227.255 387.507 227.255H389.019V227.876H387.543C387.111 227.876 386.82 227.948 386.67 228.092C386.52 228.236 386.445 228.41 386.445 228.614C386.445 228.848 386.538 229.037 386.724 229.181C386.91 229.319 387.168 229.388 387.498 229.388C387.822 229.388 388.104 229.316 388.344 229.172C388.59 229.028 388.767 228.818 388.875 228.542L389.046 229.136C388.932 229.418 388.731 229.643 388.443 229.811C388.155 229.973 387.792 230.054 387.354 230.054Z" fill="white" fill-opacity="0.7"/>
<defs>
<linearGradient id="paint0_linear_2_1020" x1="210" y1="73" x2="210" y2="45" gradientUnits="userSpaceOnUse">
<stop stop-color="#1D93D2"/>
<stop offset="1" stop-color="#38B0E3"/>
</linearGradient>
<clipPath id="clip0_2_1020">
<rect width="28" height="28" fill="white" transform="translate(196 45)"/>
</clipPath>
<clipPath id="clip1_2_1020">
<rect width="28" height="28" fill="white" transform="translate(196 116)"/>
</clipPath>
<clipPath id="clip2_2_1020">
<rect width="28" height="28" fill="white" transform="translate(95.5 187)"/>
</clipPath>
<clipPath id="clip3_2_1020">
<rect width="28" height="28" fill="white" transform="translate(296.5 187)"/>
</clipPath>
</defs>
</svg>
