<svg width="420" height="251" viewBox="0 0 420 251" fill="none" xmlns="http://www.w3.org/2000/svg">
<rect x="0.5" y="0.5" width="419" height="250" rx="11.5" stroke="white" stroke-opacity="0.1"/>
<path d="M17.028 24.168C16.364 24.168 15.748 24.064 15.18 23.856C14.62 23.64 14.132 23.336 13.716 22.944C13.308 22.552 12.988 22.092 12.756 21.564C12.524 21.028 12.408 20.44 12.408 19.8C12.408 19.16 12.524 18.576 12.756 18.048C12.988 17.512 13.308 17.048 13.716 16.656C14.132 16.264 14.62 15.964 15.18 15.756C15.748 15.54 16.364 15.432 17.028 15.432C17.804 15.432 18.496 15.568 19.104 15.84C19.72 16.112 20.232 16.504 20.64 17.016L19.128 18.384C18.856 18.064 18.556 17.82 18.228 17.652C17.908 17.484 17.548 17.4 17.148 17.4C16.804 17.4 16.488 17.456 16.2 17.568C15.912 17.68 15.664 17.844 15.456 18.06C15.256 18.268 15.096 18.52 14.976 18.816C14.864 19.112 14.808 19.44 14.808 19.8C14.808 20.16 14.864 20.488 14.976 20.784C15.096 21.08 15.256 21.336 15.456 21.552C15.664 21.76 15.912 21.92 16.2 22.032C16.488 22.144 16.804 22.2 17.148 22.2C17.548 22.2 17.908 22.116 18.228 21.948C18.556 21.78 18.856 21.536 19.128 21.216L20.64 22.584C20.232 23.088 19.72 23.48 19.104 23.76C18.496 24.032 17.804 24.168 17.028 24.168ZM25.7418 24.168C25.0698 24.168 24.4498 24.06 23.8818 23.844C23.3138 23.628 22.8178 23.324 22.3938 22.932C21.9778 22.532 21.6538 22.068 21.4218 21.54C21.1898 21.012 21.0738 20.432 21.0738 19.8C21.0738 19.168 21.1898 18.588 21.4218 18.06C21.6538 17.532 21.9778 17.072 22.3938 16.68C22.8178 16.28 23.3138 15.972 23.8818 15.756C24.4498 15.54 25.0698 15.432 25.7418 15.432C26.4218 15.432 27.0418 15.54 27.6018 15.756C28.1698 15.972 28.6618 16.28 29.0778 16.68C29.4938 17.072 29.8178 17.532 30.0498 18.06C30.2898 18.588 30.4098 19.168 30.4098 19.8C30.4098 20.432 30.2898 21.016 30.0498 21.552C29.8178 22.08 29.4938 22.54 29.0778 22.932C28.6618 23.324 28.1698 23.628 27.6018 23.844C27.0418 24.06 26.4218 24.168 25.7418 24.168ZM25.7418 22.2C26.0618 22.2 26.3578 22.144 26.6298 22.032C26.9098 21.92 27.1498 21.76 27.3498 21.552C27.5578 21.336 27.7178 21.08 27.8298 20.784C27.9498 20.488 28.0098 20.16 28.0098 19.8C28.0098 19.432 27.9498 19.104 27.8298 18.816C27.7178 18.52 27.5578 18.268 27.3498 18.06C27.1498 17.844 26.9098 17.68 26.6298 17.568C26.3578 17.456 26.0618 17.4 25.7418 17.4C25.4218 17.4 25.1218 17.456 24.8418 17.568C24.5698 17.68 24.3298 17.844 24.1218 18.06C23.9218 18.268 23.7618 18.52 23.6418 18.816C23.5298 19.104 23.4738 19.432 23.4738 19.8C23.4738 20.16 23.5298 20.488 23.6418 20.784C23.7618 21.08 23.9218 21.336 24.1218 21.552C24.3298 21.76 24.5698 21.92 24.8418 22.032C25.1218 22.144 25.4218 22.2 25.7418 22.2ZM31.8942 24V15.6H33.8502L38.4822 21.192H37.5582V15.6H39.8862V24H37.9302L33.2982 18.408H34.2222V24H31.8942ZM41.8022 24V15.6H43.7582L48.3902 21.192H47.4662V15.6H49.7942V24H47.8382L43.2062 18.408H44.1302V24H41.8022ZM51.7102 24V15.6H58.2982V17.436H54.0622V22.164H58.4542V24H51.7102ZM53.8942 20.628V18.852H57.7942V20.628H53.8942ZM64.2007 24.168C63.5367 24.168 62.9207 24.064 62.3527 23.856C61.7927 23.64 61.3047 23.336 60.8887 22.944C60.4807 22.552 60.1607 22.092 59.9287 21.564C59.6967 21.028 59.5807 20.44 59.5807 19.8C59.5807 19.16 59.6967 18.576 59.9287 18.048C60.1607 17.512 60.4807 17.048 60.8887 16.656C61.3047 16.264 61.7927 15.964 62.3527 15.756C62.9207 15.54 63.5367 15.432 64.2007 15.432C64.9767 15.432 65.6687 15.568 66.2767 15.84C66.8927 16.112 67.4047 16.504 67.8127 17.016L66.3007 18.384C66.0287 18.064 65.7287 17.82 65.4007 17.652C65.0807 17.484 64.7207 17.4 64.3207 17.4C63.9767 17.4 63.6607 17.456 63.3727 17.568C63.0847 17.68 62.8367 17.844 62.6287 18.06C62.4287 18.268 62.2687 18.52 62.1487 18.816C62.0367 19.112 61.9807 19.44 61.9807 19.8C61.9807 20.16 62.0367 20.488 62.1487 20.784C62.2687 21.08 62.4287 21.336 62.6287 21.552C62.8367 21.76 63.0847 21.92 63.3727 22.032C63.6607 22.144 63.9767 22.2 64.3207 22.2C64.7207 22.2 65.0807 22.116 65.4007 21.948C65.7287 21.78 66.0287 21.536 66.3007 21.216L67.8127 22.584C67.4047 23.088 66.8927 23.48 66.2767 23.76C65.6687 24.032 64.9767 24.168 64.2007 24.168ZM70.7008 24V17.484H68.1208V15.6H75.6448V17.484H73.0768V24H70.7008Z" fill="white"/>
<rect x="12.5" y="35.5" width="395" height="63" rx="11.5" stroke="white" stroke-opacity="0.1"/>
<g clip-path="url(#clip0_2_1020)">
<path d="M210 73C217.732 73 224 66.732 224 59C224 51.268 217.732 45 210 45C202.268 45 196 51.268 196 59C196 66.732 202.268 73 210 73Z" fill="url(#paint0_linear_2_1020)"/>
<path d="M205.477 60.0227L207.14 64.6219C207.14 64.6219 207.348 65.0539 207.572 65.0539C207.796 65.0539 211.099 61.6141 211.099 61.6141L214.78 54.5102L205.538 58.8359L205.477 60.0227Z" fill="#C8DAEA"/>
<path d="M207.681 61.2039L207.364 64.5945C207.364 64.5945 207.233 65.6336 208.266 64.5945C209.305 63.5555 210.301 62.757 210.301 62.757" fill="#A9C6D8"/>
<path d="M205.505 60.1867L202.087 59.0711C202.087 59.0711 201.677 58.907 201.808 58.5297C201.835 58.4531 201.89 58.3875 202.054 58.2727C202.814 57.7477 216.07 52.9844 216.07 52.9844C216.07 52.9844 216.442 52.8586 216.666 52.9406C216.776 52.9734 216.863 53.0664 216.885 53.1813C216.907 53.2797 216.918 53.3836 216.913 53.482C216.913 53.5695 216.902 53.6516 216.891 53.7773C216.809 55.0789 214.391 64.8023 214.391 64.8023C214.391 64.8023 214.249 65.3711 213.73 65.393C213.473 65.4039 213.221 65.3055 213.041 65.125C212.023 64.25 208.513 61.8875 207.736 61.3734C207.703 61.3516 207.676 61.3133 207.67 61.2695C207.659 61.2148 207.72 61.1492 207.72 61.1492C207.72 61.1492 213.834 55.7133 213.998 55.1445C214.009 55.1008 213.965 55.0789 213.899 55.0953C213.495 55.243 206.451 59.6945 205.674 60.1813C205.625 60.1922 205.565 60.1977 205.505 60.1867Z" fill="white"/>
</g>
<path d="M168.824 87V82.456H167.032V81.4H171.912V82.456H170.12V87H168.824ZM174.38 87.064C173.889 87.064 173.457 86.968 173.084 86.776C172.716 86.584 172.43 86.3227 172.228 85.992C172.025 85.656 171.924 85.2747 171.924 84.848C171.924 84.416 172.022 84.0347 172.22 83.704C172.422 83.368 172.697 83.1067 173.044 82.92C173.39 82.728 173.782 82.632 174.22 82.632C174.641 82.632 175.02 82.7227 175.356 82.904C175.697 83.08 175.966 83.336 176.164 83.672C176.361 84.0027 176.46 84.4 176.46 84.864C176.46 84.912 176.457 84.968 176.452 85.032C176.446 85.0907 176.441 85.1467 176.436 85.2H172.94V84.472H175.78L175.3 84.688C175.3 84.464 175.254 84.2693 175.164 84.104C175.073 83.9387 174.948 83.8107 174.788 83.72C174.628 83.624 174.441 83.576 174.228 83.576C174.014 83.576 173.825 83.624 173.66 83.72C173.5 83.8107 173.374 83.9413 173.284 84.112C173.193 84.2773 173.148 84.4747 173.148 84.704V84.896C173.148 85.1307 173.198 85.3387 173.3 85.52C173.406 85.696 173.553 85.832 173.74 85.928C173.932 86.0187 174.156 86.064 174.412 86.064C174.641 86.064 174.841 86.0293 175.012 85.96C175.188 85.8907 175.348 85.7867 175.492 85.648L176.156 86.368C175.958 86.592 175.71 86.7653 175.412 86.888C175.113 87.0053 174.769 87.064 174.38 87.064ZM177.451 87V81.064H178.699V87H177.451ZM182.153 87.064C181.662 87.064 181.23 86.968 180.857 86.776C180.489 86.584 180.204 86.3227 180.001 85.992C179.798 85.656 179.697 85.2747 179.697 84.848C179.697 84.416 179.796 84.0347 179.993 83.704C180.196 83.368 180.47 83.1067 180.817 82.92C181.164 82.728 181.556 82.632 181.993 82.632C182.414 82.632 182.793 82.7227 183.129 82.904C183.47 83.08 183.74 83.336 183.937 83.672C184.134 84.0027 184.233 84.4 184.233 84.864C184.233 84.912 184.23 84.968 184.225 85.032C184.22 85.0907 184.214 85.1467 184.209 85.2H180.713V84.472H183.553L183.073 84.688C183.073 84.464 183.028 84.2693 182.937 84.104C182.846 83.9387 182.721 83.8107 182.561 83.72C182.401 83.624 182.214 83.576 182.001 83.576C181.788 83.576 181.598 83.624 181.433 83.72C181.273 83.8107 181.148 83.9413 181.057 84.112C180.966 84.2773 180.921 84.4747 180.921 84.704V84.896C180.921 85.1307 180.972 85.3387 181.073 85.52C181.18 85.696 181.326 85.832 181.513 85.928C181.705 86.0187 181.929 86.064 182.185 86.064C182.414 86.064 182.614 86.0293 182.785 85.96C182.961 85.8907 183.121 85.7867 183.265 85.648L183.929 86.368C183.732 86.592 183.484 86.7653 183.185 86.888C182.886 87.0053 182.542 87.064 182.153 87.064ZM187.248 88.616C186.842 88.616 186.45 88.5653 186.072 88.464C185.698 88.368 185.386 88.2213 185.136 88.024L185.632 87.128C185.813 87.2773 186.042 87.3947 186.32 87.48C186.602 87.5707 186.88 87.616 187.152 87.616C187.594 87.616 187.914 87.5173 188.112 87.32C188.314 87.1227 188.416 86.8293 188.416 86.44V85.792L188.496 84.712L188.48 83.624V82.696H189.664V86.28C189.664 87.08 189.456 87.6693 189.04 88.048C188.624 88.4267 188.026 88.616 187.248 88.616ZM187.056 86.792C186.656 86.792 186.293 86.7067 185.968 86.536C185.648 86.36 185.389 86.1173 185.192 85.808C185 85.4933 184.904 85.128 184.904 84.712C184.904 84.2907 185 83.9253 185.192 83.616C185.389 83.3013 185.648 83.0587 185.968 82.888C186.293 82.7173 186.656 82.632 187.056 82.632C187.418 82.632 187.738 82.7067 188.016 82.856C188.293 83 188.509 83.2267 188.664 83.536C188.818 83.84 188.896 84.232 188.896 84.712C188.896 85.1867 188.818 85.5787 188.664 85.888C188.509 86.192 188.293 86.4187 188.016 86.568C187.738 86.7173 187.418 86.792 187.056 86.792ZM187.304 85.768C187.522 85.768 187.717 85.7253 187.888 85.64C188.058 85.5493 188.192 85.424 188.288 85.264C188.384 85.104 188.432 84.92 188.432 84.712C188.432 84.4987 188.384 84.3147 188.288 84.16C188.192 84 188.058 83.8773 187.888 83.792C187.717 83.7013 187.522 83.656 187.304 83.656C187.085 83.656 186.89 83.7013 186.72 83.792C186.549 83.8773 186.413 84 186.312 84.16C186.216 84.3147 186.168 84.4987 186.168 84.712C186.168 84.92 186.216 85.104 186.312 85.264C186.413 85.424 186.549 85.5493 186.72 85.64C186.89 85.7253 187.085 85.768 187.304 85.768ZM190.985 87V82.696H192.177V83.912L192.009 83.56C192.137 83.256 192.343 83.0267 192.625 82.872C192.908 82.712 193.252 82.632 193.657 82.632V83.784C193.604 83.7787 193.556 83.776 193.513 83.776C193.471 83.7707 193.425 83.768 193.377 83.768C193.036 83.768 192.759 83.8667 192.545 84.064C192.337 84.256 192.233 84.5573 192.233 84.968V87H190.985ZM196.918 87V86.16L196.838 85.976V84.472C196.838 84.2053 196.756 83.9973 196.59 83.848C196.43 83.6987 196.182 83.624 195.846 83.624C195.617 83.624 195.39 83.6613 195.166 83.736C194.948 83.8053 194.761 83.9013 194.606 84.024L194.158 83.152C194.393 82.9867 194.676 82.8587 195.006 82.768C195.337 82.6773 195.673 82.632 196.014 82.632C196.67 82.632 197.18 82.7867 197.542 83.096C197.905 83.4053 198.086 83.888 198.086 84.544V87H196.918ZM195.606 87.064C195.27 87.064 194.982 87.008 194.742 86.896C194.502 86.7787 194.318 86.6213 194.19 86.424C194.062 86.2267 193.998 86.0053 193.998 85.76C193.998 85.504 194.06 85.28 194.182 85.088C194.31 84.896 194.51 84.7467 194.782 84.64C195.054 84.528 195.409 84.472 195.846 84.472H196.99V85.2H195.982C195.689 85.2 195.486 85.248 195.374 85.344C195.268 85.44 195.214 85.56 195.214 85.704C195.214 85.864 195.276 85.992 195.398 86.088C195.526 86.1787 195.7 86.224 195.918 86.224C196.126 86.224 196.313 86.176 196.478 86.08C196.644 85.9787 196.764 85.832 196.838 85.64L197.03 86.216C196.94 86.4933 196.774 86.704 196.534 86.848C196.294 86.992 195.985 87.064 195.606 87.064ZM199.376 87V82.696H200.568V83.872L200.344 83.528C200.493 83.2347 200.704 83.0133 200.976 82.864C201.253 82.7093 201.568 82.632 201.92 82.632C202.314 82.632 202.658 82.7333 202.952 82.936C203.25 83.1333 203.448 83.4373 203.544 83.848L203.104 83.728C203.248 83.392 203.477 83.1253 203.792 82.928C204.112 82.7307 204.477 82.632 204.888 82.632C205.229 82.632 205.53 82.7013 205.792 82.84C206.058 82.9733 206.266 83.1813 206.416 83.464C206.57 83.7413 206.648 84.0987 206.648 84.536V87H205.4V84.728C205.4 84.3813 205.328 84.1253 205.184 83.96C205.04 83.7947 204.837 83.712 204.576 83.712C204.394 83.712 204.232 83.7547 204.088 83.84C203.944 83.92 203.832 84.0427 203.752 84.208C203.672 84.3733 203.632 84.584 203.632 84.84V87H202.384V84.728C202.384 84.3813 202.312 84.1253 202.168 83.96C202.029 83.7947 201.829 83.712 201.568 83.712C201.386 83.712 201.224 83.7547 201.08 83.84C200.936 83.92 200.824 84.0427 200.744 84.208C200.664 84.3733 200.624 84.584 200.624 84.84V87H199.376ZM208.398 84.192C208.185 84.192 208.001 84.12 207.846 83.976C207.697 83.8267 207.622 83.6373 207.622 83.408C207.622 83.1787 207.697 82.9947 207.846 82.856C208.001 82.712 208.185 82.64 208.398 82.64C208.617 82.64 208.801 82.712 208.95 82.856C209.1 82.9947 209.174 83.1787 209.174 83.408C209.174 83.6373 209.1 83.8267 208.95 83.976C208.801 84.12 208.617 84.192 208.398 84.192ZM208.398 87.064C208.185 87.064 208.001 86.992 207.846 86.848C207.697 86.6987 207.622 86.5093 207.622 86.28C207.622 86.0507 207.697 85.8667 207.846 85.728C208.001 85.584 208.185 85.512 208.398 85.512C208.617 85.512 208.801 85.584 208.95 85.728C209.1 85.8667 209.174 86.0507 209.174 86.28C209.174 86.5093 209.1 86.6987 208.95 86.848C208.801 86.992 208.617 87.064 208.398 87.064Z" fill="white"/>
<path d="M216.04 88.616C215.486 88.616 214.979 88.5253 214.52 88.344C214.062 88.1627 213.667 87.9093 213.336 87.584C213.006 87.2587 212.75 86.8747 212.568 86.432C212.387 85.984 212.296 85.496 212.296 84.968C212.296 84.44 212.387 83.9547 212.568 83.512C212.75 83.0693 213.006 82.6853 213.336 82.36C213.672 82.0347 214.072 81.784 214.536 81.608C215 81.432 215.512 81.344 216.072 81.344C216.622 81.344 217.123 81.4293 217.576 81.6C218.03 81.7707 218.422 82.0133 218.752 82.328C219.088 82.6373 219.347 83.008 219.528 83.44C219.71 83.8667 219.8 84.3387 219.8 84.856C219.8 85.3093 219.744 85.6987 219.632 86.024C219.52 86.3493 219.358 86.6027 219.144 86.784C218.936 86.96 218.68 87.048 218.376 87.048C218.078 87.048 217.838 86.9573 217.656 86.776C217.48 86.5947 217.392 86.336 217.392 86V85.456L217.432 84.968L217.36 84.048V82.984H218.056V85.864C218.056 86.0773 218.099 86.2267 218.184 86.312C218.275 86.3973 218.384 86.44 218.512 86.44C218.667 86.44 218.8 86.3787 218.912 86.256C219.03 86.1333 219.115 85.9547 219.168 85.72C219.227 85.48 219.256 85.1947 219.256 84.864C219.256 84.416 219.179 84.0107 219.024 83.648C218.875 83.28 218.656 82.9627 218.368 82.696C218.086 82.4293 217.75 82.2267 217.36 82.088C216.976 81.944 216.547 81.872 216.072 81.872C215.598 81.872 215.163 81.9493 214.768 82.104C214.379 82.2533 214.043 82.4667 213.76 82.744C213.478 83.016 213.259 83.3413 213.104 83.72C212.955 84.0987 212.88 84.5147 212.88 84.968C212.88 85.4267 212.955 85.848 213.104 86.232C213.254 86.6107 213.467 86.936 213.744 87.208C214.027 87.4853 214.36 87.6987 214.744 87.848C215.134 88.0027 215.566 88.08 216.04 88.08C216.286 88.08 216.544 88.0507 216.816 87.992C217.088 87.9387 217.344 87.8507 217.584 87.728L217.76 88.24C217.515 88.3627 217.238 88.456 216.928 88.52C216.619 88.584 216.323 88.616 216.04 88.616ZM215.896 87.048C215.518 87.048 215.182 86.96 214.888 86.784C214.595 86.6027 214.363 86.3573 214.192 86.048C214.022 85.7387 213.936 85.3867 213.936 84.992C213.936 84.592 214.022 84.24 214.192 83.936C214.363 83.6267 214.595 83.3867 214.888 83.216C215.182 83.04 215.518 82.952 215.896 82.952C216.264 82.952 216.587 83.032 216.864 83.192C217.142 83.3467 217.358 83.576 217.512 83.88C217.672 84.184 217.752 84.5547 217.752 84.992C217.752 85.4293 217.675 85.8 217.52 86.104C217.366 86.408 217.15 86.6427 216.872 86.808C216.595 86.968 216.27 87.048 215.896 87.048ZM216.008 86.424C216.27 86.424 216.502 86.368 216.704 86.256C216.912 86.1387 217.075 85.9733 217.192 85.76C217.315 85.5413 217.376 85.2853 217.376 84.992C217.376 84.6933 217.315 84.4373 217.192 84.224C217.075 84.0107 216.912 83.848 216.704 83.736C216.502 83.624 216.27 83.568 216.008 83.568C215.742 83.568 215.504 83.6267 215.296 83.744C215.094 83.856 214.934 84.0187 214.816 84.232C214.704 84.4453 214.648 84.6987 214.648 84.992C214.648 85.28 214.704 85.5307 214.816 85.744C214.934 85.9573 215.094 86.1253 215.296 86.248C215.504 86.3653 215.742 86.424 216.008 86.424ZM222.29 87.048C221.938 87.048 221.602 87 221.282 86.904C220.967 86.808 220.719 86.6907 220.538 86.552L220.858 85.944C221.039 86.0667 221.263 86.1707 221.53 86.256C221.797 86.3413 222.069 86.384 222.346 86.384C222.703 86.384 222.959 86.3333 223.114 86.232C223.274 86.1307 223.354 85.9893 223.354 85.808C223.354 85.6747 223.306 85.5707 223.21 85.496C223.114 85.4213 222.986 85.3653 222.826 85.328C222.671 85.2907 222.498 85.2587 222.306 85.232C222.114 85.2 221.922 85.1627 221.73 85.12C221.538 85.072 221.362 85.008 221.202 84.928C221.042 84.8427 220.914 84.728 220.818 84.584C220.722 84.4347 220.674 84.2373 220.674 83.992C220.674 83.736 220.746 83.512 220.89 83.32C221.034 83.128 221.237 82.9813 221.498 82.88C221.765 82.7733 222.079 82.72 222.442 82.72C222.719 82.72 222.999 82.7547 223.282 82.824C223.57 82.888 223.805 82.9813 223.986 83.104L223.658 83.712C223.466 83.584 223.266 83.496 223.058 83.448C222.85 83.4 222.642 83.376 222.434 83.376C222.098 83.376 221.847 83.432 221.682 83.544C221.517 83.6507 221.434 83.7893 221.434 83.96C221.434 84.104 221.482 84.216 221.578 84.296C221.679 84.3707 221.807 84.4293 221.962 84.472C222.122 84.5147 222.298 84.552 222.49 84.584C222.682 84.6107 222.874 84.648 223.066 84.696C223.258 84.7387 223.431 84.8 223.586 84.88C223.746 84.96 223.874 85.072 223.97 85.216C224.071 85.36 224.122 85.552 224.122 85.792C224.122 86.048 224.047 86.2693 223.898 86.456C223.749 86.6427 223.538 86.7893 223.266 86.896C222.994 86.9973 222.669 87.048 222.29 87.048ZM227.874 87V86.104L227.834 85.936V84.408C227.834 84.0827 227.738 83.832 227.546 83.656C227.359 83.4747 227.076 83.384 226.698 83.384C226.447 83.384 226.202 83.4267 225.962 83.512C225.722 83.592 225.519 83.7013 225.354 83.84L225.034 83.264C225.252 83.088 225.514 82.9547 225.818 82.864C226.127 82.768 226.45 82.72 226.786 82.72C227.367 82.72 227.815 82.8613 228.13 83.144C228.444 83.4267 228.602 83.8587 228.602 84.44V87H227.874ZM226.482 87.048C226.167 87.048 225.89 86.9947 225.65 86.888C225.415 86.7813 225.234 86.6347 225.106 86.448C224.978 86.256 224.914 86.04 224.914 85.8C224.914 85.5707 224.967 85.3627 225.074 85.176C225.186 84.9893 225.364 84.84 225.61 84.728C225.86 84.616 226.196 84.56 226.618 84.56H227.962V85.112H226.65C226.266 85.112 226.007 85.176 225.874 85.304C225.74 85.432 225.674 85.5867 225.674 85.768C225.674 85.976 225.756 86.144 225.922 86.272C226.087 86.3947 226.316 86.456 226.61 86.456C226.898 86.456 227.148 86.392 227.362 86.264C227.58 86.136 227.738 85.9493 227.834 85.704L227.986 86.232C227.884 86.4827 227.706 86.6827 227.45 86.832C227.194 86.976 226.871 87.048 226.482 87.048ZM232.431 87.048C232.068 87.048 231.74 86.968 231.447 86.808C231.159 86.6427 230.93 86.4 230.759 86.08C230.594 85.76 230.511 85.36 230.511 84.88C230.511 84.4 230.596 84 230.767 83.68C230.943 83.36 231.175 83.12 231.463 82.96C231.756 82.8 232.079 82.72 232.431 82.72C232.847 82.72 233.215 82.8107 233.535 82.992C233.855 83.1733 234.108 83.4267 234.295 83.752C234.482 84.072 234.575 84.448 234.575 84.88C234.575 85.312 234.482 85.6907 234.295 86.016C234.108 86.3413 233.855 86.5947 233.535 86.776C233.215 86.9573 232.847 87.048 232.431 87.048ZM230.183 87V81.064H230.951V83.888L230.871 84.872L230.919 85.856V87H230.183ZM232.367 86.376C232.639 86.376 232.882 86.3147 233.095 86.192C233.314 86.0693 233.484 85.896 233.607 85.672C233.735 85.4427 233.799 85.1787 233.799 84.88C233.799 84.576 233.735 84.3147 233.607 84.096C233.484 83.872 233.314 83.6987 233.095 83.576C232.882 83.4533 232.639 83.392 232.367 83.392C232.1 83.392 231.858 83.4533 231.639 83.576C231.426 83.6987 231.255 83.872 231.127 84.096C231.004 84.3147 230.943 84.576 230.943 84.88C230.943 85.1787 231.004 85.4427 231.127 85.672C231.255 85.896 231.426 86.0693 231.639 86.192C231.858 86.3147 232.1 86.376 232.367 86.376ZM235.863 88.6C235.66 88.6 235.463 88.5653 235.271 88.496C235.079 88.432 234.914 88.336 234.775 88.208L235.103 87.632C235.21 87.7333 235.327 87.8107 235.455 87.864C235.583 87.9173 235.719 87.944 235.863 87.944C236.05 87.944 236.204 87.896 236.327 87.8C236.45 87.704 236.564 87.5333 236.671 87.288L236.935 86.704L237.015 86.608L238.679 82.76H239.431L237.375 87.424C237.252 87.7227 237.114 87.9573 236.959 88.128C236.81 88.2987 236.644 88.4187 236.463 88.488C236.282 88.5627 236.082 88.6 235.863 88.6ZM236.871 87.136L234.935 82.76H235.735L237.383 86.536L236.871 87.136ZM240.308 87V82.76H241.044V83.912L240.972 83.624C241.089 83.3307 241.286 83.1067 241.564 82.952C241.841 82.7973 242.182 82.72 242.588 82.72V83.464C242.556 83.4587 242.524 83.456 242.492 83.456C242.465 83.456 242.438 83.456 242.412 83.456C242.001 83.456 241.676 83.5787 241.436 83.824C241.196 84.0693 241.076 84.424 241.076 84.888V87H240.308ZM244.318 85.976L244.334 84.992L246.774 82.76H247.702L245.83 84.6L245.414 84.952L244.318 85.976ZM243.694 87V81.064H244.462V87H243.694ZM246.934 87L245.27 84.936L245.766 84.32L247.878 87H246.934ZM251.33 87V86.104L251.29 85.936V84.408C251.29 84.0827 251.194 83.832 251.002 83.656C250.815 83.4747 250.533 83.384 250.154 83.384C249.903 83.384 249.658 83.4267 249.418 83.512C249.178 83.592 248.975 83.7013 248.81 83.84L248.49 83.264C248.709 83.088 248.97 82.9547 249.274 82.864C249.583 82.768 249.906 82.72 250.242 82.72C250.823 82.72 251.271 82.8613 251.586 83.144C251.901 83.4267 252.058 83.8587 252.058 84.44V87H251.33ZM249.938 87.048C249.623 87.048 249.346 86.9947 249.106 86.888C248.871 86.7813 248.69 86.6347 248.562 86.448C248.434 86.256 248.37 86.04 248.37 85.8C248.37 85.5707 248.423 85.3627 248.53 85.176C248.642 84.9893 248.821 84.84 249.066 84.728C249.317 84.616 249.653 84.56 250.074 84.56H251.418V85.112H250.106C249.722 85.112 249.463 85.176 249.33 85.304C249.197 85.432 249.13 85.5867 249.13 85.768C249.13 85.976 249.213 86.144 249.378 86.272C249.543 86.3947 249.773 86.456 250.066 86.456C250.354 86.456 250.605 86.392 250.818 86.264C251.037 86.136 251.194 85.9493 251.29 85.704L251.442 86.232C251.341 86.4827 251.162 86.6827 250.906 86.832C250.65 86.976 250.327 87.048 249.938 87.048Z" fill="white" fill-opacity="0.7"/>
<rect x="12.5" y="105.5" width="395" height="63" rx="11.5" stroke="white" stroke-opacity="0.1"/>
<g clip-path="url(#clip1_2_1020)">
<path fill-rule="evenodd" clip-rule="evenodd" d="M199.112 143H220.888C222.605 143 224 141.605 224 139.888V118.112C224 116.395 222.605 115 220.888 115H199.112C197.395 115 196 116.395 196 118.112V139.888C196 141.605 197.395 143 199.112 143Z" fill="#007EBB"/>
<path fill-rule="evenodd" clip-rule="evenodd" d="M220.112 139.112H215.955V132.035C215.955 130.094 215.217 129.011 213.68 129.011C212.013 129.011 211.138 130.138 211.138 132.035V139.112H207.134V125.631H211.138V127.447C211.138 127.447 212.341 125.221 215.201 125.221C218.061 125.221 220.106 126.966 220.106 130.58V139.112H220.112ZM202.36 123.865C200.998 123.865 199.888 122.749 199.888 121.377C199.888 120.004 200.993 118.888 202.36 118.888C203.727 118.888 204.827 120.004 204.827 121.377C204.827 122.749 203.722 123.865 202.36 123.865ZM200.293 139.112H204.471V125.631H200.293V139.112Z" fill="white"/>
</g>
<path d="M149.664 157V151.4H150.96V155.944H153.768V157H149.664ZM154.564 157V152.696H155.812V157H154.564ZM155.188 152.096C154.959 152.096 154.772 152.029 154.628 151.896C154.484 151.763 154.412 151.597 154.412 151.4C154.412 151.203 154.484 151.037 154.628 150.904C154.772 150.771 154.959 150.704 155.188 150.704C155.417 150.704 155.604 150.768 155.748 150.896C155.892 151.019 155.964 151.179 155.964 151.376C155.964 151.584 155.892 151.757 155.748 151.896C155.609 152.029 155.423 152.096 155.188 152.096ZM157.13 157V152.696H158.322V153.888L158.098 153.528C158.253 153.24 158.474 153.019 158.762 152.864C159.05 152.709 159.378 152.632 159.746 152.632C160.088 152.632 160.392 152.701 160.658 152.84C160.93 152.973 161.144 153.181 161.298 153.464C161.453 153.741 161.53 154.099 161.53 154.536V157H160.282V154.728C160.282 154.381 160.205 154.125 160.05 153.96C159.901 153.795 159.688 153.712 159.41 153.712C159.213 153.712 159.034 153.755 158.874 153.84C158.72 153.92 158.597 154.045 158.506 154.216C158.421 154.387 158.378 154.605 158.378 154.872V157H157.13ZM163.854 156.12L163.886 154.6L165.894 152.696H167.382L165.454 154.656L164.806 155.184L163.854 156.12ZM162.822 157V151.064H164.07V157H162.822ZM166.03 157L164.574 155.192L165.358 154.224L167.542 157H166.03ZM170.18 157.064C169.689 157.064 169.257 156.968 168.884 156.776C168.516 156.584 168.231 156.323 168.028 155.992C167.825 155.656 167.724 155.275 167.724 154.848C167.724 154.416 167.823 154.035 168.02 153.704C168.223 153.368 168.497 153.107 168.844 152.92C169.191 152.728 169.583 152.632 170.02 152.632C170.441 152.632 170.82 152.723 171.156 152.904C171.497 153.08 171.767 153.336 171.964 153.672C172.161 154.003 172.26 154.4 172.26 154.864C172.26 154.912 172.257 154.968 172.252 155.032C172.247 155.091 172.241 155.147 172.236 155.2H168.74V154.472H171.58L171.1 154.688C171.1 154.464 171.055 154.269 170.964 154.104C170.873 153.939 170.748 153.811 170.588 153.72C170.428 153.624 170.241 153.576 170.028 153.576C169.815 153.576 169.625 153.624 169.46 153.72C169.3 153.811 169.175 153.941 169.084 154.112C168.993 154.277 168.948 154.475 168.948 154.704V154.896C168.948 155.131 168.999 155.339 169.1 155.52C169.207 155.696 169.353 155.832 169.54 155.928C169.732 156.019 169.956 156.064 170.212 156.064C170.441 156.064 170.641 156.029 170.812 155.96C170.988 155.891 171.148 155.787 171.292 155.648L171.956 156.368C171.759 156.592 171.511 156.765 171.212 156.888C170.913 157.005 170.569 157.064 170.18 157.064ZM175.099 157.064C174.694 157.064 174.328 156.973 174.003 156.792C173.678 156.605 173.419 156.347 173.227 156.016C173.04 155.685 172.947 155.296 172.947 154.848C172.947 154.395 173.04 154.003 173.227 153.672C173.419 153.341 173.678 153.085 174.003 152.904C174.328 152.723 174.694 152.632 175.099 152.632C175.462 152.632 175.779 152.712 176.051 152.872C176.323 153.032 176.534 153.275 176.683 153.6C176.832 153.925 176.907 154.341 176.907 154.848C176.907 155.349 176.835 155.765 176.691 156.096C176.547 156.421 176.339 156.664 176.067 156.824C175.8 156.984 175.478 157.064 175.099 157.064ZM175.315 156.04C175.518 156.04 175.702 155.992 175.867 155.896C176.032 155.8 176.163 155.664 176.259 155.488C176.36 155.307 176.411 155.093 176.411 154.848C176.411 154.597 176.36 154.384 176.259 154.208C176.163 154.032 176.032 153.896 175.867 153.8C175.702 153.704 175.518 153.656 175.315 153.656C175.107 153.656 174.92 153.704 174.755 153.8C174.59 153.896 174.456 154.032 174.355 154.208C174.259 154.384 174.211 154.597 174.211 154.848C174.211 155.093 174.259 155.307 174.355 155.488C174.456 155.664 174.59 155.8 174.755 155.896C174.92 155.992 175.107 156.04 175.315 156.04ZM176.443 157V156.12L176.467 154.84L176.387 153.568V151.064H177.635V157H176.443ZM179.038 157V151.4H180.334V157H179.038ZM181.735 157V152.696H182.927V153.888L182.703 153.528C182.858 153.24 183.079 153.019 183.367 152.864C183.655 152.709 183.983 152.632 184.351 152.632C184.692 152.632 184.996 152.701 185.263 152.84C185.535 152.973 185.748 153.181 185.903 153.464C186.058 153.741 186.135 154.099 186.135 154.536V157H184.887V154.728C184.887 154.381 184.81 154.125 184.655 153.96C184.506 153.795 184.292 153.712 184.015 153.712C183.818 153.712 183.639 153.755 183.479 153.84C183.324 153.92 183.202 154.045 183.111 154.216C183.026 154.387 182.983 154.605 182.983 154.872V157H181.735ZM187.898 154.192C187.685 154.192 187.501 154.12 187.346 153.976C187.197 153.827 187.122 153.637 187.122 153.408C187.122 153.179 187.197 152.995 187.346 152.856C187.501 152.712 187.685 152.64 187.898 152.64C188.117 152.64 188.301 152.712 188.45 152.856C188.6 152.995 188.674 153.179 188.674 153.408C188.674 153.637 188.6 153.827 188.45 153.976C188.301 154.12 188.117 154.192 187.898 154.192ZM187.898 157.064C187.685 157.064 187.501 156.992 187.346 156.848C187.197 156.699 187.122 156.509 187.122 156.28C187.122 156.051 187.197 155.867 187.346 155.728C187.501 155.584 187.685 155.512 187.898 155.512C188.117 155.512 188.301 155.584 188.45 155.728C188.6 155.867 188.674 156.051 188.674 156.28C188.674 156.509 188.6 156.699 188.45 156.848C188.301 156.992 188.117 157.064 187.898 157.064Z" fill="white"/>
<path d="M191.188 157.8L193.828 150.264H194.524L191.884 157.8H191.188ZM195.175 157V152.76H195.943V157H195.175ZM195.559 151.944C195.41 151.944 195.285 151.896 195.183 151.8C195.087 151.704 195.039 151.587 195.039 151.448C195.039 151.304 195.087 151.184 195.183 151.088C195.285 150.992 195.41 150.944 195.559 150.944C195.709 150.944 195.831 150.992 195.927 151.088C196.029 151.179 196.079 151.293 196.079 151.432C196.079 151.576 196.031 151.699 195.935 151.8C195.839 151.896 195.714 151.944 195.559 151.944ZM197.57 157V152.76H198.306V153.904L198.186 153.6C198.325 153.323 198.538 153.107 198.826 152.952C199.114 152.797 199.45 152.72 199.834 152.72C200.181 152.72 200.485 152.787 200.746 152.92C201.013 153.053 201.221 153.256 201.37 153.528C201.519 153.8 201.594 154.144 201.594 154.56V157H200.826V154.648C200.826 154.237 200.725 153.928 200.522 153.72C200.325 153.512 200.045 153.408 199.682 153.408C199.41 153.408 199.173 153.461 198.97 153.568C198.767 153.675 198.61 153.832 198.498 154.04C198.391 154.248 198.338 154.507 198.338 154.816V157H197.57ZM202.223 157.8L204.863 150.264H205.559L202.919 157.8H202.223ZM207.385 157.048C206.958 157.048 206.628 156.933 206.393 156.704C206.158 156.475 206.041 156.147 206.041 155.72V151.832H206.809V155.688C206.809 155.917 206.865 156.093 206.977 156.216C207.094 156.339 207.26 156.4 207.473 156.4C207.713 156.4 207.913 156.333 208.073 156.2L208.313 156.752C208.196 156.853 208.054 156.928 207.889 156.976C207.729 157.024 207.561 157.048 207.385 157.048ZM205.321 153.392V152.76H208.025V153.392H205.321ZM209.401 157V151.064H210.169V153.904L210.017 153.6C210.156 153.323 210.369 153.107 210.657 152.952C210.945 152.797 211.281 152.72 211.665 152.72C212.012 152.72 212.316 152.787 212.577 152.92C212.844 153.053 213.052 153.256 213.201 153.528C213.351 153.8 213.425 154.144 213.425 154.56V157H212.657V154.648C212.657 154.237 212.556 153.928 212.353 153.72C212.156 153.512 211.876 153.408 211.513 153.408C211.241 153.408 211.004 153.461 210.801 153.568C210.599 153.675 210.441 153.832 210.329 154.04C210.223 154.248 210.169 154.507 210.169 154.816V157H209.401ZM217.639 157V156.104L217.599 155.936V154.408C217.599 154.083 217.503 153.832 217.311 153.656C217.124 153.475 216.841 153.384 216.463 153.384C216.212 153.384 215.967 153.427 215.727 153.512C215.487 153.592 215.284 153.701 215.119 153.84L214.799 153.264C215.017 153.088 215.279 152.955 215.583 152.864C215.892 152.768 216.215 152.72 216.551 152.72C217.132 152.72 217.58 152.861 217.895 153.144C218.209 153.427 218.367 153.859 218.367 154.44V157H217.639ZM216.247 157.048C215.932 157.048 215.655 156.995 215.415 156.888C215.18 156.781 214.999 156.635 214.871 156.448C214.743 156.256 214.679 156.04 214.679 155.8C214.679 155.571 214.732 155.363 214.839 155.176C214.951 154.989 215.129 154.84 215.375 154.728C215.625 154.616 215.961 154.56 216.383 154.56H217.727V155.112H216.415C216.031 155.112 215.772 155.176 215.639 155.304C215.505 155.432 215.439 155.587 215.439 155.768C215.439 155.976 215.521 156.144 215.687 156.272C215.852 156.395 216.081 156.456 216.375 156.456C216.663 156.456 216.913 156.392 217.127 156.264C217.345 156.136 217.503 155.949 217.599 155.704L217.751 156.232C217.649 156.483 217.471 156.683 217.215 156.832C216.959 156.976 216.636 157.048 216.247 157.048ZM221.404 157.048C220.977 157.048 220.647 156.933 220.412 156.704C220.177 156.475 220.06 156.147 220.06 155.72V151.832H220.828V155.688C220.828 155.917 220.884 156.093 220.996 156.216C221.113 156.339 221.279 156.4 221.492 156.4C221.732 156.4 221.932 156.333 222.092 156.2L222.332 156.752C222.215 156.853 222.073 156.928 221.908 156.976C221.748 157.024 221.58 157.048 221.404 157.048ZM219.34 153.392V152.76H222.044V153.392H219.34ZM225.096 157.048C224.669 157.048 224.291 156.955 223.96 156.768C223.629 156.581 223.368 156.325 223.176 156C222.984 155.669 222.888 155.296 222.888 154.88C222.888 154.459 222.984 154.085 223.176 153.76C223.368 153.435 223.629 153.181 223.96 153C224.291 152.813 224.669 152.72 225.096 152.72C225.517 152.72 225.893 152.813 226.224 153C226.56 153.181 226.821 153.435 227.008 153.76C227.2 154.08 227.296 154.453 227.296 154.88C227.296 155.301 227.2 155.675 227.008 156C226.821 156.325 226.56 156.581 226.224 156.768C225.893 156.955 225.517 157.048 225.096 157.048ZM225.096 156.376C225.368 156.376 225.611 156.315 225.824 156.192C226.043 156.069 226.213 155.896 226.336 155.672C226.459 155.443 226.52 155.179 226.52 154.88C226.52 154.576 226.459 154.315 226.336 154.096C226.213 153.872 226.043 153.699 225.824 153.576C225.611 153.453 225.368 153.392 225.096 153.392C224.824 153.392 224.581 153.453 224.368 153.576C224.155 153.699 223.984 153.872 223.856 154.096C223.728 154.315 223.664 154.576 223.664 154.88C223.664 155.179 223.728 155.443 223.856 155.672C223.984 155.896 224.155 156.069 224.368 156.192C224.581 156.315 224.824 156.376 225.096 156.376ZM228.518 157V152.76H229.254V153.904L229.134 153.6C229.273 153.323 229.486 153.107 229.774 152.952C230.062 152.797 230.398 152.72 230.782 152.72C231.129 152.72 231.433 152.787 231.694 152.92C231.961 153.053 232.169 153.256 232.318 153.528C232.467 153.8 232.542 154.144 232.542 154.56V157H231.774V154.648C231.774 154.237 231.673 153.928 231.47 153.72C231.273 153.512 230.993 153.408 230.63 153.408C230.358 153.408 230.121 153.461 229.918 153.568C229.715 153.675 229.558 153.832 229.446 154.04C229.339 154.248 229.286 154.507 229.286 154.816V157H228.518ZM236.011 157.048C235.558 157.048 235.158 156.955 234.811 156.768C234.47 156.581 234.203 156.325 234.011 156C233.825 155.675 233.731 155.301 233.731 154.88C233.731 154.459 233.822 154.085 234.003 153.76C234.19 153.435 234.443 153.181 234.763 153C235.089 152.813 235.454 152.72 235.859 152.72C236.27 152.72 236.633 152.811 236.947 152.992C237.262 153.173 237.507 153.429 237.683 153.76C237.865 154.085 237.955 154.467 237.955 154.904C237.955 154.936 237.953 154.973 237.947 155.016C237.947 155.059 237.945 155.099 237.939 155.136H234.331V154.584H237.539L237.227 154.776C237.233 154.504 237.177 154.261 237.059 154.048C236.942 153.835 236.779 153.669 236.571 153.552C236.369 153.429 236.131 153.368 235.859 153.368C235.593 153.368 235.355 153.429 235.147 153.552C234.939 153.669 234.777 153.837 234.659 154.056C234.542 154.269 234.483 154.515 234.483 154.792V154.92C234.483 155.203 234.547 155.456 234.675 155.68C234.809 155.899 234.993 156.069 235.227 156.192C235.462 156.315 235.731 156.376 236.035 156.376C236.286 156.376 236.513 156.333 236.715 156.248C236.923 156.163 237.105 156.035 237.259 155.864L237.683 156.36C237.491 156.584 237.251 156.755 236.963 156.872C236.681 156.989 236.363 157.048 236.011 157.048ZM240.398 157.048C240.046 157.048 239.71 157 239.39 156.904C239.075 156.808 238.827 156.691 238.646 156.552L238.966 155.944C239.147 156.067 239.371 156.171 239.638 156.256C239.904 156.341 240.176 156.384 240.454 156.384C240.811 156.384 241.067 156.333 241.222 156.232C241.382 156.131 241.462 155.989 241.462 155.808C241.462 155.675 241.414 155.571 241.318 155.496C241.222 155.421 241.094 155.365 240.934 155.328C240.779 155.291 240.606 155.259 240.414 155.232C240.222 155.2 240.03 155.163 239.838 155.12C239.646 155.072 239.47 155.008 239.31 154.928C239.15 154.843 239.022 154.728 238.926 154.584C238.83 154.435 238.782 154.237 238.782 153.992C238.782 153.736 238.854 153.512 238.998 153.32C239.142 153.128 239.344 152.981 239.606 152.88C239.872 152.773 240.187 152.72 240.55 152.72C240.827 152.72 241.107 152.755 241.39 152.824C241.678 152.888 241.912 152.981 242.094 153.104L241.766 153.712C241.574 153.584 241.374 153.496 241.166 153.448C240.958 153.4 240.75 153.376 240.542 153.376C240.206 153.376 239.955 153.432 239.79 153.544C239.624 153.651 239.542 153.789 239.542 153.96C239.542 154.104 239.59 154.216 239.686 154.296C239.787 154.371 239.915 154.429 240.07 154.472C240.23 154.515 240.406 154.552 240.598 154.584C240.79 154.611 240.982 154.648 241.174 154.696C241.366 154.739 241.539 154.8 241.694 154.88C241.854 154.96 241.982 155.072 242.078 155.216C242.179 155.36 242.23 155.552 242.23 155.792C242.23 156.048 242.155 156.269 242.006 156.456C241.856 156.643 241.646 156.789 241.374 156.896C241.102 156.997 240.776 157.048 240.398 157.048ZM245.982 157V156.104L245.942 155.936V154.408C245.942 154.083 245.846 153.832 245.654 153.656C245.467 153.475 245.184 153.384 244.806 153.384C244.555 153.384 244.31 153.427 244.07 153.512C243.83 153.592 243.627 153.701 243.462 153.84L243.142 153.264C243.36 153.088 243.622 152.955 243.926 152.864C244.235 152.768 244.558 152.72 244.894 152.72C245.475 152.72 245.923 152.861 246.238 153.144C246.552 153.427 246.71 153.859 246.71 154.44V157H245.982ZM244.59 157.048C244.275 157.048 243.998 156.995 243.758 156.888C243.523 156.781 243.342 156.635 243.214 156.448C243.086 156.256 243.022 156.04 243.022 155.8C243.022 155.571 243.075 155.363 243.182 155.176C243.294 154.989 243.472 154.84 243.718 154.728C243.968 154.616 244.304 154.56 244.726 154.56H246.07V155.112H244.758C244.374 155.112 244.115 155.176 243.982 155.304C243.848 155.432 243.782 155.587 243.782 155.768C243.782 155.976 243.864 156.144 244.03 156.272C244.195 156.395 244.424 156.456 244.718 156.456C245.006 156.456 245.256 156.392 245.47 156.264C245.688 156.136 245.846 155.949 245.942 155.704L246.094 156.232C245.992 156.483 245.814 156.683 245.558 156.832C245.302 156.976 244.979 157.048 244.59 157.048ZM250.539 157.048C250.176 157.048 249.848 156.968 249.555 156.808C249.267 156.643 249.037 156.4 248.867 156.08C248.701 155.76 248.619 155.36 248.619 154.88C248.619 154.4 248.704 154 248.875 153.68C249.051 153.36 249.283 153.12 249.571 152.96C249.864 152.8 250.187 152.72 250.539 152.72C250.955 152.72 251.323 152.811 251.643 152.992C251.963 153.173 252.216 153.427 252.403 153.752C252.589 154.072 252.683 154.448 252.683 154.88C252.683 155.312 252.589 155.691 252.403 156.016C252.216 156.341 251.963 156.595 251.643 156.776C251.323 156.957 250.955 157.048 250.539 157.048ZM248.291 157V151.064H249.059V153.888L248.979 154.872L249.027 155.856V157H248.291ZM250.475 156.376C250.747 156.376 250.989 156.315 251.203 156.192C251.421 156.069 251.592 155.896 251.715 155.672C251.843 155.443 251.907 155.179 251.907 154.88C251.907 154.576 251.843 154.315 251.715 154.096C251.592 153.872 251.421 153.699 251.203 153.576C250.989 153.453 250.747 153.392 250.475 153.392C250.208 153.392 249.965 153.453 249.747 153.576C249.533 153.699 249.363 153.872 249.235 154.096C249.112 154.315 249.051 154.576 249.051 154.88C249.051 155.179 249.112 155.443 249.235 155.672C249.363 155.896 249.533 156.069 249.747 156.192C249.965 156.315 250.208 156.376 250.475 156.376ZM253.971 158.6C253.768 158.6 253.571 158.565 253.379 158.496C253.187 158.432 253.021 158.336 252.883 158.208L253.211 157.632C253.317 157.733 253.435 157.811 253.563 157.864C253.691 157.917 253.827 157.944 253.971 157.944C254.157 157.944 254.312 157.896 254.435 157.8C254.557 157.704 254.672 157.533 254.779 157.288L255.043 156.704L255.123 156.608L256.787 152.76H257.539L255.483 157.424C255.36 157.723 255.221 157.957 255.067 158.128C254.917 158.299 254.752 158.419 254.571 158.488C254.389 158.563 254.189 158.6 253.971 158.6ZM254.979 157.136L253.043 152.76H253.843L255.491 156.536L254.979 157.136ZM258.416 157V152.76H259.152V153.912L259.08 153.624C259.197 153.331 259.394 153.107 259.672 152.952C259.949 152.797 260.29 152.72 260.696 152.72V153.464C260.664 153.459 260.632 153.456 260.6 153.456C260.573 153.456 260.546 153.456 260.52 153.456C260.109 153.456 259.784 153.579 259.544 153.824C259.304 154.069 259.184 154.424 259.184 154.888V157H258.416ZM262.426 155.976L262.442 154.992L264.882 152.76H265.81L263.938 154.6L263.522 154.952L262.426 155.976ZM261.802 157V151.064H262.57V157H261.802ZM265.042 157L263.378 154.936L263.874 154.32L265.986 157H265.042ZM269.438 157V156.104L269.398 155.936V154.408C269.398 154.083 269.302 153.832 269.11 153.656C268.923 153.475 268.64 153.384 268.262 153.384C268.011 153.384 267.766 153.427 267.526 153.512C267.286 153.592 267.083 153.701 266.918 153.84L266.598 153.264C266.816 153.088 267.078 152.955 267.382 152.864C267.691 152.768 268.014 152.72 268.35 152.72C268.931 152.72 269.379 152.861 269.694 153.144C270.008 153.427 270.166 153.859 270.166 154.44V157H269.438ZM268.046 157.048C267.731 157.048 267.454 156.995 267.214 156.888C266.979 156.781 266.798 156.635 266.67 156.448C266.542 156.256 266.478 156.04 266.478 155.8C266.478 155.571 266.531 155.363 266.638 155.176C266.75 154.989 266.928 154.84 267.174 154.728C267.424 154.616 267.76 154.56 268.182 154.56H269.526V155.112H268.214C267.83 155.112 267.571 155.176 267.438 155.304C267.304 155.432 267.238 155.587 267.238 155.768C267.238 155.976 267.32 156.144 267.486 156.272C267.651 156.395 267.88 156.456 268.174 156.456C268.462 156.456 268.712 156.392 268.926 156.264C269.144 156.136 269.302 155.949 269.398 155.704L269.55 156.232C269.448 156.483 269.27 156.683 269.014 156.832C268.758 156.976 268.435 157.048 268.046 157.048Z" fill="white" fill-opacity="0.7"/>
<rect x="12.5" y="175.5" width="194" height="63" rx="11.5" stroke="white" stroke-opacity="0.1"/>
<g clip-path="url(#clip2_2_1020)">
<path d="M97.4086 209.5H101.866V198.683L95.5 193.914V207.597C95.5 208.652 96.3586 209.5 97.4086 209.5Z" fill="#4285F4"/>
<path d="M117.134 209.5H121.591C122.647 209.5 123.5 208.641 123.5 207.591V193.914L117.134 198.688" fill="#34A853"/>
<path d="M117.134 190.414V198.688L123.5 193.914V191.371C123.5 189.009 120.804 187.663 118.917 189.08" fill="#FBBC04"/>
<path d="M101.866 198.683V190.414L109.5 196.14L117.134 190.414V198.688L109.5 204.414" fill="#EA4335"/>
<path d="M95.5 191.366V193.914L101.866 198.688V190.414L100.083 189.074C98.1906 187.658 95.5 189.003 95.5 191.366Z" fill="#C5221F"/>
</g>
<path d="M38.368 227.096C37.9253 227.096 37.5173 227.027 37.144 226.888C36.776 226.744 36.4533 226.541 36.176 226.28C35.904 226.019 35.6907 225.712 35.536 225.36C35.3867 225.008 35.312 224.621 35.312 224.2C35.312 223.779 35.3867 223.392 35.536 223.04C35.6907 222.688 35.9067 222.381 36.184 222.12C36.4613 221.859 36.7867 221.659 37.16 221.52C37.5333 221.376 37.944 221.304 38.392 221.304C38.888 221.304 39.3333 221.387 39.728 221.552C40.128 221.717 40.464 221.957 40.736 222.272L39.904 223.04C39.7013 222.827 39.48 222.669 39.24 222.568C39 222.461 38.7387 222.408 38.456 222.408C38.184 222.408 37.936 222.451 37.712 222.536C37.488 222.621 37.2933 222.744 37.128 222.904C36.968 223.064 36.8427 223.253 36.752 223.472C36.6667 223.691 36.624 223.933 36.624 224.2C36.624 224.461 36.6667 224.701 36.752 224.92C36.8427 225.139 36.968 225.331 37.128 225.496C37.2933 225.656 37.4853 225.779 37.704 225.864C37.928 225.949 38.1733 225.992 38.44 225.992C38.696 225.992 38.944 225.952 39.184 225.872C39.4293 225.787 39.6667 225.645 39.896 225.448L40.632 226.384C40.328 226.613 39.9733 226.789 39.568 226.912C39.168 227.035 38.768 227.096 38.368 227.096ZM40.632 226.384L39.448 226.216V224.112H40.632V226.384ZM41.9079 227V222.696H43.0999V223.872L42.8759 223.528C43.0252 223.235 43.2359 223.013 43.5079 222.864C43.7852 222.709 44.0999 222.632 44.4519 222.632C44.8465 222.632 45.1905 222.733 45.4839 222.936C45.7825 223.133 45.9799 223.437 46.0759 223.848L45.6359 223.728C45.7799 223.392 46.0092 223.125 46.3239 222.928C46.6439 222.731 47.0092 222.632 47.4199 222.632C47.7612 222.632 48.0625 222.701 48.3239 222.84C48.5905 222.973 48.7985 223.181 48.9479 223.464C49.1025 223.741 49.1799 224.099 49.1799 224.536V227H47.9319V224.728C47.9319 224.381 47.8599 224.125 47.7159 223.96C47.5719 223.795 47.3692 223.712 47.1079 223.712C46.9265 223.712 46.7639 223.755 46.6199 223.84C46.4759 223.92 46.3639 224.043 46.2839 224.208C46.2039 224.373 46.1639 224.584 46.1639 224.84V227H44.9159V224.728C44.9159 224.381 44.8439 224.125 44.6999 223.96C44.5612 223.795 44.3612 223.712 44.0999 223.712C43.9185 223.712 43.7559 223.755 43.6119 223.84C43.4679 223.92 43.3559 224.043 43.2759 224.208C43.1959 224.373 43.1559 224.584 43.1559 224.84V227H41.9079ZM53.0985 227V226.16L53.0185 225.976V224.472C53.0185 224.205 52.9358 223.997 52.7705 223.848C52.6105 223.699 52.3625 223.624 52.0265 223.624C51.7972 223.624 51.5705 223.661 51.3465 223.736C51.1278 223.805 50.9412 223.901 50.7865 224.024L50.3385 223.152C50.5732 222.987 50.8558 222.859 51.1865 222.768C51.5172 222.677 51.8532 222.632 52.1945 222.632C52.8505 222.632 53.3598 222.787 53.7225 223.096C54.0852 223.405 54.2665 223.888 54.2665 224.544V227H53.0985ZM51.7865 227.064C51.4505 227.064 51.1625 227.008 50.9225 226.896C50.6825 226.779 50.4985 226.621 50.3705 226.424C50.2425 226.227 50.1785 226.005 50.1785 225.76C50.1785 225.504 50.2398 225.28 50.3625 225.088C50.4905 224.896 50.6905 224.747 50.9625 224.64C51.2345 224.528 51.5892 224.472 52.0265 224.472H53.1705V225.2H52.1625C51.8692 225.2 51.6665 225.248 51.5545 225.344C51.4478 225.44 51.3945 225.56 51.3945 225.704C51.3945 225.864 51.4558 225.992 51.5785 226.088C51.7065 226.179 51.8798 226.224 52.0985 226.224C52.3065 226.224 52.4932 226.176 52.6585 226.08C52.8238 225.979 52.9438 225.832 53.0185 225.64L53.2105 226.216C53.1198 226.493 52.9545 226.704 52.7145 226.848C52.4745 226.992 52.1652 227.064 51.7865 227.064ZM55.556 227V222.696H56.804V227H55.556ZM56.18 222.096C55.9507 222.096 55.764 222.029 55.62 221.896C55.476 221.763 55.404 221.597 55.404 221.4C55.404 221.203 55.476 221.037 55.62 220.904C55.764 220.771 55.9507 220.704 56.18 220.704C56.4093 220.704 56.596 220.768 56.74 220.896C56.884 221.019 56.956 221.179 56.956 221.376C56.956 221.584 56.884 221.757 56.74 221.896C56.6013 222.029 56.4147 222.096 56.18 222.096ZM58.1222 227V221.064H59.3702V227H58.1222ZM61.1605 224.192C60.9472 224.192 60.7632 224.12 60.6085 223.976C60.4592 223.827 60.3845 223.637 60.3845 223.408C60.3845 223.179 60.4592 222.995 60.6085 222.856C60.7632 222.712 60.9472 222.64 61.1605 222.64C61.3792 222.64 61.5632 222.712 61.7125 222.856C61.8618 222.995 61.9365 223.179 61.9365 223.408C61.9365 223.637 61.8618 223.827 61.7125 223.976C61.5632 224.12 61.3792 224.192 61.1605 224.192ZM61.1605 227.064C60.9472 227.064 60.7632 226.992 60.6085 226.848C60.4592 226.699 60.3845 226.509 60.3845 226.28C60.3845 226.051 60.4592 225.867 60.6085 225.728C60.7632 225.584 60.9472 225.512 61.1605 225.512C61.3792 225.512 61.5632 225.584 61.7125 225.728C61.8618 225.867 61.9365 226.051 61.9365 226.28C61.9365 226.509 61.8618 226.699 61.7125 226.848C61.5632 226.992 61.3792 227.064 61.1605 227.064Z" fill="white"/>
<path d="M66.8587 227.048C66.432 227.048 66.1014 226.933 65.8667 226.704C65.632 226.475 65.5147 226.147 65.5147 225.72V221.832H66.2827V225.688C66.2827 225.917 66.3387 226.093 66.4507 226.216C66.568 226.339 66.7334 226.4 66.9467 226.4C67.1867 226.4 67.3867 226.333 67.5467 226.2L67.7867 226.752C67.6694 226.853 67.528 226.928 67.3627 226.976C67.2027 227.024 67.0347 227.048 66.8587 227.048ZM64.7947 223.392V222.76H67.4987V223.392H64.7947ZM68.8752 227V221.064H69.6432V223.904L69.4912 223.6C69.6299 223.323 69.8432 223.107 70.1312 222.952C70.4192 222.797 70.7552 222.72 71.1392 222.72C71.4859 222.72 71.7899 222.787 72.0512 222.92C72.3179 223.053 72.5259 223.256 72.6752 223.528C72.8245 223.8 72.8992 224.144 72.8992 224.56V227H72.1312V224.648C72.1312 224.237 72.0299 223.928 71.8272 223.72C71.6299 223.512 71.3499 223.408 70.9872 223.408C70.7152 223.408 70.4779 223.461 70.2752 223.568C70.0725 223.675 69.9152 223.832 69.8032 224.04C69.6965 224.248 69.6432 224.507 69.6432 224.816V227H68.8752ZM77.1125 227V226.104L77.0725 225.936V224.408C77.0725 224.083 76.9765 223.832 76.7845 223.656C76.5978 223.475 76.3152 223.384 75.9365 223.384C75.6858 223.384 75.4405 223.427 75.2005 223.512C74.9605 223.592 74.7578 223.701 74.5925 223.84L74.2725 223.264C74.4912 223.088 74.7525 222.955 75.0565 222.864C75.3658 222.768 75.6885 222.72 76.0245 222.72C76.6058 222.72 77.0538 222.861 77.3685 223.144C77.6832 223.427 77.8405 223.859 77.8405 224.44V227H77.1125ZM75.7205 227.048C75.4058 227.048 75.1285 226.995 74.8885 226.888C74.6538 226.781 74.4725 226.635 74.3445 226.448C74.2165 226.256 74.1525 226.04 74.1525 225.8C74.1525 225.571 74.2058 225.363 74.3125 225.176C74.4245 224.989 74.6032 224.84 74.8485 224.728C75.0992 224.616 75.4352 224.56 75.8565 224.56H77.2005V225.112H75.8885C75.5045 225.112 75.2458 225.176 75.1125 225.304C74.9792 225.432 74.9125 225.587 74.9125 225.768C74.9125 225.976 74.9952 226.144 75.1605 226.272C75.3258 226.395 75.5552 226.456 75.8485 226.456C76.1365 226.456 76.3872 226.392 76.6005 226.264C76.8192 226.136 76.9765 225.949 77.0725 225.704L77.2245 226.232C77.1232 226.483 76.9445 226.683 76.6885 226.832C76.4325 226.976 76.1098 227.048 75.7205 227.048ZM80.8777 227.048C80.4511 227.048 80.1204 226.933 79.8857 226.704C79.6511 226.475 79.5337 226.147 79.5337 225.72V221.832H80.3017V225.688C80.3017 225.917 80.3577 226.093 80.4697 226.216C80.5871 226.339 80.7524 226.4 80.9657 226.4C81.2057 226.4 81.4057 226.333 81.5657 226.2L81.8057 226.752C81.6884 226.853 81.5471 226.928 81.3817 226.976C81.2217 227.024 81.0537 227.048 80.8777 227.048ZM78.8137 223.392V222.76H81.5177V223.392H78.8137ZM84.5696 227.048C84.143 227.048 83.7643 226.955 83.4336 226.768C83.103 226.581 82.8416 226.325 82.6496 226C82.4576 225.669 82.3616 225.296 82.3616 224.88C82.3616 224.459 82.4576 224.085 82.6496 223.76C82.8416 223.435 83.103 223.181 83.4336 223C83.7643 222.813 84.143 222.72 84.5696 222.72C84.991 222.72 85.367 222.813 85.6976 223C86.0336 223.181 86.295 223.435 86.4816 223.76C86.6736 224.08 86.7696 224.453 86.7696 224.88C86.7696 225.301 86.6736 225.675 86.4816 226C86.295 226.325 86.0336 226.581 85.6976 226.768C85.367 226.955 84.991 227.048 84.5696 227.048ZM84.5696 226.376C84.8416 226.376 85.0843 226.315 85.2976 226.192C85.5163 226.069 85.687 225.896 85.8096 225.672C85.9323 225.443 85.9936 225.179 85.9936 224.88C85.9936 224.576 85.9323 224.315 85.8096 224.096C85.687 223.872 85.5163 223.699 85.2976 223.576C85.0843 223.453 84.8416 223.392 84.5696 223.392C84.2976 223.392 84.055 223.453 83.8416 223.576C83.6283 223.699 83.4576 223.872 83.3296 224.096C83.2016 224.315 83.1376 224.576 83.1376 224.88C83.1376 225.179 83.2016 225.443 83.3296 225.672C83.4576 225.896 83.6283 226.069 83.8416 226.192C84.055 226.315 84.2976 226.376 84.5696 226.376ZM87.9917 227V222.76H88.7277V223.904L88.6077 223.6C88.7464 223.323 88.9597 223.107 89.2477 222.952C89.5357 222.797 89.8717 222.72 90.2557 222.72C90.6024 222.72 90.9064 222.787 91.1677 222.92C91.4344 223.053 91.6424 223.256 91.7917 223.528C91.9411 223.8 92.0157 224.144 92.0157 224.56V227H91.2477V224.648C91.2477 224.237 91.1464 223.928 90.9437 223.72C90.7464 223.512 90.4664 223.408 90.1037 223.408C89.8317 223.408 89.5944 223.461 89.3917 223.568C89.1891 223.675 89.0317 223.832 88.9197 224.04C88.8131 224.248 88.7597 224.507 88.7597 224.816V227H87.9917ZM95.4851 227.048C95.0317 227.048 94.6317 226.955 94.2851 226.768C93.9437 226.581 93.6771 226.325 93.4851 226C93.2984 225.675 93.2051 225.301 93.2051 224.88C93.2051 224.459 93.2957 224.085 93.4771 223.76C93.6637 223.435 93.9171 223.181 94.2371 223C94.5624 222.813 94.9277 222.72 95.3331 222.72C95.7437 222.72 96.1064 222.811 96.4211 222.992C96.7357 223.173 96.9811 223.429 97.1571 223.76C97.3384 224.085 97.4291 224.467 97.4291 224.904C97.4291 224.936 97.4264 224.973 97.4211 225.016C97.4211 225.059 97.4184 225.099 97.4131 225.136H93.8051V224.584H97.0131L96.7011 224.776C96.7064 224.504 96.6504 224.261 96.5331 224.048C96.4157 223.835 96.2531 223.669 96.0451 223.552C95.8424 223.429 95.6051 223.368 95.3331 223.368C95.0664 223.368 94.8291 223.429 94.6211 223.552C94.4131 223.669 94.2504 223.837 94.1331 224.056C94.0157 224.269 93.9571 224.515 93.9571 224.792V224.92C93.9571 225.203 94.0211 225.456 94.1491 225.68C94.2824 225.899 94.4664 226.069 94.7011 226.192C94.9357 226.315 95.2051 226.376 95.5091 226.376C95.7597 226.376 95.9864 226.333 96.1891 226.248C96.3971 226.163 96.5784 226.035 96.7331 225.864L97.1571 226.36C96.9651 226.584 96.7251 226.755 96.4371 226.872C96.1544 226.989 95.8371 227.048 95.4851 227.048ZM99.8715 227.048C99.5195 227.048 99.1835 227 98.8635 226.904C98.5488 226.808 98.3008 226.691 98.1195 226.552L98.4395 225.944C98.6208 226.067 98.8448 226.171 99.1115 226.256C99.3782 226.341 99.6502 226.384 99.9275 226.384C100.285 226.384 100.541 226.333 100.696 226.232C100.856 226.131 100.936 225.989 100.936 225.808C100.936 225.675 100.888 225.571 100.792 225.496C100.696 225.421 100.568 225.365 100.408 225.328C100.253 225.291 100.08 225.259 99.8875 225.232C99.6955 225.2 99.5035 225.163 99.3115 225.12C99.1195 225.072 98.9435 225.008 98.7835 224.928C98.6235 224.843 98.4955 224.728 98.3995 224.584C98.3035 224.435 98.2555 224.237 98.2555 223.992C98.2555 223.736 98.3275 223.512 98.4715 223.32C98.6155 223.128 98.8182 222.981 99.0795 222.88C99.3462 222.773 99.6608 222.72 100.024 222.72C100.301 222.72 100.581 222.755 100.864 222.824C101.152 222.888 101.386 222.981 101.568 223.104L101.24 223.712C101.048 223.584 100.848 223.496 100.64 223.448C100.432 223.4 100.224 223.376 100.016 223.376C99.6795 223.376 99.4288 223.432 99.2635 223.544C99.0982 223.651 99.0155 223.789 99.0155 223.96C99.0155 224.104 99.0635 224.216 99.1595 224.296C99.2608 224.371 99.3888 224.429 99.5435 224.472C99.7035 224.515 99.8795 224.552 100.072 224.584C100.264 224.611 100.456 224.648 100.648 224.696C100.84 224.739 101.013 224.8 101.168 224.88C101.328 224.96 101.456 225.072 101.552 225.216C101.653 225.36 101.704 225.552 101.704 225.792C101.704 226.048 101.629 226.269 101.48 226.456C101.33 226.643 101.12 226.789 100.848 226.896C100.576 226.997 100.25 227.048 99.8715 227.048ZM105.455 227V226.104L105.415 225.936V224.408C105.415 224.083 105.319 223.832 105.127 223.656C104.941 223.475 104.658 223.384 104.279 223.384C104.029 223.384 103.783 223.427 103.543 223.512C103.303 223.592 103.101 223.701 102.935 223.84L102.615 223.264C102.834 223.088 103.095 222.955 103.399 222.864C103.709 222.768 104.031 222.72 104.367 222.72C104.949 222.72 105.397 222.861 105.711 223.144C106.026 223.427 106.183 223.859 106.183 224.44V227H105.455ZM104.063 227.048C103.749 227.048 103.471 226.995 103.231 226.888C102.997 226.781 102.815 226.635 102.687 226.448C102.559 226.256 102.495 226.04 102.495 225.8C102.495 225.571 102.549 225.363 102.655 225.176C102.767 224.989 102.946 224.84 103.191 224.728C103.442 224.616 103.778 224.56 104.199 224.56H105.543V225.112H104.231C103.847 225.112 103.589 225.176 103.455 225.304C103.322 225.432 103.255 225.587 103.255 225.768C103.255 225.976 103.338 226.144 103.503 226.272C103.669 226.395 103.898 226.456 104.191 226.456C104.479 226.456 104.73 226.392 104.943 226.264C105.162 226.136 105.319 225.949 105.415 225.704L105.567 226.232C105.466 226.483 105.287 226.683 105.031 226.832C104.775 226.976 104.453 227.048 104.063 227.048ZM110.013 227.048C109.65 227.048 109.322 226.968 109.029 226.808C108.741 226.643 108.511 226.4 108.341 226.08C108.175 225.76 108.093 225.36 108.093 224.88C108.093 224.4 108.178 224 108.349 223.68C108.525 223.36 108.757 223.12 109.045 222.96C109.338 222.8 109.661 222.72 110.013 222.72C110.429 222.72 110.797 222.811 111.117 222.992C111.437 223.173 111.69 223.427 111.877 223.752C112.063 224.072 112.157 224.448 112.157 224.88C112.157 225.312 112.063 225.691 111.877 226.016C111.69 226.341 111.437 226.595 111.117 226.776C110.797 226.957 110.429 227.048 110.013 227.048ZM107.765 227V221.064H108.533V223.888L108.453 224.872L108.501 225.856V227H107.765ZM109.949 226.376C110.221 226.376 110.463 226.315 110.677 226.192C110.895 226.069 111.066 225.896 111.189 225.672C111.317 225.443 111.381 225.179 111.381 224.88C111.381 224.576 111.317 224.315 111.189 224.096C111.066 223.872 110.895 223.699 110.677 223.576C110.463 223.453 110.221 223.392 109.949 223.392C109.682 223.392 109.439 223.453 109.221 223.576C109.007 223.699 108.837 223.872 108.709 224.096C108.586 224.315 108.525 224.576 108.525 224.88C108.525 225.179 108.586 225.443 108.709 225.672C108.837 225.896 109.007 226.069 109.221 226.192C109.439 226.315 109.682 226.376 109.949 226.376ZM113.445 228.6C113.242 228.6 113.045 228.565 112.853 228.496C112.661 228.432 112.495 228.336 112.357 228.208L112.685 227.632C112.791 227.733 112.909 227.811 113.037 227.864C113.165 227.917 113.301 227.944 113.445 227.944C113.631 227.944 113.786 227.896 113.909 227.8C114.031 227.704 114.146 227.533 114.253 227.288L114.517 226.704L114.597 226.608L116.261 222.76H117.013L114.957 227.424C114.834 227.723 114.695 227.957 114.541 228.128C114.391 228.299 114.226 228.419 114.045 228.488C113.863 228.563 113.663 228.6 113.445 228.6ZM114.453 227.136L112.517 222.76H113.317L114.965 226.536L114.453 227.136ZM117.889 227V222.76H118.625V223.912L118.553 223.624C118.671 223.331 118.868 223.107 119.145 222.952C119.423 222.797 119.764 222.72 120.169 222.72V223.464C120.137 223.459 120.105 223.456 120.073 223.456C120.047 223.456 120.02 223.456 119.993 223.456C119.583 223.456 119.257 223.579 119.017 223.824C118.777 224.069 118.657 224.424 118.657 224.888V227H117.889ZM121.9 225.976L121.916 224.992L124.356 222.76H125.284L123.412 224.6L122.996 224.952L121.9 225.976ZM121.276 227V221.064H122.044V227H121.276ZM124.516 227L122.852 224.936L123.348 224.32L125.46 227H124.516ZM128.912 227V226.104L128.872 225.936V224.408C128.872 224.083 128.776 223.832 128.584 223.656C128.397 223.475 128.114 223.384 127.736 223.384C127.485 223.384 127.24 223.427 127 223.512C126.76 223.592 126.557 223.701 126.392 223.84L126.072 223.264C126.29 223.088 126.552 222.955 126.856 222.864C127.165 222.768 127.488 222.72 127.824 222.72C128.405 222.72 128.853 222.861 129.168 223.144C129.482 223.427 129.64 223.859 129.64 224.44V227H128.912ZM127.52 227.048C127.205 227.048 126.928 226.995 126.688 226.888C126.453 226.781 126.272 226.635 126.144 226.448C126.016 226.256 125.952 226.04 125.952 225.8C125.952 225.571 126.005 225.363 126.112 225.176C126.224 224.989 126.402 224.84 126.648 224.728C126.898 224.616 127.234 224.56 127.656 224.56H129V225.112H127.688C127.304 225.112 127.045 225.176 126.912 225.304C126.778 225.432 126.712 225.587 126.712 225.768C126.712 225.976 126.794 226.144 126.96 226.272C127.125 226.395 127.354 226.456 127.648 226.456C127.936 226.456 128.186 226.392 128.4 226.264C128.618 226.136 128.776 225.949 128.872 225.704L129.024 226.232C128.922 226.483 128.744 226.683 128.488 226.832C128.232 226.976 127.909 227.048 127.52 227.048ZM134.621 228.616C134.066 228.616 133.559 228.525 133.101 228.344C132.642 228.163 132.247 227.909 131.917 227.584C131.586 227.259 131.33 226.875 131.149 226.432C130.967 225.984 130.877 225.496 130.877 224.968C130.877 224.44 130.967 223.955 131.149 223.512C131.33 223.069 131.586 222.685 131.917 222.36C132.253 222.035 132.653 221.784 133.117 221.608C133.581 221.432 134.093 221.344 134.653 221.344C135.202 221.344 135.703 221.429 136.157 221.6C136.61 221.771 137.002 222.013 137.333 222.328C137.669 222.637 137.927 223.008 138.109 223.44C138.29 223.867 138.381 224.339 138.381 224.856C138.381 225.309 138.325 225.699 138.213 226.024C138.101 226.349 137.938 226.603 137.725 226.784C137.517 226.96 137.261 227.048 136.957 227.048C136.658 227.048 136.418 226.957 136.237 226.776C136.061 226.595 135.973 226.336 135.973 226V225.456L136.013 224.968L135.941 224.048V222.984H136.637V225.864C136.637 226.077 136.679 226.227 136.765 226.312C136.855 226.397 136.965 226.44 137.093 226.44C137.247 226.44 137.381 226.379 137.493 226.256C137.61 226.133 137.695 225.955 137.749 225.72C137.807 225.48 137.837 225.195 137.837 224.864C137.837 224.416 137.759 224.011 137.605 223.648C137.455 223.28 137.237 222.963 136.949 222.696C136.666 222.429 136.33 222.227 135.941 222.088C135.557 221.944 135.127 221.872 134.653 221.872C134.178 221.872 133.743 221.949 133.349 222.104C132.959 222.253 132.623 222.467 132.341 222.744C132.058 223.016 131.839 223.341 131.685 223.72C131.535 224.099 131.461 224.515 131.461 224.968C131.461 225.427 131.535 225.848 131.685 226.232C131.834 226.611 132.047 226.936 132.325 227.208C132.607 227.485 132.941 227.699 133.325 227.848C133.714 228.003 134.146 228.08 134.621 228.08C134.866 228.08 135.125 228.051 135.397 227.992C135.669 227.939 135.925 227.851 136.165 227.728L136.341 228.24C136.095 228.363 135.818 228.456 135.509 228.52C135.199 228.584 134.903 228.616 134.621 228.616ZM134.477 227.048C134.098 227.048 133.762 226.96 133.469 226.784C133.175 226.603 132.943 226.357 132.773 226.048C132.602 225.739 132.517 225.387 132.517 224.992C132.517 224.592 132.602 224.24 132.773 223.936C132.943 223.627 133.175 223.387 133.469 223.216C133.762 223.04 134.098 222.952 134.477 222.952C134.845 222.952 135.167 223.032 135.445 223.192C135.722 223.347 135.938 223.576 136.093 223.88C136.253 224.184 136.333 224.555 136.333 224.992C136.333 225.429 136.255 225.8 136.101 226.104C135.946 226.408 135.73 226.643 135.453 226.808C135.175 226.968 134.85 227.048 134.477 227.048ZM134.589 226.424C134.85 226.424 135.082 226.368 135.285 226.256C135.493 226.139 135.655 225.973 135.773 225.76C135.895 225.541 135.957 225.285 135.957 224.992C135.957 224.693 135.895 224.437 135.773 224.224C135.655 224.011 135.493 223.848 135.285 223.736C135.082 223.624 134.85 223.568 134.589 223.568C134.322 223.568 134.085 223.627 133.877 223.744C133.674 223.856 133.514 224.019 133.397 224.232C133.285 224.445 133.229 224.699 133.229 224.992C133.229 225.28 133.285 225.531 133.397 225.744C133.514 225.957 133.674 226.125 133.877 226.248C134.085 226.365 134.322 226.424 134.589 226.424ZM141.51 228.6C141.121 228.6 140.742 228.544 140.374 228.432C140.012 228.325 139.716 228.171 139.486 227.968L139.854 227.376C140.052 227.547 140.294 227.68 140.582 227.776C140.87 227.877 141.172 227.928 141.486 227.928C141.988 227.928 142.356 227.811 142.59 227.576C142.825 227.341 142.942 226.984 142.942 226.504V225.608L143.022 224.768L142.982 223.92V222.76H143.71V226.424C143.71 227.171 143.524 227.72 143.15 228.072C142.777 228.424 142.23 228.6 141.51 228.6ZM141.414 226.824C141.004 226.824 140.636 226.739 140.31 226.568C139.99 226.392 139.734 226.149 139.542 225.84C139.356 225.531 139.262 225.173 139.262 224.768C139.262 224.357 139.356 224 139.542 223.696C139.734 223.387 139.99 223.147 140.31 222.976C140.636 222.805 141.004 222.72 141.414 222.72C141.777 222.72 142.108 222.795 142.406 222.944C142.705 223.088 142.942 223.312 143.118 223.616C143.3 223.92 143.39 224.304 143.39 224.768C143.39 225.227 143.3 225.608 143.118 225.912C142.942 226.216 142.705 226.445 142.406 226.6C142.108 226.749 141.777 226.824 141.414 226.824ZM141.502 226.152C141.785 226.152 142.036 226.093 142.254 225.976C142.473 225.859 142.644 225.696 142.766 225.488C142.894 225.28 142.958 225.04 142.958 224.768C142.958 224.496 142.894 224.256 142.766 224.048C142.644 223.84 142.473 223.68 142.254 223.568C142.036 223.451 141.785 223.392 141.502 223.392C141.22 223.392 140.966 223.451 140.742 223.568C140.524 223.68 140.35 223.84 140.222 224.048C140.1 224.256 140.038 224.496 140.038 224.768C140.038 225.04 140.1 225.28 140.222 225.488C140.35 225.696 140.524 225.859 140.742 225.976C140.966 226.093 141.22 226.152 141.502 226.152ZM145.338 227V222.76H146.074V223.888L145.954 223.6C146.087 223.323 146.292 223.107 146.57 222.952C146.847 222.797 147.17 222.72 147.538 222.72C147.943 222.72 148.292 222.821 148.586 223.024C148.879 223.221 149.071 223.523 149.162 223.928L148.85 223.8C148.978 223.475 149.202 223.213 149.522 223.016C149.842 222.819 150.215 222.72 150.642 222.72C150.983 222.72 151.284 222.787 151.546 222.92C151.807 223.053 152.01 223.256 152.154 223.528C152.303 223.8 152.378 224.144 152.378 224.56V227H151.61V224.648C151.61 224.237 151.514 223.928 151.322 223.72C151.13 223.512 150.86 223.408 150.514 223.408C150.258 223.408 150.034 223.461 149.842 223.568C149.65 223.675 149.5 223.832 149.394 224.04C149.292 224.248 149.242 224.507 149.242 224.816V227H148.474V224.648C148.474 224.237 148.378 223.928 148.186 223.72C147.999 223.512 147.73 223.408 147.378 223.408C147.127 223.408 146.906 223.461 146.714 223.568C146.522 223.675 146.372 223.832 146.266 224.04C146.159 224.248 146.106 224.507 146.106 224.816V227H145.338ZM156.583 227V226.104L156.543 225.936V224.408C156.543 224.083 156.447 223.832 156.255 223.656C156.068 223.475 155.785 223.384 155.407 223.384C155.156 223.384 154.911 223.427 154.671 223.512C154.431 223.592 154.228 223.701 154.063 223.84L153.743 223.264C153.961 223.088 154.223 222.955 154.527 222.864C154.836 222.768 155.159 222.72 155.495 222.72C156.076 222.72 156.524 222.861 156.839 223.144C157.153 223.427 157.311 223.859 157.311 224.44V227H156.583ZM155.191 227.048C154.876 227.048 154.599 226.995 154.359 226.888C154.124 226.781 153.943 226.635 153.815 226.448C153.687 226.256 153.623 226.04 153.623 225.8C153.623 225.571 153.676 225.363 153.783 225.176C153.895 224.989 154.073 224.84 154.319 224.728C154.569 224.616 154.905 224.56 155.327 224.56H156.671V225.112H155.359C154.975 225.112 154.716 225.176 154.583 225.304C154.449 225.432 154.383 225.587 154.383 225.768C154.383 225.976 154.465 226.144 154.631 226.272C154.796 226.395 155.025 226.456 155.319 226.456C155.607 226.456 155.857 226.392 156.071 226.264C156.289 226.136 156.447 225.949 156.543 225.704L156.695 226.232C156.593 226.483 156.415 226.683 156.159 226.832C155.903 226.976 155.58 227.048 155.191 227.048ZM158.892 227V222.76H159.66V227H158.892ZM159.276 221.944C159.127 221.944 159.001 221.896 158.9 221.8C158.804 221.704 158.756 221.587 158.756 221.448C158.756 221.304 158.804 221.184 158.9 221.088C159.001 220.992 159.127 220.944 159.276 220.944C159.425 220.944 159.548 220.992 159.644 221.088C159.745 221.179 159.796 221.293 159.796 221.432C159.796 221.576 159.748 221.699 159.652 221.8C159.556 221.896 159.431 221.944 159.276 221.944ZM161.286 227V221.064H162.054V227H161.286ZM163.865 227.048C163.715 227.048 163.587 226.997 163.481 226.896C163.374 226.789 163.321 226.656 163.321 226.496C163.321 226.336 163.374 226.205 163.481 226.104C163.587 226.003 163.715 225.952 163.865 225.952C164.009 225.952 164.131 226.003 164.233 226.104C164.339 226.205 164.393 226.336 164.393 226.496C164.393 226.656 164.339 226.789 164.233 226.896C164.131 226.997 164.009 227.048 163.865 227.048ZM167.408 227.048C166.976 227.048 166.589 226.955 166.248 226.768C165.912 226.581 165.648 226.325 165.456 226C165.264 225.675 165.168 225.301 165.168 224.88C165.168 224.459 165.264 224.085 165.456 223.76C165.648 223.435 165.912 223.181 166.248 223C166.589 222.813 166.976 222.72 167.408 222.72C167.792 222.72 168.133 222.797 168.432 222.952C168.736 223.101 168.97 223.325 169.136 223.624L168.552 224C168.413 223.792 168.242 223.64 168.04 223.544C167.842 223.443 167.629 223.392 167.4 223.392C167.122 223.392 166.874 223.453 166.656 223.576C166.437 223.699 166.264 223.872 166.136 224.096C166.008 224.315 165.944 224.576 165.944 224.88C165.944 225.184 166.008 225.448 166.136 225.672C166.264 225.896 166.437 226.069 166.656 226.192C166.874 226.315 167.122 226.376 167.4 226.376C167.629 226.376 167.842 226.328 168.04 226.232C168.242 226.131 168.413 225.976 168.552 225.768L169.136 226.136C168.97 226.429 168.736 226.656 168.432 226.816C168.133 226.971 167.792 227.048 167.408 227.048ZM172.043 227.048C171.617 227.048 171.238 226.955 170.907 226.768C170.577 226.581 170.315 226.325 170.123 226C169.931 225.669 169.835 225.296 169.835 224.88C169.835 224.459 169.931 224.085 170.123 223.76C170.315 223.435 170.577 223.181 170.907 223C171.238 222.813 171.617 222.72 172.043 222.72C172.465 222.72 172.841 222.813 173.171 223C173.507 223.181 173.769 223.435 173.955 223.76C174.147 224.08 174.243 224.453 174.243 224.88C174.243 225.301 174.147 225.675 173.955 226C173.769 226.325 173.507 226.581 173.171 226.768C172.841 226.955 172.465 227.048 172.043 227.048ZM172.043 226.376C172.315 226.376 172.558 226.315 172.771 226.192C172.99 226.069 173.161 225.896 173.283 225.672C173.406 225.443 173.467 225.179 173.467 224.88C173.467 224.576 173.406 224.315 173.283 224.096C173.161 223.872 172.99 223.699 172.771 223.576C172.558 223.453 172.315 223.392 172.043 223.392C171.771 223.392 171.529 223.453 171.315 223.576C171.102 223.699 170.931 223.872 170.803 224.096C170.675 224.315 170.611 224.576 170.611 224.88C170.611 225.179 170.675 225.443 170.803 225.672C170.931 225.896 171.102 226.069 171.315 226.192C171.529 226.315 171.771 226.376 172.043 226.376ZM175.466 227V222.76H176.202V223.888L176.082 223.6C176.215 223.323 176.42 223.107 176.698 222.952C176.975 222.797 177.298 222.72 177.666 222.72C178.071 222.72 178.42 222.821 178.714 223.024C179.007 223.221 179.199 223.523 179.29 223.928L178.978 223.8C179.106 223.475 179.33 223.213 179.65 223.016C179.97 222.819 180.343 222.72 180.77 222.72C181.111 222.72 181.412 222.787 181.674 222.92C181.935 223.053 182.138 223.256 182.282 223.528C182.431 223.8 182.506 224.144 182.506 224.56V227H181.738V224.648C181.738 224.237 181.642 223.928 181.45 223.72C181.258 223.512 180.988 223.408 180.642 223.408C180.386 223.408 180.162 223.461 179.97 223.568C179.778 223.675 179.628 223.832 179.522 224.04C179.42 224.248 179.37 224.507 179.37 224.816V227H178.602V224.648C178.602 224.237 178.506 223.928 178.314 223.72C178.127 223.512 177.858 223.408 177.506 223.408C177.255 223.408 177.034 223.461 176.842 223.568C176.65 223.675 176.5 223.832 176.394 224.04C176.287 224.248 176.234 224.507 176.234 224.816V227H175.466Z" fill="white" fill-opacity="0.7"/>
<rect x="213.5" y="175.5" width="194" height="63" rx="11.5" stroke="white" stroke-opacity="0.1"/>
<g clip-path="url(#clip3_2_1020)">
<path d="M313.163 196.856L323.581 185H321.115L312.064 195.292L304.845 185H296.511L307.432 200.57L296.511 213H298.977L308.531 202.128L316.155 213H324.484M299.869 186.821H303.659L321.109 211.266H317.32" fill="#F2F2F2"/>
</g>
<path d="M238.524 227L240.932 223.68V224.624L238.628 221.4H240.1L241.692 223.648L241.076 223.656L242.644 221.4H244.052L241.764 224.568V223.64L244.188 227H242.692L241.044 224.624H241.636L240.012 227H238.524ZM248.381 228.552C248.061 228.067 247.813 227.507 247.637 226.872C247.466 226.232 247.381 225.544 247.381 224.808C247.381 224.072 247.466 223.384 247.637 222.744C247.813 222.099 248.061 221.539 248.381 221.064H249.573C249.237 221.667 248.991 222.275 248.837 222.888C248.682 223.496 248.605 224.136 248.605 224.808C248.605 225.48 248.682 226.123 248.837 226.736C248.991 227.344 249.237 227.949 249.573 228.552H248.381ZM251.593 227V222.456H249.801V221.4H254.681V222.456H252.889V227H251.593ZM256.177 227L254.625 222.696H255.801L257.089 226.4H256.529L257.873 222.696H258.929L260.233 226.4H259.673L261.001 222.696H262.105L260.545 227H259.337L258.193 223.824H258.561L257.377 227H256.177ZM262.845 227V222.696H264.093V227H262.845ZM263.469 222.096C263.239 222.096 263.053 222.029 262.909 221.896C262.765 221.763 262.693 221.597 262.693 221.4C262.693 221.203 262.765 221.037 262.909 220.904C263.053 220.771 263.239 220.704 263.469 220.704C263.698 220.704 263.885 220.768 264.029 220.896C264.173 221.019 264.245 221.179 264.245 221.376C264.245 221.584 264.173 221.757 264.029 221.896C263.89 222.029 263.703 222.096 263.469 222.096ZM267.171 227.064C266.664 227.064 266.27 226.936 265.987 226.68C265.704 226.419 265.563 226.032 265.563 225.52V221.744H266.811V225.504C266.811 225.685 266.859 225.827 266.955 225.928C267.051 226.024 267.182 226.072 267.347 226.072C267.544 226.072 267.712 226.019 267.851 225.912L268.187 226.792C268.059 226.883 267.904 226.952 267.723 227C267.547 227.043 267.363 227.064 267.171 227.064ZM264.899 223.656V222.696H267.883V223.656H264.899ZM270.714 227.064C270.207 227.064 269.812 226.936 269.53 226.68C269.247 226.419 269.106 226.032 269.106 225.52V221.744H270.354V225.504C270.354 225.685 270.402 225.827 270.498 225.928C270.594 226.024 270.724 226.072 270.89 226.072C271.087 226.072 271.255 226.019 271.394 225.912L271.73 226.792C271.602 226.883 271.447 226.952 271.266 227C271.09 227.043 270.906 227.064 270.714 227.064ZM268.442 223.656V222.696H271.426V223.656H268.442ZM274.594 227.064C274.103 227.064 273.671 226.968 273.298 226.776C272.93 226.584 272.644 226.323 272.442 225.992C272.239 225.656 272.138 225.275 272.138 224.848C272.138 224.416 272.236 224.035 272.434 223.704C272.636 223.368 272.911 223.107 273.258 222.92C273.604 222.728 273.996 222.632 274.434 222.632C274.855 222.632 275.234 222.723 275.57 222.904C275.911 223.08 276.18 223.336 276.378 223.672C276.575 224.003 276.674 224.4 276.674 224.864C276.674 224.912 276.671 224.968 276.666 225.032C276.66 225.091 276.655 225.147 276.65 225.2H273.154V224.472H275.994L275.514 224.688C275.514 224.464 275.468 224.269 275.378 224.104C275.287 223.939 275.162 223.811 275.002 223.72C274.842 223.624 274.655 223.576 274.442 223.576C274.228 223.576 274.039 223.624 273.874 223.72C273.714 223.811 273.588 223.941 273.498 224.112C273.407 224.277 273.362 224.475 273.362 224.704V224.896C273.362 225.131 273.412 225.339 273.514 225.52C273.62 225.696 273.767 225.832 273.954 225.928C274.146 226.019 274.37 226.064 274.626 226.064C274.855 226.064 275.055 226.029 275.226 225.96C275.402 225.891 275.562 225.787 275.706 225.648L276.37 226.368C276.172 226.592 275.924 226.765 275.626 226.888C275.327 227.005 274.983 227.064 274.594 227.064ZM277.664 227V222.696H278.856V223.912L278.688 223.56C278.816 223.256 279.022 223.027 279.304 222.872C279.587 222.712 279.931 222.632 280.336 222.632V223.784C280.283 223.779 280.235 223.776 280.192 223.776C280.15 223.771 280.104 223.768 280.056 223.768C279.715 223.768 279.438 223.867 279.224 224.064C279.016 224.256 278.912 224.557 278.912 224.968V227H277.664ZM280.735 228.552C281.081 227.949 281.329 227.344 281.479 226.736C281.633 226.123 281.711 225.48 281.711 224.808C281.711 224.136 281.633 223.496 281.479 222.888C281.329 222.275 281.081 221.667 280.735 221.064H281.927C282.257 221.539 282.508 222.099 282.679 222.744C282.849 223.384 282.935 224.072 282.935 224.808C282.935 225.544 282.849 226.232 282.679 226.872C282.508 227.507 282.257 228.067 281.927 228.552H280.735ZM284.73 224.192C284.517 224.192 284.333 224.12 284.178 223.976C284.029 223.827 283.954 223.637 283.954 223.408C283.954 223.179 284.029 222.995 284.178 222.856C284.333 222.712 284.517 222.64 284.73 222.64C284.949 222.64 285.133 222.712 285.282 222.856C285.431 222.995 285.506 223.179 285.506 223.408C285.506 223.637 285.431 223.827 285.282 223.976C285.133 224.12 284.949 224.192 284.73 224.192ZM284.73 227.064C284.517 227.064 284.333 226.992 284.178 226.848C284.029 226.699 283.954 226.509 283.954 226.28C283.954 226.051 284.029 225.867 284.178 225.728C284.333 225.584 284.517 225.512 284.73 225.512C284.949 225.512 285.133 225.584 285.282 225.728C285.431 225.867 285.506 226.051 285.506 226.28C285.506 226.509 285.431 226.699 285.282 226.848C285.133 226.992 284.949 227.064 284.73 227.064Z" fill="white"/>
<path d="M288.356 227L290.18 224.632L290.172 225.024L288.436 222.76H289.292L290.62 224.504H290.292L291.62 222.76H292.46L290.7 225.04L290.708 224.632L292.548 227H291.676L290.276 225.144L290.588 225.192L289.212 227H288.356ZM293.73 227.048C293.581 227.048 293.453 226.997 293.346 226.896C293.239 226.789 293.186 226.656 293.186 226.496C293.186 226.336 293.239 226.205 293.346 226.104C293.453 226.003 293.581 225.952 293.73 225.952C293.874 225.952 293.997 226.003 294.098 226.104C294.205 226.205 294.258 226.336 294.258 226.496C294.258 226.656 294.205 226.789 294.098 226.896C293.997 226.997 293.874 227.048 293.73 227.048ZM297.273 227.048C296.841 227.048 296.454 226.955 296.113 226.768C295.777 226.581 295.513 226.325 295.321 226C295.129 225.675 295.033 225.301 295.033 224.88C295.033 224.459 295.129 224.085 295.321 223.76C295.513 223.435 295.777 223.181 296.113 223C296.454 222.813 296.841 222.72 297.273 222.72C297.657 222.72 297.998 222.797 298.297 222.952C298.601 223.101 298.836 223.325 299.001 223.624L298.417 224C298.278 223.792 298.108 223.64 297.905 223.544C297.708 223.443 297.494 223.392 297.265 223.392C296.988 223.392 296.74 223.453 296.521 223.576C296.302 223.699 296.129 223.872 296.001 224.096C295.873 224.315 295.809 224.576 295.809 224.88C295.809 225.184 295.873 225.448 296.001 225.672C296.129 225.896 296.302 226.069 296.521 226.192C296.74 226.315 296.988 226.376 297.265 226.376C297.494 226.376 297.708 226.328 297.905 226.232C298.108 226.131 298.278 225.976 298.417 225.768L299.001 226.136C298.836 226.429 298.601 226.656 298.297 226.816C297.998 226.971 297.657 227.048 297.273 227.048ZM301.909 227.048C301.482 227.048 301.103 226.955 300.773 226.768C300.442 226.581 300.181 226.325 299.989 226C299.797 225.669 299.701 225.296 299.701 224.88C299.701 224.459 299.797 224.085 299.989 223.76C300.181 223.435 300.442 223.181 300.773 223C301.103 222.813 301.482 222.72 301.909 222.72C302.33 222.72 302.706 222.813 303.037 223C303.373 223.181 303.634 223.435 303.821 223.76C304.013 224.08 304.109 224.453 304.109 224.88C304.109 225.301 304.013 225.675 303.821 226C303.634 226.325 303.373 226.581 303.037 226.768C302.706 226.955 302.33 227.048 301.909 227.048ZM301.909 226.376C302.181 226.376 302.423 226.315 302.637 226.192C302.855 226.069 303.026 225.896 303.149 225.672C303.271 225.443 303.333 225.179 303.333 224.88C303.333 224.576 303.271 224.315 303.149 224.096C303.026 223.872 302.855 223.699 302.637 223.576C302.423 223.453 302.181 223.392 301.909 223.392C301.637 223.392 301.394 223.453 301.181 223.576C300.967 223.699 300.797 223.872 300.669 224.096C300.541 224.315 300.477 224.576 300.477 224.88C300.477 225.179 300.541 225.443 300.669 225.672C300.797 225.896 300.967 226.069 301.181 226.192C301.394 226.315 301.637 226.376 301.909 226.376ZM305.331 227V222.76H306.067V223.888L305.947 223.6C306.08 223.323 306.285 223.107 306.563 222.952C306.84 222.797 307.163 222.72 307.531 222.72C307.936 222.72 308.285 222.821 308.579 223.024C308.872 223.221 309.064 223.523 309.155 223.928L308.843 223.8C308.971 223.475 309.195 223.213 309.515 223.016C309.835 222.819 310.208 222.72 310.635 222.72C310.976 222.72 311.277 222.787 311.539 222.92C311.8 223.053 312.003 223.256 312.147 223.528C312.296 223.8 312.371 224.144 312.371 224.56V227H311.603V224.648C311.603 224.237 311.507 223.928 311.315 223.72C311.123 223.512 310.853 223.408 310.507 223.408C310.251 223.408 310.027 223.461 309.835 223.568C309.643 223.675 309.493 223.832 309.387 224.04C309.285 224.248 309.235 224.507 309.235 224.816V227H308.467V224.648C308.467 224.237 308.371 223.928 308.179 223.72C307.992 223.512 307.723 223.408 307.371 223.408C307.12 223.408 306.899 223.461 306.707 223.568C306.515 223.675 306.365 223.832 306.259 224.04C306.152 224.248 306.099 224.507 306.099 224.816V227H305.331ZM312.992 227.8L315.632 220.264H316.328L313.688 227.8H312.992ZM318.154 227.048C317.727 227.048 317.396 226.933 317.162 226.704C316.927 226.475 316.81 226.147 316.81 225.72V221.832H317.578V225.688C317.578 225.917 317.634 226.093 317.746 226.216C317.863 226.339 318.028 226.4 318.242 226.4C318.482 226.4 318.682 226.333 318.842 226.2L319.082 226.752C318.964 226.853 318.823 226.928 318.658 226.976C318.498 227.024 318.33 227.048 318.154 227.048ZM316.09 223.392V222.76H318.794V223.392H316.09ZM320.17 227V221.064H320.938V223.904L320.786 223.6C320.925 223.323 321.138 223.107 321.426 222.952C321.714 222.797 322.05 222.72 322.434 222.72C322.781 222.72 323.085 222.787 323.346 222.92C323.613 223.053 323.821 223.256 323.97 223.528C324.12 223.8 324.194 224.144 324.194 224.56V227H323.426V224.648C323.426 224.237 323.325 223.928 323.122 223.72C322.925 223.512 322.645 223.408 322.282 223.408C322.01 223.408 321.773 223.461 321.57 223.568C321.368 223.675 321.21 223.832 321.098 224.04C320.992 224.248 320.938 224.507 320.938 224.816V227H320.17ZM328.408 227V226.104L328.368 225.936V224.408C328.368 224.083 328.272 223.832 328.08 223.656C327.893 223.475 327.61 223.384 327.232 223.384C326.981 223.384 326.736 223.427 326.496 223.512C326.256 223.592 326.053 223.701 325.888 223.84L325.568 223.264C325.786 223.088 326.048 222.955 326.352 222.864C326.661 222.768 326.984 222.72 327.32 222.72C327.901 222.72 328.349 222.861 328.664 223.144C328.978 223.427 329.136 223.859 329.136 224.44V227H328.408ZM327.016 227.048C326.701 227.048 326.424 226.995 326.184 226.888C325.949 226.781 325.768 226.635 325.64 226.448C325.512 226.256 325.448 226.04 325.448 225.8C325.448 225.571 325.501 225.363 325.608 225.176C325.72 224.989 325.898 224.84 326.144 224.728C326.394 224.616 326.73 224.56 327.152 224.56H328.496V225.112H327.184C326.8 225.112 326.541 225.176 326.408 225.304C326.274 225.432 326.208 225.587 326.208 225.768C326.208 225.976 326.29 226.144 326.456 226.272C326.621 226.395 326.85 226.456 327.144 226.456C327.432 226.456 327.682 226.392 327.896 226.264C328.114 226.136 328.272 225.949 328.368 225.704L328.52 226.232C328.418 226.483 328.24 226.683 327.984 226.832C327.728 226.976 327.405 227.048 327.016 227.048ZM332.173 227.048C331.746 227.048 331.415 226.933 331.181 226.704C330.946 226.475 330.829 226.147 330.829 225.72V221.832H331.597V225.688C331.597 225.917 331.653 226.093 331.765 226.216C331.882 226.339 332.047 226.4 332.261 226.4C332.501 226.4 332.701 226.333 332.861 226.2L333.101 226.752C332.983 226.853 332.842 226.928 332.677 226.976C332.517 227.024 332.349 227.048 332.173 227.048ZM330.109 223.392V222.76H332.813V223.392H330.109ZM335.865 227.048C335.438 227.048 335.059 226.955 334.729 226.768C334.398 226.581 334.137 226.325 333.945 226C333.753 225.669 333.657 225.296 333.657 224.88C333.657 224.459 333.753 224.085 333.945 223.76C334.137 223.435 334.398 223.181 334.729 223C335.059 222.813 335.438 222.72 335.865 222.72C336.286 222.72 336.662 222.813 336.993 223C337.329 223.181 337.59 223.435 337.777 223.76C337.969 224.08 338.065 224.453 338.065 224.88C338.065 225.301 337.969 225.675 337.777 226C337.59 226.325 337.329 226.581 336.993 226.768C336.662 226.955 336.286 227.048 335.865 227.048ZM335.865 226.376C336.137 226.376 336.379 226.315 336.593 226.192C336.811 226.069 336.982 225.896 337.105 225.672C337.227 225.443 337.289 225.179 337.289 224.88C337.289 224.576 337.227 224.315 337.105 224.096C336.982 223.872 336.811 223.699 336.593 223.576C336.379 223.453 336.137 223.392 335.865 223.392C335.593 223.392 335.35 223.453 335.137 223.576C334.923 223.699 334.753 223.872 334.625 224.096C334.497 224.315 334.433 224.576 334.433 224.88C334.433 225.179 334.497 225.443 334.625 225.672C334.753 225.896 334.923 226.069 335.137 226.192C335.35 226.315 335.593 226.376 335.865 226.376ZM339.287 227V222.76H340.023V223.904L339.903 223.6C340.041 223.323 340.255 223.107 340.543 222.952C340.831 222.797 341.167 222.72 341.551 222.72C341.897 222.72 342.201 222.787 342.463 222.92C342.729 223.053 342.937 223.256 343.087 223.528C343.236 223.8 343.311 224.144 343.311 224.56V227H342.543V224.648C342.543 224.237 342.441 223.928 342.239 223.72C342.041 223.512 341.761 223.408 341.399 223.408C341.127 223.408 340.889 223.461 340.687 223.568C340.484 223.675 340.327 223.832 340.215 224.04C340.108 224.248 340.055 224.507 340.055 224.816V227H339.287ZM346.78 227.048C346.327 227.048 345.927 226.955 345.58 226.768C345.239 226.581 344.972 226.325 344.78 226C344.593 225.675 344.5 225.301 344.5 224.88C344.5 224.459 344.591 224.085 344.772 223.76C344.959 223.435 345.212 223.181 345.532 223C345.857 222.813 346.223 222.72 346.628 222.72C347.039 222.72 347.401 222.811 347.716 222.992C348.031 223.173 348.276 223.429 348.452 223.76C348.633 224.085 348.724 224.467 348.724 224.904C348.724 224.936 348.721 224.973 348.716 225.016C348.716 225.059 348.713 225.099 348.708 225.136H345.1V224.584H348.308L347.996 224.776C348.001 224.504 347.945 224.261 347.828 224.048C347.711 223.835 347.548 223.669 347.34 223.552C347.137 223.429 346.9 223.368 346.628 223.368C346.361 223.368 346.124 223.429 345.916 223.552C345.708 223.669 345.545 223.837 345.428 224.056C345.311 224.269 345.252 224.515 345.252 224.792V224.92C345.252 225.203 345.316 225.456 345.444 225.68C345.577 225.899 345.761 226.069 345.996 226.192C346.231 226.315 346.5 226.376 346.804 226.376C347.055 226.376 347.281 226.333 347.484 226.248C347.692 226.163 347.873 226.035 348.028 225.864L348.452 226.36C348.26 226.584 348.02 226.755 347.732 226.872C347.449 226.989 347.132 227.048 346.78 227.048ZM351.167 227.048C350.815 227.048 350.479 227 350.159 226.904C349.844 226.808 349.596 226.691 349.415 226.552L349.735 225.944C349.916 226.067 350.14 226.171 350.407 226.256C350.673 226.341 350.945 226.384 351.223 226.384C351.58 226.384 351.836 226.333 351.991 226.232C352.151 226.131 352.231 225.989 352.231 225.808C352.231 225.675 352.183 225.571 352.087 225.496C351.991 225.421 351.863 225.365 351.703 225.328C351.548 225.291 351.375 225.259 351.183 225.232C350.991 225.2 350.799 225.163 350.607 225.12C350.415 225.072 350.239 225.008 350.079 224.928C349.919 224.843 349.791 224.728 349.695 224.584C349.599 224.435 349.551 224.237 349.551 223.992C349.551 223.736 349.623 223.512 349.767 223.32C349.911 223.128 350.113 222.981 350.375 222.88C350.641 222.773 350.956 222.72 351.319 222.72C351.596 222.72 351.876 222.755 352.159 222.824C352.447 222.888 352.681 222.981 352.863 223.104L352.535 223.712C352.343 223.584 352.143 223.496 351.935 223.448C351.727 223.4 351.519 223.376 351.311 223.376C350.975 223.376 350.724 223.432 350.559 223.544C350.393 223.651 350.311 223.789 350.311 223.96C350.311 224.104 350.359 224.216 350.455 224.296C350.556 224.371 350.684 224.429 350.839 224.472C350.999 224.515 351.175 224.552 351.367 224.584C351.559 224.611 351.751 224.648 351.943 224.696C352.135 224.739 352.308 224.8 352.463 224.88C352.623 224.96 352.751 225.072 352.847 225.216C352.948 225.36 352.999 225.552 352.999 225.792C352.999 226.048 352.924 226.269 352.775 226.456C352.625 226.643 352.415 226.789 352.143 226.896C351.871 226.997 351.545 227.048 351.167 227.048ZM356.75 227V226.104L356.71 225.936V224.408C356.71 224.083 356.614 223.832 356.422 223.656C356.236 223.475 355.953 223.384 355.574 223.384C355.324 223.384 355.078 223.427 354.838 223.512C354.598 223.592 354.396 223.701 354.23 223.84L353.91 223.264C354.129 223.088 354.39 222.955 354.694 222.864C355.004 222.768 355.326 222.72 355.662 222.72C356.244 222.72 356.692 222.861 357.006 223.144C357.321 223.427 357.478 223.859 357.478 224.44V227H356.75ZM355.358 227.048C355.044 227.048 354.766 226.995 354.526 226.888C354.292 226.781 354.11 226.635 353.982 226.448C353.854 226.256 353.79 226.04 353.79 225.8C353.79 225.571 353.844 225.363 353.95 225.176C354.062 224.989 354.241 224.84 354.486 224.728C354.737 224.616 355.073 224.56 355.494 224.56H356.838V225.112H355.526C355.142 225.112 354.884 225.176 354.75 225.304C354.617 225.432 354.55 225.587 354.55 225.768C354.55 225.976 354.633 226.144 354.798 226.272C354.964 226.395 355.193 226.456 355.486 226.456C355.774 226.456 356.025 226.392 356.238 226.264C356.457 226.136 356.614 225.949 356.71 225.704L356.862 226.232C356.761 226.483 356.582 226.683 356.326 226.832C356.07 226.976 355.748 227.048 355.358 227.048ZM361.308 227.048C360.945 227.048 360.617 226.968 360.324 226.808C360.036 226.643 359.806 226.4 359.636 226.08C359.47 225.76 359.388 225.36 359.388 224.88C359.388 224.4 359.473 224 359.644 223.68C359.82 223.36 360.052 223.12 360.34 222.96C360.633 222.8 360.956 222.72 361.308 222.72C361.724 222.72 362.092 222.811 362.412 222.992C362.732 223.173 362.985 223.427 363.172 223.752C363.358 224.072 363.452 224.448 363.452 224.88C363.452 225.312 363.358 225.691 363.172 226.016C362.985 226.341 362.732 226.595 362.412 226.776C362.092 226.957 361.724 227.048 361.308 227.048ZM359.06 227V221.064H359.828V223.888L359.748 224.872L359.796 225.856V227H359.06ZM361.244 226.376C361.516 226.376 361.758 226.315 361.972 226.192C362.19 226.069 362.361 225.896 362.484 225.672C362.612 225.443 362.676 225.179 362.676 224.88C362.676 224.576 362.612 224.315 362.484 224.096C362.361 223.872 362.19 223.699 361.972 223.576C361.758 223.453 361.516 223.392 361.244 223.392C360.977 223.392 360.734 223.453 360.516 223.576C360.302 223.699 360.132 223.872 360.004 224.096C359.881 224.315 359.82 224.576 359.82 224.88C359.82 225.179 359.881 225.443 360.004 225.672C360.132 225.896 360.302 226.069 360.516 226.192C360.734 226.315 360.977 226.376 361.244 226.376ZM364.739 228.6C364.537 228.6 364.339 228.565 364.147 228.496C363.955 228.432 363.79 228.336 363.651 228.208L363.979 227.632C364.086 227.733 364.203 227.811 364.331 227.864C364.459 227.917 364.595 227.944 364.739 227.944C364.926 227.944 365.081 227.896 365.203 227.8C365.326 227.704 365.441 227.533 365.547 227.288L365.811 226.704L365.891 226.608L367.555 222.76H368.307L366.251 227.424C366.129 227.723 365.99 227.957 365.835 228.128C365.686 228.299 365.521 228.419 365.339 228.488C365.158 228.563 364.958 228.6 364.739 228.6ZM365.747 227.136L363.811 222.76H364.611L366.259 226.536L365.747 227.136ZM369.184 227V222.76H369.92V223.912L369.848 223.624C369.966 223.331 370.163 223.107 370.44 222.952C370.718 222.797 371.059 222.72 371.464 222.72V223.464C371.432 223.459 371.4 223.456 371.368 223.456C371.342 223.456 371.315 223.456 371.288 223.456C370.878 223.456 370.552 223.579 370.312 223.824C370.072 224.069 369.952 224.424 369.952 224.888V227H369.184ZM373.195 225.976L373.211 224.992L375.651 222.76H376.579L374.707 224.6L374.291 224.952L373.195 225.976ZM372.571 227V221.064H373.339V227H372.571ZM375.811 227L374.147 224.936L374.643 224.32L376.755 227H375.811ZM380.207 227V226.104L380.167 225.936V224.408C380.167 224.083 380.071 223.832 379.879 223.656C379.692 223.475 379.409 223.384 379.031 223.384C378.78 223.384 378.535 223.427 378.295 223.512C378.055 223.592 377.852 223.701 377.687 223.84L377.367 223.264C377.585 223.088 377.847 222.955 378.151 222.864C378.46 222.768 378.783 222.72 379.119 222.72C379.7 222.72 380.148 222.861 380.463 223.144C380.777 223.427 380.935 223.859 380.935 224.44V227H380.207ZM378.815 227.048C378.5 227.048 378.223 226.995 377.983 226.888C377.748 226.781 377.567 226.635 377.439 226.448C377.311 226.256 377.247 226.04 377.247 225.8C377.247 225.571 377.3 225.363 377.407 225.176C377.519 224.989 377.697 224.84 377.943 224.728C378.193 224.616 378.529 224.56 378.951 224.56H380.295V225.112H378.983C378.599 225.112 378.34 225.176 378.207 225.304C378.073 225.432 378.007 225.587 378.007 225.768C378.007 225.976 378.089 226.144 378.255 226.272C378.42 226.395 378.649 226.456 378.943 226.456C379.231 226.456 379.481 226.392 379.695 226.264C379.913 226.136 380.071 225.949 380.167 225.704L380.319 226.232C380.217 226.483 380.039 226.683 379.783 226.832C379.527 226.976 379.204 227.048 378.815 227.048Z" fill="white" fill-opacity="0.7"/>
<defs>
<linearGradient id="paint0_linear_2_1020" x1="210" y1="73" x2="210" y2="45" gradientUnits="userSpaceOnUse">
<stop stop-color="#1D93D2"/>
<stop offset="1" stop-color="#38B0E3"/>
</linearGradient>
<clipPath id="clip0_2_1020">
<rect width="28" height="28" fill="white" transform="translate(196 45)"/>
</clipPath>
<clipPath id="clip1_2_1020">
<rect width="28" height="28" fill="white" transform="translate(196 115)"/>
</clipPath>
<clipPath id="clip2_2_1020">
<rect width="28" height="28" fill="white" transform="translate(95.5 185)"/>
</clipPath>
<clipPath id="clip3_2_1020">
<rect width="28" height="28" fill="white" transform="translate(296.5 185)"/>
</clipPath>
</defs>
</svg>
