<svg width="420" height="110" viewBox="0 0 420 110" fill="none" xmlns="http://www.w3.org/2000/svg">
<rect x="0.5" y="0.5" width="419" height="109" rx="11.5" stroke="white" stroke-opacity="0.1"/>
<path d="M29.216 43V20.6H35.552V43H29.216ZM14.24 43V20.6H20.576V43H14.24ZM20.128 34.264V29.016H29.664V34.264H20.128ZM49.4613 43.288C47.4132 43.288 45.6212 42.904 44.0852 42.136C42.5706 41.3467 41.3866 40.28 40.5332 38.936C39.7012 37.5707 39.2852 36.024 39.2852 34.296C39.2852 32.568 39.6906 31.032 40.5012 29.688C41.3332 28.3227 42.4746 27.2667 43.9252 26.52C45.3759 25.752 47.0079 25.368 48.8212 25.368C50.5279 25.368 52.0853 25.72 53.4932 26.424C54.9012 27.1067 56.0212 28.12 56.8533 29.464C57.6852 30.808 58.1012 32.44 58.1012 34.36C58.1012 34.5733 58.0906 34.8187 58.0693 35.096C58.0479 35.3733 58.0266 35.6293 58.0053 35.864H44.2772V32.664H54.7733L52.4692 33.56C52.4906 32.7707 52.3413 32.088 52.0212 31.512C51.7226 30.936 51.2959 30.488 50.7413 30.168C50.2079 29.848 49.5786 29.688 48.8532 29.688C48.1279 29.688 47.4879 29.848 46.9332 30.168C46.3999 30.488 45.9839 30.9467 45.6852 31.544C45.3866 32.12 45.2372 32.8027 45.2372 33.592V34.52C45.2372 35.3733 45.4079 36.1093 45.7492 36.728C46.1119 37.3467 46.6239 37.8267 47.2852 38.168C47.9466 38.488 48.7359 38.648 49.6532 38.648C50.5066 38.648 51.2319 38.5307 51.8293 38.296C52.4479 38.04 53.0559 37.656 53.6532 37.144L56.8533 40.472C56.0212 41.3893 54.9972 42.0933 53.7812 42.584C52.5652 43.0533 51.1252 43.288 49.4613 43.288ZM64.5205 49.496C63.6032 49.496 62.6752 49.3467 61.7365 49.048C60.8192 48.7707 60.0725 48.3973 59.4965 47.928L61.6085 43.672C61.9712 43.992 62.3872 44.2373 62.8565 44.408C63.3472 44.6 63.8272 44.696 64.2965 44.696C64.9578 44.696 65.4805 44.5467 65.8645 44.248C66.2485 43.9493 66.5792 43.48 66.8565 42.84L67.6565 40.824L68.1365 40.216L74.0245 25.656H79.8165L72.3285 43.704C71.7312 45.1973 71.0378 46.36 70.2485 47.192C69.4805 48.0453 68.6165 48.6427 67.6565 48.984C66.7178 49.3253 65.6725 49.496 64.5205 49.496ZM66.8885 43.736L59.2405 25.656H65.4805L71.1125 39.672L66.8885 43.736ZM80.3562 48.024L82.7562 39.704L83.6202 43.16C82.5536 43.16 81.6789 42.8507 80.9962 42.232C80.3136 41.592 79.9722 40.7387 79.9722 39.672C79.9722 38.5627 80.3136 37.688 80.9962 37.048C81.7002 36.408 82.5749 36.088 83.6202 36.088C84.6656 36.088 85.5296 36.4187 86.2122 37.08C86.8949 37.72 87.2362 38.584 87.2362 39.672C87.2362 39.9707 87.2149 40.2693 87.1722 40.568C87.1296 40.8667 87.0336 41.2293 86.8842 41.656C86.7349 42.0827 86.5002 42.648 86.1802 43.352L84.1642 48.024H80.3562ZM100.971 43V20.6H107.307V43H100.971ZM111.495 30.904L113.895 22.584L114.759 26.04C113.692 26.04 112.818 25.7307 112.135 25.112C111.452 24.472 111.111 23.6187 111.111 22.552C111.111 21.464 111.452 20.6 112.135 19.96C112.839 19.2987 113.714 18.968 114.759 18.968C115.804 18.968 116.668 19.2987 117.351 19.96C118.034 20.6 118.375 21.464 118.375 22.552C118.375 22.8507 118.354 23.16 118.311 23.48C118.268 23.7787 118.172 24.1413 118.023 24.568C117.895 24.9733 117.671 25.528 117.351 26.232L115.303 30.904H111.495ZM121.87 43V25.656H127.662V30.488L126.51 29.112C127.15 27.8747 128.024 26.9467 129.134 26.328C130.243 25.688 131.48 25.368 132.846 25.368C134.403 25.368 135.768 25.7733 136.942 26.584C138.136 27.3733 138.936 28.6107 139.342 30.296L137.358 29.88C137.976 28.472 138.904 27.3733 140.142 26.584C141.4 25.7733 142.84 25.368 144.462 25.368C145.806 25.368 147 25.6453 148.046 26.2C149.112 26.7333 149.944 27.5653 150.542 28.696C151.16 29.8267 151.47 31.288 151.47 33.08V43H145.39V34.072C145.39 32.8347 145.155 31.9387 144.686 31.384C144.216 30.808 143.576 30.52 142.766 30.52C142.19 30.52 141.667 30.6587 141.198 30.936C140.728 31.2133 140.366 31.64 140.11 32.216C139.854 32.7707 139.726 33.496 139.726 34.392V43H133.646V34.072C133.646 32.8347 133.411 31.9387 132.942 31.384C132.494 30.808 131.854 30.52 131.022 30.52C130.424 30.52 129.891 30.6587 129.422 30.936C128.974 31.2133 128.611 31.64 128.334 32.216C128.078 32.7707 127.95 33.496 127.95 34.392V43H121.87ZM174.059 43.448C172.225 43.448 170.454 43.224 168.747 42.776C167.062 42.3067 165.686 41.7093 164.619 40.984L166.699 36.312C167.702 36.952 168.854 37.4853 170.155 37.912C171.478 38.3173 172.79 38.52 174.091 38.52C174.966 38.52 175.67 38.4453 176.203 38.296C176.737 38.1253 177.121 37.912 177.355 37.656C177.611 37.3787 177.739 37.0587 177.739 36.696C177.739 36.184 177.505 35.7787 177.035 35.48C176.566 35.1813 175.958 34.936 175.211 34.744C174.465 34.552 173.633 34.36 172.715 34.168C171.819 33.976 170.913 33.7307 169.995 33.432C169.099 33.1333 168.278 32.7493 167.531 32.28C166.785 31.7893 166.177 31.16 165.707 30.392C165.238 29.6027 165.003 28.6107 165.003 27.416C165.003 26.072 165.366 24.856 166.091 23.768C166.838 22.68 167.947 21.8053 169.419 21.144C170.891 20.4827 172.726 20.152 174.923 20.152C176.395 20.152 177.835 20.3227 179.243 20.664C180.673 20.984 181.942 21.464 183.051 22.104L181.099 26.808C180.033 26.232 178.977 25.8053 177.931 25.528C176.886 25.2293 175.873 25.08 174.891 25.08C174.017 25.08 173.313 25.176 172.779 25.368C172.246 25.5387 171.862 25.7733 171.627 26.072C171.393 26.3707 171.275 26.712 171.275 27.096C171.275 27.5867 171.499 27.9813 171.947 28.28C172.417 28.5573 173.025 28.792 173.771 28.984C174.539 29.1547 175.371 29.336 176.267 29.528C177.185 29.72 178.091 29.9653 178.987 30.264C179.905 30.5413 180.737 30.9253 181.483 31.416C182.23 31.8853 182.827 32.5147 183.275 33.304C183.745 34.072 183.979 35.0427 183.979 36.216C183.979 37.5173 183.606 38.7227 182.859 39.832C182.134 40.92 181.035 41.7947 179.563 42.456C178.113 43.1173 176.278 43.448 174.059 43.448ZM197.85 43V39.768L197.434 38.968V33.016C197.434 32.056 197.136 31.32 196.538 30.808C195.962 30.2747 195.034 30.008 193.754 30.008C192.922 30.008 192.08 30.1467 191.226 30.424C190.373 30.68 189.648 31.0427 189.05 31.512L187.002 27.384C187.984 26.744 189.157 26.2533 190.522 25.912C191.909 25.5493 193.285 25.368 194.65 25.368C197.466 25.368 199.642 26.0187 201.178 27.32C202.736 28.6 203.514 30.616 203.514 33.368V43H197.85ZM192.73 43.288C191.344 43.288 190.17 43.0533 189.21 42.584C188.25 42.1147 187.514 41.4747 187.002 40.664C186.512 39.8533 186.266 38.9467 186.266 37.944C186.266 36.8773 186.533 35.96 187.066 35.192C187.621 34.4027 188.464 33.8053 189.594 33.4C190.725 32.9733 192.186 32.76 193.978 32.76H198.074V35.928H194.81C193.829 35.928 193.136 36.088 192.73 36.408C192.346 36.728 192.154 37.1547 192.154 37.688C192.154 38.2213 192.357 38.648 192.762 38.968C193.168 39.288 193.722 39.448 194.426 39.448C195.088 39.448 195.685 39.288 196.218 38.968C196.773 38.6267 197.178 38.1147 197.434 37.432L198.266 39.672C197.946 40.8667 197.317 41.7733 196.378 42.392C195.461 42.9893 194.245 43.288 192.73 43.288ZM218.904 43.288C217.347 43.288 216.045 42.968 215 42.328C213.976 41.688 213.208 40.7067 212.696 39.384C212.184 38.0613 211.928 36.3653 211.928 34.296C211.928 32.2693 212.195 30.5947 212.728 29.272C213.283 27.9493 214.083 26.968 215.128 26.328C216.173 25.688 217.432 25.368 218.904 25.368C220.483 25.368 221.912 25.7307 223.192 26.456C224.493 27.1813 225.517 28.216 226.264 29.56C227.032 30.8827 227.416 32.4613 227.416 34.296C227.416 36.152 227.032 37.752 226.264 39.096C225.517 40.4187 224.493 41.4533 223.192 42.2C221.912 42.9253 220.483 43.288 218.904 43.288ZM207.992 43V19.256H214.072V28.568L213.752 34.296L213.784 40.024V43H207.992ZM217.624 38.456C218.307 38.456 218.915 38.296 219.448 37.976C220.003 37.656 220.44 37.1867 220.76 36.568C221.101 35.928 221.272 35.1707 221.272 34.296C221.272 33.4213 221.101 32.6853 220.76 32.088C220.44 31.4693 220.003 31 219.448 30.68C218.915 30.36 218.307 30.2 217.624 30.2C216.941 30.2 216.323 30.36 215.768 30.68C215.235 31 214.797 31.4693 214.456 32.088C214.136 32.6853 213.976 33.4213 213.976 34.296C213.976 35.1707 214.136 35.928 214.456 36.568C214.797 37.1867 215.235 37.656 215.768 37.976C216.323 38.296 216.941 38.456 217.624 38.456ZM233.389 49.496C232.472 49.496 231.544 49.3467 230.605 49.048C229.688 48.7707 228.941 48.3973 228.365 47.928L230.477 43.672C230.84 43.992 231.256 44.2373 231.725 44.408C232.216 44.6 232.696 44.696 233.165 44.696C233.827 44.696 234.349 44.5467 234.733 44.248C235.117 43.9493 235.448 43.48 235.725 42.84L236.525 40.824L237.005 40.216L242.893 25.656H248.685L241.197 43.704C240.6 45.1973 239.907 46.36 239.117 47.192C238.349 48.0453 237.485 48.6427 236.525 48.984C235.587 49.3253 234.541 49.496 233.389 49.496ZM235.757 43.736L228.109 25.656H234.349L239.981 39.672L235.757 43.736ZM250.897 43V25.656H256.689V30.712L255.825 29.272C256.337 27.9707 257.169 27 258.321 26.36C259.473 25.6987 260.87 25.368 262.513 25.368V30.84C262.236 30.7973 261.99 30.776 261.777 30.776C261.585 30.7547 261.372 30.744 261.137 30.744C259.9 30.744 258.897 31.0853 258.129 31.768C257.361 32.4293 256.977 33.5173 256.977 35.032V43H250.897ZM270.718 39.8L270.878 32.536L277.95 25.656H285.15L277.31 33.752L274.206 36.248L270.718 39.8ZM265.662 43V19.256H271.742V43H265.662ZM278.398 43L273.086 36.344L276.862 31.672L285.758 43H278.398ZM298.238 43V39.768L297.822 38.968V33.016C297.822 32.056 297.523 31.32 296.926 30.808C296.35 30.2747 295.422 30.008 294.142 30.008C293.31 30.008 292.467 30.1467 291.614 30.424C290.76 30.68 290.035 31.0427 289.438 31.512L287.39 27.384C288.371 26.744 289.544 26.2533 290.91 25.912C292.296 25.5493 293.672 25.368 295.038 25.368C297.854 25.368 300.03 26.0187 301.566 27.32C303.123 28.6 303.902 30.616 303.902 33.368V43H298.238ZM293.118 43.288C291.731 43.288 290.558 43.0533 289.598 42.584C288.638 42.1147 287.902 41.4747 287.39 40.664C286.899 39.8533 286.654 38.9467 286.654 37.944C286.654 36.8773 286.92 35.96 287.454 35.192C288.008 34.4027 288.851 33.8053 289.982 33.4C291.112 32.9733 292.574 32.76 294.366 32.76H298.462V35.928H295.198C294.216 35.928 293.523 36.088 293.118 36.408C292.734 36.728 292.542 37.1547 292.542 37.688C292.542 38.2213 292.744 38.648 293.15 38.968C293.555 39.288 294.11 39.448 294.814 39.448C295.475 39.448 296.072 39.288 296.606 38.968C297.16 38.6267 297.566 38.1147 297.822 37.432L298.654 39.672C298.334 40.8667 297.704 41.7733 296.766 42.392C295.848 42.9893 294.632 43.288 293.118 43.288Z" fill="white"/>
<path d="M12.94 70V63H18.05V64.09H14.24V70H12.94ZM14.13 67.32V66.22H17.62V67.32H14.13ZM19.2895 70V64.66H20.4795V66.13L20.3395 65.7C20.4995 65.34 20.7495 65.0667 21.0895 64.88C21.4362 64.6933 21.8662 64.6 22.3795 64.6V65.79C22.3262 65.7767 22.2762 65.77 22.2295 65.77C22.1829 65.7633 22.1362 65.76 22.0895 65.76C21.6162 65.76 21.2395 65.9 20.9595 66.18C20.6795 66.4533 20.5395 66.8633 20.5395 67.41V70H19.2895ZM25.9911 70.07C25.4444 70.07 24.9578 69.9533 24.5311 69.72C24.1044 69.48 23.7678 69.1533 23.5211 68.74C23.2744 68.3267 23.1511 67.8567 23.1511 67.33C23.1511 66.7967 23.2744 66.3267 23.5211 65.92C23.7678 65.5067 24.1044 65.1833 24.5311 64.95C24.9578 64.7167 25.4444 64.6 25.9911 64.6C26.5444 64.6 27.0344 64.7167 27.4611 64.95C27.8944 65.1833 28.2311 65.5033 28.4711 65.91C28.7178 66.3167 28.8411 66.79 28.8411 67.33C28.8411 67.8567 28.7178 68.3267 28.4711 68.74C28.2311 69.1533 27.8944 69.48 27.4611 69.72C27.0344 69.9533 26.5444 70.07 25.9911 70.07ZM25.9911 69C26.2978 69 26.5711 68.9333 26.8111 68.8C27.0511 68.6667 27.2378 68.4733 27.3711 68.22C27.5111 67.9667 27.5811 67.67 27.5811 67.33C27.5811 66.9833 27.5111 66.6867 27.3711 66.44C27.2378 66.1867 27.0511 65.9933 26.8111 65.86C26.5711 65.7267 26.3011 65.66 26.0011 65.66C25.6944 65.66 25.4211 65.7267 25.1811 65.86C24.9478 65.9933 24.7611 66.1867 24.6211 66.44C24.4811 66.6867 24.4111 66.9833 24.4111 67.33C24.4111 67.67 24.4811 67.9667 24.6211 68.22C24.7611 68.4733 24.9478 68.6667 25.1811 68.8C25.4211 68.9333 25.6911 69 25.9911 69ZM30.2364 70V64.66H31.4264V66.1L31.2164 65.66C31.4031 65.32 31.6731 65.06 32.0264 64.88C32.3864 64.6933 32.7997 64.6 33.2664 64.6C33.6931 64.6 34.0731 64.6833 34.4064 64.85C34.7464 65.0167 35.0131 65.2733 35.2064 65.62C35.3997 65.96 35.4964 66.4 35.4964 66.94V70H34.2464V67.1C34.2464 66.6267 34.1331 66.2733 33.9064 66.04C33.6864 65.8067 33.3764 65.69 32.9764 65.69C32.6831 65.69 32.4231 65.75 32.1964 65.87C31.9697 65.99 31.7931 66.17 31.6664 66.41C31.5464 66.6433 31.4864 66.94 31.4864 67.3V70H30.2364ZM39.2921 70.07C38.7054 70.07 38.2521 69.92 37.9321 69.62C37.6121 69.3133 37.4521 68.8633 37.4521 68.27V63.48H38.7021V68.24C38.7021 68.4933 38.7654 68.69 38.8921 68.83C39.0254 68.97 39.2088 69.04 39.4421 69.04C39.7221 69.04 39.9554 68.9667 40.1421 68.82L40.4921 69.71C40.3454 69.83 40.1654 69.92 39.9521 69.98C39.7388 70.04 39.5188 70.07 39.2921 70.07ZM36.5721 65.66V64.66H40.1321V65.66H36.5721ZM44.0546 70.07C43.4613 70.07 42.9413 69.9533 42.4946 69.72C42.0546 69.48 41.7113 69.1533 41.4646 68.74C41.2246 68.3267 41.1046 67.8567 41.1046 67.33C41.1046 66.7967 41.2213 66.3267 41.4546 65.92C41.6946 65.5067 42.0213 65.1833 42.4346 64.95C42.8546 64.7167 43.3313 64.6 43.8646 64.6C44.3846 64.6 44.8479 64.7133 45.2546 64.94C45.6613 65.1667 45.9813 65.4867 46.2146 65.9C46.4479 66.3133 46.5646 66.8 46.5646 67.36C46.5646 67.4133 46.5613 67.4733 46.5546 67.54C46.5546 67.6067 46.5513 67.67 46.5446 67.73H42.0946V66.9H45.8846L45.3946 67.16C45.4013 66.8533 45.3379 66.5833 45.2046 66.35C45.0713 66.1167 44.8879 65.9333 44.6546 65.8C44.4279 65.6667 44.1646 65.6 43.8646 65.6C43.5579 65.6 43.2879 65.6667 43.0546 65.8C42.8279 65.9333 42.6479 66.12 42.5146 66.36C42.3879 66.5933 42.3246 66.87 42.3246 67.19V67.39C42.3246 67.71 42.3979 67.9933 42.5446 68.24C42.6913 68.4867 42.8979 68.6767 43.1646 68.81C43.4313 68.9433 43.7379 69.01 44.0846 69.01C44.3846 69.01 44.6546 68.9633 44.8946 68.87C45.1346 68.7767 45.3479 68.63 45.5346 68.43L46.2046 69.2C45.9646 69.48 45.6613 69.6967 45.2946 69.85C44.9346 69.9967 44.5213 70.07 44.0546 70.07ZM47.9653 70V64.66H49.1553V66.1L48.9453 65.66C49.132 65.32 49.402 65.06 49.7553 64.88C50.1153 64.6933 50.5286 64.6 50.9953 64.6C51.422 64.6 51.802 64.6833 52.1353 64.85C52.4753 65.0167 52.742 65.2733 52.9353 65.62C53.1286 65.96 53.2253 66.4 53.2253 66.94V70H51.9753V67.1C51.9753 66.6267 51.862 66.2733 51.6353 66.04C51.4153 65.8067 51.1053 65.69 50.7053 65.69C50.412 65.69 50.152 65.75 49.9253 65.87C49.6986 65.99 49.522 66.17 49.3953 66.41C49.2753 66.6433 49.2153 66.94 49.2153 67.3V70H47.9653ZM57.2808 70.07C56.7674 70.07 56.3041 69.9567 55.8908 69.73C55.4841 69.4967 55.1641 69.1767 54.9308 68.77C54.6974 68.3633 54.5808 67.8833 54.5808 67.33C54.5808 66.7767 54.6974 66.2967 54.9308 65.89C55.1641 65.4833 55.4841 65.1667 55.8908 64.94C56.3041 64.7133 56.7674 64.6 57.2808 64.6C57.7274 64.6 58.1274 64.7 58.4808 64.9C58.8341 65.0933 59.1141 65.39 59.3208 65.79C59.5274 66.19 59.6308 66.7033 59.6308 67.33C59.6308 67.95 59.5308 68.4633 59.3308 68.87C59.1308 69.27 58.8541 69.57 58.5008 69.77C58.1474 69.97 57.7408 70.07 57.2808 70.07ZM57.4308 69C57.7308 69 57.9974 68.9333 58.2308 68.8C58.4708 68.6667 58.6608 68.4733 58.8008 68.22C58.9474 67.9667 59.0208 67.67 59.0208 67.33C59.0208 66.9833 58.9474 66.6867 58.8008 66.44C58.6608 66.1867 58.4708 65.9933 58.2308 65.86C57.9974 65.7267 57.7308 65.66 57.4308 65.66C57.1308 65.66 56.8608 65.7267 56.6208 65.86C56.3874 65.9933 56.1974 66.1867 56.0508 66.44C55.9108 66.6867 55.8408 66.9833 55.8408 67.33C55.8408 67.67 55.9108 67.9667 56.0508 68.22C56.1974 68.4733 56.3874 68.6667 56.6208 68.8C56.8608 68.9333 57.1308 69 57.4308 69ZM59.0508 70V68.74L59.1008 67.32L59.0008 65.9V62.58H60.2408V70H59.0508ZM70.4197 70.11L66.4197 66.27C66.193 66.05 66.0097 65.8467 65.8697 65.66C65.7297 65.4733 65.6297 65.2933 65.5697 65.12C65.5097 64.94 65.4797 64.7567 65.4797 64.57C65.4797 64.2433 65.563 63.9567 65.7297 63.71C65.8964 63.4567 66.133 63.2633 66.4397 63.13C66.7464 62.99 67.103 62.92 67.5097 62.92C67.8897 62.92 68.2164 62.9833 68.4897 63.11C68.7697 63.23 68.9864 63.4067 69.1397 63.64C69.2997 63.8667 69.3797 64.14 69.3797 64.46C69.3797 64.74 69.3097 65 69.1697 65.24C69.0297 65.4733 68.8097 65.6967 68.5097 65.91C68.2164 66.1233 67.823 66.3467 67.3297 66.58C66.963 66.76 66.673 66.93 66.4597 67.09C66.2464 67.25 66.093 67.41 65.9997 67.57C65.9064 67.73 65.8597 67.9067 65.8597 68.1C65.8597 68.2933 65.9164 68.4633 66.0297 68.61C66.1497 68.7567 66.3164 68.8733 66.5297 68.96C66.743 69.04 66.993 69.08 67.2797 69.08C67.7064 69.08 68.093 68.9867 68.4397 68.8C68.793 68.6067 69.0897 68.32 69.3297 67.94C69.5697 67.56 69.743 67.09 69.8497 66.53L70.8597 66.86C70.7197 67.5333 70.4764 68.1133 70.1297 68.6C69.7897 69.08 69.3697 69.45 68.8697 69.71C68.3697 69.97 67.8097 70.1 67.1897 70.1C66.703 70.1 66.2664 70.02 65.8797 69.86C65.493 69.7 65.1897 69.48 64.9697 69.2C64.7497 68.92 64.6397 68.5967 64.6397 68.23C64.6397 67.8967 64.713 67.5967 64.8597 67.33C65.0064 67.0633 65.2397 66.81 65.5597 66.57C65.8797 66.3233 66.2897 66.0767 66.7897 65.83C67.183 65.6367 67.4897 65.4667 67.7097 65.32C67.9364 65.1733 68.093 65.0333 68.1797 64.9C68.273 64.7667 68.3197 64.6267 68.3197 64.48C68.3197 64.28 68.2497 64.12 68.1097 64C67.9697 63.8733 67.7697 63.81 67.5097 63.81C67.2297 63.81 67.0097 63.88 66.8497 64.02C66.6964 64.1533 66.6197 64.33 66.6197 64.55C66.6197 64.6633 66.6397 64.7733 66.6797 64.88C66.7264 64.9867 66.8064 65.1067 66.9197 65.24C67.033 65.3733 67.1964 65.5433 67.4097 65.75L71.1097 69.3L70.4197 70.11ZM78.4039 70.1C77.4439 70.1 76.6906 69.83 76.1439 69.29C75.6039 68.75 75.3339 67.97 75.3339 66.95V63H76.6339V66.9C76.6339 67.62 76.7872 68.1433 77.0939 68.47C77.4072 68.7967 77.8472 68.96 78.4139 68.96C78.9806 68.96 79.4172 68.7967 79.7239 68.47C80.0306 68.1433 80.1839 67.62 80.1839 66.9V63H81.4639V66.95C81.4639 67.97 81.1906 68.75 80.6439 69.29C80.1039 69.83 79.3572 70.1 78.4039 70.1ZM83.4845 70V63H84.7845V70H83.4845ZM89.8416 70V63H92.9016C93.6616 63 94.3282 63.1467 94.9016 63.44C95.4749 63.7333 95.9216 64.14 96.2416 64.66C96.5616 65.18 96.7216 65.7933 96.7216 66.5C96.7216 67.2 96.5616 67.8133 96.2416 68.34C95.9216 68.86 95.4749 69.2667 94.9016 69.56C94.3282 69.8533 93.6616 70 92.9016 70H89.8416ZM91.1416 68.9H92.8416C93.3616 68.9 93.8149 68.8 94.2016 68.6C94.5882 68.4 94.8849 68.12 95.0916 67.76C95.3049 67.4 95.4116 66.98 95.4116 66.5C95.4116 66.0133 95.3049 65.5933 95.0916 65.24C94.8849 64.88 94.5882 64.6 94.2016 64.4C93.8149 64.2 93.3616 64.1 92.8416 64.1H91.1416V68.9ZM100.693 70.07C100.1 70.07 99.5799 69.9533 99.1333 69.72C98.6933 69.48 98.3499 69.1533 98.1033 68.74C97.8633 68.3267 97.7433 67.8567 97.7433 67.33C97.7433 66.7967 97.8599 66.3267 98.0933 65.92C98.3333 65.5067 98.6599 65.1833 99.0733 64.95C99.4933 64.7167 99.9699 64.6 100.503 64.6C101.023 64.6 101.487 64.7133 101.893 64.94C102.3 65.1667 102.62 65.4867 102.853 65.9C103.087 66.3133 103.203 66.8 103.203 67.36C103.203 67.4133 103.2 67.4733 103.193 67.54C103.193 67.6067 103.19 67.67 103.183 67.73H98.7333V66.9H102.523L102.033 67.16C102.04 66.8533 101.977 66.5833 101.843 66.35C101.71 66.1167 101.527 65.9333 101.293 65.8C101.067 65.6667 100.803 65.6 100.503 65.6C100.197 65.6 99.9266 65.6667 99.6933 65.8C99.4666 65.9333 99.2866 66.12 99.1533 66.36C99.0266 66.5933 98.9633 66.87 98.9633 67.19V67.39C98.9633 67.71 99.0366 67.9933 99.1833 68.24C99.3299 68.4867 99.5366 68.6767 99.8033 68.81C100.07 68.9433 100.377 69.01 100.723 69.01C101.023 69.01 101.293 68.9633 101.533 68.87C101.773 68.7767 101.987 68.63 102.173 68.43L102.843 69.2C102.603 69.48 102.3 69.6967 101.933 69.85C101.573 69.9967 101.16 70.07 100.693 70.07ZM105.926 70L103.636 64.66H104.936L106.906 69.37H106.266L108.306 64.66H109.506L107.216 70H105.926ZM112.851 70.07C112.258 70.07 111.738 69.9533 111.291 69.72C110.851 69.48 110.508 69.1533 110.261 68.74C110.021 68.3267 109.901 67.8567 109.901 67.33C109.901 66.7967 110.018 66.3267 110.251 65.92C110.491 65.5067 110.818 65.1833 111.231 64.95C111.651 64.7167 112.128 64.6 112.661 64.6C113.181 64.6 113.644 64.7133 114.051 64.94C114.458 65.1667 114.778 65.4867 115.011 65.9C115.244 66.3133 115.361 66.8 115.361 67.36C115.361 67.4133 115.358 67.4733 115.351 67.54C115.351 67.6067 115.348 67.67 115.341 67.73H110.891V66.9H114.681L114.191 67.16C114.198 66.8533 114.134 66.5833 114.001 66.35C113.868 66.1167 113.684 65.9333 113.451 65.8C113.224 65.6667 112.961 65.6 112.661 65.6C112.354 65.6 112.084 65.6667 111.851 65.8C111.624 65.9333 111.444 66.12 111.311 66.36C111.184 66.5933 111.121 66.87 111.121 67.19V67.39C111.121 67.71 111.194 67.9933 111.341 68.24C111.488 68.4867 111.694 68.6767 111.961 68.81C112.228 68.9433 112.534 69.01 112.881 69.01C113.181 69.01 113.451 68.9633 113.691 68.87C113.931 68.7767 114.144 68.63 114.331 68.43L115.001 69.2C114.761 69.48 114.458 69.6967 114.091 69.85C113.731 69.9967 113.318 70.07 112.851 70.07ZM116.762 70V62.58H118.012V70H116.762ZM122.252 70.07C121.706 70.07 121.219 69.9533 120.792 69.72C120.366 69.48 120.029 69.1533 119.782 68.74C119.536 68.3267 119.412 67.8567 119.412 67.33C119.412 66.7967 119.536 66.3267 119.782 65.92C120.029 65.5067 120.366 65.1833 120.792 64.95C121.219 64.7167 121.706 64.6 122.252 64.6C122.806 64.6 123.296 64.7167 123.722 64.95C124.156 65.1833 124.492 65.5033 124.732 65.91C124.979 66.3167 125.102 66.79 125.102 67.33C125.102 67.8567 124.979 68.3267 124.732 68.74C124.492 69.1533 124.156 69.48 123.722 69.72C123.296 69.9533 122.806 70.07 122.252 70.07ZM122.252 69C122.559 69 122.832 68.9333 123.072 68.8C123.312 68.6667 123.499 68.4733 123.632 68.22C123.772 67.9667 123.842 67.67 123.842 67.33C123.842 66.9833 123.772 66.6867 123.632 66.44C123.499 66.1867 123.312 65.9933 123.072 65.86C122.832 65.7267 122.562 65.66 122.262 65.66C121.956 65.66 121.682 65.7267 121.442 65.86C121.209 65.9933 121.022 66.1867 120.882 66.44C120.742 66.6867 120.672 66.9833 120.672 67.33C120.672 67.67 120.742 67.9667 120.882 68.22C121.022 68.4733 121.209 68.6667 121.442 68.8C121.682 68.9333 121.952 69 122.252 69ZM129.458 70.07C129.024 70.07 128.628 69.97 128.268 69.77C127.914 69.57 127.631 69.27 127.418 68.87C127.211 68.4633 127.108 67.95 127.108 67.33C127.108 66.7033 127.208 66.19 127.408 65.79C127.614 65.39 127.894 65.0933 128.248 64.9C128.601 64.7 129.004 64.6 129.458 64.6C129.984 64.6 130.448 64.7133 130.848 64.94C131.254 65.1667 131.574 65.4833 131.808 65.89C132.048 66.2967 132.168 66.7767 132.168 67.33C132.168 67.8833 132.048 68.3667 131.808 68.78C131.574 69.1867 131.254 69.5033 130.848 69.73C130.448 69.9567 129.984 70.07 129.458 70.07ZM126.498 71.94V64.66H127.688V65.92L127.648 67.34L127.748 68.76V71.94H126.498ZM129.318 69C129.618 69 129.884 68.9333 130.118 68.8C130.358 68.6667 130.548 68.4733 130.688 68.22C130.828 67.9667 130.898 67.67 130.898 67.33C130.898 66.9833 130.828 66.6867 130.688 66.44C130.548 66.1867 130.358 65.9933 130.118 65.86C129.884 65.7267 129.618 65.66 129.318 65.66C129.018 65.66 128.748 65.7267 128.508 65.86C128.268 65.9933 128.078 66.1867 127.938 66.44C127.798 66.6867 127.728 66.9833 127.728 67.33C127.728 67.67 127.798 67.9667 127.938 68.22C128.078 68.4733 128.268 68.6667 128.508 68.8C128.748 68.9333 129.018 69 129.318 69ZM136.063 70.07C135.47 70.07 134.95 69.9533 134.503 69.72C134.063 69.48 133.72 69.1533 133.473 68.74C133.233 68.3267 133.113 67.8567 133.113 67.33C133.113 66.7967 133.23 66.3267 133.463 65.92C133.703 65.5067 134.03 65.1833 134.443 64.95C134.863 64.7167 135.34 64.6 135.873 64.6C136.393 64.6 136.857 64.7133 137.263 64.94C137.67 65.1667 137.99 65.4867 138.223 65.9C138.457 66.3133 138.573 66.8 138.573 67.36C138.573 67.4133 138.57 67.4733 138.563 67.54C138.563 67.6067 138.56 67.67 138.553 67.73H134.103V66.9H137.893L137.403 67.16C137.41 66.8533 137.347 66.5833 137.213 66.35C137.08 66.1167 136.897 65.9333 136.663 65.8C136.437 65.6667 136.173 65.6 135.873 65.6C135.567 65.6 135.297 65.6667 135.063 65.8C134.837 65.9333 134.657 66.12 134.523 66.36C134.397 66.5933 134.333 66.87 134.333 67.19V67.39C134.333 67.71 134.407 67.9933 134.553 68.24C134.7 68.4867 134.907 68.6767 135.173 68.81C135.44 68.9433 135.747 69.01 136.093 69.01C136.393 69.01 136.663 68.9633 136.903 68.87C137.143 68.7767 137.357 68.63 137.543 68.43L138.213 69.2C137.973 69.48 137.67 69.6967 137.303 69.85C136.943 69.9967 136.53 70.07 136.063 70.07ZM139.974 70V64.66H141.164V66.13L141.024 65.7C141.184 65.34 141.434 65.0667 141.774 64.88C142.121 64.6933 142.551 64.6 143.064 64.6V65.79C143.011 65.7767 142.961 65.77 142.914 65.77C142.867 65.7633 142.821 65.76 142.774 65.76C142.301 65.76 141.924 65.9 141.644 66.18C141.364 66.4533 141.224 66.8633 141.224 67.41V70H139.974ZM147.507 70V64.36C147.507 63.8 147.67 63.3533 147.997 63.02C148.33 62.68 148.803 62.51 149.417 62.51C149.637 62.51 149.843 62.5333 150.037 62.58C150.237 62.6267 150.403 62.7 150.537 62.8L150.197 63.74C150.103 63.6667 149.997 63.6133 149.877 63.58C149.757 63.54 149.633 63.52 149.507 63.52C149.247 63.52 149.05 63.5933 148.917 63.74C148.783 63.88 148.717 64.0933 148.717 64.38V64.98L148.757 65.54V70H147.507ZM146.627 65.7V64.7H150.187V65.7H146.627ZM151.228 70V64.66H152.418V66.13L152.278 65.7C152.438 65.34 152.688 65.0667 153.028 64.88C153.375 64.6933 153.805 64.6 154.318 64.6V65.79C154.265 65.7767 154.215 65.77 154.168 65.77C154.122 65.7633 154.075 65.76 154.028 65.76C153.555 65.76 153.178 65.9 152.898 66.18C152.618 66.4533 152.478 66.8633 152.478 67.41V70H151.228ZM157.93 70.07C157.383 70.07 156.896 69.9533 156.47 69.72C156.043 69.48 155.706 69.1533 155.46 68.74C155.213 68.3267 155.09 67.8567 155.09 67.33C155.09 66.7967 155.213 66.3267 155.46 65.92C155.706 65.5067 156.043 65.1833 156.47 64.95C156.896 64.7167 157.383 64.6 157.93 64.6C158.483 64.6 158.973 64.7167 159.4 64.95C159.833 65.1833 160.17 65.5033 160.41 65.91C160.656 66.3167 160.78 66.79 160.78 67.33C160.78 67.8567 160.656 68.3267 160.41 68.74C160.17 69.1533 159.833 69.48 159.4 69.72C158.973 69.9533 158.483 70.07 157.93 70.07ZM157.93 69C158.236 69 158.51 68.9333 158.75 68.8C158.99 68.6667 159.176 68.4733 159.31 68.22C159.45 67.9667 159.52 67.67 159.52 67.33C159.52 66.9833 159.45 66.6867 159.31 66.44C159.176 66.1867 158.99 65.9933 158.75 65.86C158.51 65.7267 158.24 65.66 157.94 65.66C157.633 65.66 157.36 65.7267 157.12 65.86C156.886 65.9933 156.7 66.1867 156.56 66.44C156.42 66.6867 156.35 66.9833 156.35 67.33C156.35 67.67 156.42 67.9667 156.56 68.22C156.7 68.4733 156.886 68.6667 157.12 68.8C157.36 68.9333 157.63 69 157.93 69ZM162.175 70V64.66H163.365V66.08L163.155 65.66C163.335 65.3133 163.595 65.05 163.935 64.87C164.282 64.69 164.675 64.6 165.115 64.6C165.615 64.6 166.048 64.7233 166.415 64.97C166.788 65.2167 167.035 65.59 167.155 66.09L166.665 65.92C166.838 65.52 167.125 65.2 167.525 64.96C167.925 64.72 168.388 64.6 168.915 64.6C169.342 64.6 169.718 64.6833 170.045 64.85C170.378 65.0167 170.638 65.2733 170.825 65.62C171.012 65.96 171.105 66.4 171.105 66.94V70H169.855V67.1C169.855 66.6267 169.752 66.2733 169.545 66.04C169.338 65.8067 169.042 65.69 168.655 65.69C168.382 65.69 168.138 65.75 167.925 65.87C167.718 65.99 167.555 66.1667 167.435 66.4C167.322 66.6333 167.265 66.93 167.265 67.29V70H166.015V67.1C166.015 66.6267 165.912 66.2733 165.705 66.04C165.498 65.8067 165.202 65.69 164.815 65.69C164.542 65.69 164.298 65.75 164.085 65.87C163.878 65.99 163.715 66.1667 163.595 66.4C163.482 66.6333 163.425 66.93 163.425 67.29V70H162.175ZM177.146 68.35L177.076 66.81L180.746 63H182.206L179.156 66.24L178.436 67.03L177.146 68.35ZM175.986 70V63H177.286V70H175.986ZM180.866 70L178.186 66.81L179.046 65.86L182.386 70H180.866ZM186.514 70V68.92L186.444 68.69V66.8C186.444 66.4333 186.334 66.15 186.114 65.95C185.894 65.7433 185.561 65.64 185.114 65.64C184.814 65.64 184.518 65.6867 184.224 65.78C183.938 65.8733 183.694 66.0033 183.494 66.17L183.004 65.26C183.291 65.04 183.631 64.8767 184.024 64.77C184.424 64.6567 184.838 64.6 185.264 64.6C186.038 64.6 186.634 64.7867 187.054 65.16C187.481 65.5267 187.694 66.0967 187.694 66.87V70H186.514ZM184.834 70.07C184.434 70.07 184.084 70.0033 183.784 69.87C183.484 69.73 183.251 69.54 183.084 69.3C182.924 69.0533 182.844 68.7767 182.844 68.47C182.844 68.17 182.914 67.9 183.054 67.66C183.201 67.42 183.438 67.23 183.764 67.09C184.091 66.95 184.524 66.88 185.064 66.88H186.614V67.71H185.154C184.728 67.71 184.441 67.78 184.294 67.92C184.148 68.0533 184.074 68.22 184.074 68.42C184.074 68.6467 184.164 68.8267 184.344 68.96C184.524 69.0933 184.774 69.16 185.094 69.16C185.401 69.16 185.674 69.09 185.914 68.95C186.161 68.81 186.338 68.6033 186.444 68.33L186.654 69.08C186.534 69.3933 186.318 69.6367 186.004 69.81C185.698 69.9833 185.308 70.07 184.834 70.07ZM189.059 70V69.21L192.349 65.23L192.579 65.66H189.119V64.66H193.579V65.45L190.289 69.43L190.039 69H193.669V70H189.059ZM198.311 70V68.92L198.241 68.69V66.8C198.241 66.4333 198.131 66.15 197.911 65.95C197.691 65.7433 197.357 65.64 196.911 65.64C196.611 65.64 196.314 65.6867 196.021 65.78C195.734 65.8733 195.491 66.0033 195.291 66.17L194.801 65.26C195.087 65.04 195.427 64.8767 195.821 64.77C196.221 64.6567 196.634 64.6 197.061 64.6C197.834 64.6 198.431 64.7867 198.851 65.16C199.277 65.5267 199.491 66.0967 199.491 66.87V70H198.311ZM196.631 70.07C196.231 70.07 195.881 70.0033 195.581 69.87C195.281 69.73 195.047 69.54 194.881 69.3C194.721 69.0533 194.641 68.7767 194.641 68.47C194.641 68.17 194.711 67.9 194.851 67.66C194.997 67.42 195.234 67.23 195.561 67.09C195.887 66.95 196.321 66.88 196.861 66.88H198.411V67.71H196.951C196.524 67.71 196.237 67.78 196.091 67.92C195.944 68.0533 195.871 68.22 195.871 68.42C195.871 68.6467 195.961 68.8267 196.141 68.96C196.321 69.0933 196.571 69.16 196.891 69.16C197.197 69.16 197.471 69.09 197.711 68.95C197.957 68.81 198.134 68.6033 198.241 68.33L198.451 69.08C198.331 69.3933 198.114 69.6367 197.801 69.81C197.494 69.9833 197.104 70.07 196.631 70.07ZM202.315 68.81L202.345 67.24L205.135 64.66H206.635L204.265 67.04L203.605 67.59L202.315 68.81ZM201.295 70V62.58H202.545V70H201.295ZM205.325 70L203.375 67.59L204.165 66.59L206.845 70H205.325ZM207.843 70V62.58H209.093V66.1L208.823 65.66C209.009 65.32 209.279 65.06 209.633 64.88C209.993 64.6933 210.406 64.6 210.873 64.6C211.299 64.6 211.679 64.6833 212.013 64.85C212.353 65.0167 212.619 65.2733 212.813 65.62C213.006 65.96 213.103 66.4 213.103 66.94V70H211.853V67.1C211.853 66.6267 211.739 66.2733 211.513 66.04C211.293 65.8067 210.983 65.69 210.583 65.69C210.289 65.69 210.029 65.75 209.803 65.87C209.576 65.99 209.399 66.17 209.273 66.41C209.153 66.6433 209.093 66.94 209.093 67.3V70H207.843ZM216.538 70.07C216.092 70.07 215.662 70.0133 215.248 69.9C214.842 69.78 214.518 69.6367 214.278 69.47L214.758 68.52C214.998 68.6733 215.285 68.8 215.618 68.9C215.952 69 216.285 69.05 216.618 69.05C217.012 69.05 217.295 68.9967 217.468 68.89C217.648 68.7833 217.738 68.64 217.738 68.46C217.738 68.3133 217.678 68.2033 217.558 68.13C217.438 68.05 217.282 67.99 217.088 67.95C216.895 67.91 216.678 67.8733 216.438 67.84C216.205 67.8067 215.968 67.7633 215.728 67.71C215.495 67.65 215.282 67.5667 215.088 67.46C214.895 67.3467 214.738 67.1967 214.618 67.01C214.498 66.8233 214.438 66.5767 214.438 66.27C214.438 65.93 214.535 65.6367 214.728 65.39C214.922 65.1367 215.192 64.9433 215.538 64.81C215.892 64.67 216.308 64.6 216.788 64.6C217.148 64.6 217.512 64.64 217.878 64.72C218.245 64.8 218.548 64.9133 218.788 65.06L218.308 66.01C218.055 65.8567 217.798 65.7533 217.538 65.7C217.285 65.64 217.032 65.61 216.778 65.61C216.398 65.61 216.115 65.6667 215.928 65.78C215.748 65.8933 215.658 66.0367 215.658 66.21C215.658 66.37 215.718 66.49 215.838 66.57C215.958 66.65 216.115 66.7133 216.308 66.76C216.502 66.8067 216.715 66.8467 216.948 66.88C217.188 66.9067 217.425 66.95 217.658 67.01C217.892 67.07 218.105 67.1533 218.298 67.26C218.498 67.36 218.658 67.5033 218.778 67.69C218.898 67.8767 218.958 68.12 218.958 68.42C218.958 68.7533 218.858 69.0433 218.658 69.29C218.465 69.5367 218.188 69.73 217.828 69.87C217.468 70.0033 217.038 70.07 216.538 70.07ZM222.245 70.07C221.658 70.07 221.205 69.92 220.885 69.62C220.565 69.3133 220.405 68.8633 220.405 68.27V63.48H221.655V68.24C221.655 68.4933 221.718 68.69 221.845 68.83C221.978 68.97 222.162 69.04 222.395 69.04C222.675 69.04 222.908 68.9667 223.095 68.82L223.445 69.71C223.298 69.83 223.118 69.92 222.905 69.98C222.692 70.04 222.472 70.07 222.245 70.07ZM219.525 65.66V64.66H223.085V65.66H219.525ZM227.778 70V68.92L227.708 68.69V66.8C227.708 66.4333 227.598 66.15 227.378 65.95C227.158 65.7433 226.824 65.64 226.378 65.64C226.078 65.64 225.781 65.6867 225.488 65.78C225.201 65.8733 224.958 66.0033 224.758 66.17L224.268 65.26C224.554 65.04 224.894 64.8767 225.288 64.77C225.688 64.6567 226.101 64.6 226.528 64.6C227.301 64.6 227.898 64.7867 228.318 65.16C228.744 65.5267 228.958 66.0967 228.958 66.87V70H227.778ZM226.098 70.07C225.698 70.07 225.348 70.0033 225.048 69.87C224.748 69.73 224.514 69.54 224.348 69.3C224.188 69.0533 224.108 68.7767 224.108 68.47C224.108 68.17 224.178 67.9 224.318 67.66C224.464 67.42 224.701 67.23 225.028 67.09C225.354 66.95 225.788 66.88 226.328 66.88H227.878V67.71H226.418C225.991 67.71 225.704 67.78 225.558 67.92C225.411 68.0533 225.338 68.22 225.338 68.42C225.338 68.6467 225.428 68.8267 225.608 68.96C225.788 69.0933 226.038 69.16 226.358 69.16C226.664 69.16 226.938 69.09 227.178 68.95C227.424 68.81 227.601 68.6033 227.708 68.33L227.918 69.08C227.798 69.3933 227.581 69.6367 227.268 69.81C226.961 69.9833 226.571 70.07 226.098 70.07ZM230.762 70V64.66H231.952V66.1L231.742 65.66C231.928 65.32 232.198 65.06 232.552 64.88C232.912 64.6933 233.325 64.6 233.792 64.6C234.218 64.6 234.598 64.6833 234.932 64.85C235.272 65.0167 235.538 65.2733 235.732 65.62C235.925 65.96 236.022 66.4 236.022 66.94V70H234.772V67.1C234.772 66.6267 234.658 66.2733 234.432 66.04C234.212 65.8067 233.902 65.69 233.502 65.69C233.208 65.69 232.948 65.75 232.722 65.87C232.495 65.99 232.318 66.17 232.192 66.41C232.072 66.6433 232.012 66.94 232.012 67.3V70H230.762ZM238.208 70.07C237.981 70.07 237.788 69.9933 237.628 69.84C237.468 69.68 237.388 69.48 237.388 69.24C237.388 68.9867 237.468 68.7867 237.628 68.64C237.788 68.4867 237.981 68.41 238.208 68.41C238.434 68.41 238.628 68.4867 238.788 68.64C238.948 68.7867 239.028 68.9867 239.028 69.24C239.028 69.48 238.948 69.68 238.788 69.84C238.628 69.9933 238.434 70.07 238.208 70.07ZM14.5 85V78.64H12.04V78H17.7V78.64H15.24V85H14.5ZM20.9655 85.05C20.5188 85.05 20.1288 84.9667 19.7955 84.8C19.4621 84.6333 19.2021 84.3833 19.0155 84.05C18.8355 83.7167 18.7455 83.3 18.7455 82.8V79.75H19.4555V82.72C19.4555 83.28 19.5921 83.7033 19.8655 83.99C20.1455 84.27 20.5355 84.41 21.0355 84.41C21.4021 84.41 21.7188 84.3367 21.9855 84.19C22.2588 84.0367 22.4655 83.8167 22.6055 83.53C22.7521 83.2433 22.8255 82.9 22.8255 82.5V79.75H23.5355V85H22.8555V83.56L22.9655 83.82C22.7988 84.2067 22.5388 84.51 22.1855 84.73C21.8388 84.9433 21.4321 85.05 20.9655 85.05ZM25.7142 85V79.75H26.3942V81.18L26.3242 80.93C26.4709 80.53 26.7176 80.2267 27.0642 80.02C27.4109 79.8067 27.8409 79.7 28.3542 79.7V80.39C28.3276 80.39 28.3009 80.39 28.2742 80.39C28.2476 80.3833 28.2209 80.38 28.1942 80.38C27.6409 80.38 27.2076 80.55 26.8942 80.89C26.5809 81.2233 26.4242 81.7 26.4242 82.32V85H25.7142ZM29.8498 85V79.75H30.5298V81.19L30.4198 80.92C30.5864 80.54 30.8531 80.2433 31.2198 80.03C31.5864 79.81 32.0231 79.7 32.5298 79.7C32.9564 79.7 33.3298 79.7833 33.6498 79.95C33.9764 80.11 34.2298 80.3567 34.4098 80.69C34.5964 81.0233 34.6898 81.4433 34.6898 81.95V85H33.9798V82.02C33.9798 81.4667 33.8398 81.05 33.5598 80.77C33.2864 80.4833 32.8998 80.34 32.3998 80.34C32.0264 80.34 31.6998 80.4167 31.4198 80.57C31.1464 80.7167 30.9331 80.9333 30.7798 81.22C30.6331 81.5 30.5598 81.84 30.5598 82.24V85H29.8498ZM36.8076 85V79.75H37.5176V85H36.8076ZM37.1676 78.59C37.0209 78.59 36.8976 78.54 36.7976 78.44C36.6976 78.34 36.6476 78.22 36.6476 78.08C36.6476 77.94 36.6976 77.8233 36.7976 77.73C36.8976 77.63 37.0209 77.58 37.1676 77.58C37.3142 77.58 37.4376 77.6267 37.5376 77.72C37.6376 77.8133 37.6876 77.93 37.6876 78.07C37.6876 78.2167 37.6376 78.34 37.5376 78.44C37.4442 78.54 37.3209 78.59 37.1676 78.59ZM39.6931 85V79.75H40.3731V81.19L40.2631 80.92C40.4298 80.54 40.6965 80.2433 41.0631 80.03C41.4298 79.81 41.8665 79.7 42.3731 79.7C42.7998 79.7 43.1731 79.7833 43.4931 79.95C43.8198 80.11 44.0731 80.3567 44.2531 80.69C44.4398 81.0233 44.5331 81.4433 44.5331 81.95V85H43.8231V82.02C43.8231 81.4667 43.6831 81.05 43.4031 80.77C43.1298 80.4833 42.7431 80.34 42.2431 80.34C41.8698 80.34 41.5431 80.4167 41.2631 80.57C40.9898 80.7167 40.7765 80.9333 40.6231 81.22C40.4765 81.5 40.4031 81.84 40.4031 82.24V85H39.6931ZM48.8909 86.99C48.4109 86.99 47.9509 86.92 47.5109 86.78C47.0709 86.64 46.7143 86.44 46.4409 86.18L46.8009 85.64C47.0476 85.86 47.3509 86.0333 47.7109 86.16C48.0776 86.2933 48.4643 86.36 48.8709 86.36C49.5376 86.36 50.0276 86.2033 50.3409 85.89C50.6543 85.5833 50.8109 85.1033 50.8109 84.45V83.14L50.9109 82.24L50.8409 81.34V79.75H51.5209V84.36C51.5209 85.2667 51.2976 85.93 50.8509 86.35C50.4109 86.7767 49.7576 86.99 48.8909 86.99ZM48.7609 84.8C48.2609 84.8 47.8109 84.6933 47.4109 84.48C47.0109 84.26 46.6943 83.9567 46.4609 83.57C46.2343 83.1833 46.1209 82.74 46.1209 82.24C46.1209 81.74 46.2343 81.3 46.4609 80.92C46.6943 80.5333 47.0109 80.2333 47.4109 80.02C47.8109 79.8067 48.2609 79.7 48.7609 79.7C49.2276 79.7 49.6476 79.7967 50.0209 79.99C50.3943 80.1833 50.6909 80.47 50.9109 80.85C51.1309 81.23 51.2409 81.6933 51.2409 82.24C51.2409 82.7867 51.1309 83.25 50.9109 83.63C50.6909 84.01 50.3943 84.3 50.0209 84.5C49.6476 84.7 49.2276 84.8 48.7609 84.8ZM48.8309 84.17C49.2176 84.17 49.5609 84.09 49.8609 83.93C50.1609 83.7633 50.3976 83.5367 50.5709 83.25C50.7443 82.9567 50.8309 82.62 50.8309 82.24C50.8309 81.86 50.7443 81.5267 50.5709 81.24C50.3976 80.9533 50.1609 80.73 49.8609 80.57C49.5609 80.4033 49.2176 80.32 48.8309 80.32C48.4509 80.32 48.1076 80.4033 47.8009 80.57C47.5009 80.73 47.2643 80.9533 47.0909 81.24C46.9243 81.5267 46.8409 81.86 46.8409 82.24C46.8409 82.62 46.9243 82.9567 47.0909 83.25C47.2643 83.5367 47.5009 83.7633 47.8009 83.93C48.1076 84.09 48.4509 84.17 48.8309 84.17ZM58.6938 85.05C58.1738 85.05 57.7072 84.9367 57.2938 84.71C56.8872 84.4767 56.5672 84.16 56.3338 83.76C56.1005 83.3533 55.9838 82.89 55.9838 82.37C55.9838 81.8433 56.1005 81.38 56.3338 80.98C56.5672 80.58 56.8872 80.2667 57.2938 80.04C57.7072 79.8133 58.1738 79.7 58.6938 79.7C59.1405 79.7 59.5438 79.7867 59.9038 79.96C60.2638 80.1333 60.5472 80.3933 60.7538 80.74L60.2238 81.1C60.0438 80.8333 59.8205 80.6367 59.5538 80.51C59.2872 80.3833 58.9972 80.32 58.6838 80.32C58.3105 80.32 57.9738 80.4067 57.6738 80.58C57.3738 80.7467 57.1372 80.9833 56.9638 81.29C56.7905 81.5967 56.7038 81.9567 56.7038 82.37C56.7038 82.7833 56.7905 83.1433 56.9638 83.45C57.1372 83.7567 57.3738 83.9967 57.6738 84.17C57.9738 84.3367 58.3105 84.42 58.6838 84.42C58.9972 84.42 59.2872 84.3567 59.5538 84.23C59.8205 84.1033 60.0438 83.91 60.2238 83.65L60.7538 84.01C60.5472 84.35 60.2638 84.61 59.9038 84.79C59.5438 84.9633 59.1405 85.05 58.6938 85.05ZM64.4007 85.05C63.894 85.05 63.4374 84.9367 63.0307 84.71C62.6307 84.4767 62.314 84.16 62.0807 83.76C61.8474 83.3533 61.7307 82.89 61.7307 82.37C61.7307 81.8433 61.8474 81.38 62.0807 80.98C62.314 80.58 62.6307 80.2667 63.0307 80.04C63.4307 79.8133 63.8874 79.7 64.4007 79.7C64.9207 79.7 65.3807 79.8133 65.7807 80.04C66.1874 80.2667 66.504 80.58 66.7307 80.98C66.964 81.38 67.0807 81.8433 67.0807 82.37C67.0807 82.89 66.964 83.3533 66.7307 83.76C66.504 84.16 66.1874 84.4767 65.7807 84.71C65.374 84.9367 64.914 85.05 64.4007 85.05ZM64.4007 84.42C64.7807 84.42 65.1174 84.3367 65.4107 84.17C65.704 83.9967 65.934 83.7567 66.1007 83.45C66.274 83.1367 66.3607 82.7767 66.3607 82.37C66.3607 81.9567 66.274 81.5967 66.1007 81.29C65.934 80.9833 65.704 80.7467 65.4107 80.58C65.1174 80.4067 64.784 80.32 64.4107 80.32C64.0374 80.32 63.704 80.4067 63.4107 80.58C63.1174 80.7467 62.884 80.9833 62.7107 81.29C62.5374 81.5967 62.4507 81.9567 62.4507 82.37C62.4507 82.7767 62.5374 83.1367 62.7107 83.45C62.884 83.7567 63.1174 83.9967 63.4107 84.17C63.704 84.3367 64.034 84.42 64.4007 84.42ZM68.7302 85V79.75H69.4102V81.17L69.3002 80.92C69.4602 80.54 69.7169 80.2433 70.0702 80.03C70.4302 79.81 70.8536 79.7 71.3402 79.7C71.8536 79.7 72.2902 79.83 72.6502 80.09C73.0102 80.3433 73.2436 80.7267 73.3502 81.24L73.0702 81.13C73.2236 80.7033 73.4936 80.36 73.8802 80.1C74.2736 79.8333 74.7436 79.7 75.2902 79.7C75.7169 79.7 76.0869 79.7833 76.4002 79.95C76.7202 80.11 76.9669 80.3567 77.1402 80.69C77.3202 81.0233 77.4102 81.4433 77.4102 81.95V85H76.7002V82.02C76.7002 81.4667 76.5669 81.05 76.3002 80.77C76.0402 80.4833 75.6702 80.34 75.1902 80.34C74.8302 80.34 74.5169 80.4167 74.2502 80.57C73.9902 80.7167 73.7869 80.9333 73.6402 81.22C73.5002 81.5 73.4302 81.84 73.4302 82.24V85H72.7202V82.02C72.7202 81.4667 72.5869 81.05 72.3202 80.77C72.0536 80.4833 71.6802 80.34 71.2002 80.34C70.8469 80.34 70.5369 80.4167 70.2702 80.57C70.0036 80.7167 69.7969 80.9333 69.6502 81.22C69.5102 81.5 69.4402 81.84 69.4402 82.24V85H68.7302ZM82.2457 85.05C81.7924 85.05 81.3824 84.9467 81.0157 84.74C80.649 84.5267 80.3557 84.2233 80.1357 83.83C79.9224 83.43 79.8157 82.9433 79.8157 82.37C79.8157 81.7967 79.9224 81.3133 80.1357 80.92C80.349 80.52 80.639 80.2167 81.0057 80.01C81.3724 79.8033 81.7857 79.7 82.2457 79.7C82.7457 79.7 83.1924 79.8133 83.5857 80.04C83.9857 80.26 84.299 80.5733 84.5257 80.98C84.7524 81.38 84.8657 81.8433 84.8657 82.37C84.8657 82.9033 84.7524 83.37 84.5257 83.77C84.299 84.17 83.9857 84.4833 83.5857 84.71C83.1924 84.9367 82.7457 85.05 82.2457 85.05ZM79.5357 86.94V79.75H80.2157V81.33L80.1457 82.38L80.2457 83.44V86.94H79.5357ZM82.1957 84.42C82.569 84.42 82.9024 84.3367 83.1957 84.17C83.489 83.9967 83.7224 83.7567 83.8957 83.45C84.069 83.1367 84.1557 82.7767 84.1557 82.37C84.1557 81.9633 84.069 81.6067 83.8957 81.3C83.7224 80.9933 83.489 80.7533 83.1957 80.58C82.9024 80.4067 82.569 80.32 82.1957 80.32C81.8224 80.32 81.4857 80.4067 81.1857 80.58C80.8924 80.7533 80.659 80.9933 80.4857 81.3C80.319 81.6067 80.2357 81.9633 80.2357 82.37C80.2357 82.7767 80.319 83.1367 80.4857 83.45C80.659 83.7567 80.8924 83.9967 81.1857 84.17C81.4857 84.3367 81.8224 84.42 82.1957 84.42ZM86.513 85V77.58H87.223V85H86.513ZM91.6286 85.05C91.0819 85.05 90.6019 84.9367 90.1886 84.71C89.7753 84.4767 89.4519 84.16 89.2186 83.76C88.9853 83.3533 88.8686 82.89 88.8686 82.37C88.8686 81.85 88.9786 81.39 89.1986 80.99C89.4253 80.59 89.7319 80.2767 90.1186 80.05C90.5119 79.8167 90.9519 79.7 91.4386 79.7C91.9319 79.7 92.3686 79.8133 92.7486 80.04C93.1353 80.26 93.4386 80.5733 93.6586 80.98C93.8786 81.38 93.9886 81.8433 93.9886 82.37C93.9886 82.4033 93.9853 82.44 93.9786 82.48C93.9786 82.5133 93.9786 82.55 93.9786 82.59H89.4086V82.06H93.5986L93.3186 82.27C93.3186 81.89 93.2353 81.5533 93.0686 81.26C92.9086 80.96 92.6886 80.7267 92.4086 80.56C92.1286 80.3933 91.8053 80.31 91.4386 80.31C91.0786 80.31 90.7553 80.3933 90.4686 80.56C90.1819 80.7267 89.9586 80.96 89.7986 81.26C89.6386 81.56 89.5586 81.9033 89.5586 82.29V82.4C89.5586 82.8 89.6453 83.1533 89.8186 83.46C89.9986 83.76 90.2453 83.9967 90.5586 84.17C90.8786 84.3367 91.2419 84.42 91.6486 84.42C91.9686 84.42 92.2653 84.3633 92.5386 84.25C92.8186 84.1367 93.0586 83.9633 93.2586 83.73L93.6586 84.19C93.4253 84.47 93.1319 84.6833 92.7786 84.83C92.4319 84.9767 92.0486 85.05 91.6286 85.05ZM94.6873 85L96.9073 82.12L96.8973 82.47L94.7873 79.75H95.5873L97.3173 82L97.0173 81.99L98.7473 79.75H99.5273L97.3973 82.5L97.4073 82.12L99.6473 85H98.8373L97.0073 82.6L97.2873 82.64L95.4873 85H94.6873ZM105.936 85.05C105.436 85.05 104.986 84.9367 104.586 84.71C104.193 84.4833 103.883 84.17 103.656 83.77C103.43 83.3633 103.316 82.8967 103.316 82.37C103.316 81.8367 103.43 81.37 103.656 80.97C103.883 80.57 104.193 80.26 104.586 80.04C104.986 79.8133 105.436 79.7 105.936 79.7C106.396 79.7 106.806 79.8033 107.166 80.01C107.533 80.2167 107.823 80.52 108.036 80.92C108.256 81.3133 108.366 81.7967 108.366 82.37C108.366 82.9367 108.26 83.42 108.046 83.82C107.833 84.22 107.543 84.5267 107.176 84.74C106.816 84.9467 106.403 85.05 105.936 85.05ZM105.986 84.42C106.36 84.42 106.693 84.3367 106.986 84.17C107.286 83.9967 107.52 83.7567 107.686 83.45C107.86 83.1367 107.946 82.7767 107.946 82.37C107.946 81.9567 107.86 81.5967 107.686 81.29C107.52 80.9833 107.286 80.7467 106.986 80.58C106.693 80.4067 106.36 80.32 105.986 80.32C105.62 80.32 105.29 80.4067 104.996 80.58C104.703 80.7467 104.47 80.9833 104.296 81.29C104.123 81.5967 104.036 81.9567 104.036 82.37C104.036 82.7767 104.123 83.1367 104.296 83.45C104.47 83.7567 104.703 83.9967 104.996 84.17C105.29 84.3367 105.62 84.42 105.986 84.42ZM107.966 85V83.42L108.036 82.36L107.936 81.3V77.58H108.646V85H107.966ZM113.054 85.05C112.507 85.05 112.027 84.9367 111.614 84.71C111.2 84.4767 110.877 84.16 110.644 83.76C110.41 83.3533 110.294 82.89 110.294 82.37C110.294 81.85 110.404 81.39 110.624 80.99C110.85 80.59 111.157 80.2767 111.544 80.05C111.937 79.8167 112.377 79.7 112.864 79.7C113.357 79.7 113.794 79.8133 114.174 80.04C114.56 80.26 114.864 80.5733 115.084 80.98C115.304 81.38 115.414 81.8433 115.414 82.37C115.414 82.4033 115.41 82.44 115.404 82.48C115.404 82.5133 115.404 82.55 115.404 82.59H110.834V82.06H115.024L114.744 82.27C114.744 81.89 114.66 81.5533 114.494 81.26C114.334 80.96 114.114 80.7267 113.834 80.56C113.554 80.3933 113.23 80.31 112.864 80.31C112.504 80.31 112.18 80.3933 111.894 80.56C111.607 80.7267 111.384 80.96 111.224 81.26C111.064 81.56 110.984 81.9033 110.984 82.29V82.4C110.984 82.8 111.07 83.1533 111.244 83.46C111.424 83.76 111.67 83.9967 111.984 84.17C112.304 84.3367 112.667 84.42 113.074 84.42C113.394 84.42 113.69 84.3633 113.964 84.25C114.244 84.1367 114.484 83.9633 114.684 83.73L115.084 84.19C114.85 84.47 114.557 84.6833 114.204 84.83C113.857 84.9767 113.474 85.05 113.054 85.05ZM118.469 85.05C118.035 85.05 117.625 84.99 117.239 84.87C116.852 84.7433 116.549 84.5867 116.329 84.4L116.649 83.84C116.862 84 117.135 84.14 117.469 84.26C117.802 84.3733 118.152 84.43 118.519 84.43C119.019 84.43 119.379 84.3533 119.599 84.2C119.819 84.04 119.929 83.83 119.929 83.57C119.929 83.3767 119.865 83.2267 119.739 83.12C119.619 83.0067 119.459 82.9233 119.259 82.87C119.059 82.81 118.835 82.76 118.589 82.72C118.342 82.68 118.095 82.6333 117.849 82.58C117.609 82.5267 117.389 82.45 117.189 82.35C116.989 82.2433 116.825 82.1 116.699 81.92C116.579 81.74 116.519 81.5 116.519 81.2C116.519 80.9133 116.599 80.6567 116.759 80.43C116.919 80.2033 117.152 80.0267 117.459 79.9C117.772 79.7667 118.152 79.7 118.599 79.7C118.939 79.7 119.279 79.7467 119.619 79.84C119.959 79.9267 120.239 80.0433 120.459 80.19L120.149 80.76C119.915 80.6 119.665 80.4867 119.399 80.42C119.132 80.3467 118.865 80.31 118.599 80.31C118.125 80.31 117.775 80.3933 117.549 80.56C117.329 80.72 117.219 80.9267 117.219 81.18C117.219 81.38 117.279 81.5367 117.399 81.65C117.525 81.7633 117.689 81.8533 117.889 81.92C118.095 81.98 118.319 82.03 118.559 82.07C118.805 82.11 119.049 82.16 119.289 82.22C119.535 82.2733 119.759 82.35 119.959 82.45C120.165 82.5433 120.329 82.68 120.449 82.86C120.575 83.0333 120.639 83.2633 120.639 83.55C120.639 83.8567 120.552 84.1233 120.379 84.35C120.212 84.57 119.965 84.7433 119.639 84.87C119.319 84.99 118.929 85.05 118.469 85.05ZM122.142 85V79.75H122.852V85H122.142ZM122.502 78.59C122.355 78.59 122.232 78.54 122.132 78.44C122.032 78.34 121.982 78.22 121.982 78.08C121.982 77.94 122.032 77.8233 122.132 77.73C122.232 77.63 122.355 77.58 122.502 77.58C122.648 77.58 122.772 77.6267 122.872 77.72C122.972 77.8133 123.022 77.93 123.022 78.07C123.022 78.2167 122.972 78.34 122.872 78.44C122.778 78.54 122.655 78.59 122.502 78.59ZM127.267 86.99C126.787 86.99 126.327 86.92 125.887 86.78C125.447 86.64 125.09 86.44 124.817 86.18L125.177 85.64C125.424 85.86 125.727 86.0333 126.087 86.16C126.454 86.2933 126.84 86.36 127.247 86.36C127.914 86.36 128.404 86.2033 128.717 85.89C129.03 85.5833 129.187 85.1033 129.187 84.45V83.14L129.287 82.24L129.217 81.34V79.75H129.897V84.36C129.897 85.2667 129.674 85.93 129.227 86.35C128.787 86.7767 128.134 86.99 127.267 86.99ZM127.137 84.8C126.637 84.8 126.187 84.6933 125.787 84.48C125.387 84.26 125.07 83.9567 124.837 83.57C124.61 83.1833 124.497 82.74 124.497 82.24C124.497 81.74 124.61 81.3 124.837 80.92C125.07 80.5333 125.387 80.2333 125.787 80.02C126.187 79.8067 126.637 79.7 127.137 79.7C127.604 79.7 128.024 79.7967 128.397 79.99C128.77 80.1833 129.067 80.47 129.287 80.85C129.507 81.23 129.617 81.6933 129.617 82.24C129.617 82.7867 129.507 83.25 129.287 83.63C129.067 84.01 128.77 84.3 128.397 84.5C128.024 84.7 127.604 84.8 127.137 84.8ZM127.207 84.17C127.594 84.17 127.937 84.09 128.237 83.93C128.537 83.7633 128.774 83.5367 128.947 83.25C129.12 82.9567 129.207 82.62 129.207 82.24C129.207 81.86 129.12 81.5267 128.947 81.24C128.774 80.9533 128.537 80.73 128.237 80.57C127.937 80.4033 127.594 80.32 127.207 80.32C126.827 80.32 126.484 80.4033 126.177 80.57C125.877 80.73 125.64 80.9533 125.467 81.24C125.3 81.5267 125.217 81.86 125.217 82.24C125.217 82.62 125.3 82.9567 125.467 83.25C125.64 83.5367 125.877 83.7633 126.177 83.93C126.484 84.09 126.827 84.17 127.207 84.17ZM132.073 85V79.75H132.753V81.19L132.643 80.92C132.809 80.54 133.076 80.2433 133.443 80.03C133.809 79.81 134.246 79.7 134.753 79.7C135.179 79.7 135.553 79.7833 135.873 79.95C136.199 80.11 136.453 80.3567 136.633 80.69C136.819 81.0233 136.913 81.4433 136.913 81.95V85H136.203V82.02C136.203 81.4667 136.063 81.05 135.783 80.77C135.509 80.4833 135.123 80.34 134.623 80.34C134.249 80.34 133.923 80.4167 133.643 80.57C133.369 80.7167 133.156 80.9333 133.003 81.22C132.856 81.5 132.783 81.84 132.783 82.24V85H132.073ZM140.441 85.05C140.007 85.05 139.597 84.99 139.211 84.87C138.824 84.7433 138.521 84.5867 138.301 84.4L138.621 83.84C138.834 84 139.107 84.14 139.441 84.26C139.774 84.3733 140.124 84.43 140.491 84.43C140.991 84.43 141.351 84.3533 141.571 84.2C141.791 84.04 141.901 83.83 141.901 83.57C141.901 83.3767 141.837 83.2267 141.711 83.12C141.591 83.0067 141.431 82.9233 141.231 82.87C141.031 82.81 140.807 82.76 140.561 82.72C140.314 82.68 140.067 82.6333 139.821 82.58C139.581 82.5267 139.361 82.45 139.161 82.35C138.961 82.2433 138.797 82.1 138.671 81.92C138.551 81.74 138.491 81.5 138.491 81.2C138.491 80.9133 138.571 80.6567 138.731 80.43C138.891 80.2033 139.124 80.0267 139.431 79.9C139.744 79.7667 140.124 79.7 140.571 79.7C140.911 79.7 141.251 79.7467 141.591 79.84C141.931 79.9267 142.211 80.0433 142.431 80.19L142.121 80.76C141.887 80.6 141.637 80.4867 141.371 80.42C141.104 80.3467 140.837 80.31 140.571 80.31C140.097 80.31 139.747 80.3933 139.521 80.56C139.301 80.72 139.191 80.9267 139.191 81.18C139.191 81.38 139.251 81.5367 139.371 81.65C139.497 81.7633 139.661 81.8533 139.861 81.92C140.067 81.98 140.291 82.03 140.531 82.07C140.777 82.11 141.021 82.16 141.261 82.22C141.507 82.2733 141.731 82.35 141.931 82.45C142.137 82.5433 142.301 82.68 142.421 82.86C142.547 83.0333 142.611 83.2633 142.611 83.55C142.611 83.8567 142.524 84.1233 142.351 84.35C142.184 84.57 141.937 84.7433 141.611 84.87C141.291 84.99 140.901 85.05 140.441 85.05ZM146.931 85V79.75H147.641V85H146.931ZM147.291 78.59C147.144 78.59 147.021 78.54 146.921 78.44C146.821 78.34 146.771 78.22 146.771 78.08C146.771 77.94 146.821 77.8233 146.921 77.73C147.021 77.63 147.144 77.58 147.291 77.58C147.437 77.58 147.561 77.6267 147.661 77.72C147.761 77.8133 147.811 77.93 147.811 78.07C147.811 78.2167 147.761 78.34 147.661 78.44C147.567 78.54 147.444 78.59 147.291 78.59ZM149.816 85V79.75H150.496V81.19L150.386 80.92C150.553 80.54 150.82 80.2433 151.186 80.03C151.553 79.81 151.99 79.7 152.496 79.7C152.923 79.7 153.296 79.7833 153.616 79.95C153.943 80.11 154.196 80.3567 154.376 80.69C154.563 81.0233 154.656 81.4433 154.656 81.95V85H153.946V82.02C153.946 81.4667 153.806 81.05 153.526 80.77C153.253 80.4833 152.866 80.34 152.366 80.34C151.993 80.34 151.666 80.4167 151.386 80.57C151.113 80.7167 150.9 80.9333 150.746 81.22C150.6 81.5 150.526 81.84 150.526 82.24V85H149.816ZM158.434 85.05C157.941 85.05 157.561 84.9167 157.294 84.65C157.027 84.3833 156.894 84.0067 156.894 83.52V78.59H157.604V83.48C157.604 83.7867 157.681 84.0233 157.834 84.19C157.994 84.3567 158.221 84.44 158.514 84.44C158.827 84.44 159.087 84.35 159.294 84.17L159.544 84.68C159.404 84.8067 159.234 84.9 159.034 84.96C158.841 85.02 158.641 85.05 158.434 85.05ZM155.954 80.34V79.75H159.204V80.34H155.954ZM162.991 85.05C162.484 85.05 162.028 84.9367 161.621 84.71C161.221 84.4767 160.904 84.16 160.671 83.76C160.438 83.3533 160.321 82.89 160.321 82.37C160.321 81.8433 160.438 81.38 160.671 80.98C160.904 80.58 161.221 80.2667 161.621 80.04C162.021 79.8133 162.478 79.7 162.991 79.7C163.511 79.7 163.971 79.8133 164.371 80.04C164.778 80.2667 165.094 80.58 165.321 80.98C165.554 81.38 165.671 81.8433 165.671 82.37C165.671 82.89 165.554 83.3533 165.321 83.76C165.094 84.16 164.778 84.4767 164.371 84.71C163.964 84.9367 163.504 85.05 162.991 85.05ZM162.991 84.42C163.371 84.42 163.708 84.3367 164.001 84.17C164.294 83.9967 164.524 83.7567 164.691 83.45C164.864 83.1367 164.951 82.7767 164.951 82.37C164.951 81.9567 164.864 81.5967 164.691 81.29C164.524 80.9833 164.294 80.7467 164.001 80.58C163.708 80.4067 163.374 80.32 163.001 80.32C162.628 80.32 162.294 80.4067 162.001 80.58C161.708 80.7467 161.474 80.9833 161.301 81.29C161.128 81.5967 161.041 81.9567 161.041 82.37C161.041 82.7767 161.128 83.1367 161.301 83.45C161.474 83.7567 161.708 83.9967 162.001 84.17C162.294 84.3367 162.624 84.42 162.991 84.42ZM172.848 85.05C172.394 85.05 171.984 84.9467 171.618 84.74C171.251 84.5267 170.958 84.2233 170.738 83.83C170.524 83.43 170.418 82.9433 170.418 82.37C170.418 81.7967 170.524 81.3133 170.738 80.92C170.951 80.52 171.241 80.2167 171.608 80.01C171.974 79.8033 172.388 79.7 172.848 79.7C173.348 79.7 173.794 79.8133 174.188 80.04C174.588 80.26 174.901 80.5733 175.128 80.98C175.354 81.38 175.468 81.8433 175.468 82.37C175.468 82.9033 175.354 83.37 175.128 83.77C174.901 84.17 174.588 84.4833 174.188 84.71C173.794 84.9367 173.348 85.05 172.848 85.05ZM170.138 86.94V79.75H170.818V81.33L170.748 82.38L170.848 83.44V86.94H170.138ZM172.798 84.42C173.171 84.42 173.504 84.3367 173.798 84.17C174.091 83.9967 174.324 83.7567 174.498 83.45C174.671 83.1367 174.758 82.7767 174.758 82.37C174.758 81.9633 174.671 81.6067 174.498 81.3C174.324 80.9933 174.091 80.7533 173.798 80.58C173.504 80.4067 173.171 80.32 172.798 80.32C172.424 80.32 172.088 80.4067 171.788 80.58C171.494 80.7533 171.261 80.9933 171.088 81.3C170.921 81.6067 170.838 81.9633 170.838 82.37C170.838 82.7767 170.921 83.1367 171.088 83.45C171.261 83.7567 171.494 83.9967 171.788 84.17C172.088 84.3367 172.424 84.42 172.798 84.42ZM179.255 85.05C178.748 85.05 178.292 84.9367 177.885 84.71C177.485 84.4767 177.168 84.16 176.935 83.76C176.702 83.3533 176.585 82.89 176.585 82.37C176.585 81.8433 176.702 81.38 176.935 80.98C177.168 80.58 177.485 80.2667 177.885 80.04C178.285 79.8133 178.742 79.7 179.255 79.7C179.775 79.7 180.235 79.8133 180.635 80.04C181.042 80.2667 181.358 80.58 181.585 80.98C181.818 81.38 181.935 81.8433 181.935 82.37C181.935 82.89 181.818 83.3533 181.585 83.76C181.358 84.16 181.042 84.4767 180.635 84.71C180.228 84.9367 179.768 85.05 179.255 85.05ZM179.255 84.42C179.635 84.42 179.972 84.3367 180.265 84.17C180.558 83.9967 180.788 83.7567 180.955 83.45C181.128 83.1367 181.215 82.7767 181.215 82.37C181.215 81.9567 181.128 81.5967 180.955 81.29C180.788 80.9833 180.558 80.7467 180.265 80.58C179.972 80.4067 179.638 80.32 179.265 80.32C178.892 80.32 178.558 80.4067 178.265 80.58C177.972 80.7467 177.738 80.9833 177.565 81.29C177.392 81.5967 177.305 81.9567 177.305 82.37C177.305 82.7767 177.392 83.1367 177.565 83.45C177.738 83.7567 177.972 83.9967 178.265 84.17C178.558 84.3367 178.888 84.42 179.255 84.42ZM183.585 85V77.58H184.295V85H183.585ZM186.47 85V79.75H187.18V85H186.47ZM186.83 78.59C186.683 78.59 186.56 78.54 186.46 78.44C186.36 78.34 186.31 78.22 186.31 78.08C186.31 77.94 186.36 77.8233 186.46 77.73C186.56 77.63 186.683 77.58 186.83 77.58C186.977 77.58 187.1 77.6267 187.2 77.72C187.3 77.8133 187.35 77.93 187.35 78.07C187.35 78.2167 187.3 78.34 187.2 78.44C187.107 78.54 186.983 78.59 186.83 78.59ZM190.766 85.05C190.332 85.05 189.922 84.99 189.536 84.87C189.149 84.7433 188.846 84.5867 188.626 84.4L188.946 83.84C189.159 84 189.432 84.14 189.766 84.26C190.099 84.3733 190.449 84.43 190.816 84.43C191.316 84.43 191.676 84.3533 191.896 84.2C192.116 84.04 192.226 83.83 192.226 83.57C192.226 83.3767 192.162 83.2267 192.036 83.12C191.916 83.0067 191.756 82.9233 191.556 82.87C191.356 82.81 191.132 82.76 190.886 82.72C190.639 82.68 190.392 82.6333 190.146 82.58C189.906 82.5267 189.686 82.45 189.486 82.35C189.286 82.2433 189.122 82.1 188.996 81.92C188.876 81.74 188.816 81.5 188.816 81.2C188.816 80.9133 188.896 80.6567 189.056 80.43C189.216 80.2033 189.449 80.0267 189.756 79.9C190.069 79.7667 190.449 79.7 190.896 79.7C191.236 79.7 191.576 79.7467 191.916 79.84C192.256 79.9267 192.536 80.0433 192.756 80.19L192.446 80.76C192.212 80.6 191.962 80.4867 191.696 80.42C191.429 80.3467 191.162 80.31 190.896 80.31C190.422 80.31 190.072 80.3933 189.846 80.56C189.626 80.72 189.516 80.9267 189.516 81.18C189.516 81.38 189.576 81.5367 189.696 81.65C189.822 81.7633 189.986 81.8533 190.186 81.92C190.392 81.98 190.616 82.03 190.856 82.07C191.102 82.11 191.346 82.16 191.586 82.22C191.832 82.2733 192.056 82.35 192.256 82.45C192.462 82.5433 192.626 82.68 192.746 82.86C192.872 83.0333 192.936 83.2633 192.936 83.55C192.936 83.8567 192.849 84.1233 192.676 84.35C192.509 84.57 192.262 84.7433 191.936 84.87C191.616 84.99 191.226 85.05 190.766 85.05ZM194.438 85V77.58H195.148V81.19L195.008 80.92C195.175 80.54 195.442 80.2433 195.808 80.03C196.175 79.81 196.612 79.7 197.118 79.7C197.545 79.7 197.918 79.7833 198.238 79.95C198.565 80.11 198.818 80.3567 198.998 80.69C199.185 81.0233 199.278 81.4433 199.278 81.95V85H198.568V82.02C198.568 81.4667 198.428 81.05 198.148 80.77C197.875 80.4833 197.488 80.34 196.988 80.34C196.615 80.34 196.288 80.4167 196.008 80.57C195.735 80.7167 195.522 80.9333 195.368 81.22C195.222 81.5 195.148 81.84 195.148 82.24V85H194.438ZM203.626 85.05C203.08 85.05 202.6 84.9367 202.186 84.71C201.773 84.4767 201.45 84.16 201.216 83.76C200.983 83.3533 200.866 82.89 200.866 82.37C200.866 81.85 200.976 81.39 201.196 80.99C201.423 80.59 201.73 80.2767 202.116 80.05C202.51 79.8167 202.95 79.7 203.436 79.7C203.93 79.7 204.366 79.8133 204.746 80.04C205.133 80.26 205.436 80.5733 205.656 80.98C205.876 81.38 205.986 81.8433 205.986 82.37C205.986 82.4033 205.983 82.44 205.976 82.48C205.976 82.5133 205.976 82.55 205.976 82.59H201.406V82.06H205.596L205.316 82.27C205.316 81.89 205.233 81.5533 205.066 81.26C204.906 80.96 204.686 80.7267 204.406 80.56C204.126 80.3933 203.803 80.31 203.436 80.31C203.076 80.31 202.753 80.3933 202.466 80.56C202.18 80.7267 201.956 80.96 201.796 81.26C201.636 81.56 201.556 81.9033 201.556 82.29V82.4C201.556 82.8 201.643 83.1533 201.816 83.46C201.996 83.76 202.243 83.9967 202.556 84.17C202.876 84.3367 203.24 84.42 203.646 84.42C203.966 84.42 204.263 84.3633 204.536 84.25C204.816 84.1367 205.056 83.9633 205.256 83.73L205.656 84.19C205.423 84.47 205.13 84.6833 204.776 84.83C204.43 84.9767 204.046 85.05 203.626 85.05ZM209.721 85.05C209.221 85.05 208.771 84.9367 208.371 84.71C207.978 84.4833 207.668 84.17 207.441 83.77C207.215 83.3633 207.101 82.8967 207.101 82.37C207.101 81.8367 207.215 81.37 207.441 80.97C207.668 80.57 207.978 80.26 208.371 80.04C208.771 79.8133 209.221 79.7 209.721 79.7C210.181 79.7 210.591 79.8033 210.951 80.01C211.318 80.2167 211.608 80.52 211.821 80.92C212.041 81.3133 212.151 81.7967 212.151 82.37C212.151 82.9367 212.045 83.42 211.831 83.82C211.618 84.22 211.328 84.5267 210.961 84.74C210.601 84.9467 210.188 85.05 209.721 85.05ZM209.771 84.42C210.145 84.42 210.478 84.3367 210.771 84.17C211.071 83.9967 211.305 83.7567 211.471 83.45C211.645 83.1367 211.731 82.7767 211.731 82.37C211.731 81.9567 211.645 81.5967 211.471 81.29C211.305 80.9833 211.071 80.7467 210.771 80.58C210.478 80.4067 210.145 80.32 209.771 80.32C209.405 80.32 209.075 80.4067 208.781 80.58C208.488 80.7467 208.255 80.9833 208.081 81.29C207.908 81.5967 207.821 81.9567 207.821 82.37C207.821 82.7767 207.908 83.1367 208.081 83.45C208.255 83.7567 208.488 83.9967 208.781 84.17C209.075 84.3367 209.405 84.42 209.771 84.42ZM211.751 85V83.42L211.821 82.36L211.721 81.3V77.58H212.431V85H211.751ZM214.179 86.46L214.619 84.61L214.699 85.04C214.545 85.04 214.415 84.99 214.309 84.89C214.209 84.79 214.159 84.66 214.159 84.5C214.159 84.34 214.209 84.21 214.309 84.11C214.415 84.01 214.542 83.96 214.689 83.96C214.842 83.96 214.965 84.0133 215.059 84.12C215.159 84.2267 215.209 84.3533 215.209 84.5C215.209 84.5533 215.205 84.6067 215.199 84.66C215.192 84.7133 215.179 84.7733 215.159 84.84C215.139 84.9067 215.112 84.9867 215.079 85.08L214.659 86.46H214.179ZM219.745 85V77.58H220.455V81.19L220.315 80.92C220.482 80.54 220.748 80.2433 221.115 80.03C221.482 79.81 221.918 79.7 222.425 79.7C222.852 79.7 223.225 79.7833 223.545 79.95C223.872 80.11 224.125 80.3567 224.305 80.69C224.492 81.0233 224.585 81.4433 224.585 81.95V85H223.875V82.02C223.875 81.4667 223.735 81.05 223.455 80.77C223.182 80.4833 222.795 80.34 222.295 80.34C221.922 80.34 221.595 80.4167 221.315 80.57C221.042 80.7167 220.828 80.9333 220.675 81.22C220.528 81.5 220.455 81.84 220.455 82.24V85H219.745ZM226.703 85V79.75H227.413V85H226.703ZM227.063 78.59C226.916 78.59 226.793 78.54 226.693 78.44C226.593 78.34 226.543 78.22 226.543 78.08C226.543 77.94 226.593 77.8233 226.693 77.73C226.793 77.63 226.916 77.58 227.063 77.58C227.21 77.58 227.333 77.6267 227.433 77.72C227.533 77.8133 227.583 77.93 227.583 78.07C227.583 78.2167 227.533 78.34 227.433 78.44C227.34 78.54 227.216 78.59 227.063 78.59ZM231.828 86.99C231.348 86.99 230.888 86.92 230.448 86.78C230.008 86.64 229.652 86.44 229.378 86.18L229.738 85.64C229.985 85.86 230.288 86.0333 230.648 86.16C231.015 86.2933 231.402 86.36 231.808 86.36C232.475 86.36 232.965 86.2033 233.278 85.89C233.592 85.5833 233.748 85.1033 233.748 84.45V83.14L233.848 82.24L233.778 81.34V79.75H234.458V84.36C234.458 85.2667 234.235 85.93 233.788 86.35C233.348 86.7767 232.695 86.99 231.828 86.99ZM231.698 84.8C231.198 84.8 230.748 84.6933 230.348 84.48C229.948 84.26 229.632 83.9567 229.398 83.57C229.172 83.1833 229.058 82.74 229.058 82.24C229.058 81.74 229.172 81.3 229.398 80.92C229.632 80.5333 229.948 80.2333 230.348 80.02C230.748 79.8067 231.198 79.7 231.698 79.7C232.165 79.7 232.585 79.7967 232.958 79.99C233.332 80.1833 233.628 80.47 233.848 80.85C234.068 81.23 234.178 81.6933 234.178 82.24C234.178 82.7867 234.068 83.25 233.848 83.63C233.628 84.01 233.332 84.3 232.958 84.5C232.585 84.7 232.165 84.8 231.698 84.8ZM231.768 84.17C232.155 84.17 232.498 84.09 232.798 83.93C233.098 83.7633 233.335 83.5367 233.508 83.25C233.682 82.9567 233.768 82.62 233.768 82.24C233.768 81.86 233.682 81.5267 233.508 81.24C233.335 80.9533 233.098 80.73 232.798 80.57C232.498 80.4033 232.155 80.32 231.768 80.32C231.388 80.32 231.045 80.4033 230.738 80.57C230.438 80.73 230.202 80.9533 230.028 81.24C229.862 81.5267 229.778 81.86 229.778 82.24C229.778 82.62 229.862 82.9567 230.028 83.25C230.202 83.5367 230.438 83.7633 230.738 83.93C231.045 84.09 231.388 84.17 231.768 84.17ZM236.634 85V77.58H237.344V81.19L237.204 80.92C237.371 80.54 237.637 80.2433 238.004 80.03C238.371 79.81 238.807 79.7 239.314 79.7C239.741 79.7 240.114 79.7833 240.434 79.95C240.761 80.11 241.014 80.3567 241.194 80.69C241.381 81.0233 241.474 81.4433 241.474 81.95V85H240.764V82.02C240.764 81.4667 240.624 81.05 240.344 80.77C240.071 80.4833 239.684 80.34 239.184 80.34C238.811 80.34 238.484 80.4167 238.204 80.57C237.931 80.7167 237.717 80.9333 237.564 81.22C237.417 81.5 237.344 81.84 237.344 82.24V85H236.634ZM243.202 82.6V81.98H245.822V82.6H243.202ZM250.32 85.05C249.867 85.05 249.457 84.9467 249.09 84.74C248.724 84.5267 248.43 84.2233 248.21 83.83C247.997 83.43 247.89 82.9433 247.89 82.37C247.89 81.7967 247.997 81.3133 248.21 80.92C248.424 80.52 248.714 80.2167 249.08 80.01C249.447 79.8033 249.86 79.7 250.32 79.7C250.82 79.7 251.267 79.8133 251.66 80.04C252.06 80.26 252.374 80.5733 252.6 80.98C252.827 81.38 252.94 81.8433 252.94 82.37C252.94 82.9033 252.827 83.37 252.6 83.77C252.374 84.17 252.06 84.4833 251.66 84.71C251.267 84.9367 250.82 85.05 250.32 85.05ZM247.61 86.94V79.75H248.29V81.33L248.22 82.38L248.32 83.44V86.94H247.61ZM250.27 84.42C250.644 84.42 250.977 84.3367 251.27 84.17C251.564 83.9967 251.797 83.7567 251.97 83.45C252.144 83.1367 252.23 82.7767 252.23 82.37C252.23 81.9633 252.144 81.6067 251.97 81.3C251.797 80.9933 251.564 80.7533 251.27 80.58C250.977 80.4067 250.644 80.32 250.27 80.32C249.897 80.32 249.56 80.4067 249.26 80.58C248.967 80.7533 248.734 80.9933 248.56 81.3C248.394 81.6067 248.31 81.9633 248.31 82.37C248.31 82.7767 248.394 83.1367 248.56 83.45C248.734 83.7567 248.967 83.9967 249.26 84.17C249.56 84.3367 249.897 84.42 250.27 84.42ZM256.818 85.05C256.271 85.05 255.791 84.9367 255.378 84.71C254.964 84.4767 254.641 84.16 254.408 83.76C254.174 83.3533 254.058 82.89 254.058 82.37C254.058 81.85 254.168 81.39 254.388 80.99C254.614 80.59 254.921 80.2767 255.308 80.05C255.701 79.8167 256.141 79.7 256.628 79.7C257.121 79.7 257.558 79.8133 257.938 80.04C258.324 80.26 258.628 80.5733 258.848 80.98C259.068 81.38 259.178 81.8433 259.178 82.37C259.178 82.4033 259.174 82.44 259.168 82.48C259.168 82.5133 259.168 82.55 259.168 82.59H254.598V82.06H258.788L258.508 82.27C258.508 81.89 258.424 81.5533 258.258 81.26C258.098 80.96 257.878 80.7267 257.598 80.56C257.318 80.3933 256.994 80.31 256.628 80.31C256.268 80.31 255.944 80.3933 255.658 80.56C255.371 80.7267 255.148 80.96 254.988 81.26C254.828 81.56 254.748 81.9033 254.748 82.29V82.4C254.748 82.8 254.834 83.1533 255.008 83.46C255.188 83.76 255.434 83.9967 255.748 84.17C256.068 84.3367 256.431 84.42 256.838 84.42C257.158 84.42 257.454 84.3633 257.728 84.25C258.008 84.1367 258.248 83.9633 258.448 83.73L258.848 84.19C258.614 84.47 258.321 84.6833 257.968 84.83C257.621 84.9767 257.238 85.05 256.818 85.05ZM260.823 85V79.75H261.503V81.18L261.433 80.93C261.579 80.53 261.826 80.2267 262.173 80.02C262.519 79.8067 262.949 79.7 263.463 79.7V80.39C263.436 80.39 263.409 80.39 263.383 80.39C263.356 80.3833 263.329 80.38 263.303 80.38C262.749 80.38 262.316 80.55 262.003 80.89C261.689 81.2233 261.533 81.7 261.533 82.32V85H260.823ZM265.156 85V79.09C265.156 78.6233 265.293 78.2467 265.566 77.96C265.84 77.6733 266.233 77.53 266.746 77.53C266.946 77.53 267.14 77.5567 267.326 77.61C267.513 77.6633 267.67 77.7467 267.796 77.86L267.556 78.39C267.456 78.3033 267.34 78.24 267.206 78.2C267.073 78.1533 266.93 78.13 266.776 78.13C266.476 78.13 266.246 78.2133 266.086 78.38C265.926 78.5467 265.846 78.7933 265.846 79.12V79.92L265.866 80.25V85H265.156ZM264.216 80.34V79.75H267.466V80.34H264.216ZM270.677 85.05C270.171 85.05 269.714 84.9367 269.307 84.71C268.907 84.4767 268.591 84.16 268.357 83.76C268.124 83.3533 268.007 82.89 268.007 82.37C268.007 81.8433 268.124 81.38 268.357 80.98C268.591 80.58 268.907 80.2667 269.307 80.04C269.707 79.8133 270.164 79.7 270.677 79.7C271.197 79.7 271.657 79.8133 272.057 80.04C272.464 80.2667 272.781 80.58 273.007 80.98C273.241 81.38 273.357 81.8433 273.357 82.37C273.357 82.89 273.241 83.3533 273.007 83.76C272.781 84.16 272.464 84.4767 272.057 84.71C271.651 84.9367 271.191 85.05 270.677 85.05ZM270.677 84.42C271.057 84.42 271.394 84.3367 271.687 84.17C271.981 83.9967 272.211 83.7567 272.377 83.45C272.551 83.1367 272.637 82.7767 272.637 82.37C272.637 81.9567 272.551 81.5967 272.377 81.29C272.211 80.9833 271.981 80.7467 271.687 80.58C271.394 80.4067 271.061 80.32 270.687 80.32C270.314 80.32 269.981 80.4067 269.687 80.58C269.394 80.7467 269.161 80.9833 268.987 81.29C268.814 81.5967 268.727 81.9567 268.727 82.37C268.727 82.7767 268.814 83.1367 268.987 83.45C269.161 83.7567 269.394 83.9967 269.687 84.17C269.981 84.3367 270.311 84.42 270.677 84.42ZM275.007 85V79.75H275.687V81.18L275.617 80.93C275.763 80.53 276.01 80.2267 276.357 80.02C276.703 79.8067 277.133 79.7 277.647 79.7V80.39C277.62 80.39 277.593 80.39 277.567 80.39C277.54 80.3833 277.513 80.38 277.487 80.38C276.933 80.38 276.5 80.55 276.187 80.89C275.873 81.2233 275.717 81.7 275.717 82.32V85H275.007ZM279.142 85V79.75H279.822V81.17L279.712 80.92C279.872 80.54 280.129 80.2433 280.482 80.03C280.842 79.81 281.266 79.7 281.752 79.7C282.266 79.7 282.702 79.83 283.062 80.09C283.422 80.3433 283.656 80.7267 283.762 81.24L283.482 81.13C283.636 80.7033 283.906 80.36 284.292 80.1C284.686 79.8333 285.156 79.7 285.702 79.7C286.129 79.7 286.499 79.7833 286.812 79.95C287.132 80.11 287.379 80.3567 287.552 80.69C287.732 81.0233 287.822 81.4433 287.822 81.95V85H287.112V82.02C287.112 81.4667 286.979 81.05 286.712 80.77C286.452 80.4833 286.082 80.34 285.602 80.34C285.242 80.34 284.929 80.4167 284.662 80.57C284.402 80.7167 284.199 80.9333 284.052 81.22C283.912 81.5 283.842 81.84 283.842 82.24V85H283.132V82.02C283.132 81.4667 282.999 81.05 282.732 80.77C282.466 80.4833 282.092 80.34 281.612 80.34C281.259 80.34 280.949 80.4167 280.682 80.57C280.416 80.7167 280.209 80.9333 280.062 81.22C279.922 81.5 279.852 81.84 279.852 82.24V85H279.142ZM293.238 85V83.84L293.208 83.65V81.71C293.208 81.2633 293.081 80.92 292.828 80.68C292.581 80.44 292.211 80.32 291.718 80.32C291.378 80.32 291.054 80.3767 290.748 80.49C290.441 80.6033 290.181 80.7533 289.968 80.94L289.648 80.41C289.914 80.1833 290.234 80.01 290.608 79.89C290.981 79.7633 291.374 79.7 291.788 79.7C292.468 79.7 292.991 79.87 293.358 80.21C293.731 80.5433 293.918 81.0533 293.918 81.74V85H293.238ZM291.428 85.05C291.034 85.05 290.691 84.9867 290.398 84.86C290.111 84.7267 289.891 84.5467 289.738 84.32C289.584 84.0867 289.508 83.82 289.508 83.52C289.508 83.2467 289.571 83 289.698 82.78C289.831 82.5533 290.044 82.3733 290.338 82.24C290.638 82.1 291.038 82.03 291.538 82.03H293.348V82.56H291.558C291.051 82.56 290.698 82.65 290.498 82.83C290.304 83.01 290.208 83.2333 290.208 83.5C290.208 83.8 290.324 84.04 290.558 84.22C290.791 84.4 291.118 84.49 291.538 84.49C291.938 84.49 292.281 84.4 292.568 84.22C292.861 84.0333 293.074 83.7667 293.208 83.42L293.368 83.91C293.234 84.2567 293.001 84.5333 292.668 84.74C292.341 84.9467 291.928 85.05 291.428 85.05ZM296.046 85V79.75H296.726V81.19L296.616 80.92C296.783 80.54 297.05 80.2433 297.416 80.03C297.783 79.81 298.22 79.7 298.726 79.7C299.153 79.7 299.526 79.7833 299.846 79.95C300.173 80.11 300.426 80.3567 300.606 80.69C300.793 81.0233 300.886 81.4433 300.886 81.95V85H300.176V82.02C300.176 81.4667 300.036 81.05 299.756 80.77C299.483 80.4833 299.096 80.34 298.596 80.34C298.223 80.34 297.896 80.4167 297.616 80.57C297.343 80.7167 297.13 80.9333 296.976 81.22C296.83 81.5 296.756 81.84 296.756 82.24V85H296.046ZM305.184 85.05C304.664 85.05 304.197 84.9367 303.784 84.71C303.377 84.4767 303.057 84.16 302.824 83.76C302.591 83.3533 302.474 82.89 302.474 82.37C302.474 81.8433 302.591 81.38 302.824 80.98C303.057 80.58 303.377 80.2667 303.784 80.04C304.197 79.8133 304.664 79.7 305.184 79.7C305.631 79.7 306.034 79.7867 306.394 79.96C306.754 80.1333 307.037 80.3933 307.244 80.74L306.714 81.1C306.534 80.8333 306.311 80.6367 306.044 80.51C305.777 80.3833 305.487 80.32 305.174 80.32C304.801 80.32 304.464 80.4067 304.164 80.58C303.864 80.7467 303.627 80.9833 303.454 81.29C303.281 81.5967 303.194 81.9567 303.194 82.37C303.194 82.7833 303.281 83.1433 303.454 83.45C303.627 83.7567 303.864 83.9967 304.164 84.17C304.464 84.3367 304.801 84.42 305.174 84.42C305.487 84.42 305.777 84.3567 306.044 84.23C306.311 84.1033 306.534 83.91 306.714 83.65L307.244 84.01C307.037 84.35 306.754 84.61 306.394 84.79C306.034 84.9633 305.631 85.05 305.184 85.05ZM310.981 85.05C310.434 85.05 309.954 84.9367 309.541 84.71C309.128 84.4767 308.804 84.16 308.571 83.76C308.338 83.3533 308.221 82.89 308.221 82.37C308.221 81.85 308.331 81.39 308.551 80.99C308.778 80.59 309.084 80.2767 309.471 80.05C309.864 79.8167 310.304 79.7 310.791 79.7C311.284 79.7 311.721 79.8133 312.101 80.04C312.488 80.26 312.791 80.5733 313.011 80.98C313.231 81.38 313.341 81.8433 313.341 82.37C313.341 82.4033 313.338 82.44 313.331 82.48C313.331 82.5133 313.331 82.55 313.331 82.59H308.761V82.06H312.951L312.671 82.27C312.671 81.89 312.588 81.5533 312.421 81.26C312.261 80.96 312.041 80.7267 311.761 80.56C311.481 80.3933 311.158 80.31 310.791 80.31C310.431 80.31 310.108 80.3933 309.821 80.56C309.534 80.7267 309.311 80.96 309.151 81.26C308.991 81.56 308.911 81.9033 308.911 82.29V82.4C308.911 82.8 308.998 83.1533 309.171 83.46C309.351 83.76 309.598 83.9967 309.911 84.17C310.231 84.3367 310.594 84.42 311.001 84.42C311.321 84.42 311.618 84.3633 311.891 84.25C312.171 84.1367 312.411 83.9633 312.611 83.73L313.011 84.19C312.778 84.47 312.484 84.6833 312.131 84.83C311.784 84.9767 311.401 85.05 310.981 85.05ZM320.513 85.05C320.06 85.05 319.65 84.9467 319.283 84.74C318.917 84.5267 318.623 84.2233 318.403 83.83C318.19 83.43 318.083 82.9433 318.083 82.37C318.083 81.7967 318.19 81.3133 318.403 80.92C318.617 80.52 318.907 80.2167 319.273 80.01C319.64 79.8033 320.053 79.7 320.513 79.7C321.013 79.7 321.46 79.8133 321.853 80.04C322.253 80.26 322.567 80.5733 322.793 80.98C323.02 81.38 323.133 81.8433 323.133 82.37C323.133 82.9033 323.02 83.37 322.793 83.77C322.567 84.17 322.253 84.4833 321.853 84.71C321.46 84.9367 321.013 85.05 320.513 85.05ZM317.803 86.94V79.75H318.483V81.33L318.413 82.38L318.513 83.44V86.94H317.803ZM320.463 84.42C320.837 84.42 321.17 84.3367 321.463 84.17C321.757 83.9967 321.99 83.7567 322.163 83.45C322.337 83.1367 322.423 82.7767 322.423 82.37C322.423 81.9633 322.337 81.6067 322.163 81.3C321.99 80.9933 321.757 80.7533 321.463 80.58C321.17 80.4067 320.837 80.32 320.463 80.32C320.09 80.32 319.753 80.4067 319.453 80.58C319.16 80.7533 318.927 80.9933 318.753 81.3C318.587 81.6067 318.503 81.9633 318.503 82.37C318.503 82.7767 318.587 83.1367 318.753 83.45C318.927 83.7567 319.16 83.9967 319.453 84.17C319.753 84.3367 320.09 84.42 320.463 84.42ZM324.781 85V79.75H325.461V81.18L325.391 80.93C325.537 80.53 325.784 80.2267 326.131 80.02C326.477 79.8067 326.907 79.7 327.421 79.7V80.39C327.394 80.39 327.367 80.39 327.341 80.39C327.314 80.3833 327.287 80.38 327.261 80.38C326.707 80.38 326.274 80.55 325.961 80.89C325.647 81.2233 325.491 81.7 325.491 82.32V85H324.781ZM331.007 85.05C330.501 85.05 330.044 84.9367 329.637 84.71C329.237 84.4767 328.921 84.16 328.687 83.76C328.454 83.3533 328.337 82.89 328.337 82.37C328.337 81.8433 328.454 81.38 328.687 80.98C328.921 80.58 329.237 80.2667 329.637 80.04C330.037 79.8133 330.494 79.7 331.007 79.7C331.527 79.7 331.987 79.8133 332.387 80.04C332.794 80.2667 333.111 80.58 333.337 80.98C333.571 81.38 333.687 81.8433 333.687 82.37C333.687 82.89 333.571 83.3533 333.337 83.76C333.111 84.16 332.794 84.4767 332.387 84.71C331.981 84.9367 331.521 85.05 331.007 85.05ZM331.007 84.42C331.387 84.42 331.724 84.3367 332.017 84.17C332.311 83.9967 332.541 83.7567 332.707 83.45C332.881 83.1367 332.967 82.7767 332.967 82.37C332.967 81.9567 332.881 81.5967 332.707 81.29C332.541 80.9833 332.311 80.7467 332.017 80.58C331.724 80.4067 331.391 80.32 331.017 80.32C330.644 80.32 330.311 80.4067 330.017 80.58C329.724 80.7467 329.491 80.9833 329.317 81.29C329.144 81.5967 329.057 81.9567 329.057 82.37C329.057 82.7767 329.144 83.1367 329.317 83.45C329.491 83.7567 329.724 83.9967 330.017 84.17C330.311 84.3367 330.641 84.42 331.007 84.42ZM337.427 85.05C336.927 85.05 336.477 84.9367 336.077 84.71C335.684 84.4833 335.374 84.17 335.147 83.77C334.92 83.3633 334.807 82.8967 334.807 82.37C334.807 81.8367 334.92 81.37 335.147 80.97C335.374 80.57 335.684 80.26 336.077 80.04C336.477 79.8133 336.927 79.7 337.427 79.7C337.887 79.7 338.297 79.8033 338.657 80.01C339.024 80.2167 339.314 80.52 339.527 80.92C339.747 81.3133 339.857 81.7967 339.857 82.37C339.857 82.9367 339.75 83.42 339.537 83.82C339.324 84.22 339.034 84.5267 338.667 84.74C338.307 84.9467 337.894 85.05 337.427 85.05ZM337.477 84.42C337.85 84.42 338.184 84.3367 338.477 84.17C338.777 83.9967 339.01 83.7567 339.177 83.45C339.35 83.1367 339.437 82.7767 339.437 82.37C339.437 81.9567 339.35 81.5967 339.177 81.29C339.01 80.9833 338.777 80.7467 338.477 80.58C338.184 80.4067 337.85 80.32 337.477 80.32C337.11 80.32 336.78 80.4067 336.487 80.58C336.194 80.7467 335.96 80.9833 335.787 81.29C335.614 81.5967 335.527 81.9567 335.527 82.37C335.527 82.7767 335.614 83.1367 335.787 83.45C335.96 83.7567 336.194 83.9967 336.487 84.17C336.78 84.3367 337.11 84.42 337.477 84.42ZM339.457 85V83.42L339.527 82.36L339.427 81.3V77.58H340.137V85H339.457ZM344.484 85.05C344.038 85.05 343.648 84.9667 343.314 84.8C342.981 84.6333 342.721 84.3833 342.534 84.05C342.354 83.7167 342.264 83.3 342.264 82.8V79.75H342.974V82.72C342.974 83.28 343.111 83.7033 343.384 83.99C343.664 84.27 344.054 84.41 344.554 84.41C344.921 84.41 345.238 84.3367 345.504 84.19C345.778 84.0367 345.984 83.8167 346.124 83.53C346.271 83.2433 346.344 82.9 346.344 82.5V79.75H347.054V85H346.374V83.56L346.484 83.82C346.318 84.2067 346.058 84.51 345.704 84.73C345.358 84.9433 344.951 85.05 344.484 85.05ZM351.413 85.05C350.893 85.05 350.426 84.9367 350.013 84.71C349.606 84.4767 349.286 84.16 349.053 83.76C348.82 83.3533 348.703 82.89 348.703 82.37C348.703 81.8433 348.82 81.38 349.053 80.98C349.286 80.58 349.606 80.2667 350.013 80.04C350.426 79.8133 350.893 79.7 351.413 79.7C351.86 79.7 352.263 79.7867 352.623 79.96C352.983 80.1333 353.266 80.3933 353.473 80.74L352.943 81.1C352.763 80.8333 352.54 80.6367 352.273 80.51C352.006 80.3833 351.716 80.32 351.403 80.32C351.03 80.32 350.693 80.4067 350.393 80.58C350.093 80.7467 349.856 80.9833 349.683 81.29C349.51 81.5967 349.423 81.9567 349.423 82.37C349.423 82.7833 349.51 83.1433 349.683 83.45C349.856 83.7567 350.093 83.9967 350.393 84.17C350.693 84.3367 351.03 84.42 351.403 84.42C351.716 84.42 352.006 84.3567 352.273 84.23C352.54 84.1033 352.763 83.91 352.943 83.65L353.473 84.01C353.266 84.35 352.983 84.61 352.623 84.79C352.263 84.9633 351.86 85.05 351.413 85.05ZM356.786 85.05C356.293 85.05 355.913 84.9167 355.646 84.65C355.38 84.3833 355.246 84.0067 355.246 83.52V78.59H355.956V83.48C355.956 83.7867 356.033 84.0233 356.186 84.19C356.346 84.3567 356.573 84.44 356.866 84.44C357.18 84.44 357.44 84.35 357.646 84.17L357.896 84.68C357.756 84.8067 357.586 84.9 357.386 84.96C357.193 85.02 356.993 85.05 356.786 85.05ZM354.306 80.34V79.75H357.556V80.34H354.306ZM360.799 85.05C360.366 85.05 359.956 84.99 359.569 84.87C359.182 84.7433 358.879 84.5867 358.659 84.4L358.979 83.84C359.192 84 359.466 84.14 359.799 84.26C360.132 84.3733 360.482 84.43 360.849 84.43C361.349 84.43 361.709 84.3533 361.929 84.2C362.149 84.04 362.259 83.83 362.259 83.57C362.259 83.3767 362.196 83.2267 362.069 83.12C361.949 83.0067 361.789 82.9233 361.589 82.87C361.389 82.81 361.166 82.76 360.919 82.72C360.672 82.68 360.426 82.6333 360.179 82.58C359.939 82.5267 359.719 82.45 359.519 82.35C359.319 82.2433 359.156 82.1 359.029 81.92C358.909 81.74 358.849 81.5 358.849 81.2C358.849 80.9133 358.929 80.6567 359.089 80.43C359.249 80.2033 359.482 80.0267 359.789 79.9C360.102 79.7667 360.482 79.7 360.929 79.7C361.269 79.7 361.609 79.7467 361.949 79.84C362.289 79.9267 362.569 80.0433 362.789 80.19L362.479 80.76C362.246 80.6 361.996 80.4867 361.729 80.42C361.462 80.3467 361.196 80.31 360.929 80.31C360.456 80.31 360.106 80.3933 359.879 80.56C359.659 80.72 359.549 80.9267 359.549 81.18C359.549 81.38 359.609 81.5367 359.729 81.65C359.856 81.7633 360.019 81.8533 360.219 81.92C360.426 81.98 360.649 82.03 360.889 82.07C361.136 82.11 361.379 82.16 361.619 82.22C361.866 82.2733 362.089 82.35 362.289 82.45C362.496 82.5433 362.659 82.68 362.779 82.86C362.906 83.0333 362.969 83.2633 362.969 83.55C362.969 83.8567 362.882 84.1233 362.709 84.35C362.542 84.57 362.296 84.7433 361.969 84.87C361.649 84.99 361.259 85.05 360.799 85.05ZM364.542 85.05C364.395 85.05 364.268 84.9967 364.162 84.89C364.062 84.7833 364.012 84.6533 364.012 84.5C364.012 84.34 364.062 84.21 364.162 84.11C364.268 84.01 364.395 83.96 364.542 83.96C364.688 83.96 364.812 84.01 364.912 84.11C365.018 84.21 365.072 84.34 365.072 84.5C365.072 84.6533 365.018 84.7833 364.912 84.89C364.812 84.9967 364.688 85.05 364.542 85.05Z" fill="white"/>
</svg>
