<svg width="420" height="254" viewBox="0 0 420 254" fill="none" xmlns="http://www.w3.org/2000/svg">
<rect x="0.5" y="0.5" width="419" height="253" rx="11.5" stroke="white" stroke-opacity="0.1"/>
<path d="M17.028 24.168C16.364 24.168 15.748 24.064 15.18 23.856C14.62 23.64 14.132 23.336 13.716 22.944C13.308 22.552 12.988 22.092 12.756 21.564C12.524 21.028 12.408 20.44 12.408 19.8C12.408 19.16 12.524 18.576 12.756 18.048C12.988 17.512 13.308 17.048 13.716 16.656C14.132 16.264 14.62 15.964 15.18 15.756C15.748 15.54 16.364 15.432 17.028 15.432C17.804 15.432 18.496 15.568 19.104 15.84C19.72 16.112 20.232 16.504 20.64 17.016L19.128 18.384C18.856 18.064 18.556 17.82 18.228 17.652C17.908 17.484 17.548 17.4 17.148 17.4C16.804 17.4 16.488 17.456 16.2 17.568C15.912 17.68 15.664 17.844 15.456 18.06C15.256 18.268 15.096 18.52 14.976 18.816C14.864 19.112 14.808 19.44 14.808 19.8C14.808 20.16 14.864 20.488 14.976 20.784C15.096 21.08 15.256 21.336 15.456 21.552C15.664 21.76 15.912 21.92 16.2 22.032C16.488 22.144 16.804 22.2 17.148 22.2C17.548 22.2 17.908 22.116 18.228 21.948C18.556 21.78 18.856 21.536 19.128 21.216L20.64 22.584C20.232 23.088 19.72 23.48 19.104 23.76C18.496 24.032 17.804 24.168 17.028 24.168ZM25.7418 24.168C25.0698 24.168 24.4498 24.06 23.8818 23.844C23.3138 23.628 22.8178 23.324 22.3938 22.932C21.9778 22.532 21.6538 22.068 21.4218 21.54C21.1898 21.012 21.0738 20.432 21.0738 19.8C21.0738 19.168 21.1898 18.588 21.4218 18.06C21.6538 17.532 21.9778 17.072 22.3938 16.68C22.8178 16.28 23.3138 15.972 23.8818 15.756C24.4498 15.54 25.0698 15.432 25.7418 15.432C26.4218 15.432 27.0418 15.54 27.6018 15.756C28.1698 15.972 28.6618 16.28 29.0778 16.68C29.4938 17.072 29.8178 17.532 30.0498 18.06C30.2898 18.588 30.4098 19.168 30.4098 19.8C30.4098 20.432 30.2898 21.016 30.0498 21.552C29.8178 22.08 29.4938 22.54 29.0778 22.932C28.6618 23.324 28.1698 23.628 27.6018 23.844C27.0418 24.06 26.4218 24.168 25.7418 24.168ZM25.7418 22.2C26.0618 22.2 26.3578 22.144 26.6298 22.032C26.9098 21.92 27.1498 21.76 27.3498 21.552C27.5578 21.336 27.7178 21.08 27.8298 20.784C27.9498 20.488 28.0098 20.16 28.0098 19.8C28.0098 19.432 27.9498 19.104 27.8298 18.816C27.7178 18.52 27.5578 18.268 27.3498 18.06C27.1498 17.844 26.9098 17.68 26.6298 17.568C26.3578 17.456 26.0618 17.4 25.7418 17.4C25.4218 17.4 25.1218 17.456 24.8418 17.568C24.5698 17.68 24.3298 17.844 24.1218 18.06C23.9218 18.268 23.7618 18.52 23.6418 18.816C23.5298 19.104 23.4738 19.432 23.4738 19.8C23.4738 20.16 23.5298 20.488 23.6418 20.784C23.7618 21.08 23.9218 21.336 24.1218 21.552C24.3298 21.76 24.5698 21.92 24.8418 22.032C25.1218 22.144 25.4218 22.2 25.7418 22.2ZM31.8942 24V15.6H33.8502L38.4822 21.192H37.5582V15.6H39.8862V24H37.9302L33.2982 18.408H34.2222V24H31.8942ZM41.8022 24V15.6H43.7582L48.3902 21.192H47.4662V15.6H49.7942V24H47.8382L43.2062 18.408H44.1302V24H41.8022ZM51.7102 24V15.6H58.2982V17.436H54.0622V22.164H58.4542V24H51.7102ZM53.8942 20.628V18.852H57.7942V20.628H53.8942ZM64.2007 24.168C63.5367 24.168 62.9207 24.064 62.3527 23.856C61.7927 23.64 61.3047 23.336 60.8887 22.944C60.4807 22.552 60.1607 22.092 59.9287 21.564C59.6967 21.028 59.5807 20.44 59.5807 19.8C59.5807 19.16 59.6967 18.576 59.9287 18.048C60.1607 17.512 60.4807 17.048 60.8887 16.656C61.3047 16.264 61.7927 15.964 62.3527 15.756C62.9207 15.54 63.5367 15.432 64.2007 15.432C64.9767 15.432 65.6687 15.568 66.2767 15.84C66.8927 16.112 67.4047 16.504 67.8127 17.016L66.3007 18.384C66.0287 18.064 65.7287 17.82 65.4007 17.652C65.0807 17.484 64.7207 17.4 64.3207 17.4C63.9767 17.4 63.6607 17.456 63.3727 17.568C63.0847 17.68 62.8367 17.844 62.6287 18.06C62.4287 18.268 62.2687 18.52 62.1487 18.816C62.0367 19.112 61.9807 19.44 61.9807 19.8C61.9807 20.16 62.0367 20.488 62.1487 20.784C62.2687 21.08 62.4287 21.336 62.6287 21.552C62.8367 21.76 63.0847 21.92 63.3727 22.032C63.6607 22.144 63.9767 22.2 64.3207 22.2C64.7207 22.2 65.0807 22.116 65.4007 21.948C65.7287 21.78 66.0287 21.536 66.3007 21.216L67.8127 22.584C67.4047 23.088 66.8927 23.48 66.2767 23.76C65.6687 24.032 64.9767 24.168 64.2007 24.168ZM70.7008 24V17.484H68.1208V15.6H75.6448V17.484H73.0768V24H70.7008Z" fill="white"/>
<rect x="12.5" y="35.5" width="395" height="64" rx="11.5" stroke="white" stroke-opacity="0.1"/>
<g clip-path="url(#clip0_2_1020)">
<path d="M210 73C217.732 73 224 66.732 224 59C224 51.268 217.732 45 210 45C202.268 45 196 51.268 196 59C196 66.732 202.268 73 210 73Z" fill="url(#paint0_linear_2_1020)"/>
<path d="M205.477 60.0227L207.14 64.6219C207.14 64.6219 207.348 65.0539 207.572 65.0539C207.796 65.0539 211.099 61.6141 211.099 61.6141L214.78 54.5102L205.538 58.8359L205.477 60.0227Z" fill="#C8DAEA"/>
<path d="M207.681 61.2039L207.364 64.5945C207.364 64.5945 207.233 65.6336 208.266 64.5945C209.305 63.5555 210.301 62.757 210.301 62.757" fill="#A9C6D8"/>
<path d="M205.505 60.1867L202.087 59.0711C202.087 59.0711 201.677 58.907 201.808 58.5297C201.835 58.4531 201.89 58.3875 202.054 58.2727C202.814 57.7477 216.07 52.9844 216.07 52.9844C216.07 52.9844 216.442 52.8586 216.666 52.9406C216.776 52.9734 216.863 53.0664 216.885 53.1813C216.907 53.2797 216.918 53.3836 216.913 53.482C216.913 53.5695 216.902 53.6516 216.891 53.7773C216.809 55.0789 214.391 64.8023 214.391 64.8023C214.391 64.8023 214.249 65.3711 213.73 65.393C213.473 65.4039 213.221 65.3055 213.041 65.125C212.023 64.25 208.513 61.8875 207.736 61.3734C207.703 61.3516 207.676 61.3133 207.67 61.2695C207.659 61.2148 207.72 61.1492 207.72 61.1492C207.72 61.1492 213.834 55.7133 213.998 55.1445C214.009 55.1008 213.965 55.0789 213.899 55.0953C213.495 55.243 206.451 59.6945 205.674 60.1813C205.625 60.1922 205.565 60.1977 205.505 60.1867Z" fill="white"/>
</g>
<path d="M156.052 88V82.888H154.036V81.7H159.526V82.888H157.51V88H156.052ZM162.302 88.072C161.75 88.072 161.264 87.964 160.844 87.748C160.43 87.532 160.109 87.238 159.881 86.866C159.653 86.488 159.539 86.059 159.539 85.579C159.539 85.093 159.65 84.664 159.872 84.292C160.1 83.914 160.409 83.62 160.799 83.41C161.189 83.194 161.63 83.086 162.122 83.086C162.596 83.086 163.022 83.188 163.4 83.392C163.784 83.59 164.087 83.878 164.309 84.256C164.531 84.628 164.642 85.075 164.642 85.597C164.642 85.651 164.639 85.714 164.633 85.786C164.627 85.852 164.621 85.915 164.615 85.975H160.682V85.156H163.877L163.337 85.399C163.337 85.147 163.286 84.928 163.184 84.742C163.082 84.556 162.941 84.412 162.761 84.31C162.581 84.202 162.371 84.148 162.131 84.148C161.891 84.148 161.678 84.202 161.492 84.31C161.312 84.412 161.171 84.559 161.069 84.751C160.967 84.937 160.916 85.159 160.916 85.417V85.633C160.916 85.897 160.973 86.131 161.087 86.335C161.207 86.533 161.372 86.686 161.582 86.794C161.798 86.896 162.05 86.947 162.338 86.947C162.596 86.947 162.821 86.908 163.013 86.83C163.211 86.752 163.391 86.635 163.553 86.479L164.3 87.289C164.078 87.541 163.799 87.736 163.463 87.874C163.127 88.006 162.74 88.072 162.302 88.072ZM165.757 88V81.322H167.161V88H165.757ZM171.047 88.072C170.495 88.072 170.009 87.964 169.589 87.748C169.175 87.532 168.854 87.238 168.626 86.866C168.398 86.488 168.284 86.059 168.284 85.579C168.284 85.093 168.395 84.664 168.617 84.292C168.845 83.914 169.154 83.62 169.544 83.41C169.934 83.194 170.375 83.086 170.867 83.086C171.341 83.086 171.767 83.188 172.145 83.392C172.529 83.59 172.832 83.878 173.054 84.256C173.276 84.628 173.387 85.075 173.387 85.597C173.387 85.651 173.384 85.714 173.378 85.786C173.372 85.852 173.366 85.915 173.36 85.975H169.427V85.156H172.622L172.082 85.399C172.082 85.147 172.031 84.928 171.929 84.742C171.827 84.556 171.686 84.412 171.506 84.31C171.326 84.202 171.116 84.148 170.876 84.148C170.636 84.148 170.423 84.202 170.237 84.31C170.057 84.412 169.916 84.559 169.814 84.751C169.712 84.937 169.661 85.159 169.661 85.417V85.633C169.661 85.897 169.718 86.131 169.832 86.335C169.952 86.533 170.117 86.686 170.327 86.794C170.543 86.896 170.795 86.947 171.083 86.947C171.341 86.947 171.566 86.908 171.758 86.83C171.956 86.752 172.136 86.635 172.298 86.479L173.045 87.289C172.823 87.541 172.544 87.736 172.208 87.874C171.872 88.006 171.485 88.072 171.047 88.072ZM176.779 89.818C176.323 89.818 175.882 89.761 175.456 89.647C175.036 89.539 174.685 89.374 174.403 89.152L174.961 88.144C175.165 88.312 175.423 88.444 175.735 88.54C176.053 88.642 176.365 88.693 176.671 88.693C177.169 88.693 177.529 88.582 177.751 88.36C177.979 88.138 178.093 87.808 178.093 87.37V86.641L178.183 85.426L178.165 84.202V83.158H179.497V87.19C179.497 88.09 179.263 88.753 178.795 89.179C178.327 89.605 177.655 89.818 176.779 89.818ZM176.563 87.766C176.113 87.766 175.705 87.67 175.339 87.478C174.979 87.28 174.688 87.007 174.466 86.659C174.25 86.305 174.142 85.894 174.142 85.426C174.142 84.952 174.25 84.541 174.466 84.193C174.688 83.839 174.979 83.566 175.339 83.374C175.705 83.182 176.113 83.086 176.563 83.086C176.971 83.086 177.331 83.17 177.643 83.338C177.955 83.5 178.198 83.755 178.372 84.103C178.546 84.445 178.633 84.886 178.633 85.426C178.633 85.96 178.546 86.401 178.372 86.749C178.198 87.091 177.955 87.346 177.643 87.514C177.331 87.682 176.971 87.766 176.563 87.766ZM176.842 86.614C177.088 86.614 177.307 86.566 177.499 86.47C177.691 86.368 177.841 86.227 177.949 86.047C178.057 85.867 178.111 85.66 178.111 85.426C178.111 85.186 178.057 84.979 177.949 84.805C177.841 84.625 177.691 84.487 177.499 84.391C177.307 84.289 177.088 84.238 176.842 84.238C176.596 84.238 176.377 84.289 176.185 84.391C175.993 84.487 175.84 84.625 175.726 84.805C175.618 84.979 175.564 85.186 175.564 85.426C175.564 85.66 175.618 85.867 175.726 86.047C175.84 86.227 175.993 86.368 176.185 86.47C176.377 86.566 176.596 86.614 176.842 86.614ZM180.984 88V83.158H182.325V84.526L182.136 84.13C182.28 83.788 182.511 83.53 182.829 83.356C183.147 83.176 183.534 83.086 183.99 83.086V84.382C183.93 84.376 183.876 84.373 183.828 84.373C183.78 84.367 183.729 84.364 183.675 84.364C183.291 84.364 182.979 84.475 182.739 84.697C182.505 84.913 182.388 85.252 182.388 85.714V88H180.984ZM187.658 88V87.055L187.568 86.848V85.156C187.568 84.856 187.475 84.622 187.289 84.454C187.109 84.286 186.83 84.202 186.452 84.202C186.194 84.202 185.939 84.244 185.687 84.328C185.441 84.406 185.231 84.514 185.057 84.652L184.553 83.671C184.817 83.485 185.135 83.341 185.507 83.239C185.879 83.137 186.257 83.086 186.641 83.086C187.379 83.086 187.952 83.26 188.36 83.608C188.768 83.956 188.972 84.499 188.972 85.237V88H187.658ZM186.182 88.072C185.804 88.072 185.48 88.009 185.21 87.883C184.94 87.751 184.733 87.574 184.589 87.352C184.445 87.13 184.373 86.881 184.373 86.605C184.373 86.317 184.442 86.065 184.58 85.849C184.724 85.633 184.949 85.465 185.255 85.345C185.561 85.219 185.96 85.156 186.452 85.156H187.739V85.975H186.605C186.275 85.975 186.047 86.029 185.921 86.137C185.801 86.245 185.741 86.38 185.741 86.542C185.741 86.722 185.81 86.866 185.948 86.974C186.092 87.076 186.287 87.127 186.533 87.127C186.767 87.127 186.977 87.073 187.163 86.965C187.349 86.851 187.484 86.686 187.568 86.47L187.784 87.118C187.682 87.43 187.496 87.667 187.226 87.829C186.956 87.991 186.608 88.072 186.182 88.072ZM190.423 88V83.158H191.764V84.481L191.512 84.094C191.68 83.764 191.917 83.515 192.223 83.347C192.535 83.173 192.889 83.086 193.285 83.086C193.729 83.086 194.116 83.2 194.446 83.428C194.782 83.65 195.004 83.992 195.112 84.454L194.617 84.319C194.779 83.941 195.037 83.641 195.391 83.419C195.751 83.197 196.162 83.086 196.624 83.086C197.008 83.086 197.347 83.164 197.641 83.32C197.941 83.47 198.175 83.704 198.343 84.022C198.517 84.334 198.604 84.736 198.604 85.228V88H197.2V85.444C197.2 85.054 197.119 84.766 196.957 84.58C196.795 84.394 196.567 84.301 196.273 84.301C196.069 84.301 195.886 84.349 195.724 84.445C195.562 84.535 195.436 84.673 195.346 84.859C195.256 85.045 195.211 85.282 195.211 85.57V88H193.807V85.444C193.807 85.054 193.726 84.766 193.564 84.58C193.408 84.394 193.183 84.301 192.889 84.301C192.685 84.301 192.502 84.349 192.34 84.445C192.178 84.535 192.052 84.673 191.962 84.859C191.872 85.045 191.827 85.282 191.827 85.57V88H190.423ZM200.573 84.841C200.333 84.841 200.126 84.76 199.952 84.598C199.784 84.43 199.7 84.217 199.7 83.959C199.7 83.701 199.784 83.494 199.952 83.338C200.126 83.176 200.333 83.095 200.573 83.095C200.819 83.095 201.026 83.176 201.194 83.338C201.362 83.494 201.446 83.701 201.446 83.959C201.446 84.217 201.362 84.43 201.194 84.598C201.026 84.76 200.819 84.841 200.573 84.841ZM200.573 88.072C200.333 88.072 200.126 87.991 199.952 87.829C199.784 87.661 199.7 87.448 199.7 87.19C199.7 86.932 199.784 86.725 199.952 86.569C200.126 86.407 200.333 86.326 200.573 86.326C200.819 86.326 201.026 86.407 201.194 86.569C201.362 86.725 201.446 86.932 201.446 87.19C201.446 87.448 201.362 87.661 201.194 87.829C201.026 87.991 200.819 88.072 200.573 88.072Z" fill="white"/>
<path d="M206.984 88.054C206.504 88.054 206.132 87.925 205.868 87.667C205.604 87.409 205.472 87.04 205.472 86.56V82.186H206.336V86.524C206.336 86.782 206.399 86.98 206.525 87.118C206.657 87.256 206.843 87.325 207.083 87.325C207.353 87.325 207.578 87.25 207.758 87.1L208.028 87.721C207.896 87.835 207.737 87.919 207.551 87.973C207.371 88.027 207.182 88.054 206.984 88.054ZM204.662 83.941V83.23H207.704V83.941H204.662ZM209.547 88.054C209.379 88.054 209.235 87.997 209.115 87.883C208.995 87.763 208.935 87.613 208.935 87.433C208.935 87.253 208.995 87.106 209.115 86.992C209.235 86.878 209.379 86.821 209.547 86.821C209.709 86.821 209.847 86.878 209.961 86.992C210.081 87.106 210.141 87.253 210.141 87.433C210.141 87.613 210.081 87.763 209.961 87.883C209.847 87.997 209.709 88.054 209.547 88.054ZM211.559 88V83.23H212.387V84.499L212.252 84.175C212.402 83.863 212.633 83.62 212.945 83.446C213.257 83.272 213.62 83.185 214.034 83.185C214.49 83.185 214.883 83.299 215.213 83.527C215.543 83.749 215.759 84.088 215.861 84.544L215.51 84.4C215.654 84.034 215.906 83.74 216.266 83.518C216.626 83.296 217.046 83.185 217.526 83.185C217.91 83.185 218.249 83.26 218.543 83.41C218.837 83.56 219.065 83.788 219.227 84.094C219.395 84.4 219.479 84.787 219.479 85.255V88H218.615V85.354C218.615 84.892 218.507 84.544 218.291 84.31C218.075 84.076 217.772 83.959 217.382 83.959C217.094 83.959 216.842 84.019 216.626 84.139C216.41 84.259 216.242 84.436 216.122 84.67C216.008 84.904 215.951 85.195 215.951 85.543V88H215.087V85.354C215.087 84.892 214.979 84.544 214.763 84.31C214.553 84.076 214.25 83.959 213.854 83.959C213.572 83.959 213.323 84.019 213.107 84.139C212.891 84.259 212.723 84.436 212.603 84.67C212.483 84.904 212.423 85.195 212.423 85.543V88H211.559ZM223.373 88.054C222.863 88.054 222.413 87.949 222.023 87.739C221.639 87.529 221.339 87.241 221.123 86.875C220.913 86.509 220.808 86.089 220.808 85.615C220.808 85.141 220.91 84.721 221.114 84.355C221.324 83.989 221.609 83.704 221.969 83.5C222.335 83.29 222.746 83.185 223.202 83.185C223.664 83.185 224.072 83.287 224.426 83.491C224.78 83.695 225.056 83.983 225.254 84.355C225.458 84.721 225.56 85.15 225.56 85.642C225.56 85.678 225.557 85.72 225.551 85.768C225.551 85.816 225.548 85.861 225.542 85.903H221.483V85.282H225.092L224.741 85.498C224.747 85.192 224.684 84.919 224.552 84.679C224.42 84.439 224.237 84.253 224.003 84.121C223.775 83.983 223.508 83.914 223.202 83.914C222.902 83.914 222.635 83.983 222.401 84.121C222.167 84.253 221.984 84.442 221.852 84.688C221.72 84.928 221.654 85.204 221.654 85.516V85.66C221.654 85.978 221.726 86.263 221.87 86.515C222.02 86.761 222.227 86.953 222.491 87.091C222.755 87.229 223.058 87.298 223.4 87.298C223.682 87.298 223.937 87.25 224.165 87.154C224.399 87.058 224.603 86.914 224.777 86.722L225.254 87.28C225.038 87.532 224.768 87.724 224.444 87.856C224.126 87.988 223.769 88.054 223.373 88.054ZM225.869 88.9L228.839 80.422H229.622L226.652 88.9H225.869ZM231.045 88.054C230.649 88.054 230.271 88 229.911 87.892C229.557 87.784 229.278 87.652 229.074 87.496L229.434 86.812C229.638 86.95 229.89 87.067 230.19 87.163C230.49 87.259 230.796 87.307 231.108 87.307C231.51 87.307 231.798 87.25 231.972 87.136C232.152 87.022 232.242 86.863 232.242 86.659C232.242 86.509 232.188 86.392 232.08 86.308C231.972 86.224 231.828 86.161 231.648 86.119C231.474 86.077 231.279 86.041 231.063 86.011C230.847 85.975 230.631 85.933 230.415 85.885C230.199 85.831 230.001 85.759 229.821 85.669C229.641 85.573 229.497 85.444 229.389 85.282C229.281 85.114 229.227 84.892 229.227 84.616C229.227 84.328 229.308 84.076 229.47 83.86C229.632 83.644 229.86 83.479 230.154 83.365C230.454 83.245 230.808 83.185 231.216 83.185C231.528 83.185 231.843 83.224 232.161 83.302C232.485 83.374 232.749 83.479 232.953 83.617L232.584 84.301C232.368 84.157 232.143 84.058 231.909 84.004C231.675 83.95 231.441 83.923 231.207 83.923C230.829 83.923 230.547 83.986 230.361 84.112C230.175 84.232 230.082 84.388 230.082 84.58C230.082 84.742 230.136 84.868 230.244 84.958C230.358 85.042 230.502 85.108 230.676 85.156C230.856 85.204 231.054 85.246 231.27 85.282C231.486 85.312 231.702 85.354 231.918 85.408C232.134 85.456 232.329 85.525 232.503 85.615C232.683 85.705 232.827 85.831 232.935 85.993C233.049 86.155 233.106 86.371 233.106 86.641C233.106 86.929 233.022 87.178 232.854 87.388C232.686 87.598 232.449 87.763 232.143 87.883C231.837 87.997 231.471 88.054 231.045 88.054ZM237.327 88V86.992L237.282 86.803V85.084C237.282 84.718 237.174 84.436 236.958 84.238C236.748 84.034 236.43 83.932 236.004 83.932C235.722 83.932 235.446 83.98 235.176 84.076C234.906 84.166 234.678 84.289 234.492 84.445L234.132 83.797C234.378 83.599 234.672 83.449 235.014 83.347C235.362 83.239 235.725 83.185 236.103 83.185C236.757 83.185 237.261 83.344 237.615 83.662C237.969 83.98 238.146 84.466 238.146 85.12V88H237.327ZM235.761 88.054C235.407 88.054 235.095 87.994 234.825 87.874C234.561 87.754 234.357 87.589 234.213 87.379C234.069 87.163 233.997 86.92 233.997 86.65C233.997 86.392 234.057 86.158 234.177 85.948C234.303 85.738 234.504 85.57 234.78 85.444C235.062 85.318 235.44 85.255 235.914 85.255H237.426V85.876H235.95C235.518 85.876 235.227 85.948 235.077 86.092C234.927 86.236 234.852 86.41 234.852 86.614C234.852 86.848 234.945 87.037 235.131 87.181C235.317 87.319 235.575 87.388 235.905 87.388C236.229 87.388 236.511 87.316 236.751 87.172C236.997 87.028 237.174 86.818 237.282 86.542L237.453 87.136C237.339 87.418 237.138 87.643 236.85 87.811C236.562 87.973 236.199 88.054 235.761 88.054ZM242.454 88.054C242.046 88.054 241.677 87.964 241.347 87.784C241.023 87.598 240.765 87.325 240.573 86.965C240.387 86.605 240.294 86.155 240.294 85.615C240.294 85.075 240.39 84.625 240.582 84.265C240.78 83.905 241.041 83.635 241.365 83.455C241.695 83.275 242.058 83.185 242.454 83.185C242.922 83.185 243.336 83.287 243.696 83.491C244.056 83.695 244.341 83.98 244.551 84.346C244.761 84.706 244.866 85.129 244.866 85.615C244.866 86.101 244.761 86.527 244.551 86.893C244.341 87.259 244.056 87.544 243.696 87.748C243.336 87.952 242.922 88.054 242.454 88.054ZM239.925 88V81.322H240.789V84.499L240.699 85.606L240.753 86.713V88H239.925ZM242.382 87.298C242.688 87.298 242.961 87.229 243.201 87.091C243.447 86.953 243.639 86.758 243.777 86.506C243.921 86.248 243.993 85.951 243.993 85.615C243.993 85.273 243.921 84.979 243.777 84.733C243.639 84.481 243.447 84.286 243.201 84.148C242.961 84.01 242.688 83.941 242.382 83.941C242.082 83.941 241.809 84.01 241.563 84.148C241.323 84.286 241.131 84.481 240.987 84.733C240.849 84.979 240.78 85.273 240.78 85.615C240.78 85.951 240.849 86.248 240.987 86.506C241.131 86.758 241.323 86.953 241.563 87.091C241.809 87.229 242.082 87.298 242.382 87.298ZM246.315 89.8C246.087 89.8 245.865 89.761 245.649 89.683C245.433 89.611 245.247 89.503 245.091 89.359L245.46 88.711C245.58 88.825 245.712 88.912 245.856 88.972C246 89.032 246.153 89.062 246.315 89.062C246.525 89.062 246.699 89.008 246.837 88.9C246.975 88.792 247.104 88.6 247.224 88.324L247.521 87.667L247.611 87.559L249.483 83.23H250.329L248.016 88.477C247.878 88.813 247.722 89.077 247.548 89.269C247.38 89.461 247.194 89.596 246.99 89.674C246.786 89.758 246.561 89.8 246.315 89.8ZM247.449 88.153L245.271 83.23H246.171L248.025 87.478L247.449 88.153ZM251.315 88V83.23H252.143V84.526L252.062 84.202C252.194 83.872 252.416 83.62 252.728 83.446C253.04 83.272 253.424 83.185 253.88 83.185V84.022C253.844 84.016 253.808 84.013 253.772 84.013C253.742 84.013 253.712 84.013 253.682 84.013C253.22 84.013 252.854 84.151 252.584 84.427C252.314 84.703 252.179 85.102 252.179 85.624V88H251.315ZM255.827 86.848L255.845 85.741L258.59 83.23H259.634L257.528 85.3L257.06 85.696L255.827 86.848ZM255.125 88V81.322H255.989V88H255.125ZM258.77 88L256.898 85.678L257.456 84.985L259.832 88H258.77ZM263.715 88V86.992L263.67 86.803V85.084C263.67 84.718 263.562 84.436 263.346 84.238C263.136 84.034 262.818 83.932 262.392 83.932C262.11 83.932 261.834 83.98 261.564 84.076C261.294 84.166 261.066 84.289 260.88 84.445L260.52 83.797C260.766 83.599 261.06 83.449 261.402 83.347C261.75 83.239 262.113 83.185 262.491 83.185C263.145 83.185 263.649 83.344 264.003 83.662C264.357 83.98 264.534 84.466 264.534 85.12V88H263.715ZM262.149 88.054C261.795 88.054 261.483 87.994 261.213 87.874C260.949 87.754 260.745 87.589 260.601 87.379C260.457 87.163 260.385 86.92 260.385 86.65C260.385 86.392 260.445 86.158 260.565 85.948C260.691 85.738 260.892 85.57 261.168 85.444C261.45 85.318 261.828 85.255 262.302 85.255H263.814V85.876H262.338C261.906 85.876 261.615 85.948 261.465 86.092C261.315 86.236 261.24 86.41 261.24 86.614C261.24 86.848 261.333 87.037 261.519 87.181C261.705 87.319 261.963 87.388 262.293 87.388C262.617 87.388 262.899 87.316 263.139 87.172C263.385 87.028 263.562 86.818 263.67 86.542L263.841 87.136C263.727 87.418 263.526 87.643 263.238 87.811C262.95 87.973 262.587 88.054 262.149 88.054Z" fill="white" fill-opacity="0.7"/>
<rect x="12.5" y="106.5" width="395" height="64" rx="11.5" stroke="white" stroke-opacity="0.1"/>
<g clip-path="url(#clip1_2_1020)">
<path fill-rule="evenodd" clip-rule="evenodd" d="M199.112 144H220.888C222.605 144 224 142.605 224 140.888V119.112C224 117.395 222.605 116 220.888 116H199.112C197.395 116 196 117.395 196 119.112V140.888C196 142.605 197.395 144 199.112 144Z" fill="#007EBB"/>
<path fill-rule="evenodd" clip-rule="evenodd" d="M220.112 140.112H215.955V133.035C215.955 131.094 215.217 130.011 213.68 130.011C212.013 130.011 211.138 131.138 211.138 133.035V140.112H207.134V126.631H211.138V128.447C211.138 128.447 212.341 126.221 215.201 126.221C218.061 126.221 220.106 127.966 220.106 131.58V140.112H220.112ZM202.36 124.865C200.998 124.865 199.888 123.749 199.888 122.377C199.888 121.004 200.993 119.888 202.36 119.888C203.727 119.888 204.827 121.004 204.827 122.377C204.827 123.749 203.722 124.865 202.36 124.865ZM200.293 140.112H204.471V126.631H200.293V140.112Z" fill="white"/>
</g>
<path d="M141.747 159V152.7H143.205V157.812H146.364V159H141.747ZM147.26 159V154.158H148.664V159H147.26ZM147.962 153.483C147.704 153.483 147.494 153.408 147.332 153.258C147.17 153.108 147.089 152.922 147.089 152.7C147.089 152.478 147.17 152.292 147.332 152.142C147.494 151.992 147.704 151.917 147.962 151.917C148.22 151.917 148.43 151.989 148.592 152.133C148.754 152.271 148.835 152.451 148.835 152.673C148.835 152.907 148.754 153.102 148.592 153.258C148.436 153.408 148.226 153.483 147.962 153.483ZM150.147 159V154.158H151.488V155.499L151.236 155.094C151.41 154.77 151.659 154.521 151.983 154.347C152.307 154.173 152.676 154.086 153.09 154.086C153.474 154.086 153.816 154.164 154.116 154.32C154.422 154.47 154.662 154.704 154.836 155.022C155.01 155.334 155.097 155.736 155.097 156.228V159H153.693V156.444C153.693 156.054 153.606 155.766 153.432 155.58C153.264 155.394 153.024 155.301 152.712 155.301C152.49 155.301 152.289 155.349 152.109 155.445C151.935 155.535 151.797 155.676 151.695 155.868C151.599 156.06 151.551 156.306 151.551 156.606V159H150.147ZM157.71 158.01L157.746 156.3L160.005 154.158H161.679L159.51 156.363L158.781 156.957L157.71 158.01ZM156.549 159V152.322H157.953V159H156.549ZM160.158 159L158.52 156.966L159.402 155.877L161.859 159H160.158ZM164.828 159.072C164.276 159.072 163.79 158.964 163.37 158.748C162.956 158.532 162.635 158.238 162.407 157.866C162.179 157.488 162.065 157.059 162.065 156.579C162.065 156.093 162.176 155.664 162.398 155.292C162.626 154.914 162.935 154.62 163.325 154.41C163.715 154.194 164.156 154.086 164.648 154.086C165.122 154.086 165.548 154.188 165.926 154.392C166.31 154.59 166.613 154.878 166.835 155.256C167.057 155.628 167.168 156.075 167.168 156.597C167.168 156.651 167.165 156.714 167.159 156.786C167.153 156.852 167.147 156.915 167.141 156.975H163.208V156.156H166.403L165.863 156.399C165.863 156.147 165.812 155.928 165.71 155.742C165.608 155.556 165.467 155.412 165.287 155.31C165.107 155.202 164.897 155.148 164.657 155.148C164.417 155.148 164.204 155.202 164.018 155.31C163.838 155.412 163.697 155.559 163.595 155.751C163.493 155.937 163.442 156.159 163.442 156.417V156.633C163.442 156.897 163.499 157.131 163.613 157.335C163.733 157.533 163.898 157.686 164.108 157.794C164.324 157.896 164.576 157.947 164.864 157.947C165.122 157.947 165.347 157.908 165.539 157.83C165.737 157.752 165.917 157.635 166.079 157.479L166.826 158.289C166.604 158.541 166.325 158.736 165.989 158.874C165.653 159.006 165.266 159.072 164.828 159.072ZM170.361 159.072C169.905 159.072 169.494 158.97 169.128 158.766C168.762 158.556 168.471 158.265 168.255 157.893C168.045 157.521 167.94 157.083 167.94 156.579C167.94 156.069 168.045 155.628 168.255 155.256C168.471 154.884 168.762 154.596 169.128 154.392C169.494 154.188 169.905 154.086 170.361 154.086C170.769 154.086 171.126 154.176 171.432 154.356C171.738 154.536 171.975 154.809 172.143 155.175C172.311 155.541 172.395 156.009 172.395 156.579C172.395 157.143 172.314 157.611 172.152 157.983C171.99 158.349 171.756 158.622 171.45 158.802C171.15 158.982 170.787 159.072 170.361 159.072ZM170.604 157.92C170.832 157.92 171.039 157.866 171.225 157.758C171.411 157.65 171.558 157.497 171.666 157.299C171.78 157.095 171.837 156.855 171.837 156.579C171.837 156.297 171.78 156.057 171.666 155.859C171.558 155.661 171.411 155.508 171.225 155.4C171.039 155.292 170.832 155.238 170.604 155.238C170.37 155.238 170.16 155.292 169.974 155.4C169.788 155.508 169.638 155.661 169.524 155.859C169.416 156.057 169.362 156.297 169.362 156.579C169.362 156.855 169.416 157.095 169.524 157.299C169.638 157.497 169.788 157.65 169.974 157.758C170.16 157.866 170.37 157.92 170.604 157.92ZM171.873 159V158.01L171.9 156.57L171.81 155.139V152.322H173.214V159H171.873ZM174.793 159V152.7H176.251V159H174.793ZM177.827 159V154.158H179.168V155.499L178.916 155.094C179.09 154.77 179.339 154.521 179.663 154.347C179.987 154.173 180.356 154.086 180.77 154.086C181.154 154.086 181.496 154.164 181.796 154.32C182.102 154.47 182.342 154.704 182.516 155.022C182.69 155.334 182.777 155.736 182.777 156.228V159H181.373V156.444C181.373 156.054 181.286 155.766 181.112 155.58C180.944 155.394 180.704 155.301 180.392 155.301C180.17 155.301 179.969 155.349 179.789 155.445C179.615 155.535 179.477 155.676 179.375 155.868C179.279 156.06 179.231 156.306 179.231 156.606V159H177.827ZM184.761 155.841C184.521 155.841 184.314 155.76 184.14 155.598C183.972 155.43 183.888 155.217 183.888 154.959C183.888 154.701 183.972 154.494 184.14 154.338C184.314 154.176 184.521 154.095 184.761 154.095C185.007 154.095 185.214 154.176 185.382 154.338C185.55 154.494 185.634 154.701 185.634 154.959C185.634 155.217 185.55 155.43 185.382 155.598C185.214 155.76 185.007 155.841 184.761 155.841ZM184.761 159.072C184.521 159.072 184.314 158.991 184.14 158.829C183.972 158.661 183.888 158.448 183.888 158.19C183.888 157.932 183.972 157.725 184.14 157.569C184.314 157.407 184.521 157.326 184.761 157.326C185.007 157.326 185.214 157.407 185.382 157.569C185.55 157.725 185.634 157.932 185.634 158.19C185.634 158.448 185.55 158.661 185.382 158.829C185.214 158.991 185.007 159.072 184.761 159.072Z" fill="white"/>
<path d="M188.462 159.9L191.432 151.422H192.215L189.245 159.9H188.462ZM192.947 159V154.23H193.811V159H192.947ZM193.379 153.312C193.211 153.312 193.07 153.258 192.956 153.15C192.848 153.042 192.794 152.91 192.794 152.754C192.794 152.592 192.848 152.457 192.956 152.349C193.07 152.241 193.211 152.187 193.379 152.187C193.547 152.187 193.685 152.241 193.793 152.349C193.907 152.451 193.964 152.58 193.964 152.736C193.964 152.898 193.91 153.036 193.802 153.15C193.694 153.258 193.553 153.312 193.379 153.312ZM195.641 159V154.23H196.469V155.517L196.334 155.175C196.49 154.863 196.73 154.62 197.054 154.446C197.378 154.272 197.756 154.185 198.188 154.185C198.578 154.185 198.92 154.26 199.214 154.41C199.514 154.56 199.748 154.788 199.916 155.094C200.084 155.4 200.168 155.787 200.168 156.255V159H199.304V156.354C199.304 155.892 199.19 155.544 198.962 155.31C198.74 155.076 198.425 154.959 198.017 154.959C197.711 154.959 197.444 155.019 197.216 155.139C196.988 155.259 196.811 155.436 196.685 155.67C196.565 155.904 196.505 156.195 196.505 156.543V159H195.641ZM200.876 159.9L203.846 151.422H204.629L201.659 159.9H200.876ZM206.683 159.054C206.203 159.054 205.831 158.925 205.567 158.667C205.303 158.409 205.171 158.04 205.171 157.56V153.186H206.035V157.524C206.035 157.782 206.098 157.98 206.224 158.118C206.356 158.256 206.542 158.325 206.782 158.325C207.052 158.325 207.277 158.25 207.457 158.1L207.727 158.721C207.595 158.835 207.436 158.919 207.25 158.973C207.07 159.027 206.881 159.054 206.683 159.054ZM204.361 154.941V154.23H207.403V154.941H204.361ZM208.952 159V152.322H209.816V155.517L209.645 155.175C209.801 154.863 210.041 154.62 210.365 154.446C210.689 154.272 211.067 154.185 211.499 154.185C211.889 154.185 212.231 154.26 212.525 154.41C212.825 154.56 213.059 154.788 213.227 155.094C213.395 155.4 213.479 155.787 213.479 156.255V159H212.615V156.354C212.615 155.892 212.501 155.544 212.273 155.31C212.051 155.076 211.736 154.959 211.328 154.959C211.022 154.959 210.755 155.019 210.527 155.139C210.299 155.259 210.122 155.436 209.996 155.67C209.876 155.904 209.816 156.195 209.816 156.543V159H208.952ZM218.219 159V157.992L218.174 157.803V156.084C218.174 155.718 218.066 155.436 217.85 155.238C217.64 155.034 217.322 154.932 216.896 154.932C216.614 154.932 216.338 154.98 216.068 155.076C215.798 155.166 215.57 155.289 215.384 155.445L215.024 154.797C215.27 154.599 215.564 154.449 215.906 154.347C216.254 154.239 216.617 154.185 216.995 154.185C217.649 154.185 218.153 154.344 218.507 154.662C218.861 154.98 219.038 155.466 219.038 156.12V159H218.219ZM216.653 159.054C216.299 159.054 215.987 158.994 215.717 158.874C215.453 158.754 215.249 158.589 215.105 158.379C214.961 158.163 214.889 157.92 214.889 157.65C214.889 157.392 214.949 157.158 215.069 156.948C215.195 156.738 215.396 156.57 215.672 156.444C215.954 156.318 216.332 156.255 216.806 156.255H218.318V156.876H216.842C216.41 156.876 216.119 156.948 215.969 157.092C215.819 157.236 215.744 157.41 215.744 157.614C215.744 157.848 215.837 158.037 216.023 158.181C216.209 158.319 216.467 158.388 216.797 158.388C217.121 158.388 217.403 158.316 217.643 158.172C217.889 158.028 218.066 157.818 218.174 157.542L218.345 158.136C218.231 158.418 218.03 158.643 217.742 158.811C217.454 158.973 217.091 159.054 216.653 159.054ZM222.454 159.054C221.974 159.054 221.602 158.925 221.338 158.667C221.074 158.409 220.942 158.04 220.942 157.56V153.186H221.806V157.524C221.806 157.782 221.869 157.98 221.995 158.118C222.127 158.256 222.313 158.325 222.553 158.325C222.823 158.325 223.048 158.25 223.228 158.1L223.498 158.721C223.366 158.835 223.207 158.919 223.021 158.973C222.841 159.027 222.652 159.054 222.454 159.054ZM220.132 154.941V154.23H223.174V154.941H220.132ZM226.608 159.054C226.128 159.054 225.702 158.949 225.33 158.739C224.958 158.529 224.664 158.241 224.448 157.875C224.232 157.503 224.124 157.083 224.124 156.615C224.124 156.141 224.232 155.721 224.448 155.355C224.664 154.989 224.958 154.704 225.33 154.5C225.702 154.29 226.128 154.185 226.608 154.185C227.082 154.185 227.505 154.29 227.877 154.5C228.255 154.704 228.549 154.989 228.759 155.355C228.975 155.715 229.083 156.135 229.083 156.615C229.083 157.089 228.975 157.509 228.759 157.875C228.549 158.241 228.255 158.529 227.877 158.739C227.505 158.949 227.082 159.054 226.608 159.054ZM226.608 158.298C226.914 158.298 227.187 158.229 227.427 158.091C227.673 157.953 227.865 157.758 228.003 157.506C228.141 157.248 228.21 156.951 228.21 156.615C228.21 156.273 228.141 155.979 228.003 155.733C227.865 155.481 227.673 155.286 227.427 155.148C227.187 155.01 226.914 154.941 226.608 154.941C226.302 154.941 226.029 155.01 225.789 155.148C225.549 155.286 225.357 155.481 225.213 155.733C225.069 155.979 224.997 156.273 224.997 156.615C224.997 156.951 225.069 157.248 225.213 157.506C225.357 157.758 225.549 157.953 225.789 158.091C226.029 158.229 226.302 158.298 226.608 158.298ZM230.458 159V154.23H231.286V155.517L231.151 155.175C231.307 154.863 231.547 154.62 231.871 154.446C232.195 154.272 232.573 154.185 233.005 154.185C233.395 154.185 233.737 154.26 234.031 154.41C234.331 154.56 234.565 154.788 234.733 155.094C234.901 155.4 234.985 155.787 234.985 156.255V159H234.121V156.354C234.121 155.892 234.007 155.544 233.779 155.31C233.557 155.076 233.242 154.959 232.834 154.959C232.528 154.959 232.261 155.019 232.033 155.139C231.805 155.259 231.628 155.436 231.502 155.67C231.382 155.904 231.322 156.195 231.322 156.543V159H230.458ZM238.888 159.054C238.378 159.054 237.928 158.949 237.538 158.739C237.154 158.529 236.854 158.241 236.638 157.875C236.428 157.509 236.323 157.089 236.323 156.615C236.323 156.141 236.425 155.721 236.629 155.355C236.839 154.989 237.124 154.704 237.484 154.5C237.85 154.29 238.261 154.185 238.717 154.185C239.179 154.185 239.587 154.287 239.941 154.491C240.295 154.695 240.571 154.983 240.769 155.355C240.973 155.721 241.075 156.15 241.075 156.642C241.075 156.678 241.072 156.72 241.066 156.768C241.066 156.816 241.063 156.861 241.057 156.903H236.998V156.282H240.607L240.256 156.498C240.262 156.192 240.199 155.919 240.067 155.679C239.935 155.439 239.752 155.253 239.518 155.121C239.29 154.983 239.023 154.914 238.717 154.914C238.417 154.914 238.15 154.983 237.916 155.121C237.682 155.253 237.499 155.442 237.367 155.688C237.235 155.928 237.169 156.204 237.169 156.516V156.66C237.169 156.978 237.241 157.263 237.385 157.515C237.535 157.761 237.742 157.953 238.006 158.091C238.27 158.229 238.573 158.298 238.915 158.298C239.197 158.298 239.452 158.25 239.68 158.154C239.914 158.058 240.118 157.914 240.292 157.722L240.769 158.28C240.553 158.532 240.283 158.724 239.959 158.856C239.641 158.988 239.284 159.054 238.888 159.054ZM243.822 159.054C243.426 159.054 243.048 159 242.688 158.892C242.334 158.784 242.055 158.652 241.851 158.496L242.211 157.812C242.415 157.95 242.667 158.067 242.967 158.163C243.267 158.259 243.573 158.307 243.885 158.307C244.287 158.307 244.575 158.25 244.749 158.136C244.929 158.022 245.019 157.863 245.019 157.659C245.019 157.509 244.965 157.392 244.857 157.308C244.749 157.224 244.605 157.161 244.425 157.119C244.251 157.077 244.056 157.041 243.84 157.011C243.624 156.975 243.408 156.933 243.192 156.885C242.976 156.831 242.778 156.759 242.598 156.669C242.418 156.573 242.274 156.444 242.166 156.282C242.058 156.114 242.004 155.892 242.004 155.616C242.004 155.328 242.085 155.076 242.247 154.86C242.409 154.644 242.637 154.479 242.931 154.365C243.231 154.245 243.585 154.185 243.993 154.185C244.305 154.185 244.62 154.224 244.938 154.302C245.262 154.374 245.526 154.479 245.73 154.617L245.361 155.301C245.145 155.157 244.92 155.058 244.686 155.004C244.452 154.95 244.218 154.923 243.984 154.923C243.606 154.923 243.324 154.986 243.138 155.112C242.952 155.232 242.859 155.388 242.859 155.58C242.859 155.742 242.913 155.868 243.021 155.958C243.135 156.042 243.279 156.108 243.453 156.156C243.633 156.204 243.831 156.246 244.047 156.282C244.263 156.312 244.479 156.354 244.695 156.408C244.911 156.456 245.106 156.525 245.28 156.615C245.46 156.705 245.604 156.831 245.712 156.993C245.826 157.155 245.883 157.371 245.883 157.641C245.883 157.929 245.799 158.178 245.631 158.388C245.463 158.598 245.226 158.763 244.92 158.883C244.614 158.997 244.248 159.054 243.822 159.054ZM250.104 159V157.992L250.059 157.803V156.084C250.059 155.718 249.951 155.436 249.735 155.238C249.525 155.034 249.207 154.932 248.781 154.932C248.499 154.932 248.223 154.98 247.953 155.076C247.683 155.166 247.455 155.289 247.269 155.445L246.909 154.797C247.155 154.599 247.449 154.449 247.791 154.347C248.139 154.239 248.502 154.185 248.88 154.185C249.534 154.185 250.038 154.344 250.392 154.662C250.746 154.98 250.923 155.466 250.923 156.12V159H250.104ZM248.538 159.054C248.184 159.054 247.872 158.994 247.602 158.874C247.338 158.754 247.134 158.589 246.99 158.379C246.846 158.163 246.774 157.92 246.774 157.65C246.774 157.392 246.834 157.158 246.954 156.948C247.08 156.738 247.281 156.57 247.557 156.444C247.839 156.318 248.217 156.255 248.691 156.255H250.203V156.876H248.727C248.295 156.876 248.004 156.948 247.854 157.092C247.704 157.236 247.629 157.41 247.629 157.614C247.629 157.848 247.722 158.037 247.908 158.181C248.094 158.319 248.352 158.388 248.682 158.388C249.006 158.388 249.288 158.316 249.528 158.172C249.774 158.028 249.951 157.818 250.059 157.542L250.23 158.136C250.116 158.418 249.915 158.643 249.627 158.811C249.339 158.973 248.976 159.054 248.538 159.054ZM255.231 159.054C254.823 159.054 254.454 158.964 254.124 158.784C253.8 158.598 253.542 158.325 253.35 157.965C253.164 157.605 253.071 157.155 253.071 156.615C253.071 156.075 253.167 155.625 253.359 155.265C253.557 154.905 253.818 154.635 254.142 154.455C254.472 154.275 254.835 154.185 255.231 154.185C255.699 154.185 256.113 154.287 256.473 154.491C256.833 154.695 257.118 154.98 257.328 155.346C257.538 155.706 257.643 156.129 257.643 156.615C257.643 157.101 257.538 157.527 257.328 157.893C257.118 158.259 256.833 158.544 256.473 158.748C256.113 158.952 255.699 159.054 255.231 159.054ZM252.702 159V152.322H253.566V155.499L253.476 156.606L253.53 157.713V159H252.702ZM255.159 158.298C255.465 158.298 255.738 158.229 255.978 158.091C256.224 157.953 256.416 157.758 256.554 157.506C256.698 157.248 256.77 156.951 256.77 156.615C256.77 156.273 256.698 155.979 256.554 155.733C256.416 155.481 256.224 155.286 255.978 155.148C255.738 155.01 255.465 154.941 255.159 154.941C254.859 154.941 254.586 155.01 254.34 155.148C254.1 155.286 253.908 155.481 253.764 155.733C253.626 155.979 253.557 156.273 253.557 156.615C253.557 156.951 253.626 157.248 253.764 157.506C253.908 157.758 254.1 157.953 254.34 158.091C254.586 158.229 254.859 158.298 255.159 158.298ZM259.092 160.8C258.864 160.8 258.642 160.761 258.426 160.683C258.21 160.611 258.024 160.503 257.868 160.359L258.237 159.711C258.357 159.825 258.489 159.912 258.633 159.972C258.777 160.032 258.93 160.062 259.092 160.062C259.302 160.062 259.476 160.008 259.614 159.9C259.752 159.792 259.881 159.6 260.001 159.324L260.298 158.667L260.388 158.559L262.26 154.23H263.106L260.793 159.477C260.655 159.813 260.499 160.077 260.325 160.269C260.157 160.461 259.971 160.596 259.767 160.674C259.563 160.758 259.338 160.8 259.092 160.8ZM260.226 159.153L258.048 154.23H258.948L260.802 158.478L260.226 159.153ZM264.092 159V154.23H264.92V155.526L264.839 155.202C264.971 154.872 265.193 154.62 265.505 154.446C265.817 154.272 266.201 154.185 266.657 154.185V155.022C266.621 155.016 266.585 155.013 266.549 155.013C266.519 155.013 266.489 155.013 266.459 155.013C265.997 155.013 265.631 155.151 265.361 155.427C265.091 155.703 264.956 156.102 264.956 156.624V159H264.092ZM268.604 157.848L268.622 156.741L271.367 154.23H272.411L270.305 156.3L269.837 156.696L268.604 157.848ZM267.902 159V152.322H268.766V159H267.902ZM271.547 159L269.675 156.678L270.233 155.985L272.609 159H271.547ZM276.493 159V157.992L276.448 157.803V156.084C276.448 155.718 276.34 155.436 276.124 155.238C275.914 155.034 275.596 154.932 275.17 154.932C274.888 154.932 274.612 154.98 274.342 155.076C274.072 155.166 273.844 155.289 273.658 155.445L273.298 154.797C273.544 154.599 273.838 154.449 274.18 154.347C274.528 154.239 274.891 154.185 275.269 154.185C275.923 154.185 276.427 154.344 276.781 154.662C277.135 154.98 277.312 155.466 277.312 156.12V159H276.493ZM274.927 159.054C274.573 159.054 274.261 158.994 273.991 158.874C273.727 158.754 273.523 158.589 273.379 158.379C273.235 158.163 273.163 157.92 273.163 157.65C273.163 157.392 273.223 157.158 273.343 156.948C273.469 156.738 273.67 156.57 273.946 156.444C274.228 156.318 274.606 156.255 275.08 156.255H276.592V156.876H275.116C274.684 156.876 274.393 156.948 274.243 157.092C274.093 157.236 274.018 157.41 274.018 157.614C274.018 157.848 274.111 158.037 274.297 158.181C274.483 158.319 274.741 158.388 275.071 158.388C275.395 158.388 275.677 158.316 275.917 158.172C276.163 158.028 276.34 157.818 276.448 157.542L276.619 158.136C276.505 158.418 276.304 158.643 276.016 158.811C275.728 158.973 275.365 159.054 274.927 159.054Z" fill="white" fill-opacity="0.7"/>
<rect x="12.5" y="177.5" width="395" height="64" rx="11.5" stroke="white" stroke-opacity="0.1"/>
<g clip-path="url(#clip2_2_1020)">
<path d="M197.909 211.5H202.366V200.683L196 195.914V209.597C196 210.652 196.859 211.5 197.909 211.5Z" fill="#4285F4"/>
<path d="M217.634 211.5H222.091C223.147 211.5 224 210.641 224 209.591V195.914L217.634 200.688" fill="#34A853"/>
<path d="M217.634 192.414V200.688L224 195.914V193.371C224 191.009 221.304 189.663 219.417 191.08" fill="#FBBC04"/>
<path d="M202.366 200.683V192.414L210 198.14L217.634 192.414V200.688L210 206.414" fill="#EA4335"/>
<path d="M196 193.366V195.914L202.366 200.688V192.414L200.583 191.074C198.691 189.658 196 191.003 196 193.366Z" fill="#C5221F"/>
</g>
<path d="M130.289 230.108C129.791 230.108 129.332 230.03 128.912 229.874C128.498 229.712 128.135 229.484 127.823 229.19C127.517 228.896 127.277 228.551 127.103 228.155C126.935 227.759 126.851 227.324 126.851 226.85C126.851 226.376 126.935 225.941 127.103 225.545C127.277 225.149 127.52 224.804 127.832 224.51C128.144 224.216 128.51 223.991 128.93 223.835C129.35 223.673 129.812 223.592 130.316 223.592C130.874 223.592 131.375 223.685 131.819 223.871C132.269 224.057 132.647 224.327 132.953 224.681L132.017 225.545C131.789 225.305 131.54 225.128 131.27 225.014C131 224.894 130.706 224.834 130.388 224.834C130.082 224.834 129.803 224.882 129.551 224.978C129.299 225.074 129.08 225.212 128.894 225.392C128.714 225.572 128.573 225.785 128.471 226.031C128.375 226.277 128.327 226.55 128.327 226.85C128.327 227.144 128.375 227.414 128.471 227.66C128.573 227.906 128.714 228.122 128.894 228.308C129.08 228.488 129.296 228.626 129.542 228.722C129.794 228.818 130.07 228.866 130.37 228.866C130.658 228.866 130.937 228.821 131.207 228.731C131.483 228.635 131.75 228.476 132.008 228.254L132.836 229.307C132.494 229.565 132.095 229.763 131.639 229.901C131.189 230.039 130.739 230.108 130.289 230.108ZM132.836 229.307L131.504 229.118V226.751H132.836V229.307ZM134.271 230V225.158H135.612V226.481L135.36 226.094C135.528 225.764 135.765 225.515 136.071 225.347C136.383 225.173 136.737 225.086 137.133 225.086C137.577 225.086 137.964 225.2 138.294 225.428C138.63 225.65 138.852 225.992 138.96 226.454L138.465 226.319C138.627 225.941 138.885 225.641 139.239 225.419C139.599 225.197 140.01 225.086 140.472 225.086C140.856 225.086 141.195 225.164 141.489 225.32C141.789 225.47 142.023 225.704 142.191 226.022C142.365 226.334 142.452 226.736 142.452 227.228V230H141.048V227.444C141.048 227.054 140.967 226.766 140.805 226.58C140.643 226.394 140.415 226.301 140.121 226.301C139.917 226.301 139.734 226.349 139.572 226.445C139.41 226.535 139.284 226.673 139.194 226.859C139.104 227.045 139.059 227.282 139.059 227.57V230H137.655V227.444C137.655 227.054 137.574 226.766 137.412 226.58C137.256 226.394 137.031 226.301 136.737 226.301C136.533 226.301 136.35 226.349 136.188 226.445C136.026 226.535 135.9 226.673 135.81 226.859C135.72 227.045 135.675 227.282 135.675 227.57V230H134.271ZM146.861 230V229.055L146.771 228.848V227.156C146.771 226.856 146.678 226.622 146.492 226.454C146.312 226.286 146.033 226.202 145.655 226.202C145.397 226.202 145.142 226.244 144.89 226.328C144.644 226.406 144.434 226.514 144.26 226.652L143.756 225.671C144.02 225.485 144.338 225.341 144.71 225.239C145.082 225.137 145.46 225.086 145.844 225.086C146.582 225.086 147.155 225.26 147.563 225.608C147.971 225.956 148.175 226.499 148.175 227.237V230H146.861ZM145.385 230.072C145.007 230.072 144.683 230.009 144.413 229.883C144.143 229.751 143.936 229.574 143.792 229.352C143.648 229.13 143.576 228.881 143.576 228.605C143.576 228.317 143.645 228.065 143.783 227.849C143.927 227.633 144.152 227.465 144.458 227.345C144.764 227.219 145.163 227.156 145.655 227.156H146.942V227.975H145.808C145.478 227.975 145.25 228.029 145.124 228.137C145.004 228.245 144.944 228.38 144.944 228.542C144.944 228.722 145.013 228.866 145.151 228.974C145.295 229.076 145.49 229.127 145.736 229.127C145.97 229.127 146.18 229.073 146.366 228.965C146.552 228.851 146.687 228.686 146.771 228.47L146.987 229.118C146.885 229.43 146.699 229.667 146.429 229.829C146.159 229.991 145.811 230.072 145.385 230.072ZM149.626 230V225.158H151.03V230H149.626ZM150.328 224.483C150.07 224.483 149.86 224.408 149.698 224.258C149.536 224.108 149.455 223.922 149.455 223.7C149.455 223.478 149.536 223.292 149.698 223.142C149.86 222.992 150.07 222.917 150.328 222.917C150.586 222.917 150.796 222.989 150.958 223.133C151.12 223.271 151.201 223.451 151.201 223.673C151.201 223.907 151.12 224.102 150.958 224.258C150.802 224.408 150.592 224.483 150.328 224.483ZM152.513 230V223.322H153.917V230H152.513ZM155.931 226.841C155.691 226.841 155.484 226.76 155.31 226.598C155.142 226.43 155.058 226.217 155.058 225.959C155.058 225.701 155.142 225.494 155.31 225.338C155.484 225.176 155.691 225.095 155.931 225.095C156.177 225.095 156.384 225.176 156.552 225.338C156.72 225.494 156.804 225.701 156.804 225.959C156.804 226.217 156.72 226.43 156.552 226.598C156.384 226.76 156.177 226.841 155.931 226.841ZM155.931 230.072C155.691 230.072 155.484 229.991 155.31 229.829C155.142 229.661 155.058 229.448 155.058 229.19C155.058 228.932 155.142 228.725 155.31 228.569C155.484 228.407 155.691 228.326 155.931 228.326C156.177 228.326 156.384 228.407 156.552 228.569C156.72 228.725 156.804 228.932 156.804 229.19C156.804 229.448 156.72 229.661 156.552 229.829C156.384 229.991 156.177 230.072 155.931 230.072Z" fill="white"/>
<path d="M162.341 230.054C161.861 230.054 161.489 229.925 161.225 229.667C160.961 229.409 160.829 229.04 160.829 228.56V224.186H161.693V228.524C161.693 228.782 161.756 228.98 161.882 229.118C162.014 229.256 162.2 229.325 162.44 229.325C162.71 229.325 162.935 229.25 163.115 229.1L163.385 229.721C163.253 229.835 163.094 229.919 162.908 229.973C162.728 230.027 162.539 230.054 162.341 230.054ZM160.019 225.941V225.23H163.061V225.941H160.019ZM164.61 230V223.322H165.474V226.517L165.303 226.175C165.459 225.863 165.699 225.62 166.023 225.446C166.347 225.272 166.725 225.185 167.157 225.185C167.547 225.185 167.889 225.26 168.183 225.41C168.483 225.56 168.717 225.788 168.885 226.094C169.053 226.4 169.137 226.787 169.137 227.255V230H168.273V227.354C168.273 226.892 168.159 226.544 167.931 226.31C167.709 226.076 167.394 225.959 166.986 225.959C166.68 225.959 166.413 226.019 166.185 226.139C165.957 226.259 165.78 226.436 165.654 226.67C165.534 226.904 165.474 227.195 165.474 227.543V230H164.61ZM173.877 230V228.992L173.832 228.803V227.084C173.832 226.718 173.724 226.436 173.508 226.238C173.298 226.034 172.98 225.932 172.554 225.932C172.272 225.932 171.996 225.98 171.726 226.076C171.456 226.166 171.228 226.289 171.042 226.445L170.682 225.797C170.928 225.599 171.222 225.449 171.564 225.347C171.912 225.239 172.275 225.185 172.653 225.185C173.307 225.185 173.811 225.344 174.165 225.662C174.519 225.98 174.696 226.466 174.696 227.12V230H173.877ZM172.311 230.054C171.957 230.054 171.645 229.994 171.375 229.874C171.111 229.754 170.907 229.589 170.763 229.379C170.619 229.163 170.547 228.92 170.547 228.65C170.547 228.392 170.607 228.158 170.727 227.948C170.853 227.738 171.054 227.57 171.33 227.444C171.612 227.318 171.99 227.255 172.464 227.255H173.976V227.876H172.5C172.068 227.876 171.777 227.948 171.627 228.092C171.477 228.236 171.402 228.41 171.402 228.614C171.402 228.848 171.495 229.037 171.681 229.181C171.867 229.319 172.125 229.388 172.455 229.388C172.779 229.388 173.061 229.316 173.301 229.172C173.547 229.028 173.724 228.818 173.832 228.542L174.003 229.136C173.889 229.418 173.688 229.643 173.4 229.811C173.112 229.973 172.749 230.054 172.311 230.054ZM178.112 230.054C177.632 230.054 177.26 229.925 176.996 229.667C176.732 229.409 176.6 229.04 176.6 228.56V224.186H177.464V228.524C177.464 228.782 177.527 228.98 177.653 229.118C177.785 229.256 177.971 229.325 178.211 229.325C178.481 229.325 178.706 229.25 178.886 229.1L179.156 229.721C179.024 229.835 178.865 229.919 178.679 229.973C178.499 230.027 178.31 230.054 178.112 230.054ZM175.79 225.941V225.23H178.832V225.941H175.79ZM182.266 230.054C181.786 230.054 181.36 229.949 180.988 229.739C180.616 229.529 180.322 229.241 180.106 228.875C179.89 228.503 179.782 228.083 179.782 227.615C179.782 227.141 179.89 226.721 180.106 226.355C180.322 225.989 180.616 225.704 180.988 225.5C181.36 225.29 181.786 225.185 182.266 225.185C182.74 225.185 183.163 225.29 183.535 225.5C183.913 225.704 184.207 225.989 184.417 226.355C184.633 226.715 184.741 227.135 184.741 227.615C184.741 228.089 184.633 228.509 184.417 228.875C184.207 229.241 183.913 229.529 183.535 229.739C183.163 229.949 182.74 230.054 182.266 230.054ZM182.266 229.298C182.572 229.298 182.845 229.229 183.085 229.091C183.331 228.953 183.523 228.758 183.661 228.506C183.799 228.248 183.868 227.951 183.868 227.615C183.868 227.273 183.799 226.979 183.661 226.733C183.523 226.481 183.331 226.286 183.085 226.148C182.845 226.01 182.572 225.941 182.266 225.941C181.96 225.941 181.687 226.01 181.447 226.148C181.207 226.286 181.015 226.481 180.871 226.733C180.727 226.979 180.655 227.273 180.655 227.615C180.655 227.951 180.727 228.248 180.871 228.506C181.015 228.758 181.207 228.953 181.447 229.091C181.687 229.229 181.96 229.298 182.266 229.298ZM186.116 230V225.23H186.944V226.517L186.809 226.175C186.965 225.863 187.205 225.62 187.529 225.446C187.853 225.272 188.231 225.185 188.663 225.185C189.053 225.185 189.395 225.26 189.689 225.41C189.989 225.56 190.223 225.788 190.391 226.094C190.559 226.4 190.643 226.787 190.643 227.255V230H189.779V227.354C189.779 226.892 189.665 226.544 189.437 226.31C189.215 226.076 188.9 225.959 188.492 225.959C188.186 225.959 187.919 226.019 187.691 226.139C187.463 226.259 187.286 226.436 187.16 226.67C187.04 226.904 186.98 227.195 186.98 227.543V230H186.116ZM194.546 230.054C194.036 230.054 193.586 229.949 193.196 229.739C192.812 229.529 192.512 229.241 192.296 228.875C192.086 228.509 191.981 228.089 191.981 227.615C191.981 227.141 192.083 226.721 192.287 226.355C192.497 225.989 192.782 225.704 193.142 225.5C193.508 225.29 193.919 225.185 194.375 225.185C194.837 225.185 195.245 225.287 195.599 225.491C195.953 225.695 196.229 225.983 196.427 226.355C196.631 226.721 196.733 227.15 196.733 227.642C196.733 227.678 196.73 227.72 196.724 227.768C196.724 227.816 196.721 227.861 196.715 227.903H192.656V227.282H196.265L195.914 227.498C195.92 227.192 195.857 226.919 195.725 226.679C195.593 226.439 195.41 226.253 195.176 226.121C194.948 225.983 194.681 225.914 194.375 225.914C194.075 225.914 193.808 225.983 193.574 226.121C193.34 226.253 193.157 226.442 193.025 226.688C192.893 226.928 192.827 227.204 192.827 227.516V227.66C192.827 227.978 192.899 228.263 193.043 228.515C193.193 228.761 193.4 228.953 193.664 229.091C193.928 229.229 194.231 229.298 194.573 229.298C194.855 229.298 195.11 229.25 195.338 229.154C195.572 229.058 195.776 228.914 195.95 228.722L196.427 229.28C196.211 229.532 195.941 229.724 195.617 229.856C195.299 229.988 194.942 230.054 194.546 230.054ZM199.48 230.054C199.084 230.054 198.706 230 198.346 229.892C197.992 229.784 197.713 229.652 197.509 229.496L197.869 228.812C198.073 228.95 198.325 229.067 198.625 229.163C198.925 229.259 199.231 229.307 199.543 229.307C199.945 229.307 200.233 229.25 200.407 229.136C200.587 229.022 200.677 228.863 200.677 228.659C200.677 228.509 200.623 228.392 200.515 228.308C200.407 228.224 200.263 228.161 200.083 228.119C199.909 228.077 199.714 228.041 199.498 228.011C199.282 227.975 199.066 227.933 198.85 227.885C198.634 227.831 198.436 227.759 198.256 227.669C198.076 227.573 197.932 227.444 197.824 227.282C197.716 227.114 197.662 226.892 197.662 226.616C197.662 226.328 197.743 226.076 197.905 225.86C198.067 225.644 198.295 225.479 198.589 225.365C198.889 225.245 199.243 225.185 199.651 225.185C199.963 225.185 200.278 225.224 200.596 225.302C200.92 225.374 201.184 225.479 201.388 225.617L201.019 226.301C200.803 226.157 200.578 226.058 200.344 226.004C200.11 225.95 199.876 225.923 199.642 225.923C199.264 225.923 198.982 225.986 198.796 226.112C198.61 226.232 198.517 226.388 198.517 226.58C198.517 226.742 198.571 226.868 198.679 226.958C198.793 227.042 198.937 227.108 199.111 227.156C199.291 227.204 199.489 227.246 199.705 227.282C199.921 227.312 200.137 227.354 200.353 227.408C200.569 227.456 200.764 227.525 200.938 227.615C201.118 227.705 201.262 227.831 201.37 227.993C201.484 228.155 201.541 228.371 201.541 228.641C201.541 228.929 201.457 229.178 201.289 229.388C201.121 229.598 200.884 229.763 200.578 229.883C200.272 229.997 199.906 230.054 199.48 230.054ZM205.762 230V228.992L205.717 228.803V227.084C205.717 226.718 205.609 226.436 205.393 226.238C205.183 226.034 204.865 225.932 204.439 225.932C204.157 225.932 203.881 225.98 203.611 226.076C203.341 226.166 203.113 226.289 202.927 226.445L202.567 225.797C202.813 225.599 203.107 225.449 203.449 225.347C203.797 225.239 204.16 225.185 204.538 225.185C205.192 225.185 205.696 225.344 206.05 225.662C206.404 225.98 206.581 226.466 206.581 227.12V230H205.762ZM204.196 230.054C203.842 230.054 203.53 229.994 203.26 229.874C202.996 229.754 202.792 229.589 202.648 229.379C202.504 229.163 202.432 228.92 202.432 228.65C202.432 228.392 202.492 228.158 202.612 227.948C202.738 227.738 202.939 227.57 203.215 227.444C203.497 227.318 203.875 227.255 204.349 227.255H205.861V227.876H204.385C203.953 227.876 203.662 227.948 203.512 228.092C203.362 228.236 203.287 228.41 203.287 228.614C203.287 228.848 203.38 229.037 203.566 229.181C203.752 229.319 204.01 229.388 204.34 229.388C204.664 229.388 204.946 229.316 205.186 229.172C205.432 229.028 205.609 228.818 205.717 228.542L205.888 229.136C205.774 229.418 205.573 229.643 205.285 229.811C204.997 229.973 204.634 230.054 204.196 230.054ZM210.889 230.054C210.481 230.054 210.112 229.964 209.782 229.784C209.458 229.598 209.2 229.325 209.008 228.965C208.822 228.605 208.729 228.155 208.729 227.615C208.729 227.075 208.825 226.625 209.017 226.265C209.215 225.905 209.476 225.635 209.8 225.455C210.13 225.275 210.493 225.185 210.889 225.185C211.357 225.185 211.771 225.287 212.131 225.491C212.491 225.695 212.776 225.98 212.986 226.346C213.196 226.706 213.301 227.129 213.301 227.615C213.301 228.101 213.196 228.527 212.986 228.893C212.776 229.259 212.491 229.544 212.131 229.748C211.771 229.952 211.357 230.054 210.889 230.054ZM208.36 230V223.322H209.224V226.499L209.134 227.606L209.188 228.713V230H208.36ZM210.817 229.298C211.123 229.298 211.396 229.229 211.636 229.091C211.882 228.953 212.074 228.758 212.212 228.506C212.356 228.248 212.428 227.951 212.428 227.615C212.428 227.273 212.356 226.979 212.212 226.733C212.074 226.481 211.882 226.286 211.636 226.148C211.396 226.01 211.123 225.941 210.817 225.941C210.517 225.941 210.244 226.01 209.998 226.148C209.758 226.286 209.566 226.481 209.422 226.733C209.284 226.979 209.215 227.273 209.215 227.615C209.215 227.951 209.284 228.248 209.422 228.506C209.566 228.758 209.758 228.953 209.998 229.091C210.244 229.229 210.517 229.298 210.817 229.298ZM214.75 231.8C214.522 231.8 214.3 231.761 214.084 231.683C213.868 231.611 213.682 231.503 213.526 231.359L213.895 230.711C214.015 230.825 214.147 230.912 214.291 230.972C214.435 231.032 214.588 231.062 214.75 231.062C214.96 231.062 215.134 231.008 215.272 230.9C215.41 230.792 215.539 230.6 215.659 230.324L215.956 229.667L216.046 229.559L217.918 225.23H218.764L216.451 230.477C216.313 230.813 216.157 231.077 215.983 231.269C215.815 231.461 215.629 231.596 215.425 231.674C215.221 231.758 214.996 231.8 214.75 231.8ZM215.884 230.153L213.706 225.23H214.606L216.46 229.478L215.884 230.153ZM219.75 230V225.23H220.578V226.526L220.497 226.202C220.629 225.872 220.851 225.62 221.163 225.446C221.475 225.272 221.859 225.185 222.315 225.185V226.022C222.279 226.016 222.243 226.013 222.207 226.013C222.177 226.013 222.147 226.013 222.117 226.013C221.655 226.013 221.289 226.151 221.019 226.427C220.749 226.703 220.614 227.102 220.614 227.624V230H219.75ZM224.262 228.848L224.28 227.741L227.025 225.23H228.069L225.963 227.3L225.495 227.696L224.262 228.848ZM223.56 230V223.322H224.424V230H223.56ZM227.205 230L225.333 227.678L225.891 226.985L228.267 230H227.205ZM232.151 230V228.992L232.106 228.803V227.084C232.106 226.718 231.998 226.436 231.782 226.238C231.572 226.034 231.254 225.932 230.828 225.932C230.546 225.932 230.27 225.98 230 226.076C229.73 226.166 229.502 226.289 229.316 226.445L228.956 225.797C229.202 225.599 229.496 225.449 229.838 225.347C230.186 225.239 230.549 225.185 230.927 225.185C231.581 225.185 232.085 225.344 232.439 225.662C232.793 225.98 232.97 226.466 232.97 227.12V230H232.151ZM230.585 230.054C230.231 230.054 229.919 229.994 229.649 229.874C229.385 229.754 229.181 229.589 229.037 229.379C228.893 229.163 228.821 228.92 228.821 228.65C228.821 228.392 228.881 228.158 229.001 227.948C229.127 227.738 229.328 227.57 229.604 227.444C229.886 227.318 230.264 227.255 230.738 227.255H232.25V227.876H230.774C230.342 227.876 230.051 227.948 229.901 228.092C229.751 228.236 229.676 228.41 229.676 228.614C229.676 228.848 229.769 229.037 229.955 229.181C230.141 229.319 230.399 229.388 230.729 229.388C231.053 229.388 231.335 229.316 231.575 229.172C231.821 229.028 231.998 228.818 232.106 228.542L232.277 229.136C232.163 229.418 231.962 229.643 231.674 229.811C231.386 229.973 231.023 230.054 230.585 230.054ZM238.573 231.818C237.949 231.818 237.379 231.716 236.863 231.512C236.347 231.308 235.903 231.023 235.531 230.657C235.159 230.291 234.871 229.859 234.667 229.361C234.463 228.857 234.361 228.308 234.361 227.714C234.361 227.12 234.463 226.574 234.667 226.076C234.871 225.578 235.159 225.146 235.531 224.78C235.909 224.414 236.359 224.132 236.881 223.934C237.403 223.736 237.979 223.637 238.609 223.637C239.227 223.637 239.791 223.733 240.301 223.925C240.811 224.117 241.252 224.39 241.624 224.744C242.002 225.092 242.293 225.509 242.497 225.995C242.701 226.475 242.803 227.006 242.803 227.588C242.803 228.098 242.74 228.536 242.614 228.902C242.488 229.268 242.305 229.553 242.065 229.757C241.831 229.955 241.543 230.054 241.201 230.054C240.865 230.054 240.595 229.952 240.391 229.748C240.193 229.544 240.094 229.253 240.094 228.875V228.263L240.139 227.714L240.058 226.679V225.482H240.841V228.722C240.841 228.962 240.889 229.13 240.985 229.226C241.087 229.322 241.21 229.37 241.354 229.37C241.528 229.37 241.678 229.301 241.804 229.163C241.936 229.025 242.032 228.824 242.092 228.56C242.158 228.29 242.191 227.969 242.191 227.597C242.191 227.093 242.104 226.637 241.93 226.229C241.762 225.815 241.516 225.458 241.192 225.158C240.874 224.858 240.496 224.63 240.058 224.474C239.626 224.312 239.143 224.231 238.609 224.231C238.075 224.231 237.586 224.318 237.142 224.492C236.704 224.66 236.326 224.9 236.008 225.212C235.69 225.518 235.444 225.884 235.27 226.31C235.102 226.736 235.018 227.204 235.018 227.714C235.018 228.23 235.102 228.704 235.27 229.136C235.438 229.562 235.678 229.928 235.99 230.234C236.308 230.546 236.683 230.786 237.115 230.954C237.553 231.128 238.039 231.215 238.573 231.215C238.849 231.215 239.14 231.182 239.446 231.116C239.752 231.056 240.04 230.957 240.31 230.819L240.508 231.395C240.232 231.533 239.92 231.638 239.572 231.71C239.224 231.782 238.891 231.818 238.573 231.818ZM238.411 230.054C237.985 230.054 237.607 229.955 237.277 229.757C236.947 229.553 236.686 229.277 236.494 228.929C236.302 228.581 236.206 228.185 236.206 227.741C236.206 227.291 236.302 226.895 236.494 226.553C236.686 226.205 236.947 225.935 237.277 225.743C237.607 225.545 237.985 225.446 238.411 225.446C238.825 225.446 239.188 225.536 239.5 225.716C239.812 225.89 240.055 226.148 240.229 226.49C240.409 226.832 240.499 227.249 240.499 227.741C240.499 228.233 240.412 228.65 240.238 228.992C240.064 229.334 239.821 229.598 239.509 229.784C239.197 229.964 238.831 230.054 238.411 230.054ZM238.537 229.352C238.831 229.352 239.092 229.289 239.32 229.163C239.554 229.031 239.737 228.845 239.869 228.605C240.007 228.359 240.076 228.071 240.076 227.741C240.076 227.405 240.007 227.117 239.869 226.877C239.737 226.637 239.554 226.454 239.32 226.328C239.092 226.202 238.831 226.139 238.537 226.139C238.237 226.139 237.97 226.205 237.736 226.337C237.508 226.463 237.328 226.646 237.196 226.886C237.07 227.126 237.007 227.411 237.007 227.741C237.007 228.065 237.07 228.347 237.196 228.587C237.328 228.827 237.508 229.016 237.736 229.154C237.97 229.286 238.237 229.352 238.537 229.352ZM246.324 231.8C245.886 231.8 245.46 231.737 245.046 231.611C244.638 231.491 244.305 231.317 244.047 231.089L244.461 230.423C244.683 230.615 244.956 230.765 245.28 230.873C245.604 230.987 245.943 231.044 246.297 231.044C246.861 231.044 247.275 230.912 247.539 230.648C247.803 230.384 247.935 229.982 247.935 229.442V228.434L248.025 227.489L247.98 226.535V225.23H248.799V229.352C248.799 230.192 248.589 230.81 248.169 231.206C247.749 231.602 247.134 231.8 246.324 231.8ZM246.216 229.802C245.754 229.802 245.34 229.706 244.974 229.514C244.614 229.316 244.326 229.043 244.11 228.695C243.9 228.347 243.795 227.945 243.795 227.489C243.795 227.027 243.9 226.625 244.11 226.283C244.326 225.935 244.614 225.665 244.974 225.473C245.34 225.281 245.754 225.185 246.216 225.185C246.624 225.185 246.996 225.269 247.332 225.437C247.668 225.599 247.935 225.851 248.133 226.193C248.337 226.535 248.439 226.967 248.439 227.489C248.439 228.005 248.337 228.434 248.133 228.776C247.935 229.118 247.668 229.376 247.332 229.55C246.996 229.718 246.624 229.802 246.216 229.802ZM246.315 229.046C246.633 229.046 246.915 228.98 247.161 228.848C247.407 228.716 247.599 228.533 247.737 228.299C247.881 228.065 247.953 227.795 247.953 227.489C247.953 227.183 247.881 226.913 247.737 226.679C247.599 226.445 247.407 226.265 247.161 226.139C246.915 226.007 246.633 225.941 246.315 225.941C245.997 225.941 245.712 226.007 245.46 226.139C245.214 226.265 245.019 226.445 244.875 226.679C244.737 226.913 244.668 227.183 244.668 227.489C244.668 227.795 244.737 228.065 244.875 228.299C245.019 228.533 245.214 228.716 245.46 228.848C245.712 228.98 245.997 229.046 246.315 229.046ZM250.63 230V225.23H251.458V226.499L251.323 226.175C251.473 225.863 251.704 225.62 252.016 225.446C252.328 225.272 252.691 225.185 253.105 225.185C253.561 225.185 253.954 225.299 254.284 225.527C254.614 225.749 254.83 226.088 254.932 226.544L254.581 226.4C254.725 226.034 254.977 225.74 255.337 225.518C255.697 225.296 256.117 225.185 256.597 225.185C256.981 225.185 257.32 225.26 257.614 225.41C257.908 225.56 258.136 225.788 258.298 226.094C258.466 226.4 258.55 226.787 258.55 227.255V230H257.686V227.354C257.686 226.892 257.578 226.544 257.362 226.31C257.146 226.076 256.843 225.959 256.453 225.959C256.165 225.959 255.913 226.019 255.697 226.139C255.481 226.259 255.313 226.436 255.193 226.67C255.079 226.904 255.022 227.195 255.022 227.543V230H254.158V227.354C254.158 226.892 254.05 226.544 253.834 226.31C253.624 226.076 253.321 225.959 252.925 225.959C252.643 225.959 252.394 226.019 252.178 226.139C251.962 226.259 251.794 226.436 251.674 226.67C251.554 226.904 251.494 227.195 251.494 227.543V230H250.63ZM263.281 230V228.992L263.236 228.803V227.084C263.236 226.718 263.128 226.436 262.912 226.238C262.702 226.034 262.384 225.932 261.958 225.932C261.676 225.932 261.4 225.98 261.13 226.076C260.86 226.166 260.632 226.289 260.446 226.445L260.086 225.797C260.332 225.599 260.626 225.449 260.968 225.347C261.316 225.239 261.679 225.185 262.057 225.185C262.711 225.185 263.215 225.344 263.569 225.662C263.923 225.98 264.1 226.466 264.1 227.12V230H263.281ZM261.715 230.054C261.361 230.054 261.049 229.994 260.779 229.874C260.515 229.754 260.311 229.589 260.167 229.379C260.023 229.163 259.951 228.92 259.951 228.65C259.951 228.392 260.011 228.158 260.131 227.948C260.257 227.738 260.458 227.57 260.734 227.444C261.016 227.318 261.394 227.255 261.868 227.255H263.38V227.876H261.904C261.472 227.876 261.181 227.948 261.031 228.092C260.881 228.236 260.806 228.41 260.806 228.614C260.806 228.848 260.899 229.037 261.085 229.181C261.271 229.319 261.529 229.388 261.859 229.388C262.183 229.388 262.465 229.316 262.705 229.172C262.951 229.028 263.128 228.818 263.236 228.542L263.407 229.136C263.293 229.418 263.092 229.643 262.804 229.811C262.516 229.973 262.153 230.054 261.715 230.054ZM265.879 230V225.23H266.743V230H265.879ZM266.311 224.312C266.143 224.312 266.002 224.258 265.888 224.15C265.78 224.042 265.726 223.91 265.726 223.754C265.726 223.592 265.78 223.457 265.888 223.349C266.002 223.241 266.143 223.187 266.311 223.187C266.479 223.187 266.617 223.241 266.725 223.349C266.839 223.451 266.896 223.58 266.896 223.736C266.896 223.898 266.842 224.036 266.734 224.15C266.626 224.258 266.485 224.312 266.311 224.312ZM268.572 230V223.322H269.436V230H268.572ZM271.473 230.054C271.305 230.054 271.161 229.997 271.041 229.883C270.921 229.763 270.861 229.613 270.861 229.433C270.861 229.253 270.921 229.106 271.041 228.992C271.161 228.878 271.305 228.821 271.473 228.821C271.635 228.821 271.773 228.878 271.887 228.992C272.007 229.106 272.067 229.253 272.067 229.433C272.067 229.613 272.007 229.763 271.887 229.883C271.773 229.997 271.635 230.054 271.473 230.054ZM275.459 230.054C274.973 230.054 274.538 229.949 274.154 229.739C273.776 229.529 273.479 229.241 273.263 228.875C273.047 228.509 272.939 228.089 272.939 227.615C272.939 227.141 273.047 226.721 273.263 226.355C273.479 225.989 273.776 225.704 274.154 225.5C274.538 225.29 274.973 225.185 275.459 225.185C275.891 225.185 276.275 225.272 276.611 225.446C276.953 225.614 277.217 225.866 277.403 226.202L276.746 226.625C276.59 226.391 276.398 226.22 276.17 226.112C275.948 225.998 275.708 225.941 275.45 225.941C275.138 225.941 274.859 226.01 274.613 226.148C274.367 226.286 274.172 226.481 274.028 226.733C273.884 226.979 273.812 227.273 273.812 227.615C273.812 227.957 273.884 228.254 274.028 228.506C274.172 228.758 274.367 228.953 274.613 229.091C274.859 229.229 275.138 229.298 275.45 229.298C275.708 229.298 275.948 229.244 276.17 229.136C276.398 229.022 276.59 228.848 276.746 228.614L277.403 229.028C277.217 229.358 276.953 229.613 276.611 229.793C276.275 229.967 275.891 230.054 275.459 230.054ZM280.674 230.054C280.194 230.054 279.768 229.949 279.396 229.739C279.024 229.529 278.73 229.241 278.514 228.875C278.298 228.503 278.19 228.083 278.19 227.615C278.19 227.141 278.298 226.721 278.514 226.355C278.73 225.989 279.024 225.704 279.396 225.5C279.768 225.29 280.194 225.185 280.674 225.185C281.148 225.185 281.571 225.29 281.943 225.5C282.321 225.704 282.615 225.989 282.825 226.355C283.041 226.715 283.149 227.135 283.149 227.615C283.149 228.089 283.041 228.509 282.825 228.875C282.615 229.241 282.321 229.529 281.943 229.739C281.571 229.949 281.148 230.054 280.674 230.054ZM280.674 229.298C280.98 229.298 281.253 229.229 281.493 229.091C281.739 228.953 281.931 228.758 282.069 228.506C282.207 228.248 282.276 227.951 282.276 227.615C282.276 227.273 282.207 226.979 282.069 226.733C281.931 226.481 281.739 226.286 281.493 226.148C281.253 226.01 280.98 225.941 280.674 225.941C280.368 225.941 280.095 226.01 279.855 226.148C279.615 226.286 279.423 226.481 279.279 226.733C279.135 226.979 279.063 227.273 279.063 227.615C279.063 227.951 279.135 228.248 279.279 228.506C279.423 228.758 279.615 228.953 279.855 229.091C280.095 229.229 280.368 229.298 280.674 229.298ZM284.524 230V225.23H285.352V226.499L285.217 226.175C285.367 225.863 285.598 225.62 285.91 225.446C286.222 225.272 286.585 225.185 286.999 225.185C287.455 225.185 287.848 225.299 288.178 225.527C288.508 225.749 288.724 226.088 288.826 226.544L288.475 226.4C288.619 226.034 288.871 225.74 289.231 225.518C289.591 225.296 290.011 225.185 290.491 225.185C290.875 225.185 291.214 225.26 291.508 225.41C291.802 225.56 292.03 225.788 292.192 226.094C292.36 226.4 292.444 226.787 292.444 227.255V230H291.58V227.354C291.58 226.892 291.472 226.544 291.256 226.31C291.04 226.076 290.737 225.959 290.347 225.959C290.059 225.959 289.807 226.019 289.591 226.139C289.375 226.259 289.207 226.436 289.087 226.67C288.973 226.904 288.916 227.195 288.916 227.543V230H288.052V227.354C288.052 226.892 287.944 226.544 287.728 226.31C287.518 226.076 287.215 225.959 286.819 225.959C286.537 225.959 286.288 226.019 286.072 226.139C285.856 226.259 285.688 226.436 285.568 226.67C285.448 226.904 285.388 227.195 285.388 227.543V230H284.524Z" fill="white" fill-opacity="0.7"/>
<defs>
<linearGradient id="paint0_linear_2_1020" x1="210" y1="73" x2="210" y2="45" gradientUnits="userSpaceOnUse">
<stop stop-color="#1D93D2"/>
<stop offset="1" stop-color="#38B0E3"/>
</linearGradient>
<clipPath id="clip0_2_1020">
<rect width="28" height="28" fill="white" transform="translate(196 45)"/>
</clipPath>
<clipPath id="clip1_2_1020">
<rect width="28" height="28" fill="white" transform="translate(196 116)"/>
</clipPath>
<clipPath id="clip2_2_1020">
<rect width="28" height="28" fill="white" transform="translate(196 187)"/>
</clipPath>
</defs>
</svg>
